<svg xmlns="http://www.w3.org/2000/svg" width="443.306" height="395.254" viewBox="0 0 443.306 395.254">
  <g id="Grupo_63815" data-name="Grupo 63815" transform="translate(-22.841 -50.679)">
    <ellipse id="Elipse_1954" data-name="Elipse 1954" cx="216.147" cy="13.993" rx="216.147" ry="13.993" transform="translate(33.853 417.947)" fill="#f9cea0"/>
    <g id="Grupo_63743" data-name="Grupo 63743">
      <g id="Grupo_63740" data-name="Grupo 63740">
        <path id="Trazado_141968" data-name="Trazado 141968" d="M153,393.314a13.029,13.029,0,0,1-19.317,7.77c-8.58-5.141-15.481-13.445-20.277-22.382-6.889-12.835-10.323-27.185-15.255-40.892s-11.849-27.4-23.621-35.981c-5.269-3.841-11.782-7.115-16.539-11.418a5.2,5.2,0,0,1,4.736-8.919c19.906,5.031,37.513,19.129,46.26,37.763,5.691,12.123,7.741,25.6,11.977,38.3s11.481,25.438,23.606,31.125c-10.508-10.065-15.969-25.464-18.781-39.74s-4.307-29.033-10.248-42.315c-5.42-12.116-14.247-22.331-22.919-32.38s-17.442-20.328-22.713-32.51-6.612-26.772-.365-38.484c1.126-2.111,2.575-4.205,5.745-4.106a7.724,7.724,0,0,1,6.462,4.311c2.283,4.344,1.423,9.341,1.669,14.116.683,13.228,9.871,24.457,19.857,33.157s21.37,16.118,29.139,26.846c9.836,13.582,12.731,30.844,15.088,47.448q3.749,26.414,6.611,52.943A44.452,44.452,0,0,1,153,393.314Z" fill="#94d3ca"/>
        <g id="Grupo_63739" data-name="Grupo 63739">
          <path id="Trazado_141969" data-name="Trazado 141969" d="M163.255,400.026a382.1,382.1,0,0,1-80.623-83.7,378.142,378.142,0,0,1-22.958-36.93c-.612-1.124-2.254,0-1.646,1.119a380.141,380.141,0,0,0,44.336,64.5,384.735,384.735,0,0,0,56.011,53.764q1.932,1.509,3.884,2.991A4.022,4.022,0,0,1,163.255,400.026Z" fill="#ba6006"/>
          <g id="Grupo_63720" data-name="Grupo 63720">
            <path id="Trazado_141970" data-name="Trazado 141970" d="M64.478,289.915S38.312,280.8,41.255,247.7C41.255,247.7,67.783,262.477,64.478,289.915Z" fill="#f4a548"/>
            <path id="Trazado_141971" data-name="Trazado 141971" d="M46.934,260.862q6.318,11.628,13.289,22.884,2,3.221,4.045,6.41a.5.5,0,0,0,.838-.537q-7.151-11.134-13.663-22.663-1.863-3.3-3.671-6.631C47.466,259.762,46.629,260.3,46.934,260.862Z" fill="#ba6006"/>
          </g>
          <g id="Grupo_63721" data-name="Grupo 63721">
            <path id="Trazado_141972" data-name="Trazado 141972" d="M70.084,298.665s24.831-12.293,17.8-44.777C87.881,253.888,63.4,271.851,70.084,298.665Z" fill="#f4a548"/>
            <path id="Trazado_141973" data-name="Trazado 141973" d="M80.019,270.264a100.109,100.109,0,0,0-8.806,21.413q-.893,3.174-1.571,6.4a.5.5,0,0,0,.972.214,99.011,99.011,0,0,1,7.331-21.809q1.386-2.931,2.961-5.767C81.216,270.157,80.33,269.7,80.019,270.264Z" fill="#ba6006"/>
          </g>
          <g id="Grupo_63722" data-name="Grupo 63722">
            <path id="Trazado_141974" data-name="Trazado 141974" d="M70.775,300.9S48.4,317.238,22.841,295.99C22.841,295.99,50.086,282.575,70.775,300.9Z" fill="#f4a548"/>
            <path id="Trazado_141975" data-name="Trazado 141975" d="M71.09,300.546a106.867,106.867,0,0,0-23.459-4.1q-3.4-.21-6.809-.2c-.643,0-.6,1,.04.995a105.735,105.735,0,0,1,23.527,2.6q3.27.739,6.488,1.686C71.492,301.7,71.7,300.726,71.09,300.546Z" fill="#ba6006"/>
          </g>
          <g id="Grupo_63723" data-name="Grupo 63723">
            <path id="Trazado_141976" data-name="Trazado 141976" d="M78.915,311.9s31.71-3.3,37.147-41.161C116.062,270.744,82.45,280.3,78.915,311.9Z" fill="#f4a548"/>
            <path id="Trazado_141977" data-name="Trazado 141977" d="M104.968,281.167a188.46,188.46,0,0,0-20.891,23.227q-2.676,3.525-5.183,7.174c-.357.52.377,1.194.74.666a188.548,188.548,0,0,1,19.773-24.186q3.077-3.182,6.3-6.216C106.174,281.394,105.433,280.729,104.968,281.167Z" fill="#ba6006"/>
          </g>
          <g id="Grupo_63724" data-name="Grupo 63724">
            <path id="Trazado_141978" data-name="Trazado 141978" d="M78.141,312.4s-12.123,29.488-49.974,24.015C28.167,336.415,46.826,306.869,78.141,312.4Z" fill="#f4a548"/>
            <path id="Trazado_141979" data-name="Trazado 141979" d="M78.083,312.152l-23.628,11.4L47.7,326.814c-.575.278-.034,1.113.537.838l23.628-11.4,6.751-3.258C79.2,312.712,78.654,311.876,78.083,312.152Z" fill="#ba6006"/>
          </g>
          <g id="Grupo_63725" data-name="Grupo 63725">
            <path id="Trazado_141980" data-name="Trazado 141980" d="M86.235,323.337S84.712,348.1,55.461,353.575C55.461,353.575,61.782,327.128,86.235,323.337Z" fill="#f4a548"/>
            <path id="Trazado_141981" data-name="Trazado 141981" d="M85.817,323a107.349,107.349,0,0,0-18.748,19.185c-.383.506.353,1.178.741.665a106.3,106.3,0,0,1,18.544-19.012C86.85,323.442,86.319,322.6,85.817,323Z" fill="#ba6006"/>
          </g>
          <g id="Grupo_63726" data-name="Grupo 63726">
            <path id="Trazado_141982" data-name="Trazado 141982" d="M86.825,322.959s24.157,5.648,37.8-20.8C124.623,302.158,97.475,300.623,86.825,322.959Z" fill="#f4a548"/>
            <path id="Trazado_141983" data-name="Trazado 141983" d="M112.493,307.077a66.3,66.3,0,0,0-25.514,15.24c-.461.443.28,1.107.74.665a65.134,65.134,0,0,1,25.069-14.954A.5.5,0,0,0,112.493,307.077Z" fill="#ba6006"/>
          </g>
          <g id="Grupo_63727" data-name="Grupo 63727">
            <path id="Trazado_141984" data-name="Trazado 141984" d="M95.427,335.261s1.167,21.573-23.588,29.245C71.839,364.506,74.654,340.993,95.427,335.261Z" fill="#f4a548"/>
            <path id="Trazado_141985" data-name="Trazado 141985" d="M94.9,335.455a138.109,138.109,0,0,0-17.94,21.624c-.356.531.533.98.886.453a136.827,136.827,0,0,1,17.795-21.411C96.1,335.673,95.355,335.008,94.9,335.455Z" fill="#ba6006"/>
          </g>
          <g id="Grupo_63728" data-name="Grupo 63728">
            <path id="Trazado_141986" data-name="Trazado 141986" d="M96.847,335.931s20.694,6.209,33.974-16.046C130.821,319.885,107.306,317.09,96.847,335.931Z" fill="#f4a548"/>
            <path id="Trazado_141987" data-name="Trazado 141987" d="M121.675,322.687a118.109,118.109,0,0,0-24.583,12.764c-.529.36,0,1.2.536.838a116.936,116.936,0,0,1,24.342-12.651C122.567,323.412,122.275,322.461,121.675,322.687Z" fill="#ba6006"/>
          </g>
          <g id="Grupo_63729" data-name="Grupo 63729">
            <path id="Trazado_141988" data-name="Trazado 141988" d="M103.824,346.331s4.2,18.84-16.488,29.24C87.336,375.571,86.361,354.436,103.824,346.331Z" fill="#f4a548"/>
            <path id="Trazado_141989" data-name="Trazado 141989" d="M103.86,346.534A115.818,115.818,0,0,0,91.2,367.645c-.268.58.616,1.036.886.453A114.6,114.6,0,0,1,104.6,347.2C104.983,346.692,104.247,346.021,103.86,346.534Z" fill="#ba6006"/>
          </g>
          <g id="Grupo_63730" data-name="Grupo 63730">
            <path id="Trazado_141990" data-name="Trazado 141990" d="M105.516,346.519s18,6.974,31.38-11.923C136.9,334.6,116.146,330.466,105.516,346.519Z" fill="#f4a548"/>
            <path id="Trazado_141991" data-name="Trazado 141991" d="M127.878,336.319a67.939,67.939,0,0,0-21.991,9.7c-.53.358,0,1.2.537.838a67.1,67.1,0,0,1,21.749-9.588C128.8,337.119,128.5,336.169,127.878,336.319Z" fill="#ba6006"/>
          </g>
          <g id="Grupo_63731" data-name="Grupo 63731">
            <path id="Trazado_141992" data-name="Trazado 141992" d="M112.8,355.462s6.325,16.464-10.977,28.64C101.825,384.1,98.106,365.132,112.8,355.462Z" fill="#f4a548"/>
            <path id="Trazado_141993" data-name="Trazado 141993" d="M112.836,355.417a99.4,99.4,0,0,0-8.967,21.444c-.177.617.8.827.972.213a98.278,98.278,0,0,1,8.882-21.2C114.038,355.312,113.151,354.859,112.836,355.417Z" fill="#ba6006"/>
          </g>
          <g id="Grupo_63732" data-name="Grupo 63732">
            <path id="Trazado_141994" data-name="Trazado 141994" d="M114.11,355.336s15.676,8.084,29.667-7.786C143.777,347.55,125.326,341.784,114.11,355.336Z" fill="#f4a548"/>
            <path id="Trazado_141995" data-name="Trazado 141995" d="M134.655,349.509a56.13,56.13,0,0,0-20.45,5.623c-.573.283-.032,1.119.537.838A54.854,54.854,0,0,1,134.7,350.5C135.333,350.454,135.294,349.459,134.655,349.509Z" fill="#ba6006"/>
          </g>
          <g id="Grupo_63733" data-name="Grupo 63733">
            <path id="Trazado_141996" data-name="Trazado 141996" d="M121.613,365.719s6.923,13.446-6.692,25.436C114.921,391.155,109.986,375.33,121.613,365.719Z" fill="#f4a548"/>
            <path id="Trazado_141997" data-name="Trazado 141997" d="M121.5,365.309a80.273,80.273,0,0,0-5.648,20.064c-.091.631.88.848.972.213a79.293,79.293,0,0,1,5.562-19.824C122.637,365.176,121.753,364.718,121.5,365.309Z" fill="#ba6006"/>
          </g>
          <g id="Grupo_63734" data-name="Grupo 63734">
            <path id="Trazado_141998" data-name="Trazado 141998" d="M122.753,364.989s13.176,7.425,25.67-5.729C148.423,359.26,132.8,353.732,122.753,364.989Z" fill="#f4a548"/>
            <path id="Trazado_141999" data-name="Trazado 141999" d="M141.089,360.12a132.715,132.715,0,0,0-18.064,4.367.5.5,0,0,0,.295.951,130.885,130.885,0,0,1,17.809-4.323C141.753,361.009,141.719,360.014,141.089,360.12Z" fill="#ba6006"/>
          </g>
          <g id="Grupo_63735" data-name="Grupo 63735">
            <path id="Trazado_142000" data-name="Trazado 142000" d="M131.261,375.336s5.9,10.525-4.623,20.465C126.638,395.8,122.26,383.323,131.261,375.336Z" fill="#f4a548"/>
            <path id="Trazado_142001" data-name="Trazado 142001" d="M131.327,375.283a60.67,60.67,0,0,0-4.2,16.044c-.075.631.9.85.972.213a59.771,59.771,0,0,1,4.115-15.8C132.457,375.148,131.573,374.69,131.327,375.283Z" fill="#ba6006"/>
          </g>
          <g id="Grupo_63736" data-name="Grupo 63736">
            <path id="Trazado_142002" data-name="Trazado 142002" d="M132.364,374.187s11.043,4.861,19.929-6.562C152.293,367.625,139.453,364.463,132.364,374.187Z" fill="#f4a548"/>
            <path id="Trazado_142003" data-name="Trazado 142003" d="M145.005,368.983a82.443,82.443,0,0,0-12.666,5.081c-.573.286-.032,1.122.536.838a80.942,80.942,0,0,1,12.425-4.968A.5.5,0,0,0,145.005,368.983Z" fill="#ba6006"/>
          </g>
          <g id="Grupo_63737" data-name="Grupo 63737">
            <path id="Trazado_142004" data-name="Trazado 142004" d="M140.386,381.623s9.116,3.273,15.591-6.374C155.977,375.249,145.517,373.438,140.386,381.623Z" fill="#f4a548"/>
            <path id="Trazado_142005" data-name="Trazado 142005" d="M150.957,376.606l-10.4,4.469c-.583.251-.293,1.2.295.95l10.4-4.468C151.835,377.306,151.545,376.353,150.957,376.606Z" fill="#ba6006"/>
          </g>
          <g id="Grupo_63738" data-name="Grupo 63738">
            <path id="Trazado_142006" data-name="Trazado 142006" d="M139.341,382.293s4.734,8.45-3.711,16.429C135.63,398.722,132.116,388.7,139.341,382.293Z" fill="#f4a548"/>
            <path id="Trazado_142007" data-name="Trazado 142007" d="M138.875,382.356a75.522,75.522,0,0,0-2.552,10.749c-.1.631.87.847.972.213a75.521,75.521,0,0,1,2.552-10.749C140.041,381.958,139.067,381.749,138.875,382.356Z" fill="#ba6006"/>
          </g>
        </g>
      </g>
      <g id="Grupo_63742" data-name="Grupo 63742">
        <path id="Trazado_142008" data-name="Trazado 142008" d="M415.712,312.4a3.185,3.185,0,0,0-2.289-2.435c-1.955-.436-3.521,1.357-4.781,2.86-12.109,14.446-33.308,17-48.675,27.921a52.652,52.652,0,0,0-21.709,38.73c-1.965-11.08,1.57-22.23,6.6-32.3s11.47-19.436,15.7-29.862c4.78-11.771,6.59-24.5,9.839-36.781s8.307-24.678,17.94-32.962c2.37-2.039,4.993-3.806,7.1-6.118l.063-.07a4.04,4.04,0,0,0-4.236-6.517c-20.715,6.578-37.847,24.061-43.456,45.131-2.135,8.018-2.723,16.428-5.412,24.278-3.494,10.195-10.315,18.856-15.442,28.334a92.4,92.4,0,0,0-7.482,18.333c.848-8.752,2.648-17.753,4.013-26.072a350.735,350.735,0,0,1,22.01-77.246,346.209,346.209,0,0,1,19.654-40.008c1.144-1.993,2.349-4.119,1.914-6.483a3.651,3.651,0,0,0-2.308-2.87c-1.757-.59-3.139.552-4.323,1.64-21.82,20.062-36.179,47.4-43.627,76.088s-8.295,58.762-5.926,88.309c.955,11.923,3.146,25.06,11.193,33.4,3.909,4.978,8.2,8.658,14.877,8.642a19.285,19.285,0,0,0,11.411-4c6.779-5.062,10.277-12.707,13.184-20.343,2.268-5.956,4.272-12.069,7.551-17.534,11.326-18.874,36-27.237,45.612-47.037A7.539,7.539,0,0,0,415.712,312.4Z" fill="#94d3ca"/>
        <g id="Grupo_63741" data-name="Grupo 63741">
          <path id="Trazado_142009" data-name="Trazado 142009" d="M320.262,386.848c.19,4.55.42,9.27,2.52,13.31s8.46,7.48,12.88,6.36c8.45-2.15,13.47-10.99,15.43-19.49,1.45-6.27,1.8-12.81,3.14-19.08.14-.67.29-1.35.46-2.01a40.6,40.6,0,0,1,1.42-4.55c2.9-7.61,8.21-13.71,14.03-19.5.68-.68,1.38-1.35,2.07-2.02,4.28-4.14,8.71-8.2,12.57-12.63a70.084,70.084,0,0,0,4.66-5.95c.54-.75,1.05-1.5,1.55-2.27a77.745,77.745,0,0,0,10.3-23.81c.25-.99.48-1.98.68-2.99a76.735,76.735,0,0,0,1.23-23.37c-.08-.77-.17-1.55-.28-2.32-.18-1.38-.4-2.76-.67-4.13-.5-2.59-1.37-5.47-3.71-6.69a4.742,4.742,0,0,0-1.21-.43,5.127,5.127,0,0,0-1.99-.02c-2.4.43-4.74,2.34-6.3,4.39a36.28,36.28,0,0,0-4.87,9.13c-.44,1.14-.84,2.3-1.22,3.47-2.48,7.7-4.01,15.93-8.23,22.68a25.453,25.453,0,0,1-1.54,2.24.608.608,0,0,1-.07.1c-3.77,4.91-9.04,8.33-14.11,11.96-.7.51-1.39,1.01-2.07,1.53a45.78,45.78,0,0,0-7.35,6.61c-5.06,5.88-7.47,13.07-8.91,20.75v.01c-.25,1.3-.47,2.63-.67,3.96v.01c-2.23,14.91-2.02,31.07-11.14,42.72,11.9-23.91-.8-54.48,10.53-78.68.65-1.39,1.37-2.73,2.15-4.04.42-.71.85-1.41,1.31-2.09,4.51-6.87,10.52-12.75,16.2-18.88.64-.67,1.26-1.35,1.86-2.03a95.6,95.6,0,0,0,6.39-7.73,65.319,65.319,0,0,0,6.25-10.48c.39-.81.76-1.63,1.11-2.45a69.672,69.672,0,0,0,5.64-25.91v-.01c.01-.8.01-1.58,0-2.36a66.122,66.122,0,0,0-1.62-13.81,5.7,5.7,0,0,0-1.49-3.16,2.806,2.806,0,0,0-1.17-.61,3.579,3.579,0,0,0-1.99.11,5.074,5.074,0,0,0-2.8,2.16c-1.21,2.01-1.26,4.48-1.55,6.81a34.442,34.442,0,0,1-3.7,11.55c-.4.8-.84,1.58-1.3,2.36-3.6,6.14-8.6,11.72-13.48,17.31-.59.66-1.17,1.33-1.74,1.99-1.54,1.79-3.05,3.59-4.48,5.41a96.471,96.471,0,0,0-7.71,11.46q-.81,1.38-1.56,2.79c-7.69,14.28-12.13,30.35-14.32,46.49C318.432,342.8,319.342,364.888,320.262,386.848Z" fill="#6da69f"/>
          <path id="Trazado_142010" data-name="Trazado 142010" d="M327.182,314.788a110.274,110.274,0,0,1,3.67-12.79,1.025,1.025,0,0,1,.48-1.37,94.413,94.413,0,0,1,6.34-13.83q-.975-6.135-1.96-12.27.75-1.41,1.56-2.79.99,6.18,1.97,12.36,1.44-2.37,3.04-4.65a102.194,102.194,0,0,1,9.08-10.84,1,1,0,0,1-.14-.41q-.885-6.66-1.76-13.33c.57-.66,1.15-1.33,1.74-1.99q.9,6.975,1.83,13.95c4.82-5.1,9.7-10.14,13.56-16.01.52-.78,1-1.58,1.47-2.38v-.01a.953.953,0,0,1-.21-.44,100.463,100.463,0,0,0-3.17-12.42c.46-.78.9-1.56,1.3-2.36a99.785,99.785,0,0,1,3.46,12.59,48.569,48.569,0,0,0,4.41-16,107.411,107.411,0,0,0,.18-17.11,3.579,3.579,0,0,1,1.99-.11,97.732,97.732,0,0,1-.65,20.74c1.64-1.06,3.29-2.11,4.93-3.16.01.78.01,1.56,0,2.36v.01c-1.806,1.148-3.6,2.3-5.409,3.453v.007h-.01a45.424,45.424,0,0,1-3.6,10.66,61.724,61.724,0,0,1-9.68,13.79,35.53,35.53,0,0,0,13.06-2c-.35.82-.72,1.64-1.11,2.45a37.254,37.254,0,0,1-13.66,1.44c-3.92,4.28-8.06,8.37-11.76,12.77-.91,1.09-1.79,2.19-2.63,3.32a83.626,83.626,0,0,0,15.41.68c-.6.68-1.22,1.36-1.86,2.03a85.236,85.236,0,0,1-14.87-.91,88.047,88.047,0,0,0-10.67,20.29c3.12-.07,6.23-.23,9.34-.5-.46.68-.89,1.38-1.31,2.09q-4.38.345-8.77.42c-5.32,15.1-7.14,31.57-6.87,47.5a303.045,303.045,0,0,0,2.96,34.8c.7,5.2,1.47,10.39,2.23,15.58v.01c5.83-8.23,7.91-18.24,9.51-28.04,1.22-7.46,2.21-15.08,4.42-22.33v-.01A29.722,29.722,0,0,1,340,342.1v-.01c.2-1.33.42-2.66.67-3.96a27.371,27.371,0,0,0,5.07,9.69,51.555,51.555,0,0,1,2.28-5.64c.39-.82.8-1.62,1.24-2.4a.866.866,0,0,1,.59-1.02,58.324,58.324,0,0,1,7.9-10.2,90.667,90.667,0,0,1-.82-17.8c.68-.52,1.37-1.02,2.07-1.53a87.711,87.711,0,0,0,.5,17.52c2.98-3.01,6.14-5.88,9.21-8.77,2.57-2.41,5.12-4.88,7.47-7.53q-1.5-6.63-3-13.28a25.453,25.453,0,0,0,1.54-2.24q1.53,6.81,3.07,13.63c.72-.86,1.41-1.74,2.06-2.64.93-1.28,1.81-2.6,2.62-3.96a.856.856,0,0,1,.67-1.16h.02a67.531,67.531,0,0,0,4.61-9.77c.41-1.08.8-2.17,1.16-3.27a74.133,74.133,0,0,1-5.98-15.51c.38-1.17.78-2.33,1.22-3.47a71.486,71.486,0,0,0,5.62,16.26c2.91-9.67,4.31-19.77,5.55-29.78a5.127,5.127,0,0,1,1.99.02c-.72,5.856-1.489,11.732-2.578,17.529q4.168-3.015,8.168-6.279c.11.77.2,1.55.28,2.32q-4.365,3.51-8.94,6.76a.251.251,0,0,1-.07.04,111.78,111.78,0,0,1-2.89,11.25,76.083,76.083,0,0,1-5.54,13.32,43.132,43.132,0,0,0,16.21-8c-.2,1.01-.43,2-.68,2.99a44.83,44.83,0,0,1-16.86,7.35,66.037,66.037,0,0,1-10.03,12.68c-1.51,1.53-3.08,3.02-4.66,4.49a78.779,78.779,0,0,0,21.25-.71c-.5.77-1.01,1.52-1.55,2.27a80.6,80.6,0,0,1-21.61.22c-5.79,5.35-11.63,10.71-15.79,17.45a146.225,146.225,0,0,0,20.17.91c-.69.67-1.39,1.34-2.07,2.02a144.867,144.867,0,0,1-19.19-1.07c-4.33,7.87-5.99,16.84-7.41,25.66q5.58-.135,11.15-.54c-.17.66-.32,1.34-.46,2.01q-5.49.4-11,.53c-.05.34-.11.68-.16,1.02-1.81,11.39-3.76,23.31-10.88,32.76a1.091,1.091,0,0,1-1.49.23.866.866,0,0,1-1.38-.56C325.062,373.168,320.722,343.568,327.182,314.788Z" fill="#48877c"/>
        </g>
      </g>
    </g>
    <g id="Grupo_63755" data-name="Grupo 63755">
      <g id="Grupo_63751" data-name="Grupo 63751">
        <g id="Grupo_63745" data-name="Grupo 63745">
          <g id="Grupo_63744" data-name="Grupo 63744">
            <path id="Trazado_142011" data-name="Trazado 142011" d="M152.365,117.424a21.036,21.036,0,0,0-21.037,21.037V407.1H337.7V138.461h21.037V117.424Z" fill="#fff"/>
            <path id="Trazado_142012" data-name="Trazado 142012" d="M358.734,117.424A21.036,21.036,0,0,0,337.7,138.461v51.147H379.77V138.461A21.036,21.036,0,0,0,358.734,117.424Z" fill="#f6d198"/>
          </g>
          <path id="Trazado_142013" data-name="Trazado 142013" d="M325.589,402.1H143.03v-1a5.561,5.561,0,0,0-5.55-5.56h-1V143.187h1a5.557,5.557,0,0,0,5.55-5.55v-1H325.589v1a5.557,5.557,0,0,0,5.55,5.55h1v252.35h-1a5.561,5.561,0,0,0-5.55,5.56Zm-180.625-2H323.655a7.57,7.57,0,0,1,6.484-6.493V145.121a7.565,7.565,0,0,1-6.483-6.484H144.963a7.565,7.565,0,0,1-6.483,6.484V393.6A7.57,7.57,0,0,1,144.964,400.1Z" fill="#f6d198"/>
        </g>
        <g id="Grupo_63746" data-name="Grupo 63746">
          <rect id="Rectángulo_19199" data-name="Rectángulo 19199" width="109.477" height="3.221" transform="translate(210.839 181.965)" fill="#f6d198"/>
          <rect id="Rectángulo_19200" data-name="Rectángulo 19200" width="109.477" height="3.221" transform="translate(210.839 189.608)" fill="#f6d198"/>
          <rect id="Rectángulo_19201" data-name="Rectángulo 19201" width="109.477" height="3.221" transform="translate(210.839 197.252)" fill="#f6d198"/>
          <rect id="Rectángulo_19202" data-name="Rectángulo 19202" width="54.739" height="3.221" transform="translate(210.839 210.312)" fill="#f6d198"/>
          <rect id="Rectángulo_19203" data-name="Rectángulo 19203" width="54.739" height="3.221" transform="translate(210.839 217.955)" fill="#f6d198"/>
          <rect id="Rectángulo_19204" data-name="Rectángulo 19204" width="54.739" height="3.221" transform="translate(210.839 225.598)" fill="#f6d198"/>
          <rect id="Rectángulo_19205" data-name="Rectángulo 19205" width="127.502" height="3.221" transform="translate(192.813 242.183)" fill="#f6d198"/>
          <rect id="Rectángulo_19206" data-name="Rectángulo 19206" width="139.058" height="3.221" transform="translate(181.258 251.355)" fill="#f6d198"/>
          <rect id="Rectángulo_19207" data-name="Rectángulo 19207" width="139.058" height="3.221" transform="translate(181.258 260.527)" fill="#f6d198"/>
          <rect id="Rectángulo_19208" data-name="Rectángulo 19208" width="139.058" height="3.221" transform="translate(181.258 269.699)" fill="#f6d198"/>
          <rect id="Rectángulo_19209" data-name="Rectángulo 19209" width="139.058" height="3.221" transform="translate(181.258 278.871)" fill="#f6d198"/>
          <rect id="Rectángulo_19210" data-name="Rectángulo 19210" width="139.058" height="3.221" transform="translate(181.258 288.043)" fill="#f6d198"/>
          <rect id="Rectángulo_19211" data-name="Rectángulo 19211" width="127.502" height="3.221" transform="translate(192.813 297.215)" fill="#f6d198"/>
          <rect id="Rectángulo_19212" data-name="Rectángulo 19212" width="139.058" height="3.221" transform="translate(181.258 306.387)" fill="#f6d198"/>
          <rect id="Rectángulo_19213" data-name="Rectángulo 19213" width="139.058" height="3.221" transform="translate(181.258 315.559)" fill="#f6d198"/>
          <rect id="Rectángulo_19214" data-name="Rectángulo 19214" width="139.058" height="3.221" transform="translate(181.258 324.731)" fill="#f6d198"/>
          <rect id="Rectángulo_19215" data-name="Rectángulo 19215" width="139.058" height="3.221" transform="translate(181.258 333.903)" fill="#f6d198"/>
          <rect id="Rectángulo_19216" data-name="Rectángulo 19216" width="59.923" height="3.221" transform="translate(192.813 343.075)" fill="#f6d198"/>
          <rect id="Rectángulo_19217" data-name="Rectángulo 19217" width="71.479" height="3.221" transform="translate(181.258 352.247)" fill="#f6d198"/>
          <rect id="Rectángulo_19218" data-name="Rectángulo 19218" width="71.479" height="3.221" transform="translate(181.258 361.419)" fill="#f6d198"/>
          <rect id="Rectángulo_19219" data-name="Rectángulo 19219" width="71.479" height="3.221" transform="translate(181.258 370.591)" fill="#f6d198"/>
          <rect id="Rectángulo_19220" data-name="Rectángulo 19220" width="71.479" height="3.221" transform="translate(181.258 379.763)" fill="#f6d198"/>
          <rect id="Rectángulo_19221" data-name="Rectángulo 19221" width="71.479" height="3.221" transform="translate(181.258 388.935)" fill="#f6d198"/>
        </g>
        <g id="Grupo_63750" data-name="Grupo 63750">
          <g id="Grupo_63747" data-name="Grupo 63747">
            <circle id="Elipse_1955" data-name="Elipse 1955" cx="13.597" cy="13.597" r="13.597" transform="translate(137.724 257.713) rotate(-45)" fill="#f4a548"/>
            <path id="Trazado_142014" data-name="Trazado 142014" d="M163.855,250.774l-9.31,9.341-4.5-4.5-2.272,2.272,4.5,4.489,2.272,2.272,2.265-2.272,9.317-9.334Z" fill="#862a5c"/>
          </g>
          <g id="Grupo_63748" data-name="Grupo 63748">
            <circle id="Elipse_1956" data-name="Elipse 1956" cx="13.597" cy="13.597" r="13.597" transform="translate(137.724 305.107) rotate(-45)" fill="#f4a548"/>
            <path id="Trazado_142015" data-name="Trazado 142015" d="M163.855,298.168l-9.31,9.341-4.5-4.5-2.272,2.272,4.5,4.489,2.272,2.272,2.265-2.272,9.317-9.334Z" fill="#862a5c"/>
          </g>
          <g id="Grupo_63749" data-name="Grupo 63749">
            <circle id="Elipse_1957" data-name="Elipse 1957" cx="13.597" cy="13.597" r="13.597" transform="translate(143.356 338.903)" fill="#f4a548"/>
            <path id="Trazado_142016" data-name="Trazado 142016" d="M163.855,345.561l-9.31,9.341-4.5-4.5-2.272,2.272,4.5,4.489,2.272,2.272,2.265-2.272,9.317-9.334Z" fill="#862a5c"/>
          </g>
        </g>
        <path id="Trazado_142017" data-name="Trazado 142017" d="M310.092,354.766,285.159,379.78,273.12,367.741l-6.084,6.084,12.039,12.021,6.084,6.084,6.066-6.084,24.951-25Z" fill="#6da69f"/>
      </g>
      <g id="Grupo_63754" data-name="Grupo 63754">
        <g id="Grupo_63752" data-name="Grupo 63752">
          <path id="Trazado_142018" data-name="Trazado 142018" d="M147.2,224.7l-4.61-13.869-13.644,5.239,23.649-50.023,18.254,8.63Z" fill="#4f1337"/>
          <path id="Trazado_142019" data-name="Trazado 142019" d="M176.979,224.7l4.61-13.869,13.644,5.239-23.649-50.023-18.254,8.63Z" fill="#4f1337"/>
        </g>
        <g id="Grupo_63753" data-name="Grupo 63753">
          <path id="Trazado_142020" data-name="Trazado 142020" d="M192.2,180.569l-7.756,3.894-5.3,6.874-8.678.143-7.756,3.894-7.88-3.636-8.678.143-5.522-6.7-7.88-3.637-2.07-8.428-5.522-6.7,1.792-8.492-2.07-8.428,5.3-6.873,1.792-8.492,7.756-3.894,5.3-6.873,8.678-.143,7.756-3.894,7.88,3.637,8.678-.143,5.522,6.7,7.88,3.637,2.07,8.428,5.522,6.7-1.792,8.492,2.07,8.428-5.3,6.873Z" fill="#862a5c"/>
          <circle id="Elipse_1958" data-name="Elipse 1958" cx="30.726" cy="30.726" r="30.726" transform="translate(131.361 126.627)" fill="#f4a548"/>
          <path id="Trazado_142021" data-name="Trazado 142021" d="M162.086,182.465A25.111,25.111,0,1,1,187.2,157.353,25.14,25.14,0,0,1,162.086,182.465Zm0-49.223A24.111,24.111,0,1,0,186.2,157.353,24.139,24.139,0,0,0,162.086,133.242Z" fill="#ba6006"/>
        </g>
      </g>
    </g>
    <g id="Grupo_63762" data-name="Grupo 63762">
      <g id="Grupo_63757" data-name="Grupo 63757">
        <circle id="Elipse_1959" data-name="Elipse 1959" cx="25.081" cy="25.081" r="25.081" transform="translate(62.19 145.905)" fill="#f6d198"/>
        <g id="Grupo_63756" data-name="Grupo 63756">
          <path id="Trazado_142022" data-name="Trazado 142022" d="M81.938,164.706S80.58,151.229,84.7,153.853c3.49,2.223,4.352,10.177,4.352,10.177s14.884-2.442,14.884,3.664-4.213,13.338-5.772,14.9-16.822-2.378-16.822-2.378l-2.764.167V164.858Z" fill="#9e6c52"/>
          <rect id="Rectángulo_19222" data-name="Rectángulo 19222" width="6.081" height="18.4" transform="translate(72.498 163.467)" fill="#6da69f"/>
        </g>
      </g>
      <g id="Grupo_63759" data-name="Grupo 63759">
        <circle id="Elipse_1960" data-name="Elipse 1960" cx="28.009" cy="28.009" r="28.009" transform="translate(385.27 103.214)" fill="#f6d198"/>
        <g id="Grupo_63758" data-name="Grupo 63758">
          <path id="Trazado_142023" data-name="Trazado 142023" d="M419.235,124.209s1.515-15.05-3.086-12.12c-3.9,2.483-4.86,11.365-4.86,11.365s-16.621-2.727-16.621,4.092,4.7,14.894,6.445,16.635,18.785-2.656,18.785-2.656l3.087.186V124.379Z" fill="#9e6c52"/>
          <rect id="Rectángulo_19223" data-name="Rectángulo 19223" width="6.791" height="20.548" transform="translate(429.776 143.374) rotate(180)" fill="#6da69f"/>
        </g>
      </g>
      <g id="Grupo_63761" data-name="Grupo 63761">
        <g id="Grupo_63760" data-name="Grupo 63760">
          <circle id="Elipse_1961" data-name="Elipse 1961" cx="28.009" cy="28.009" r="28.009" transform="translate(217.022 50.679)" fill="#f6d198"/>
        </g>
        <path id="Trazado_142024" data-name="Trazado 142024" d="M259.294,78.8l3.581-1.27-.688-3.9-3.809.031a14.223,14.223,0,0,0-2.335-4.063l1.925-3.271-3.034-2.546-2.894,2.47a14.168,14.168,0,0,0-4.4-1.6l-.629-3.752h-3.961l-.63,3.754a14.171,14.171,0,0,0-4.4,1.6l-2.9-2.47-3.034,2.546,1.927,3.274a14.253,14.253,0,0,0-2.332,4.063l-3.81-.031-.688,3.9,3.585,1.271a14.228,14.228,0,0,0,.82,4.611l-2.938,2.424,1.98,3.43L234.2,87.94a14.357,14.357,0,0,0,3.589,3.007l-.692,3.744,3.722,1.355,1.877-3.315a13.3,13.3,0,0,0,4.68,0l1.877,3.314,3.722-1.355-.693-3.745a14.325,14.325,0,0,0,3.589-3.008l3.563,1.33,1.98-3.43-2.936-2.423A14.246,14.246,0,0,0,259.294,78.8Zm-20.488-.129a6.221,6.221,0,1,1,6.226,6.216A6.229,6.229,0,0,1,238.806,78.67Z" fill="#862a5c"/>
      </g>
    </g>
    <g id="Grupo_63811" data-name="Grupo 63811">
      <g id="Grupo_63806" data-name="Grupo 63806">
        <g id="Grupo_63767" data-name="Grupo 63767">
          <g id="Grupo_63766" data-name="Grupo 63766">
            <g id="Grupo_63765" data-name="Grupo 63765">
              <path id="Trazado_142025" data-name="Trazado 142025" d="M406.327,422.3c-6.581,4.835-18.943,3.514-18.838,9.5,14.5,1.541,21.795-1.947,21.795-1.947l.034,1.924,5.058-.64a21.5,21.5,0,0,0-.6-8.834Z" fill="#ba6006"/>
              <g id="Grupo_63764" data-name="Grupo 63764">
                <g id="Grupo_63763" data-name="Grupo 63763">
                  <path id="Trazado_142026" data-name="Trazado 142026" d="M421.347,311.016c-4.291,15-9.118,36.212-13.168,52.293l4.617,48.532.988,10.451s-4,3.532-7.727.193c0,0-1.109-3.773-2.688-9.547-3.906-14.442-10.681-41.432-10.03-53.378.9-16.732,8.752-68.507,8.752-68.507l22.784,3.8Z" fill="#4f1337"/>
                </g>
              </g>
            </g>
          </g>
        </g>
        <g id="Grupo_63772" data-name="Grupo 63772">
          <g id="Grupo_63771" data-name="Grupo 63771">
            <g id="Grupo_63770" data-name="Grupo 63770">
              <path id="Trazado_142027" data-name="Trazado 142027" d="M441.963,421.4c-6.478,4.972-18.865,3.911-18.634,9.891,14.527,1.235,21.749-2.4,21.749-2.4l.074,1.922,5.044-.746s.614-5.6-.825-9.52Z" fill="#ba6006"/>
              <g id="Grupo_63769" data-name="Grupo 63769">
                <g id="Grupo_63768" data-name="Grupo 63768">
                  <path id="Trazado_142028" data-name="Trazado 142028" d="M442.728,330.067c-2.125,11-4.363,22.566-5.684,32.526l10.147,47.683,2.18,10.27s-3.571,3.967-7.654,1.077c0,0-1.534-3.621-3.765-9.177-5.534-13.9-15.357-39.935-16.079-51.877-1.019-16.725.844-69.058.844-69.058l21.594-.841h0A131.335,131.335,0,0,1,442.728,330.067Z" fill="#4f1337"/>
                </g>
              </g>
            </g>
          </g>
        </g>
        <g id="Grupo_63805" data-name="Grupo 63805">
          <g id="Grupo_63796" data-name="Grupo 63796">
            <g id="Grupo_63788" data-name="Grupo 63788">
              <g id="Grupo_63777" data-name="Grupo 63777">
                <g id="Grupo_63776" data-name="Grupo 63776">
                  <g id="Grupo_63775" data-name="Grupo 63775">
                    <g id="Grupo_63774" data-name="Grupo 63774">
                      <g id="Grupo_63773" data-name="Grupo 63773">
                        <path id="Trazado_142029" data-name="Trazado 142029" d="M398.994,222.111s-24.045,15.718-43.175,77.225l7.257,2.144s14.342-38.541,35.43-60.062Z" fill="#9e6c52"/>
                      </g>
                    </g>
                  </g>
                </g>
                <path id="Trazado_142030" data-name="Trazado 142030" d="M397.085,223.081s-22.707,12.991-38.818,66.036l9.111,4.045s11.262-29.268,29.707-49.141Z" fill="#f4a548"/>
              </g>
              <g id="Grupo_63787" data-name="Grupo 63787">
                <path id="Trazado_142031" data-name="Trazado 142031" d="M408.3,218.918l-9.65,4.159s-2.67,25.8,2.03,76.511c31.934,3.743,42.06-4.467,42.06-4.467-4.122-13.011-10.554-71.545-14.483-74.767-3.161-.947-10.18-2.335-10.18-2.335Z" fill="#fff"/>
                <g id="Grupo_63786" data-name="Grupo 63786">
                  <g id="Grupo_63781" data-name="Grupo 63781">
                    <g id="Grupo_63779" data-name="Grupo 63779">
                      <g id="Grupo_63778" data-name="Grupo 63778">
                        <path id="Trazado_142032" data-name="Trazado 142032" d="M445.6,296.771c-4.929,3.15-11.88,4.84-17.59,5.29-.389-7.01-2.009-21.56-3.839-36.62-2.81-23.12-6.091-47.42-6.091-47.42s8.3.99,11.33,2.67S439.976,275.751,445.6,296.771Z" fill="#f4a548"/>
                      </g>
                      <path id="Trazado_142033" data-name="Trazado 142033" d="M428.755,242.371l-4.589,23.07c-2.81-23.12-6.091-47.42-6.091-47.42l9.991,9.91-6.421,9.98Z" fill="#ba6006"/>
                    </g>
                    <g id="Grupo_63780" data-name="Grupo 63780">
                      <path id="Trazado_142034" data-name="Trazado 142034" d="M435.9,297.228a5.275,5.275,0,0,1-3.628-1.338,6.138,6.138,0,0,1-1.4-2.951l-.069-.258c-.365-1.343-.639-2.727-.9-4.066l-.09-.456a.251.251,0,0,1,.226-.3,38.483,38.483,0,0,0,9.184-1.881.252.252,0,0,1,.318.161,23.473,23.473,0,0,1,1.185,5.168,5.578,5.578,0,0,1-1.1,4.443,5,5,0,0,1-3.547,1.474Zm-5.542-8.892.036.182c.263,1.329.535,2.706.895,4.032l.071.26a5.653,5.653,0,0,0,1.26,2.72,4.843,4.843,0,0,0,3.44,1.2,4.5,4.5,0,0,0,3.194-1.312,5.068,5.068,0,0,0,.974-4.065,22.182,22.182,0,0,0-1.087-4.814A38.932,38.932,0,0,1,430.358,288.336Z" fill="#ba6006"/>
                      <path id="Trazado_142035" data-name="Trazado 142035" d="M433.918,289.682a6.485,6.485,0,0,1-3.892-1.3.251.251,0,1,1,.3-.4,5.878,5.878,0,0,0,8.615-1.683.25.25,0,1,1,.429.255,6.463,6.463,0,0,1-4.264,3.008A6.177,6.177,0,0,1,433.918,289.682Z" fill="#ba6006"/>
                    </g>
                  </g>
                  <g id="Grupo_63785" data-name="Grupo 63785">
                    <g id="Grupo_63783" data-name="Grupo 63783">
                      <g id="Grupo_63782" data-name="Grupo 63782">
                        <path id="Trazado_142036" data-name="Trazado 142036" d="M415.486,304.121a38.947,38.947,0,0,1-19.041-2.11c-.5-7.02-1.569-77.57.64-78.93s11.221-4.16,11.221-4.16c.63,9.88,2.36,30.41,3.969,48.84C413.945,287.091,415.486,304.121,415.486,304.121Z" fill="#f4a548"/>
                      </g>
                      <path id="Trazado_142037" data-name="Trazado 142037" d="M412.275,267.761v.18l-10.87-23.7,6.151-4.5-7.351-8.53,8.1-12.29C408.936,228.8,410.666,249.331,412.275,267.761Z" fill="#ba6006"/>
                    </g>
                    <g id="Grupo_63784" data-name="Grupo 63784">
                      <path id="Trazado_142038" data-name="Trazado 142038" d="M404.6,299.178a4.75,4.75,0,0,1-2.9-.909,5.576,5.576,0,0,1-1.845-4.19,23.451,23.451,0,0,1,.286-5.293.252.252,0,0,1,.286-.213,38.341,38.341,0,0,0,9.372.287.251.251,0,0,1,.273.255l-.011.42c-.033,1.379-.067,2.8-.2,4.2l-.025.265a6.124,6.124,0,0,1-.872,3.147,5.244,5.244,0,0,1-3.519,1.964A5.959,5.959,0,0,1,404.6,299.178Zm-4-10.073a22.092,22.092,0,0,0-.25,4.929A5.138,5.138,0,0,0,402,297.873a4.516,4.516,0,0,0,3.371.749,4.807,4.807,0,0,0,3.187-1.765,5.664,5.664,0,0,0,.778-2.9l.025-.267c.13-1.383.164-2.8.2-4.17l0-.14A38.849,38.849,0,0,1,400.6,289.105Z" fill="#ba6006"/>
                      <path id="Trazado_142039" data-name="Trazado 142039" d="M405.223,291.407h-.131a6.481,6.481,0,0,1-4.715-2.237.251.251,0,0,1,.029-.353.248.248,0,0,1,.352.029,5.881,5.881,0,0,0,8.777.189.25.25,0,1,1,.365.342A6.485,6.485,0,0,1,405.223,291.407Z" fill="#ba6006"/>
                    </g>
                  </g>
                </g>
              </g>
            </g>
            <g id="Grupo_63795" data-name="Grupo 63795">
              <path id="Trazado_142040" data-name="Trazado 142040" d="M423.638,194.42a45.47,45.47,0,0,1-4.592,11.753c-.733,1.3-1.645,2.865-3.288,3.048-1.784.2-2.967-1.23-3.92-2.509-4.373-5.859-12.5-7.063-16.958-12.89a10.8,10.8,0,0,1-1.538-2.752,5.1,5.1,0,0,1-1.843-4.5,12.5,12.5,0,0,1,5.832-9.221,3.535,3.535,0,0,1,1.833-.663,1.464,1.464,0,0,1,1.47,1.074,6.188,6.188,0,0,1,4.169-2.33,2.634,2.634,0,0,1,1.586.051,1.011,1.011,0,0,1,.557,1.32,11.452,11.452,0,0,1,4.868-1.5,2.717,2.717,0,0,1,1.64.386,1.352,1.352,0,0,1,.575,1.486,6.8,6.8,0,0,1,7.06,1.576,10.272,10.272,0,0,1,2.394,5.089A24.3,24.3,0,0,1,423.638,194.42Z" fill="#1b1b28"/>
              <g id="Grupo_63793" data-name="Grupo 63793">
                <path id="Trazado_142041" data-name="Trazado 142041" d="M416.242,184.251c-5.157-7.685-20.43-3.5-21.046,3.048-1.266,13.461,1.119,18.72,5.084,21.508,4.589,3.226,7.324,2.51,8.023,10.111,1.23,6.092,8.208,3.881,9.777-.9a46.02,46.02,0,0,1,1.705-18S418.369,187.42,416.242,184.251Z" fill="#9e6c52"/>
                <g id="Grupo_63792" data-name="Grupo 63792">
                  <g id="Grupo_63789" data-name="Grupo 63789">
                    <path id="Trazado_142042" data-name="Trazado 142042" d="M407.9,197.6a1,1,0,1,1-1.087-.9A1,1,0,0,1,407.9,197.6Z"/>
                    <path id="Trazado_142043" data-name="Trazado 142043" d="M406.884,197.417a.366.366,0,1,1-.4-.331A.366.366,0,0,1,406.884,197.417Z" fill="#fff"/>
                  </g>
                  <g id="Grupo_63790" data-name="Grupo 63790">
                    <path id="Trazado_142044" data-name="Trazado 142044" d="M400.2,198.3a1,1,0,1,1-1.087-.9A1,1,0,0,1,400.2,198.3Z"/>
                    <path id="Trazado_142045" data-name="Trazado 142045" d="M399.184,198.125a.366.366,0,1,1-.4-.331A.366.366,0,0,1,399.184,198.125Z" fill="#fff"/>
                  </g>
                  <path id="Trazado_142046" data-name="Trazado 142046" d="M400.513,194.346a3.271,3.271,0,0,0-4.035.572.656.656,0,0,0-.016.831.477.477,0,0,0,.727.039,2.345,2.345,0,0,1,1.65-.719,2.392,2.392,0,0,1,.907.162c.259.1.519.292.783.107a.527.527,0,0,0,.153-.177A.656.656,0,0,0,400.513,194.346Z" fill="#1b1b28"/>
                  <path id="Trazado_142047" data-name="Trazado 142047" d="M404.394,193.99a4.183,4.183,0,0,1,4.665-.229.589.589,0,1,1-.632.994,2.941,2.941,0,0,0-2-.374,3.179,3.179,0,0,0-.993.332c-.273.146-.532.383-.863.253a.557.557,0,0,1-.208-.144A.592.592,0,0,1,404.394,193.99Z" fill="#1b1b28"/>
                  <path id="Trazado_142048" data-name="Trazado 142048" d="M401.69,200.891a.131.131,0,0,1-.133-.082c-.325-.826-.063-1.141.214-1.26a1.258,1.258,0,0,1,1.052.131.131.131,0,0,1,.059.175.134.134,0,0,1-.176.059,1.015,1.015,0,0,0-.832-.125c-.248.106-.273.417-.074.925a.131.131,0,0,1-.074.169A.156.156,0,0,1,401.69,200.891Z" fill="#84533d"/>
                  <g id="Grupo_63791" data-name="Grupo 63791">
                    <path id="Trazado_142049" data-name="Trazado 142049" d="M406.174,201.7c-.5-.579-1.491.231-2.771.506s-2.519-.054-2.733.678c-.27.925,1.278,2.75,3.374,2.3S406.8,202.431,406.174,201.7Z" fill="#8e4136"/>
                    <path id="Trazado_142050" data-name="Trazado 142050" d="M406.29,203.108a10.347,10.347,0,0,0-1.3.192,6.428,6.428,0,0,0-3.2,1.467,2.951,2.951,0,0,0,2.251.415A2.981,2.981,0,0,0,406.29,203.108Z" fill="#c16b5b"/>
                    <path id="Trazado_142051" data-name="Trazado 142051" d="M403.558,202.923c1.142-.246,2.055-.725,2.277-1.418-.55-.1-1.4.477-2.432.7s-2.042.05-2.5.362A2.87,2.87,0,0,0,403.558,202.923Z" fill="#fff"/>
                  </g>
                </g>
              </g>
              <path id="Trazado_142052" data-name="Trazado 142052" d="M418.859,196.908l2.035-1.87s-.876-5.014-1.431-9.043-3.234-6.255-8.969-6.779-12.279.849-14.268,4.156c-3.11,5.169-1.682,7.965-1.682,7.965a8.378,8.378,0,0,0,3.006-.08,10.771,10.771,0,0,0,2.582-1.591c-.252.213-.15.655.083.889a1.363,1.363,0,0,0,.912.323,4.6,4.6,0,0,0,2.529-.7,10.6,10.6,0,0,0,2.05-1.686c-.2.334.1.82.421,1.03a1.787,1.787,0,0,0,1.125.2c2.042-.17,3.79-1.485,5.337-2.828a11.158,11.158,0,0,0,.022,2.368,3.907,3.907,0,0,0,.907,2.2,2.974,2.974,0,0,0,3.13.775,9.339,9.339,0,0,0,.126,3.434,2.326,2.326,0,0,0,.531,1.183A1.516,1.516,0,0,0,418.859,196.908Z" fill="#1b1b28"/>
              <g id="Grupo_63794" data-name="Grupo 63794">
                <path id="Trazado_142053" data-name="Trazado 142053" d="M423.217,199.991c-1.185,1.71-3.245,2.333-4.6,1.392s-1.5-3.088-.312-4.8,3.246-2.333,4.6-1.392S424.4,198.282,423.217,199.991Z" fill="#9e6c52"/>
                <path id="Trazado_142054" data-name="Trazado 142054" d="M422.109,196.049a2.305,2.305,0,0,0-2.014.225,1.887,1.887,0,0,0-.717.671,1.148,1.148,0,0,0-.068,1.067,1.635,1.635,0,0,0,.615.6,1.551,1.551,0,0,1,.406.34.587.587,0,0,1-.675.9.261.261,0,1,0-.175.492,1.071,1.071,0,0,0,.462.056,1.1,1.1,0,0,0,.813-1.746,2,2,0,0,0-.54-.471,1.206,1.206,0,0,1-.437-.4.63.63,0,0,1,.052-.574,1.046,1.046,0,0,1,.178-.218,1.069,1.069,0,0,1,.769.187.939.939,0,0,1,.3.741.26.26,0,0,0,.241.279.206.206,0,0,0,.043,0,.26.26,0,0,0,.236-.241,1.445,1.445,0,0,0-.465-1.165,1.191,1.191,0,0,0-.414-.23,1.641,1.641,0,0,1,1.192-.028,1.011,1.011,0,0,1,.617,1.176.261.261,0,1,0,.492.175A1.529,1.529,0,0,0,422.109,196.049Z" fill="#84533d"/>
              </g>
            </g>
          </g>
          <g id="Grupo_63804" data-name="Grupo 63804">
            <g id="Grupo_63801" data-name="Grupo 63801">
              <g id="Grupo_63800" data-name="Grupo 63800">
                <g id="Grupo_63799" data-name="Grupo 63799">
                  <g id="Grupo_63798" data-name="Grupo 63798">
                    <g id="Grupo_63797" data-name="Grupo 63797">
                      <path id="Trazado_142055" data-name="Trazado 142055" d="M429.407,220.692c-1.78,4.559-2.017,9.732.134,16.124,6.3,2.058,14.815,5.137,20.993,10.44,0,0-17.345,4.707-29.384,4.456l-1.024,6.5s39.353,2.294,42.208-8.5S429.407,220.692,429.407,220.692Z" fill="#9e6c52"/>
                    </g>
                  </g>
                </g>
              </g>
            </g>
            <g id="Grupo_63803" data-name="Grupo 63803">
              <path id="Trazado_142056" data-name="Trazado 142056" d="M429.4,220.691s33.17,16.005,33.858,28.19-36.148,10.076-36.148,10.076l.821-8.417s12.283-.939,21.111-3.576c0,0-6.994-5.847-22.472-10.089Z" fill="#f4a548"/>
              <g id="Grupo_63802" data-name="Grupo 63802">
                <path id="Trazado_142057" data-name="Trazado 142057" d="M428.5,251.345a.25.25,0,0,1-.032-.5,53.147,53.147,0,0,0,6.873-1.322.246.246,0,0,1,.306.178.25.25,0,0,1-.179.3,53.462,53.462,0,0,1-6.937,1.335Z" fill="#ba6006"/>
                <path id="Trazado_142058" data-name="Trazado 142058" d="M436.951,259.067h-.007l-9.086-.241a.25.25,0,0,1,.007-.5h.007l9.085.241a.25.25,0,0,1-.006.5Z" fill="#ba6006"/>
              </g>
            </g>
          </g>
        </g>
      </g>
      <g id="Grupo_63810" data-name="Grupo 63810">
        <g id="Grupo_63807" data-name="Grupo 63807">
          <rect id="Rectángulo_19224" data-name="Rectángulo 19224" width="178.597" height="14.465" transform="matrix(0.628, -0.778, 0.778, 0.628, 333.668, 338.659)" fill="#4f1337"/>
          <rect id="Rectángulo_19225" data-name="Rectángulo 19225" width="178.597" height="5.391" transform="matrix(0.628, -0.778, 0.778, 0.628, 337.2, 341.507)" fill="#862a5c"/>
        </g>
        <g id="Grupo_63808" data-name="Grupo 63808">
          <path id="Trazado_142059" data-name="Trazado 142059" d="M333.667,338.661l11.263,9.084L327.358,360.23l-4.21,2.99,2.031-4.748Z" fill="#f6d198"/>
          <path id="Trazado_142060" data-name="Trazado 142060" d="M326.394,359.2a4.945,4.945,0,0,1,.964,1.035l-4.21,2.99,2.03-4.748A4.97,4.97,0,0,1,326.394,359.2Z" fill="#4f1337"/>
        </g>
        <g id="Grupo_63809" data-name="Grupo 63809">
          <rect id="Rectángulo_19226" data-name="Rectángulo 19226" width="2.11" height="14.465" transform="translate(445.792 199.644) rotate(-51.111)" fill="#f4a548"/>
          <path id="Trazado_142061" data-name="Trazado 142061" d="M463.683,200.5l-5.307,6.579L447.117,198l5.306-6.579a7.233,7.233,0,0,1,10.171-1.089h0A7.233,7.233,0,0,1,463.683,200.5Z" fill="#862a5c"/>
        </g>
      </g>
      <path id="Trazado_142062" data-name="Trazado 142062" d="M409.248,262.117a.848.848,0,0,0,1.13-.314q1.185-1.719,2.2-3.544a10.443,10.443,0,0,0,4.725,1.22,5.178,5.178,0,0,0,4.345-1.939.705.705,0,0,0,.252-.279,5.951,5.951,0,0,0,.165-4.49A13.981,13.981,0,0,0,420,249.148c-.171-.236-.339-.475-.491-.724-.075-.123-.146-.248-.212-.376-.027-.053-.053-.107-.078-.16-.006-.014-.016-.038-.024-.06-.051-.144-.089-.289-.131-.436l-.011-.037,0-.025c0-.069-.01-.137-.011-.207s.006-.116.005-.174c0-.029,0-.04,0-.036l.016-.135a1.406,1.406,0,0,0-.033-.536,1.137,1.137,0,0,0-1.1-.828,1.52,1.52,0,0,0-1.045.5,3.1,3.1,0,0,0-.7,2.025,5.093,5.093,0,0,0,.8,2.662l-.734-.1a70.683,70.683,0,0,0-10.872-.8.831.831,0,0,0-.19,1.635l4.154.761c.449.082.9.164,1.346.251l-5.947,2.2c-.393.145-.663.334-.6.763.059.41.54.585.956.586a20.67,20.67,0,0,0,5.275-.878c-1.161,1.044-2.557,2.454-3.768,3.44a.818.818,0,0,0-.064,1.088c.271.352.734.178,1.116.01a31.845,31.845,0,0,0,3.292-2.325c-.573.989-1.364,2.814-2.013,3.757A.84.84,0,0,0,409.248,262.117Z" fill="#9e6c52"/>
      <path id="Trazado_142063" data-name="Trazado 142063" d="M362.857,298.619a.388.388,0,0,0-.586-.152.429.429,0,0,0-.118-.077c-1.721-.694-3.779-1.328-5.374.007a9.614,9.614,0,0,0-2.6,4.491,12.842,12.842,0,0,0,1.167,10.184.407.407,0,0,0,.39.206,3.559,3.559,0,0,0,1.288,1.675.386.386,0,0,0,.533-.082,1.928,1.928,0,0,0,.291.32,1.305,1.305,0,0,0,1.338.239,1.039,1.039,0,0,0,1.171.009c.786-.514.618-1.485.507-2.277a15.159,15.159,0,0,1-.1-3.129,15.392,15.392,0,0,1,1.088-4.692c.022.262.043.522.064.784a18.554,18.554,0,0,0,.209,2.382.973.973,0,0,0,1.238.832c.592-.232.655-1.046.749-1.575A15.126,15.126,0,0,0,362.857,298.619Z" fill="#9e6c52"/>
    </g>
    <g id="Grupo_63813" data-name="Grupo 63813">
      <path id="Trazado_142064" data-name="Trazado 142064" d="M288.55,434.6H150.769c1.69-3.11,3.31-6.43,6.4-7.93q.27-.135.539-.24c.141-.05.281-.11.42-.15a10.358,10.358,0,0,1,3.311-.55,9.077,9.077,0,0,1,1.04.06,8.145,8.145,0,0,1,5.69,2.94,21.613,21.613,0,0,1,4.11-9.05c.22-.29.45-.57.69-.85a22.3,22.3,0,0,1,2.44-2.44,17.439,17.439,0,0,1,6.09-3.41c.31-.11.629-.2.949-.28a15.062,15.062,0,0,1,6.841-.24,13.406,13.406,0,0,1,4.729,1.98c.281.18.55.37.81.57a12.444,12.444,0,0,1,4.69,7.18,24.589,24.589,0,0,1,7.24-14.74c.231-.24.471-.47.711-.7a25.607,25.607,0,0,1,4.58-3.35,18.049,18.049,0,0,1,6.44-2.31c.329-.04.659-.08,1-.09a11.328,11.328,0,0,1,3.38.28,12.174,12.174,0,0,1,5.82,3.41,9.528,9.528,0,0,1,.689.74,17.662,17.662,0,0,1,2.69,4.17c1.81,3.89,2.411,8.2,2.981,12.44a4.261,4.261,0,0,1,3.9-2.9h.01a4.29,4.29,0,0,1,.8-.01,1.358,1.358,0,0,1,.2.02A4.415,4.415,0,0,1,243.69,423a10.376,10.376,0,0,1,2.139-3.35,8.284,8.284,0,0,1,.761-.7,8.079,8.079,0,0,1,2.77-1.53,5.043,5.043,0,0,1,1.74-.21,5.77,5.77,0,0,1,1,.15,4.311,4.311,0,0,1,3.5,3.57,15.284,15.284,0,0,1,6.51-7.36c.279-.18.57-.34.86-.5a17.647,17.647,0,0,1,6.64-2.09,14.75,14.75,0,0,1,3.87.15,7.338,7.338,0,0,1,1.02.19,17.85,17.85,0,0,1,10.069,6.28c.091.11.181.23.26.34.231.31.461.63.671.96A23.026,23.026,0,0,1,288.55,434.6Z" fill="#6da69f"/>
      <g id="Grupo_63812" data-name="Grupo 63812">
        <path id="Trazado_142065" data-name="Trazado 142065" d="M150.61,434.914a2.823,2.823,0,0,0,.159-.31h-.159Z" fill="#48877c"/>
        <path id="Trazado_142066" data-name="Trazado 142066" d="M238.959,419.144h-.01q-1.544,7.665-2.419,15.46h.989c.591-5.18,1.4-10.34,2.44-15.45a1.358,1.358,0,0,0-.2-.02A4.29,4.29,0,0,0,238.959,419.144Z" fill="#48877c"/>
        <path id="Trazado_142067" data-name="Trazado 142067" d="M249.009,423.744q-1.125-2.43-2.419-4.79a8.284,8.284,0,0,0-.761.7c.971,1.76,1.87,3.57,2.69,5.4a.507.507,0,0,0,.071.12q-1.35,4.68-2.43,9.43h1.02a165.586,165.586,0,0,1,4.92-17.24,5.77,5.77,0,0,0-1-.15Q249.99,420.454,249.009,423.744Z" fill="#48877c"/>
        <path id="Trazado_142068" data-name="Trazado 142068" d="M194.019,414.444l-6.63,10.93q-2.474-6.345-4.94-12.67c-.32.08-.639.17-.949.28q1.709,4.41,3.43,8.81-5.985-1.485-11.96-2.96c-.24.28-.47.56-.69.85q6.523,1.62,13.039,3.23c.021,0,.031.01.051.01q2.264,5.835,4.55,11.68h1.06q-1.575-4.035-3.14-8.05l6.989-11.54C194.569,414.814,194.3,414.624,194.019,414.444Z" fill="#48877c"/>
        <path id="Trazado_142069" data-name="Trazado 142069" d="M162.48,425.794a9.077,9.077,0,0,0-1.04-.06l-1.19,3.28c-.71-.91-1.421-1.82-2.121-2.73-.139.04-.279.1-.42.15q-.269.105-.539.24,3.09,3.96,6.17,7.93h1.26q-1.816-2.325-3.63-4.66C161.47,428.564,161.97,427.184,162.48,425.794Z" fill="#48877c"/>
        <path id="Trazado_142070" data-name="Trazado 142070" d="M219.319,410.754c.01-.78.031-1.55.041-2.33.05-2.47.08-4.95.13-7.42-.341.01-.671.05-1,.09q-.137,7.515-.26,15.02-5.25-4.845-10.76-9.36c-.24.23-.48.46-.711.7,3.921,3.2,7.741,6.54,11.45,9.98q-.1,5.7-.2,11.4c-.039,1.93-.069,3.85-.11,5.77h1c.141-7.55.261-15.1.4-22.65,3.36-2.17,6.73-4.35,10.079-6.52a9.528,9.528,0,0,0-.689-.74C225.56,406.714,222.449,408.734,219.319,410.754Z" fill="#48877c"/>
        <path id="Trazado_142071" data-name="Trazado 142071" d="M284.829,417.944l-13.989.75c.32-.7.65-1.39.979-2.08.861-1.78,1.75-3.54,2.681-5.29a7.338,7.338,0,0,0-1.02-.19q-3.137,5.97-5.79,12.16-2.37-5.115-4.72-10.22c-.29.16-.581.32-.86.5q2.535,5.475,5.06,10.95-1.605,3.81-3.021,7.69c-.289.8-.57,1.59-.839,2.39h1.05c1.769-5.05,3.769-10.03,6-14.89l15.14-.81C285.29,418.574,285.06,418.254,284.829,417.944Z" fill="#48877c"/>
      </g>
    </g>
    <g id="Grupo_63814" data-name="Grupo 63814">
      <path id="Trazado_142072" data-name="Trazado 142072" d="M153.329,72.7a34.507,34.507,0,0,0-7.418-1.746c-1.746-.231-3.491-.37-5.237-.436-.065-1.745-.205-3.491-.435-5.237a34.626,34.626,0,0,0-1.746-7.418,34.567,34.567,0,0,0-1.746,7.418c-.231,1.745-.37,3.489-.435,5.234-1.746.063-3.492.2-5.237.433a34.182,34.182,0,0,0-7.419,1.752,34.178,34.178,0,0,0,7.419,1.751c1.744.231,3.488.37,5.233.433.063,1.745.2,3.489.433,5.234a34.174,34.174,0,0,0,1.752,7.418,34.172,34.172,0,0,0,1.752-7.418c.23-1.746.369-3.492.433-5.237,1.744-.066,3.489-.2,5.233-.436A34.563,34.563,0,0,0,153.329,72.7Z" fill="#f4a548"/>
      <path id="Trazado_142073" data-name="Trazado 142073" d="M334.271,84.4a34.577,34.577,0,0,0-7.418-1.745c-1.746-.231-3.492-.371-5.237-.436-.066-1.746-.2-3.491-.436-5.237a34.567,34.567,0,0,0-1.746-7.418,34.564,34.564,0,0,0-1.745,7.418c-.231,1.744-.37,3.489-.436,5.233-1.745.064-3.491.2-5.237.433A34.173,34.173,0,0,0,304.6,84.4a34.173,34.173,0,0,0,7.418,1.752c1.745.23,3.489.37,5.234.433.063,1.745.2,3.489.433,5.234a34.183,34.183,0,0,0,1.751,7.418,34.186,34.186,0,0,0,1.752-7.418c.231-1.746.37-3.492.433-5.238,1.745-.065,3.489-.2,5.234-.435A34.58,34.58,0,0,0,334.271,84.4Z" fill="#f4a548"/>
      <path id="Trazado_142074" data-name="Trazado 142074" d="M96.912,388.935a34.567,34.567,0,0,0-7.418-1.746c-1.746-.231-3.491-.37-5.237-.435-.065-1.746-.205-3.492-.435-5.238a34.64,34.64,0,0,0-1.746-7.418,34.581,34.581,0,0,0-1.746,7.418c-.231,1.745-.37,3.489-.435,5.234-1.746.063-3.492.2-5.237.433a34.18,34.18,0,0,0-7.419,1.752,34.121,34.121,0,0,0,7.419,1.751c1.744.231,3.488.37,5.233.434.063,1.744.2,3.489.433,5.233a34.16,34.16,0,0,0,1.752,7.418,34.159,34.159,0,0,0,1.752-7.418c.23-1.746.369-3.491.433-5.237,1.744-.066,3.489-.2,5.233-.435A34.627,34.627,0,0,0,96.912,388.935Z" fill="#f4a548"/>
      <path id="Trazado_142075" data-name="Trazado 142075" d="M127.728,96.046a17.315,17.315,0,0,0-3.722-.876c-.876-.116-1.753-.186-2.629-.219-.032-.876-.1-1.752-.218-2.628a17.382,17.382,0,0,0-.876-3.723,17.324,17.324,0,0,0-.876,3.723c-.116.875-.186,1.751-.219,2.626-.876.032-1.752.1-2.628.218a17.1,17.1,0,0,0-3.723.879,17.1,17.1,0,0,0,3.723.879c.875.116,1.751.186,2.626.217.032.876.1,1.751.218,2.627a17.1,17.1,0,0,0,.879,3.723,17.214,17.214,0,0,0,.879-3.723c.115-.876.185-1.752.217-2.629.876-.032,1.751-.1,2.627-.218A17.373,17.373,0,0,0,127.728,96.046Z" fill="#f4a548"/>
      <path id="Trazado_142076" data-name="Trazado 142076" d="M439.853,170.986a17.448,17.448,0,0,0-3.722-.876c-.877-.115-1.753-.185-2.629-.218-.033-.876-.1-1.752-.218-2.628a17.382,17.382,0,0,0-.876-3.723,17.322,17.322,0,0,0-.876,3.723c-.116.875-.186,1.751-.219,2.626-.876.032-1.752.1-2.628.217a17.215,17.215,0,0,0-3.723.879,17.159,17.159,0,0,0,3.723.88c.875.115,1.751.185,2.626.217.032.875.1,1.751.218,2.626a17.1,17.1,0,0,0,.879,3.723,17.213,17.213,0,0,0,.879-3.723c.115-.876.185-1.752.217-2.628.876-.033,1.751-.1,2.627-.218A17.391,17.391,0,0,0,439.853,170.986Z" fill="#f4a548"/>
      <path id="Trazado_142077" data-name="Trazado 142077" d="M416.272,87.535a17.323,17.323,0,0,0-3.723-.876c-.876-.116-1.752-.186-2.628-.219-.033-.876-.1-1.752-.218-2.628a17.386,17.386,0,0,0-.877-3.723,17.443,17.443,0,0,0-.876,3.723c-.115.876-.185,1.751-.218,2.627-.876.031-1.752.1-2.628.217a17.1,17.1,0,0,0-3.723.879,17.1,17.1,0,0,0,3.723.879c.875.116,1.75.186,2.626.218.032.875.1,1.75.217,2.626a17.215,17.215,0,0,0,.879,3.723,17.159,17.159,0,0,0,.88-3.723c.115-.876.185-1.752.217-2.628.875-.033,1.751-.1,2.626-.219A17.323,17.323,0,0,0,416.272,87.535Z" fill="#f4a548"/>
      <path id="Trazado_142078" data-name="Trazado 142078" d="M74.685,364.708a17.443,17.443,0,0,0-3.723-.876c-.876-.115-1.752-.185-2.628-.218-.033-.876-.1-1.752-.219-2.628a17.323,17.323,0,0,0-.876-3.723,17.383,17.383,0,0,0-.876,3.723c-.116.875-.185,1.75-.218,2.626-.876.032-1.753.1-2.629.217a17.193,17.193,0,0,0-3.722.879,17.076,17.076,0,0,0,3.722.879c.876.116,1.751.186,2.627.218.032.875.1,1.751.217,2.626a17.214,17.214,0,0,0,.879,3.723,17.1,17.1,0,0,0,.879-3.723c.116-.876.186-1.752.218-2.628.875-.033,1.751-.1,2.626-.218A17.386,17.386,0,0,0,74.685,364.708Z" fill="#f4a548"/>
      <path id="Trazado_142079" data-name="Trazado 142079" d="M190.43,92.486a23.208,23.208,0,0,0-4.97-1.17c-1.17-.154-2.34-.248-3.509-.292-.044-1.169-.137-2.339-.292-3.508a23.144,23.144,0,0,0-1.17-4.971,23.2,23.2,0,0,0-1.169,4.971c-.155,1.168-.248,2.337-.292,3.506-1.17.042-2.339.136-3.509.29a22.9,22.9,0,0,0-4.97,1.174,22.9,22.9,0,0,0,4.97,1.174c1.169.154,2.338.247,3.506.29.043,1.169.136,2.337.291,3.506a22.918,22.918,0,0,0,1.173,4.971,22.863,22.863,0,0,0,1.174-4.971c.154-1.169.248-2.339.29-3.509,1.169-.044,2.338-.137,3.507-.291A23.209,23.209,0,0,0,190.43,92.486Z" fill="#f4a548"/>
      <path id="Trazado_142080" data-name="Trazado 142080" d="M359.68,95.563a23.121,23.121,0,0,0-4.97-1.17c-1.17-.154-2.339-.248-3.509-.292-.044-1.169-.137-2.339-.292-3.509a23.2,23.2,0,0,0-1.169-4.97,23.149,23.149,0,0,0-1.17,4.97c-.154,1.169-.248,2.338-.292,3.507-1.169.042-2.339.136-3.509.29a22.867,22.867,0,0,0-4.97,1.174,22.923,22.923,0,0,0,4.97,1.173c1.169.155,2.338.248,3.507.291.042,1.168.136,2.337.29,3.506a22.84,22.84,0,0,0,1.174,4.97,22.894,22.894,0,0,0,1.173-4.97c.155-1.17.248-2.339.291-3.509,1.168-.044,2.337-.137,3.506-.292A23.118,23.118,0,0,0,359.68,95.563Z" fill="#f4a548"/>
      <path id="Trazado_142081" data-name="Trazado 142081" d="M387.347,388.935a23.133,23.133,0,0,0-4.97-1.17c-1.17-.154-2.339-.248-3.509-.292-.044-1.169-.137-2.339-.292-3.509a23.15,23.15,0,0,0-1.17-4.97,23.205,23.205,0,0,0-1.169,4.97c-.155,1.169-.248,2.338-.292,3.507-1.169.042-2.339.136-3.509.29a22.854,22.854,0,0,0-4.97,1.174,22.909,22.909,0,0,0,4.97,1.173c1.169.155,2.338.248,3.507.291.042,1.168.135,2.337.29,3.506a22.9,22.9,0,0,0,1.173,4.97,22.839,22.839,0,0,0,1.174-4.97c.155-1.17.248-2.339.29-3.509,1.169-.044,2.338-.137,3.507-.292A23.192,23.192,0,0,0,387.347,388.935Z" fill="#f4a548"/>
    </g>
  </g>
</svg>
