<svg xmlns="http://www.w3.org/2000/svg" width="122" height="153" viewBox="0 0 122 153">
  <g id="Grupo_63841" data-name="Grupo 63841" transform="translate(-523 -4774.5)">
    <line id="Línea_612" data-name="Línea 612" y2="153" transform="translate(643.5 4774.5)" fill="none" stroke="#707070" stroke-width="3" stroke-dasharray="5" opacity="0.5"/>
    <g id="Grupo_63228" data-name="Grupo 63228" transform="translate(-1228.935 3082.447)">
      <g id="Grupo_63202" data-name="Grupo 63202" transform="translate(1784.241 1767.591)">
        <path id="Trazado_140773" data-name="Trazado 140773" d="M1916.735,1976.9l30.871,49.837h21.928l-30.871-49.837Z" transform="translate(-1916.735 -1976.903)" fill="#33a683"/>
      </g>
      <g id="Grupo_63203" data-name="Grupo 63203" transform="translate(1751.935 1784.836)">
        <path id="Trazado_140774" data-name="Trazado 140774" d="M1751.935,2064.869l32.307,32.593h21.928l-32.307-32.593Z" transform="translate(-1751.935 -2064.869)" fill="#33a683"/>
      </g>
      <g id="Grupo_63204" data-name="Grupo 63204" transform="translate(1751.935 1784.836)">
        <rect id="Rectángulo_19100" data-name="Rectángulo 19100" width="21.928" height="32.593" transform="translate(0)" fill="#4cbf9c"/>
      </g>
      <g id="Grupo_63205" data-name="Grupo 63205" transform="translate(1784.241 1767.591)">
        <rect id="Rectángulo_19101" data-name="Rectángulo 19101" width="21.928" height="49.837" transform="translate(0 0)" fill="#4cbf9c"/>
      </g>
      <g id="Grupo_63206" data-name="Grupo 63206" transform="translate(1815.113 1739.852)">
        <rect id="Rectángulo_19102" data-name="Rectángulo 19102" width="21.928" height="77.577" transform="translate(0 0)" fill="#4cbf9c"/>
      </g>
      <g id="Grupo_63207" data-name="Grupo 63207" transform="translate(1815.113 1769.941)">
        <path id="Trazado_140775" data-name="Trazado 140775" d="M2096.14,1988.976q-1.044-.084-2.109-.085a25.943,25.943,0,0,0-19.819,9.172v33.662a26.115,26.115,0,0,0,5.169,4.654h16.759Z" transform="translate(-2074.212 -1988.89)" fill="#33a683"/>
      </g>
      <g id="Grupo_63226" data-name="Grupo 63226" transform="translate(1808.929 1773.311)">
        <g id="Grupo_63222" data-name="Grupo 63222" transform="translate(0)">
          <g id="Grupo_63208" data-name="Grupo 63208">
            <circle id="Elipse_1904" data-name="Elipse 1904" cx="26.003" cy="26.003" r="26.003" fill="#ffce33"/>
          </g>
          <g id="Grupo_63209" data-name="Grupo 63209" transform="translate(5.958 5.958)">
            <circle id="Elipse_1905" data-name="Elipse 1905" cx="20.045" cy="20.045" r="20.045" fill="#ffc001"/>
          </g>
          <g id="Grupo_63210" data-name="Grupo 63210" transform="translate(7.013 7.128)">
            <circle id="Elipse_1906" data-name="Elipse 1906" cx="20.045" cy="20.045" r="20.045" fill="#fd3"/>
          </g>
          <g id="Grupo_63211" data-name="Grupo 63211" transform="translate(5.958 5.958)">
            <circle id="Elipse_1907" data-name="Elipse 1907" cx="20.045" cy="20.045" r="20.045" fill="#ffb103"/>
          </g>
          <g id="Grupo_63212" data-name="Grupo 63212" transform="translate(2.24 2.24)">
            <circle id="Elipse_1908" data-name="Elipse 1908" cx="16.803" cy="16.803" r="16.803" transform="translate(0 23.763) rotate(-45)" fill="#ffb103"/>
          </g>
          <g id="Grupo_63213" data-name="Grupo 63213" transform="translate(5.958 5.958)">
            <path id="Trazado_140776" data-name="Trazado 140776" d="M2075.17,2058.177a20.046,20.046,0,0,1,31.338-16.562,20.045,20.045,0,1,0-24.7,31.466A19.992,19.992,0,0,1,2075.17,2058.177Z" transform="translate(-2073.06 -2036.474)" fill="#eba303"/>
          </g>
          <g id="Grupo_63216" data-name="Grupo 63216" transform="translate(8.214 9.85)" opacity="0.2">
            <g id="Grupo_63214" data-name="Grupo 63214">
              <path id="Trazado_140777" data-name="Trazado 140777" d="M2087.083,2081.713l29.379-20.128a17.9,17.9,0,0,0-6.606-5.259l-25.287,17.325A17.728,17.728,0,0,0,2087.083,2081.713Z" transform="translate(-2084.57 -2056.326)" fill="#ffec7d"/>
            </g>
            <g id="Grupo_63215" data-name="Grupo 63215" transform="translate(4.139 7.593)">
              <path id="Trazado_140778" data-name="Trazado 140778" d="M2134.975,2095.061l-29.29,20.067a17.932,17.932,0,0,0,3.729,3.35l27.337-18.729A17.718,17.718,0,0,0,2134.975,2095.061Z" transform="translate(-2105.685 -2095.061)" fill="#ffec7d"/>
            </g>
          </g>
          <g id="Grupo_63218" data-name="Grupo 63218" transform="translate(19.916 12.628)">
            <g id="Grupo_63217" data-name="Grupo 63217">
              <path id="Trazado_140779" data-name="Trazado 140779" d="M2155.39,2084.337a5.614,5.614,0,0,1,2.035,1.386,4.208,4.208,0,0,1,1.074,2.421,4.765,4.765,0,0,1-1.309,4.047,8.459,8.459,0,0,1-4.6,2.353l.026,3.3a1.086,1.086,0,0,1-.379.842,1.657,1.657,0,0,1-.908.4,1.185,1.185,0,0,1-.849-.175.837.837,0,0,1-.35-.747l0-3.371a7.077,7.077,0,0,1-4.036-1.091,3.907,3.907,0,0,1-1.8-2.8,2.525,2.525,0,0,1,.363-1.868,1.914,1.914,0,0,1,1.343-.816,1.543,1.543,0,0,1,1.287.3,3.032,3.032,0,0,1,.754,1.385,2.256,2.256,0,0,0,.747,1.2,2.561,2.561,0,0,0,1.369.546l.014-5.058a17.574,17.574,0,0,1-2.764-.9,5.588,5.588,0,0,1-2.015-1.49,4.771,4.771,0,0,1-1.061-2.575,4.944,4.944,0,0,1,1.337-4.219,8.166,8.166,0,0,1,4.481-2.338l-.035-3.366a.95.95,0,0,1,.332-.819,1.589,1.589,0,0,1,.86-.382,1.312,1.312,0,0,1,.882.171.765.765,0,0,1,.379.709l-.018,3.474a6.3,6.3,0,0,1,3.538,1.021,3.7,3.7,0,0,1,1.594,2.657,2.219,2.219,0,0,1-.362,1.749,2.039,2.039,0,0,1-1.37.735,1.592,1.592,0,0,1-1.2-.282,1.656,1.656,0,0,1-.632-1.1,1.921,1.921,0,0,0-1.564-1.65l-.028,5.464A22.629,22.629,0,0,1,2155.39,2084.337Zm-6.656-2.316a4.929,4.929,0,0,0,1.453.8l-.034-4.647a2.972,2.972,0,0,0-1.636,1.023,2.2,2.2,0,0,0-.406,1.671A1.758,1.758,0,0,0,2148.734,2082.021Zm5.523,8.481a1.8,1.8,0,0,0,.446-1.49,1.632,1.632,0,0,0-.632-1.1,4.754,4.754,0,0,0-1.53-.744l.019,4.278A3.438,3.438,0,0,0,2154.256,2090.5Z" transform="translate(-2144.264 -2070.497)" fill="#eba303"/>
            </g>
          </g>
          <g id="Grupo_63221" data-name="Grupo 63221" transform="translate(18.861 12.255)">
            <g id="Grupo_63220" data-name="Grupo 63220">
              <g id="Grupo_63219" data-name="Grupo 63219">
                <path id="Trazado_140780" data-name="Trazado 140780" d="M2150.008,2082.437a5.613,5.613,0,0,1,2.035,1.386,4.2,4.2,0,0,1,1.075,2.421,4.764,4.764,0,0,1-1.309,4.047,8.46,8.46,0,0,1-4.6,2.353l.026,3.3a1.085,1.085,0,0,1-.379.842,1.656,1.656,0,0,1-.908.405,1.182,1.182,0,0,1-.849-.176.836.836,0,0,1-.35-.746l0-3.37a7.077,7.077,0,0,1-4.036-1.091,3.908,3.908,0,0,1-1.8-2.8,2.524,2.524,0,0,1,.363-1.867,1.915,1.915,0,0,1,1.343-.816,1.542,1.542,0,0,1,1.287.3,3.03,3.03,0,0,1,.754,1.385,2.258,2.258,0,0,0,.747,1.2,2.561,2.561,0,0,0,1.369.546l.014-5.058a17.572,17.572,0,0,1-2.764-.9,5.593,5.593,0,0,1-2.015-1.49,4.774,4.774,0,0,1-1.061-2.575,4.944,4.944,0,0,1,1.337-4.219,8.166,8.166,0,0,1,4.481-2.338l-.035-3.366a.949.949,0,0,1,.331-.818,1.591,1.591,0,0,1,.86-.382,1.315,1.315,0,0,1,.882.171.767.767,0,0,1,.379.709l-.018,3.474a6.3,6.3,0,0,1,3.537,1.021,3.7,3.7,0,0,1,1.594,2.657,2.218,2.218,0,0,1-.362,1.749,2.036,2.036,0,0,1-1.37.735,1.591,1.591,0,0,1-1.2-.281,1.657,1.657,0,0,1-.632-1.1,1.92,1.92,0,0,0-1.563-1.65l-.028,5.464A22.567,22.567,0,0,1,2150.008,2082.437Zm-6.656-2.316a4.927,4.927,0,0,0,1.453.8l-.034-4.647a2.97,2.97,0,0,0-1.636,1.022,2.2,2.2,0,0,0-.405,1.671A1.759,1.759,0,0,0,2143.352,2080.12Zm5.523,8.481a1.8,1.8,0,0,0,.446-1.491,1.633,1.633,0,0,0-.632-1.1,4.761,4.761,0,0,0-1.53-.744l.019,4.278A3.442,3.442,0,0,0,2148.875,2088.6Z" transform="translate(-2138.882 -2068.596)" fill="#fd3"/>
              </g>
            </g>
          </g>
        </g>
        <g id="Grupo_63223" data-name="Grupo 63223" transform="translate(31.234 3.042)">
          <path id="Trazado_140781" data-name="Trazado 140781" d="M2209.981,2025.437c-2.236-.668-2.98-1.412-3.648-3.648a.262.262,0,0,0-.5,0c-.668,2.236-1.412,2.98-3.648,3.648a.262.262,0,0,0,0,.5c2.236.668,2.98,1.412,3.648,3.648a.262.262,0,0,0,.5,0c.668-2.236,1.412-2.98,3.648-3.648A.262.262,0,0,0,2209.981,2025.437Z" transform="translate(-2201.996 -2021.602)" fill="#fff"/>
        </g>
        <g id="Grupo_63224" data-name="Grupo 63224" transform="translate(8.268 35.863)">
          <path id="Trazado_140782" data-name="Trazado 140782" d="M2092.827,2192.859c-2.236-.668-2.98-1.412-3.648-3.648a.262.262,0,0,0-.5,0c-.668,2.236-1.412,2.98-3.648,3.648a.262.262,0,0,0,0,.5c2.236.668,2.98,1.412,3.648,3.648a.262.262,0,0,0,.5,0c.668-2.236,1.412-2.98,3.648-3.648A.262.262,0,0,0,2092.827,2192.859Z" transform="translate(-2084.842 -2189.024)" fill="#fff"/>
        </g>
        <g id="Grupo_63225" data-name="Grupo 63225" transform="translate(37.657 11.473)">
          <path id="Trazado_140783" data-name="Trazado 140783" d="M2238.842,2066.569a2.257,2.257,0,0,1-1.864-1.864.134.134,0,0,0-.256,0,2.257,2.257,0,0,1-1.864,1.864.134.134,0,0,0,0,.256,2.257,2.257,0,0,1,1.864,1.864.134.134,0,0,0,.256,0,2.257,2.257,0,0,1,1.864-1.864A.134.134,0,0,0,2238.842,2066.569Z" transform="translate(-2234.762 -2064.609)" fill="#fff"/>
        </g>
      </g>
      <g id="Grupo_63227" data-name="Grupo 63227" transform="translate(1804.828 1716.553)">
        <path id="Trazado_140784" data-name="Trazado 140784" d="M2021.752,1741.638l42.519-.585-21.6-24.5Z" transform="translate(-2021.752 -1716.553)" fill="#4cbf9c"/>
      </g>
    </g>
  </g>
</svg>
