<svg xmlns="http://www.w3.org/2000/svg" width="127" height="153" viewBox="0 0 127 153">
  <g id="Grupo_63843" data-name="Grupo 63843" transform="translate(-518 -5160.5)">
    <line id="Línea_614" data-name="Línea 614" y2="153" transform="translate(643.5 5160.5)" fill="none" stroke="#707070" stroke-width="3" stroke-dasharray="5" opacity="0.5"/>
    <g id="Grupo_63275" data-name="Grupo 63275" transform="translate(-1197.539 4942.142)">
      <g id="Grupo_63272" data-name="Grupo 63272" transform="translate(1715.539 257.895)">
        <g id="Grupo_63254" data-name="Grupo 63254" transform="translate(0 0)">
          <path id="Trazado_140796" data-name="Trazado 140796" d="M1757.574,291.4c-.379-.568-.269-1.038-.393-1.69a44.393,44.393,0,0,0-7.336-16.861c-3.819-5.5-8.331-11.124-14.645-13.869-2.993-1.3-7-1.644-9.861.178-3.7,2.356-3.214,7.32-1.654,10.854.989,2.24,2.385,4.257,3.537,6.41,1.033,1.931,1.8,3.946,3.882,4.93-2.8-1.323-5.4-3.063-8.373-4-2.52-.8-8.314-.894-7,3.558a6.2,6.2,0,0,0,1.626,2.43,34.458,34.458,0,0,0,11.829,7.751c-1.929-.788-5.712-.764-7.344.691-3,2.673,1.675,4.777,3.747,5.724a26.993,26.993,0,0,0,16.853,1.407C1747.517,297.812,1754.064,295.428,1757.574,291.4Z" transform="translate(-1715.539 -257.895)" fill="#e1e8f9"/>
        </g>
        <g id="Grupo_63255" data-name="Grupo 63255" transform="translate(25.127 24.136)">
          <path id="Trazado_140797" data-name="Trazado 140797" d="M1845.141,397.557c5.076-1.094,11.623-3.478,15.133-7.509-.379-.568-.269-1.038-.393-1.689a40,40,0,0,0-2.3-7.676l-14.214,17.2C1843.961,397.791,1844.554,397.683,1845.141,397.557Z" transform="translate(-1843.366 -380.682)" fill="#c3cfea"/>
        </g>
        <g id="Grupo_63256" data-name="Grupo 63256" transform="translate(69.494 47.876)">
          <path id="Trazado_140798" data-name="Trazado 140798" d="M2070.094,503.8c.68.062,1.041-.258,1.673-.459a44.391,44.391,0,0,1,18.32-1.578c6.655.739,13.749,2.029,19.169,6.274,2.569,2.012,4.779,5.372,4.539,8.756-.31,4.375-4.906,6.312-8.757,6.623-2.44.2-4.879-.071-7.321-.058-2.19.011-4.326.3-6.184-1.066,2.5,1.832,5.264,3.288,7.509,5.456,1.9,1.836,4.745,6.885.206,7.851a6.194,6.194,0,0,1-2.911-.273,34.459,34.459,0,0,1-12.449-6.711c1.612,1.321,3.392,4.659,2.89,6.787-.923,3.91-5,.8-6.817-.569a26.994,26.994,0,0,1-9.263-14.15C2069.242,515.7,2068.221,508.811,2070.094,503.8Z" transform="translate(-2069.077 -501.454)" fill="#e1e8f9"/>
        </g>
        <g id="Grupo_63257" data-name="Grupo 63257" transform="translate(69.495 48.131)">
          <path id="Trazado_140799" data-name="Trazado 140799" d="M2071.769,504.389c-.632.2-.993.521-1.673.459-1.841,4.919-.886,11.655.529,16.617l9.029-18.712A40.021,40.021,0,0,0,2071.769,504.389Z" transform="translate(-2069.079 -502.753)" fill="#c3cfea"/>
        </g>
        <g id="Grupo_63271" data-name="Grupo 63271" transform="translate(11.434 0.914)">
          <g id="Grupo_63258" data-name="Grupo 63258">
            <path id="Trazado_140800" data-name="Trazado 140800" d="M1855.434,288.475l-42.759,65.336a1.229,1.229,0,0,1-1.7.355l-36.713-24.026a1.229,1.229,0,0,1-.355-1.7l42.758-65.336a1.229,1.229,0,0,1,1.7-.356l36.713,24.026A1.229,1.229,0,0,1,1855.434,288.475Z" transform="translate(-1773.705 -262.547)" fill="#44bc58"/>
          </g>
          <g id="Grupo_63259" data-name="Grupo 63259" transform="translate(0 22.548)">
            <path id="Trazado_140801" data-name="Trazado 140801" d="M1852.513,377.255s-28.308,39.471-76.169,39.619l-2.438,3.726a1.229,1.229,0,0,0,.355,1.7l36.713,24.026a1.229,1.229,0,0,0,1.7-.355l42.759-65.336a1.229,1.229,0,0,0-.355-1.7Z" transform="translate(-1773.705 -377.255)" fill="#2c9b39"/>
          </g>
          <g id="Grupo_63260" data-name="Grupo 63260" transform="translate(9.515 9.515)">
            <path id="Trazado_140802" data-name="Trazado 140802" d="M1882.609,322.925l-18.292-11.971a8.309,8.309,0,0,1-11.5,2.4l-30.7,46.915a8.309,8.309,0,0,1,2.4,11.5l18.292,11.971a8.309,8.309,0,0,1,11.5-2.4l30.7-46.915A8.309,8.309,0,0,1,1882.609,322.925Z" transform="translate(-1822.112 -310.954)" fill="#bff4ba"/>
          </g>
          <g id="Grupo_63261" data-name="Grupo 63261" transform="translate(11.918 31.65)">
            <path id="Trazado_140803" data-name="Trazado 140803" d="M1893.254,423.561c-10.411,10.512-30.673,26.767-58.691,29.957a8.307,8.307,0,0,1-.229,8.727l18.292,11.971a8.308,8.308,0,0,1,11.5-2.4l30.7-46.915A8.325,8.325,0,0,1,1893.254,423.561Z" transform="translate(-1834.334 -423.561)" fill="#aae5a3"/>
          </g>
          <g id="Grupo_63265" data-name="Grupo 63265" transform="translate(23.289 21.003)">
            <g id="Grupo_63263" data-name="Grupo 63263" transform="translate(0 42.336)">
              <g id="Grupo_63262" data-name="Grupo 63262">
                <circle id="Elipse_1914" data-name="Elipse 1914" cx="3.535" cy="3.535" r="3.535" fill="#2c9b39"/>
              </g>
            </g>
            <g id="Grupo_63264" data-name="Grupo 63264" transform="translate(27.669)">
              <circle id="Elipse_1915" data-name="Elipse 1915" cx="3.535" cy="3.535" r="3.535" transform="translate(0 0.045) rotate(-0.363)" fill="#44bc58"/>
            </g>
          </g>
          <g id="Grupo_63266" data-name="Grupo 63266" transform="translate(22.754 27.699)">
            <circle id="Elipse_1916" data-name="Elipse 1916" cx="13.471" cy="13.471" r="13.471" transform="matrix(0.884, -0.468, 0.468, 0.884, 0, 12.617)" fill="#44bc58"/>
          </g>
          <g id="Grupo_63267" data-name="Grupo 63267" transform="translate(32.829 45.36)">
            <path id="Trazado_140804" data-name="Trazado 140804" d="M1960.123,501.235a13.407,13.407,0,0,0,2.185-7.927,99.809,99.809,0,0,1-21.593,11.283c.246.186.5.368.759.539A13.471,13.471,0,0,0,1960.123,501.235Z" transform="translate(-1940.715 -493.308)" fill="#2c9b39"/>
          </g>
          <g id="Grupo_63270" data-name="Grupo 63270" transform="translate(31.084 39.007)">
            <g id="Grupo_63269" data-name="Grupo 63269">
              <g id="Grupo_63268" data-name="Grupo 63268">
                <path id="Trazado_140805" data-name="Trazado 140805" d="M1942.938,465.355a4.465,4.465,0,0,1,1.807-.75,3.343,3.343,0,0,1,2.078.339,3.786,3.786,0,0,1,2.121,2.631,6.723,6.723,0,0,1-.436,4.08l2.205,1.418a.862.862,0,0,1,.395.618,1.319,1.319,0,0,1-.126.78.94.94,0,0,1-.486.488.665.665,0,0,1-.649-.092l-2.242-1.465a5.625,5.625,0,0,1-2.482,2.208,3.105,3.105,0,0,1-2.643-.022,2,2,0,0,1-1.084-1.054,1.521,1.521,0,0,1,.042-1.248,1.226,1.226,0,0,1,.762-.723,2.408,2.408,0,0,1,1.249.1,1.792,1.792,0,0,0,1.123.026,2.034,2.034,0,0,0,.959-.673l-3.357-2.21a13.937,13.937,0,0,1-1.8,1.445,4.438,4.438,0,0,1-1.867.691,3.79,3.79,0,0,1-2.173-.415,3.928,3.928,0,0,1-2.224-2.725,6.493,6.493,0,0,1,.4-4l-2.253-1.441a.755.755,0,0,1-.4-.577,1.264,1.264,0,0,1,.12-.738,1.043,1.043,0,0,1,.5-.512.609.609,0,0,1,.636.056l2.3,1.524a5,5,0,0,1,2.218-1.908,2.94,2.94,0,0,1,2.46.1,1.763,1.763,0,0,1,1.006,1,1.62,1.62,0,0,1-.108,1.231,1.266,1.266,0,0,1-.709.675,1.316,1.316,0,0,1-1-.057,1.526,1.526,0,0,0-1.777.322l3.621,2.4A17.935,17.935,0,0,1,1942.938,465.355Zm-4.436,3.418a3.92,3.92,0,0,0,1.167-.616l-3.1-2a2.362,2.362,0,0,0-.032,1.533,1.752,1.752,0,0,0,.934,1A1.4,1.4,0,0,0,1938.5,468.772Zm8.042.018a1.427,1.427,0,0,0-.8-.945,1.3,1.3,0,0,0-1-.057,3.782,3.782,0,0,0-1.16.693l2.853,1.849A2.735,2.735,0,0,0,1946.544,468.791Z" transform="translate(-1931.838 -460.988)" fill="#bff4ba"/>
              </g>
            </g>
          </g>
        </g>
      </g>
      <g id="Grupo_63273" data-name="Grupo 63273" transform="translate(1726.344 260.13)">
        <path id="Trazado_140806" data-name="Trazado 140806" d="M1795.413,288.97a60.659,60.659,0,0,0-13.6-15.4c-1.373-1.052-10.2-7.063-11.25-2.8a2.32,2.32,0,0,0,.66,2.058,6.849,6.849,0,0,0,1.85,1.268,95.712,95.712,0,0,1,8.746,4.9,53.008,53.008,0,0,1,5.608,3.8c1.828,1.24,3.468,2.552,5.191,3.913C1793.4,287.343,1794.857,288.109,1795.413,288.97Z" transform="translate(-1770.509 -269.266)" fill="#fff"/>
      </g>
      <g id="Grupo_63274" data-name="Grupo 63274" transform="translate(1795.111 308.905)">
        <path id="Trazado_140807" data-name="Trazado 140807" d="M2120.345,517.594a60.654,60.654,0,0,1,20.477,1.68c1.664.47,11.766,3.944,8.974,7.338a2.319,2.319,0,0,1-2.044.7,6.851,6.851,0,0,1-2.123-.722,95.7,95.7,0,0,0-9.157-4.074,53.013,53.013,0,0,0-6.4-2.215c-2.088-.722-4.12-1.25-6.242-1.815C2122.852,518.23,2121.368,517.524,2120.345,517.594Z" transform="translate(-2120.345 -517.398)" fill="#fff"/>
      </g>
    </g>
  </g>
</svg>
