<svg xmlns="http://www.w3.org/2000/svg" width="116" height="153" viewBox="0 0 116 153">
  <g id="Grupo_63840" data-name="Grupo 63840" transform="translate(-529 -4584.5)">
    <line id="Línea_611" data-name="Línea 611" y2="153" transform="translate(643.5 4584.5)" fill="none" stroke="#707070" stroke-width="3" stroke-dasharray="5" opacity="0.5"/>
    <g id="Grupo_63201" data-name="Grupo 63201" transform="translate(260.374 4399.377)">
      <g id="Grupo_63176" data-name="Grupo 63176" transform="translate(268.626 228.409)">
        <g id="Grupo_63174" data-name="Grupo 63174" transform="translate(0 0)">
          <g id="Grupo_63156" data-name="Grupo 63156" transform="translate(18.71 71.402)">
            <g id="Grupo_63154" data-name="Grupo 63154">
              <path id="Rectángulo_19096" data-name="Rectángulo 19096" d="M0,0H13.614a0,0,0,0,1,0,0V11.983A6.807,6.807,0,0,1,6.807,18.79h0A6.807,6.807,0,0,1,0,11.983V0A0,0,0,0,1,0,0Z" fill="#ffadb1"/>
            </g>
            <g id="Grupo_63155" data-name="Grupo 63155" transform="translate(5.82 0)">
              <path id="Trazado_140743" data-name="Trazado 140743" d="M391.055,653.172V641.859h-7.794A29.968,29.968,0,0,0,391.055,653.172Z" transform="translate(-383.261 -641.859)" fill="#f99a98"/>
            </g>
          </g>
          <g id="Grupo_63159" data-name="Grupo 63159" transform="translate(56.31 71.402)">
            <g id="Grupo_63157" data-name="Grupo 63157">
              <path id="Rectángulo_19097" data-name="Rectángulo 19097" d="M6.807,0h0a6.807,6.807,0,0,1,6.807,6.807V18.79a0,0,0,0,1,0,0H0a0,0,0,0,1,0,0V6.807A6.807,6.807,0,0,1,6.807,0Z" transform="translate(13.614 18.79) rotate(-180)" fill="#ffadb1"/>
            </g>
            <g id="Grupo_63158" data-name="Grupo 63158" transform="translate(0 0)">
              <path id="Trazado_140744" data-name="Trazado 140744" d="M531.772,653.172V641.859h7.794A29.97,29.97,0,0,1,531.772,653.172Z" transform="translate(-531.772 -641.859)" fill="#f99a98"/>
            </g>
          </g>
          <g id="Grupo_63160" data-name="Grupo 63160">
            <path id="Trazado_140745" data-name="Trazado 140745" d="M357.469,352.607a44.421,44.421,0,1,0-88.843,0c0,24.533,19.888,35.652,44.421,35.652S357.469,377.14,357.469,352.607Z" transform="translate(-268.626 -308.185)" fill="#ffadb1"/>
          </g>
          <g id="Grupo_63161" data-name="Grupo 63161" transform="translate(12.467 5.577)">
            <path id="Trazado_140746" data-name="Trazado 140746" d="M326.888,342.238l.413,1.706s13.3,2.53,13.539-1.686c.239-4.19-3.512-7.965-3.557-8.01A44.591,44.591,0,0,0,326.888,342.238Z" transform="translate(-326.888 -334.248)" fill="#f99a98"/>
          </g>
          <g id="Grupo_63162" data-name="Grupo 63162" transform="translate(62.204 5.577)">
            <path id="Trazado_140747" data-name="Trazado 140747" d="M573.279,342.238l-.413,1.706s-13.3,2.53-13.539-1.686c-.239-4.19,3.512-7.965,3.557-8.01A44.587,44.587,0,0,1,573.279,342.238Z" transform="translate(-559.317 -334.248)" fill="#f99a98"/>
          </g>
          <g id="Grupo_63163" data-name="Grupo 63163" transform="translate(25.293 35.878)">
            <ellipse id="Elipse_1899" data-name="Elipse 1899" cx="19.024" cy="15.899" rx="19.024" ry="15.899" fill="#ff828a"/>
          </g>
          <g id="Grupo_63164" data-name="Grupo 63164" transform="translate(6.845 1.938)">
            <path id="Trazado_140748" data-name="Trazado 140748" d="M319.823,326.883c-2.651-5.064-16.728-9.642-16.728-9.642s-4.26,14.177-1.61,19.241a10.349,10.349,0,0,0,18.338-9.6Z" transform="translate(-300.616 -317.241)" fill="#ffadb1"/>
          </g>
          <g id="Grupo_63165" data-name="Grupo 63165" transform="translate(11.22 9.793)">
            <path id="Trazado_140749" data-name="Trazado 140749" d="M332.343,359.616c-1.557-2.975-9.828-5.665-9.828-5.665s-2.5,8.329-.946,11.3,2.5,1.128,5.479-.429S333.9,362.591,332.343,359.616Z" transform="translate(-321.059 -353.951)" fill="#f99a98"/>
          </g>
          <g id="Grupo_63166" data-name="Grupo 63166" transform="translate(62.105 1.938)">
            <path id="Trazado_140750" data-name="Trazado 140750" d="M560.039,326.883c2.651-5.064,16.728-9.642,16.728-9.642s4.26,14.177,1.61,19.241a10.349,10.349,0,1,1-18.338-9.6Z" transform="translate(-558.857 -317.241)" fill="#ffadb1"/>
          </g>
          <g id="Grupo_63167" data-name="Grupo 63167" transform="translate(63.157 29.665)">
            <circle id="Elipse_1900" data-name="Elipse 1900" cx="4.103" cy="4.103" r="4.103" transform="translate(0 1.154) rotate(-8.085)" fill="#404144"/>
          </g>
          <g id="Grupo_63168" data-name="Grupo 63168" transform="translate(16.439 29.6)">
            <circle id="Elipse_1901" data-name="Elipse 1901" cx="4.103" cy="4.103" r="4.103" transform="translate(0 1.307) rotate(-9.162)" fill="#404144"/>
          </g>
          <g id="Grupo_63169" data-name="Grupo 63169" transform="translate(49.204 44.791)">
            <path id="Trazado_140751" data-name="Trazado 140751" d="M501.357,531.476h0a2.789,2.789,0,0,1-2.789-2.789v-8.393a2.789,2.789,0,0,1,2.789-2.789h0a2.789,2.789,0,0,1,2.789,2.789v8.393A2.789,2.789,0,0,1,501.357,531.476Z" transform="translate(-498.568 -517.504)" fill="#ffadb1"/>
          </g>
          <g id="Grupo_63170" data-name="Grupo 63170" transform="translate(33.627 44.791)">
            <rect id="Rectángulo_19098" data-name="Rectángulo 19098" width="5.579" height="13.972" rx="2.789" fill="#ffadb1"/>
          </g>
          <g id="Grupo_63171" data-name="Grupo 63171" transform="translate(72.3 40.179)">
            <ellipse id="Elipse_1902" data-name="Elipse 1902" cx="4.16" cy="3.326" rx="4.16" ry="3.326" fill="#f99a98"/>
          </g>
          <g id="Grupo_63172" data-name="Grupo 63172" transform="translate(8.72 40.179)">
            <ellipse id="Elipse_1903" data-name="Elipse 1903" cx="4.16" cy="3.326" rx="4.16" ry="3.326" fill="#f99a98"/>
          </g>
          <g id="Grupo_63173" data-name="Grupo 63173" transform="translate(65.774 9.793)">
            <path id="Trazado_140752" data-name="Trazado 140752" d="M576.357,359.616c1.557-2.975,9.828-5.665,9.828-5.665s2.5,8.329.946,11.3-2.5,1.128-5.479-.429S574.8,362.591,576.357,359.616Z" transform="translate(-576.001 -353.951)" fill="#f99a98"/>
          </g>
        </g>
        <g id="Grupo_63175" data-name="Grupo 63175" transform="translate(35.49 37.34)">
          <path id="Trazado_140753" data-name="Trazado 140753" d="M450.98,484.933c0,1.243-3.694,0-8.252,0s-8.252,1.243-8.252,0,3.695-2.251,8.252-2.251S450.98,483.69,450.98,484.933Z" transform="translate(-434.476 -482.682)" fill="#ffc2ca"/>
        </g>
      </g>
      <path id="Trazado_140754" data-name="Trazado 140754" d="M464.536,315.847v-6.589a44.733,44.733,0,0,0-15.571-.692v7.281a2.131,2.131,0,0,0,2.131,2.131H462.4A2.131,2.131,0,0,0,464.536,315.847Z" transform="translate(-141.749 -79.776)" fill="#f99a98"/>
      <g id="Grupo_63200" data-name="Grupo 63200" transform="translate(309.903 206.69)">
        <g id="Grupo_63177" data-name="Grupo 63177" transform="translate(0)">
          <path id="Trazado_140755" data-name="Trazado 140755" d="M471.719,238.014V209.143a2.453,2.453,0,0,0-2.453-2.453h-5.291a2.453,2.453,0,0,0-2.453,2.453v28.871Z" transform="translate(-461.522 -206.69)" fill="#ffb103"/>
        </g>
        <g id="Grupo_63178" data-name="Grupo 63178" transform="translate(0 5.589)" opacity="0.5">
          <rect id="Rectángulo_19099" data-name="Rectángulo 19099" width="7.987" height="10.197" transform="translate(0 7.987) rotate(-90)" fill="#fd3"/>
        </g>
        <g id="Grupo_63180" data-name="Grupo 63180" transform="translate(0 0.425)" opacity="0.5">
          <g id="Grupo_63179" data-name="Grupo 63179">
            <path id="Trazado_140756" data-name="Trazado 140756" d="M471.719,239.575V210.7a2.45,2.45,0,0,0-1.073-2.028v26.171a1.58,1.58,0,0,1-1.58,1.58h-7.544v3.148Z" transform="translate(-461.522 -208.676)" fill="#e89400"/>
          </g>
        </g>
        <g id="Grupo_63198" data-name="Grupo 63198" transform="translate(1.479 1.649)">
          <g id="Grupo_63182" data-name="Grupo 63182" transform="translate(0.018 29.293)" opacity="0.7">
            <g id="Grupo_63181" data-name="Grupo 63181">
              <path id="Trazado_140757" data-name="Trazado 140757" d="M475.612,351.67a.508.508,0,0,0-.491-.382H469.01a.508.508,0,0,0-.491.382Z" transform="translate(-468.519 -351.288)" fill="#d18100"/>
            </g>
          </g>
          <g id="Grupo_63184" data-name="Grupo 63184" transform="translate(0 27.201)" opacity="0.7">
            <g id="Grupo_63183" data-name="Grupo 63183">
              <path id="Trazado_140758" data-name="Trazado 140758" d="M475.564,342.02h0a.509.509,0,0,1-.509.509h-6.111a.509.509,0,0,1-.509-.509h0a.509.509,0,0,1,.509-.509h6.111A.509.509,0,0,1,475.564,342.02Z" transform="translate(-468.434 -341.511)" fill="#d18100"/>
            </g>
          </g>
          <g id="Grupo_63185" data-name="Grupo 63185" transform="translate(0 25.108)">
            <path id="Trazado_140759" data-name="Trazado 140759" d="M475.564,332.242h0a.509.509,0,0,1-.509.509h-6.111a.509.509,0,0,1-.509-.509h0a.509.509,0,0,1,.509-.509h6.111A.509.509,0,0,1,475.564,332.242Z" transform="translate(-468.434 -331.733)" fill="#ef9a03"/>
          </g>
          <g id="Grupo_63186" data-name="Grupo 63186" transform="translate(0 23.016)">
            <path id="Trazado_140760" data-name="Trazado 140760" d="M475.564,322.464h0a.509.509,0,0,1-.509.509h-6.111a.509.509,0,0,1-.509-.509h0a.509.509,0,0,1,.509-.509h6.111A.509.509,0,0,1,475.564,322.464Z" transform="translate(-468.434 -321.955)" fill="#ef9a03"/>
          </g>
          <g id="Grupo_63187" data-name="Grupo 63187" transform="translate(0 20.924)">
            <path id="Trazado_140761" data-name="Trazado 140761" d="M475.564,312.686h0a.509.509,0,0,1-.509.509h-6.111a.509.509,0,0,1-.509-.509h0a.509.509,0,0,1,.509-.509h6.111A.509.509,0,0,1,475.564,312.686Z" transform="translate(-468.434 -312.177)" fill="#ef9a03"/>
          </g>
          <g id="Grupo_63188" data-name="Grupo 63188" transform="translate(0 18.831)">
            <path id="Trazado_140762" data-name="Trazado 140762" d="M475.564,302.908h0a.509.509,0,0,1-.509.509h-6.111a.509.509,0,0,1-.509-.509h0a.509.509,0,0,1,.509-.509h6.111A.509.509,0,0,1,475.564,302.908Z" transform="translate(-468.434 -302.399)" fill="#ef9a03"/>
          </g>
          <g id="Grupo_63189" data-name="Grupo 63189" transform="translate(0 16.739)">
            <path id="Trazado_140763" data-name="Trazado 140763" d="M475.564,293.13h0a.509.509,0,0,1-.509.509h-6.111a.509.509,0,0,1-.509-.509h0a.509.509,0,0,1,.509-.509h6.111A.509.509,0,0,1,475.564,293.13Z" transform="translate(-468.434 -292.621)" fill="#ef9a03"/>
          </g>
          <g id="Grupo_63190" data-name="Grupo 63190" transform="translate(0 14.646)">
            <path id="Trazado_140764" data-name="Trazado 140764" d="M475.564,283.352h0a.509.509,0,0,1-.509.509h-6.111a.509.509,0,0,1-.509-.509h0a.509.509,0,0,1,.509-.509h6.111A.509.509,0,0,1,475.564,283.352Z" transform="translate(-468.434 -282.843)" fill="#ef9a03"/>
          </g>
          <g id="Grupo_63191" data-name="Grupo 63191" transform="translate(0 12.554)">
            <path id="Trazado_140765" data-name="Trazado 140765" d="M475.564,273.574h0a.509.509,0,0,1-.509.509h-6.111a.509.509,0,0,1-.509-.509h0a.509.509,0,0,1,.509-.509h6.111A.509.509,0,0,1,475.564,273.574Z" transform="translate(-468.434 -273.065)" fill="#ef9a03"/>
          </g>
          <g id="Grupo_63192" data-name="Grupo 63192" transform="translate(0 10.462)">
            <path id="Trazado_140766" data-name="Trazado 140766" d="M475.564,263.8h0a.509.509,0,0,1-.509.509h-6.111a.509.509,0,0,1-.509-.509h0a.509.509,0,0,1,.509-.509h6.111A.509.509,0,0,1,475.564,263.8Z" transform="translate(-468.434 -263.287)" fill="#ffb103"/>
          </g>
          <g id="Grupo_63193" data-name="Grupo 63193" transform="translate(0 8.369)">
            <path id="Trazado_140767" data-name="Trazado 140767" d="M475.564,254.018h0a.509.509,0,0,1-.509.509h-6.111a.509.509,0,0,1-.509-.509h0a.509.509,0,0,1,.509-.509h6.111A.509.509,0,0,1,475.564,254.018Z" transform="translate(-468.434 -253.509)" fill="#ffb103"/>
          </g>
          <g id="Grupo_63194" data-name="Grupo 63194" transform="translate(0 6.277)">
            <path id="Trazado_140768" data-name="Trazado 140768" d="M475.564,244.24h0a.509.509,0,0,1-.509.509h-6.111a.509.509,0,0,1-.509-.509h0a.509.509,0,0,1,.509-.509h6.111A.509.509,0,0,1,475.564,244.24Z" transform="translate(-468.434 -243.731)" fill="#ffb103"/>
          </g>
          <g id="Grupo_63195" data-name="Grupo 63195" transform="translate(0 4.185)">
            <path id="Trazado_140769" data-name="Trazado 140769" d="M475.564,234.462h0a.509.509,0,0,1-.509.509h-6.111a.509.509,0,0,1-.509-.509h0a.509.509,0,0,1,.509-.509h6.111A.509.509,0,0,1,475.564,234.462Z" transform="translate(-468.434 -233.953)" fill="#ffb103"/>
          </g>
          <g id="Grupo_63196" data-name="Grupo 63196" transform="translate(0 2.092)">
            <path id="Trazado_140770" data-name="Trazado 140770" d="M475.564,224.684h0a.509.509,0,0,1-.509.509h-6.111a.509.509,0,0,1-.509-.509h0a.509.509,0,0,1,.509-.509h6.111A.509.509,0,0,1,475.564,224.684Z" transform="translate(-468.434 -224.175)" fill="#ef9a03"/>
          </g>
          <g id="Grupo_63197" data-name="Grupo 63197">
            <path id="Trazado_140771" data-name="Trazado 140771" d="M475.564,214.906h0a.509.509,0,0,1-.509.509h-6.111a.509.509,0,0,1-.509-.509h0a.509.509,0,0,1,.509-.509h6.111A.509.509,0,0,1,475.564,214.906Z" transform="translate(-468.434 -214.397)" fill="#ef9a03"/>
          </g>
        </g>
        <g id="Grupo_63199" data-name="Grupo 63199" transform="translate(0 0.507)">
          <path id="Trazado_140772" data-name="Trazado 140772" d="M462.486,239.874V209.057a2.446,2.446,0,0,0-.964,1.946v28.871Z" transform="translate(-461.522 -209.057)" fill="#fd3"/>
        </g>
      </g>
    </g>
  </g>
</svg>
