<svg id="Grupo_63426" data-name="Grupo 63426" xmlns="http://www.w3.org/2000/svg" xmlns:xlink="http://www.w3.org/1999/xlink" width="440" height="440" viewBox="0 0 440 440">
  <defs>
    <clipPath id="clip-path">
      <rect id="Rectángulo_19138" data-name="Rectángulo 19138" width="440" height="440" fill="none"/>
    </clipPath>
  </defs>
  <g id="Grupo_63401" data-name="Grupo 63401" transform="translate(37.898 34.938)">
    <circle id="Elipse_1935" data-name="Elipse 1935" cx="129.001" cy="129.001" r="129.001" transform="translate(0 182.435) rotate(-45)" fill="#92d9ef"/>
    <circle id="Elipse_1936" data-name="Elipse 1936" cx="93.302" cy="93.302" r="93.302" transform="translate(50.487 182.435) rotate(-45)" fill="#92d9ef"/>
    <circle id="Elipse_1937" data-name="Elipse 1937" cx="51.299" cy="51.299" r="51.299" transform="translate(131.136 131.136)" fill="#92d9ef"/>
    <g id="Grupo_63400" data-name="Grupo 63400" transform="translate(22.264 25.225)">
      <path id="Trazado_141399" data-name="Trazado 141399" d="M249.748,86.315h0a1.873,1.873,0,0,1-1.873-1.873V70.136a1.873,1.873,0,0,1,1.873-1.872h0a1.873,1.873,0,0,1,1.873,1.872V84.443A1.873,1.873,0,0,1,249.748,86.315Z" transform="translate(-89.577 -68.264)" fill="#92d9ef"/>
      <path id="Trazado_141400" data-name="Trazado 141400" d="M249.748,429.305h0a1.873,1.873,0,0,1-1.873-1.872V413.127a1.873,1.873,0,0,1,1.873-1.873h0a1.873,1.873,0,0,1,1.873,1.873v14.307A1.873,1.873,0,0,1,249.748,429.305Z" transform="translate(-89.577 -108.966)" fill="#92d9ef"/>
      <path id="Trazado_141401" data-name="Trazado 141401" d="M235.5,86.938h0a1.873,1.873,0,0,1-2.029-1.7l-1.247-14.252a1.873,1.873,0,0,1,1.7-2.029h0a1.872,1.872,0,0,1,2.028,1.7l1.247,14.253A1.873,1.873,0,0,1,235.5,86.938Z" transform="translate(-87.719 -68.345)" fill="#92d9ef"/>
      <path id="Trazado_141402" data-name="Trazado 141402" d="M265.4,428.623h0a1.872,1.872,0,0,1-2.028-1.7l-1.247-14.252a1.872,1.872,0,0,1,1.7-2.029h0a1.873,1.873,0,0,1,2.029,1.7l1.247,14.252A1.873,1.873,0,0,1,265.4,428.623Z" transform="translate(-91.267 -108.892)" fill="#92d9ef"/>
      <path id="Trazado_141403" data-name="Trazado 141403" d="M221.368,88.8h0a1.873,1.873,0,0,1-2.169-1.519L216.714,73.19a1.872,1.872,0,0,1,1.519-2.169h0A1.872,1.872,0,0,1,220.4,72.54l2.484,14.089A1.873,1.873,0,0,1,221.368,88.8Z" transform="translate(-85.876 -68.588)" fill="#92d9ef"/>
      <path id="Trazado_141404" data-name="Trazado 141404" d="M280.928,426.578h0a1.873,1.873,0,0,1-2.169-1.519l-2.484-14.089a1.873,1.873,0,0,1,1.519-2.17h0a1.874,1.874,0,0,1,2.17,1.519l2.484,14.089A1.874,1.874,0,0,1,280.928,426.578Z" transform="translate(-92.944 -108.671)" fill="#92d9ef"/>
      <path id="Trazado_141405" data-name="Trazado 141405" d="M207.448,91.884h0a1.872,1.872,0,0,1-2.293-1.324l-3.7-13.819a1.873,1.873,0,0,1,1.324-2.293h0a1.872,1.872,0,0,1,2.293,1.324l3.7,13.819A1.872,1.872,0,0,1,207.448,91.884Z" transform="translate(-84.061 -68.99)" fill="#92d9ef"/>
      <path id="Trazado_141406" data-name="Trazado 141406" d="M296.221,423.188h0a1.872,1.872,0,0,1-2.293-1.324l-3.7-13.819a1.872,1.872,0,0,1,1.325-2.293h0a1.872,1.872,0,0,1,2.293,1.324l3.7,13.819A1.873,1.873,0,0,1,296.221,423.188Z" transform="translate(-94.595 -108.305)" fill="#92d9ef"/>
      <path id="Trazado_141407" data-name="Trazado 141407" d="M193.851,96.172h0a1.873,1.873,0,0,1-2.4-1.119l-4.893-13.444a1.872,1.872,0,0,1,1.118-2.4h0a1.873,1.873,0,0,1,2.4,1.118l4.893,13.445A1.874,1.874,0,0,1,193.851,96.172Z" transform="translate(-82.287 -69.549)" fill="#92d9ef"/>
      <path id="Trazado_141408" data-name="Trazado 141408" d="M311.16,418.477h0a1.872,1.872,0,0,1-2.4-1.118l-4.893-13.444a1.873,1.873,0,0,1,1.119-2.4h0a1.873,1.873,0,0,1,2.4,1.119l4.893,13.444A1.871,1.871,0,0,1,311.16,418.477Z" transform="translate(-96.208 -107.796)" fill="#92d9ef"/>
      <path id="Trazado_141409" data-name="Trazado 141409" d="M180.678,101.627h0a1.873,1.873,0,0,1-2.489-.905l-6.046-12.967a1.872,1.872,0,0,1,.906-2.488h0a1.872,1.872,0,0,1,2.488.906l6.047,12.966A1.872,1.872,0,0,1,180.678,101.627Z" transform="translate(-80.569 -70.261)" fill="#92d9ef"/>
      <path id="Trazado_141410" data-name="Trazado 141410" d="M325.632,412.482h0a1.872,1.872,0,0,1-2.488-.905L317.1,398.61a1.872,1.872,0,0,1,.906-2.488h0a1.872,1.872,0,0,1,2.488.906l6.047,12.966A1.872,1.872,0,0,1,325.632,412.482Z" transform="translate(-97.771 -107.149)" fill="#92d9ef"/>
      <path id="Trazado_141411" data-name="Trazado 141411" d="M168.032,108.211h0a1.872,1.872,0,0,1-2.558-.686l-7.154-12.39a1.871,1.871,0,0,1,.686-2.558h0a1.872,1.872,0,0,1,2.558.685l7.154,12.391A1.873,1.873,0,0,1,168.032,108.211Z" transform="translate(-78.92 -71.119)" fill="#92d9ef"/>
      <path id="Trazado_141412" data-name="Trazado 141412" d="M339.527,405.249h0a1.872,1.872,0,0,1-2.558-.685l-7.154-12.391a1.873,1.873,0,0,1,.686-2.558h0a1.872,1.872,0,0,1,2.558.686l7.154,12.39A1.872,1.872,0,0,1,339.527,405.249Z" transform="translate(-99.271 -106.368)" fill="#92d9ef"/>
      <path id="Trazado_141413" data-name="Trazado 141413" d="M156.006,115.871h0a1.873,1.873,0,0,1-2.608-.459l-8.206-11.72a1.873,1.873,0,0,1,.46-2.608h0a1.873,1.873,0,0,1,2.608.46l8.206,11.719A1.872,1.872,0,0,1,156.006,115.871Z" transform="translate(-77.352 -72.119)" fill="#92d9ef"/>
      <path id="Trazado_141414" data-name="Trazado 141414" d="M352.738,396.833h0a1.873,1.873,0,0,1-2.608-.46l-8.206-11.719a1.873,1.873,0,0,1,.459-2.608h0a1.873,1.873,0,0,1,2.609.459l8.205,11.72A1.872,1.872,0,0,1,352.738,396.833Z" transform="translate(-100.697 -105.46)" fill="#92d9ef"/>
      <path id="Trazado_141415" data-name="Trazado 141415" d="M144.7,124.551h0a1.872,1.872,0,0,1-2.638-.231l-9.2-10.959a1.872,1.872,0,0,1,.231-2.638h0a1.872,1.872,0,0,1,2.638.231l9.2,10.959A1.872,1.872,0,0,1,144.7,124.551Z" transform="translate(-75.877 -73.251)" fill="#92d9ef"/>
      <path id="Trazado_141416" data-name="Trazado 141416" d="M365.166,387.3h0a1.872,1.872,0,0,1-2.638-.231l-9.2-10.959a1.872,1.872,0,0,1,.231-2.638h0a1.872,1.872,0,0,1,2.638.231l9.2,10.959A1.872,1.872,0,0,1,365.166,387.3Z" transform="translate(-102.039 -104.43)" fill="#92d9ef"/>
      <path id="Trazado_141417" data-name="Trazado 141417" d="M134.183,134.183h0a1.872,1.872,0,0,1-2.648,0l-10.116-10.116a1.872,1.872,0,0,1,0-2.648h0a1.872,1.872,0,0,1,2.648,0l10.116,10.116A1.872,1.872,0,0,1,134.183,134.183Z" transform="translate(-74.506 -74.507)" fill="#92d9ef"/>
      <path id="Trazado_141418" data-name="Trazado 141418" d="M376.714,376.714h0a1.872,1.872,0,0,1-2.648,0L363.95,366.6a1.872,1.872,0,0,1,0-2.648h0a1.872,1.872,0,0,1,2.648,0l10.116,10.116A1.872,1.872,0,0,1,376.714,376.714Z" transform="translate(-103.286 -103.287)" fill="#92d9ef"/>
      <path id="Trazado_141419" data-name="Trazado 141419" d="M124.551,144.7h0a1.872,1.872,0,0,1-2.638.231l-10.959-9.2a1.872,1.872,0,0,1-.231-2.638h0a1.872,1.872,0,0,1,2.638-.231l10.959,9.2A1.872,1.872,0,0,1,124.551,144.7Z" transform="translate(-73.25 -75.878)" fill="#92d9ef"/>
      <path id="Trazado_141420" data-name="Trazado 141420" d="M387.3,365.166h0a1.872,1.872,0,0,1-2.638.231L373.7,356.2a1.872,1.872,0,0,1-.231-2.638h0a1.872,1.872,0,0,1,2.638-.231l10.959,9.2A1.872,1.872,0,0,1,387.3,365.166Z" transform="translate(-104.429 -102.04)" fill="#92d9ef"/>
      <path id="Trazado_141421" data-name="Trazado 141421" d="M115.871,156.006h0a1.872,1.872,0,0,1-2.608.46l-11.719-8.206a1.873,1.873,0,0,1-.46-2.608h0a1.872,1.872,0,0,1,2.608-.459l11.72,8.205A1.873,1.873,0,0,1,115.871,156.006Z" transform="translate(-72.118 -77.353)" fill="#92d9ef"/>
      <path id="Trazado_141422" data-name="Trazado 141422" d="M396.833,352.738h0a1.873,1.873,0,0,1-2.608.46l-11.72-8.206a1.873,1.873,0,0,1-.459-2.608h0a1.872,1.872,0,0,1,2.608-.46l11.719,8.206A1.873,1.873,0,0,1,396.833,352.738Z" transform="translate(-105.459 -100.698)" fill="#92d9ef"/>
      <path id="Trazado_141423" data-name="Trazado 141423" d="M108.211,168.032h0a1.874,1.874,0,0,1-2.559.686l-12.39-7.154a1.872,1.872,0,0,1-.685-2.558h0a1.871,1.871,0,0,1,2.558-.686l12.39,7.154A1.872,1.872,0,0,1,108.211,168.032Z" transform="translate(-71.119 -78.921)" fill="#92d9ef"/>
      <path id="Trazado_141424" data-name="Trazado 141424" d="M405.249,339.527h0a1.871,1.871,0,0,1-2.558.686l-12.39-7.154a1.872,1.872,0,0,1-.686-2.558h0a1.873,1.873,0,0,1,2.558-.686l12.391,7.154A1.872,1.872,0,0,1,405.249,339.527Z" transform="translate(-106.367 -99.272)" fill="#92d9ef"/>
      <path id="Trazado_141425" data-name="Trazado 141425" d="M101.627,180.678h0a1.872,1.872,0,0,1-2.488.906l-12.967-6.047a1.872,1.872,0,0,1-.905-2.488h0a1.872,1.872,0,0,1,2.488-.906l12.966,6.047A1.872,1.872,0,0,1,101.627,180.678Z" transform="translate(-70.26 -80.57)" fill="#92d9ef"/>
      <path id="Trazado_141426" data-name="Trazado 141426" d="M412.482,325.632h0a1.872,1.872,0,0,1-2.488.906l-12.967-6.047a1.872,1.872,0,0,1-.905-2.488h0a1.872,1.872,0,0,1,2.488-.906l12.966,6.047A1.872,1.872,0,0,1,412.482,325.632Z" transform="translate(-107.148 -97.772)" fill="#92d9ef"/>
      <path id="Trazado_141427" data-name="Trazado 141427" d="M96.172,193.851h0a1.874,1.874,0,0,1-2.4,1.119l-13.444-4.893a1.873,1.873,0,0,1-1.118-2.4h0a1.872,1.872,0,0,1,2.4-1.118l13.444,4.893A1.873,1.873,0,0,1,96.172,193.851Z" transform="translate(-69.548 -82.288)" fill="#92d9ef"/>
      <path id="Trazado_141428" data-name="Trazado 141428" d="M418.477,311.16h0a1.871,1.871,0,0,1-2.4,1.119l-13.444-4.893a1.872,1.872,0,0,1-1.119-2.4h0a1.873,1.873,0,0,1,2.4-1.119l13.445,4.893A1.872,1.872,0,0,1,418.477,311.16Z" transform="translate(-107.796 -96.209)" fill="#92d9ef"/>
      <path id="Trazado_141429" data-name="Trazado 141429" d="M91.884,207.448h0a1.872,1.872,0,0,1-2.293,1.325l-13.819-3.7a1.872,1.872,0,0,1-1.324-2.293h0a1.873,1.873,0,0,1,2.293-1.324l13.819,3.7A1.872,1.872,0,0,1,91.884,207.448Z" transform="translate(-68.989 -84.062)" fill="#92d9ef"/>
      <path id="Trazado_141430" data-name="Trazado 141430" d="M423.188,296.221h0a1.873,1.873,0,0,1-2.293,1.324l-13.819-3.7a1.873,1.873,0,0,1-1.325-2.293h0a1.874,1.874,0,0,1,2.294-1.325l13.819,3.7A1.872,1.872,0,0,1,423.188,296.221Z" transform="translate(-108.304 -94.596)" fill="#92d9ef"/>
      <path id="Trazado_141431" data-name="Trazado 141431" d="M88.8,221.368h0a1.873,1.873,0,0,1-2.17,1.519L72.54,220.4a1.873,1.873,0,0,1-1.519-2.169h0a1.874,1.874,0,0,1,2.17-1.519L87.279,219.2A1.873,1.873,0,0,1,88.8,221.368Z" transform="translate(-68.587 -85.877)" fill="#92d9ef"/>
      <path id="Trazado_141432" data-name="Trazado 141432" d="M426.577,280.928h0a1.872,1.872,0,0,1-2.169,1.519l-14.089-2.484a1.873,1.873,0,0,1-1.519-2.169h0a1.873,1.873,0,0,1,2.17-1.519l14.089,2.484A1.872,1.872,0,0,1,426.577,280.928Z" transform="translate(-108.67 -92.945)" fill="#92d9ef"/>
      <path id="Trazado_141433" data-name="Trazado 141433" d="M86.938,235.5h0a1.872,1.872,0,0,1-2.029,1.7l-14.253-1.247a1.872,1.872,0,0,1-1.7-2.028h0a1.873,1.873,0,0,1,2.029-1.7l14.252,1.247A1.873,1.873,0,0,1,86.938,235.5Z" transform="translate(-68.344 -87.72)" fill="#92d9ef"/>
      <path id="Trazado_141434" data-name="Trazado 141434" d="M428.623,265.4h0a1.873,1.873,0,0,1-2.029,1.7l-14.252-1.247a1.873,1.873,0,0,1-1.7-2.029h0a1.873,1.873,0,0,1,2.029-1.7l14.252,1.247A1.872,1.872,0,0,1,428.623,265.4Z" transform="translate(-108.891 -91.268)" fill="#92d9ef"/>
      <path id="Trazado_141435" data-name="Trazado 141435" d="M86.315,249.748h0a1.873,1.873,0,0,1-1.873,1.873H70.136a1.874,1.874,0,0,1-1.873-1.873h0a1.874,1.874,0,0,1,1.873-1.873H84.442A1.873,1.873,0,0,1,86.315,249.748Z" transform="translate(-68.263 -89.578)" fill="#92d9ef"/>
      <path id="Trazado_141436" data-name="Trazado 141436" d="M429.305,249.748h0a1.873,1.873,0,0,1-1.872,1.873H413.127a1.873,1.873,0,0,1-1.873-1.873h0a1.873,1.873,0,0,1,1.873-1.873h14.307A1.873,1.873,0,0,1,429.305,249.748Z" transform="translate(-108.965 -89.578)" fill="#92d9ef"/>
      <path id="Trazado_141437" data-name="Trazado 141437" d="M86.938,263.824h0a1.873,1.873,0,0,1-1.7,2.029L70.983,267.1a1.873,1.873,0,0,1-2.029-1.7h0a1.872,1.872,0,0,1,1.7-2.028l14.253-1.247A1.873,1.873,0,0,1,86.938,263.824Z" transform="translate(-68.344 -91.268)" fill="#92d9ef"/>
      <path id="Trazado_141438" data-name="Trazado 141438" d="M428.623,233.931h0a1.872,1.872,0,0,1-1.7,2.028l-14.252,1.247a1.872,1.872,0,0,1-2.029-1.7h0a1.873,1.873,0,0,1,1.7-2.029l14.252-1.247A1.873,1.873,0,0,1,428.623,233.931Z" transform="translate(-108.891 -87.72)" fill="#92d9ef"/>
      <path id="Trazado_141439" data-name="Trazado 141439" d="M88.8,277.794h0a1.873,1.873,0,0,1-1.519,2.169L73.19,282.447a1.874,1.874,0,0,1-2.17-1.519h0a1.873,1.873,0,0,1,1.519-2.169l14.089-2.484A1.873,1.873,0,0,1,88.8,277.794Z" transform="translate(-68.587 -92.945)" fill="#92d9ef"/>
      <path id="Trazado_141440" data-name="Trazado 141440" d="M426.577,218.234h0a1.872,1.872,0,0,1-1.519,2.169l-14.089,2.484a1.873,1.873,0,0,1-2.17-1.519h0a1.873,1.873,0,0,1,1.519-2.169l14.089-2.484A1.872,1.872,0,0,1,426.577,218.234Z" transform="translate(-108.67 -85.877)" fill="#92d9ef"/>
      <path id="Trazado_141441" data-name="Trazado 141441" d="M91.884,291.549h0a1.872,1.872,0,0,1-1.324,2.293l-13.819,3.7a1.873,1.873,0,0,1-2.293-1.324h0a1.872,1.872,0,0,1,1.324-2.293l13.819-3.7A1.872,1.872,0,0,1,91.884,291.549Z" transform="translate(-68.989 -94.596)" fill="#92d9ef"/>
      <path id="Trazado_141442" data-name="Trazado 141442" d="M423.188,202.776h0a1.872,1.872,0,0,1-1.324,2.293l-13.819,3.7a1.874,1.874,0,0,1-2.294-1.325h0a1.873,1.873,0,0,1,1.325-2.293l13.819-3.7A1.873,1.873,0,0,1,423.188,202.776Z" transform="translate(-108.304 -84.062)" fill="#92d9ef"/>
      <path id="Trazado_141443" data-name="Trazado 141443" d="M96.172,304.986h0a1.873,1.873,0,0,1-1.119,2.4l-13.444,4.893a1.871,1.871,0,0,1-2.4-1.119h0a1.872,1.872,0,0,1,1.118-2.4l13.444-4.893A1.873,1.873,0,0,1,96.172,304.986Z" transform="translate(-69.548 -96.209)" fill="#92d9ef"/>
      <path id="Trazado_141444" data-name="Trazado 141444" d="M418.477,187.676h0a1.873,1.873,0,0,1-1.118,2.4l-13.445,4.893a1.874,1.874,0,0,1-2.4-1.119h0a1.872,1.872,0,0,1,1.119-2.4l13.444-4.893A1.872,1.872,0,0,1,418.477,187.676Z" transform="translate(-107.796 -82.288)" fill="#92d9ef"/>
      <path id="Trazado_141445" data-name="Trazado 141445" d="M101.627,318h0a1.872,1.872,0,0,1-.906,2.488l-12.966,6.047a1.872,1.872,0,0,1-2.488-.906h0a1.872,1.872,0,0,1,.905-2.488L99.139,317.1A1.872,1.872,0,0,1,101.627,318Z" transform="translate(-70.26 -97.772)" fill="#92d9ef"/>
      <path id="Trazado_141446" data-name="Trazado 141446" d="M412.482,173.049h0a1.872,1.872,0,0,1-.906,2.488l-12.966,6.047a1.872,1.872,0,0,1-2.488-.906h0a1.872,1.872,0,0,1,.905-2.488l12.967-6.047A1.872,1.872,0,0,1,412.482,173.049Z" transform="translate(-107.148 -80.57)" fill="#92d9ef"/>
      <path id="Trazado_141447" data-name="Trazado 141447" d="M108.211,330.5h0a1.872,1.872,0,0,1-.686,2.558l-12.39,7.154a1.871,1.871,0,0,1-2.558-.686h0a1.872,1.872,0,0,1,.685-2.558l12.39-7.154A1.874,1.874,0,0,1,108.211,330.5Z" transform="translate(-71.119 -99.272)" fill="#92d9ef"/>
      <path id="Trazado_141448" data-name="Trazado 141448" d="M405.249,159.006h0a1.872,1.872,0,0,1-.685,2.558l-12.391,7.154a1.873,1.873,0,0,1-2.558-.686h0a1.872,1.872,0,0,1,.686-2.558l12.39-7.154A1.871,1.871,0,0,1,405.249,159.006Z" transform="translate(-106.367 -78.921)" fill="#92d9ef"/>
      <path id="Trazado_141449" data-name="Trazado 141449" d="M115.871,342.384h0a1.873,1.873,0,0,1-.459,2.608l-11.72,8.206a1.873,1.873,0,0,1-2.608-.46h0a1.873,1.873,0,0,1,.46-2.608l11.719-8.206A1.872,1.872,0,0,1,115.871,342.384Z" transform="translate(-72.118 -100.698)" fill="#92d9ef"/>
      <path id="Trazado_141450" data-name="Trazado 141450" d="M396.833,145.652h0a1.873,1.873,0,0,1-.46,2.608l-11.719,8.206a1.872,1.872,0,0,1-2.608-.46h0a1.873,1.873,0,0,1,.459-2.608l11.72-8.205A1.872,1.872,0,0,1,396.833,145.652Z" transform="translate(-105.459 -77.353)" fill="#92d9ef"/>
      <path id="Trazado_141451" data-name="Trazado 141451" d="M124.551,353.562h0a1.872,1.872,0,0,1-.231,2.638l-10.959,9.2a1.872,1.872,0,0,1-2.638-.231h0a1.871,1.871,0,0,1,.231-2.638l10.959-9.2A1.872,1.872,0,0,1,124.551,353.562Z" transform="translate(-73.25 -102.04)" fill="#92d9ef"/>
      <path id="Trazado_141452" data-name="Trazado 141452" d="M387.3,133.092h0a1.872,1.872,0,0,1-.231,2.638l-10.959,9.2a1.872,1.872,0,0,1-2.638-.231h0a1.872,1.872,0,0,1,.231-2.638l10.959-9.2A1.872,1.872,0,0,1,387.3,133.092Z" transform="translate(-104.429 -75.878)" fill="#92d9ef"/>
      <path id="Trazado_141453" data-name="Trazado 141453" d="M134.183,363.95h0a1.872,1.872,0,0,1,0,2.648l-10.116,10.116a1.872,1.872,0,0,1-2.648,0h0a1.872,1.872,0,0,1,0-2.648l10.116-10.116A1.872,1.872,0,0,1,134.183,363.95Z" transform="translate(-74.506 -103.287)" fill="#92d9ef"/>
      <path id="Trazado_141454" data-name="Trazado 141454" d="M376.714,121.419h0a1.872,1.872,0,0,1,0,2.648L366.6,134.183a1.872,1.872,0,0,1-2.648,0h0a1.872,1.872,0,0,1,0-2.648l10.116-10.116A1.872,1.872,0,0,1,376.714,121.419Z" transform="translate(-103.286 -74.507)" fill="#92d9ef"/>
      <path id="Trazado_141455" data-name="Trazado 141455" d="M144.7,373.469h0a1.872,1.872,0,0,1,.231,2.638l-9.2,10.959a1.872,1.872,0,0,1-2.638.231h0a1.872,1.872,0,0,1-.231-2.638l9.2-10.959A1.872,1.872,0,0,1,144.7,373.469Z" transform="translate(-75.877 -104.43)" fill="#92d9ef"/>
      <path id="Trazado_141456" data-name="Trazado 141456" d="M365.166,110.723h0a1.872,1.872,0,0,1,.231,2.638l-9.2,10.959a1.872,1.872,0,0,1-2.638.231h0a1.872,1.872,0,0,1-.231-2.638l9.2-10.959A1.872,1.872,0,0,1,365.166,110.723Z" transform="translate(-102.039 -73.251)" fill="#92d9ef"/>
      <path id="Trazado_141457" data-name="Trazado 141457" d="M156.006,382.046h0a1.872,1.872,0,0,1,.46,2.608l-8.206,11.719a1.873,1.873,0,0,1-2.608.46h0a1.873,1.873,0,0,1-.46-2.608l8.206-11.72A1.873,1.873,0,0,1,156.006,382.046Z" transform="translate(-77.352 -105.46)" fill="#92d9ef"/>
      <path id="Trazado_141458" data-name="Trazado 141458" d="M352.738,101.084h0a1.872,1.872,0,0,1,.459,2.608l-8.205,11.72a1.873,1.873,0,0,1-2.609.459h0a1.873,1.873,0,0,1-.459-2.608l8.206-11.719A1.873,1.873,0,0,1,352.738,101.084Z" transform="translate(-100.697 -72.119)" fill="#92d9ef"/>
      <path id="Trazado_141459" data-name="Trazado 141459" d="M168.032,389.616h0a1.873,1.873,0,0,1,.686,2.558l-7.154,12.391a1.872,1.872,0,0,1-2.558.685h0a1.871,1.871,0,0,1-.686-2.558l7.154-12.39A1.872,1.872,0,0,1,168.032,389.616Z" transform="translate(-78.92 -106.368)" fill="#92d9ef"/>
      <path id="Trazado_141460" data-name="Trazado 141460" d="M339.527,92.578h0a1.872,1.872,0,0,1,.686,2.558l-7.154,12.39a1.872,1.872,0,0,1-2.558.686h0a1.873,1.873,0,0,1-.686-2.558l7.154-12.391A1.872,1.872,0,0,1,339.527,92.578Z" transform="translate(-99.271 -71.119)" fill="#92d9ef"/>
      <path id="Trazado_141461" data-name="Trazado 141461" d="M180.678,396.122h0a1.872,1.872,0,0,1,.906,2.488l-6.047,12.967a1.872,1.872,0,0,1-2.488.905h0a1.872,1.872,0,0,1-.906-2.488l6.046-12.966A1.873,1.873,0,0,1,180.678,396.122Z" transform="translate(-80.569 -107.149)" fill="#92d9ef"/>
      <path id="Trazado_141462" data-name="Trazado 141462" d="M325.632,85.267h0a1.872,1.872,0,0,1,.906,2.488l-6.047,12.967a1.872,1.872,0,0,1-2.488.905h0a1.872,1.872,0,0,1-.906-2.488l6.047-12.966A1.872,1.872,0,0,1,325.632,85.267Z" transform="translate(-97.771 -70.261)" fill="#92d9ef"/>
      <path id="Trazado_141463" data-name="Trazado 141463" d="M193.851,401.514h0a1.874,1.874,0,0,1,1.119,2.4l-4.893,13.444a1.873,1.873,0,0,1-2.4,1.118h0a1.872,1.872,0,0,1-1.118-2.4l4.893-13.444A1.873,1.873,0,0,1,193.851,401.514Z" transform="translate(-82.287 -107.796)" fill="#92d9ef"/>
      <path id="Trazado_141464" data-name="Trazado 141464" d="M311.16,79.209h0a1.871,1.871,0,0,1,1.119,2.4l-4.893,13.444a1.873,1.873,0,0,1-2.4,1.119h0a1.873,1.873,0,0,1-1.119-2.4l4.893-13.445A1.872,1.872,0,0,1,311.16,79.209Z" transform="translate(-96.208 -69.549)" fill="#92d9ef"/>
      <path id="Trazado_141465" data-name="Trazado 141465" d="M207.448,405.751h0a1.872,1.872,0,0,1,1.325,2.293l-3.7,13.819a1.872,1.872,0,0,1-2.293,1.324h0a1.873,1.873,0,0,1-1.324-2.293l3.7-13.819A1.872,1.872,0,0,1,207.448,405.751Z" transform="translate(-84.061 -108.305)" fill="#92d9ef"/>
      <path id="Trazado_141466" data-name="Trazado 141466" d="M296.221,74.447h0a1.873,1.873,0,0,1,1.324,2.293l-3.7,13.819a1.872,1.872,0,0,1-2.293,1.324h0a1.872,1.872,0,0,1-1.325-2.293l3.7-13.819A1.872,1.872,0,0,1,296.221,74.447Z" transform="translate(-94.595 -68.99)" fill="#92d9ef"/>
      <path id="Trazado_141467" data-name="Trazado 141467" d="M221.368,408.8h0a1.873,1.873,0,0,1,1.519,2.17L220.4,425.059a1.873,1.873,0,0,1-2.169,1.519h0a1.874,1.874,0,0,1-1.519-2.17L219.2,410.32A1.873,1.873,0,0,1,221.368,408.8Z" transform="translate(-85.876 -108.671)" fill="#92d9ef"/>
      <path id="Trazado_141468" data-name="Trazado 141468" d="M280.928,71.021h0a1.872,1.872,0,0,1,1.519,2.169l-2.484,14.089a1.873,1.873,0,0,1-2.17,1.519h0a1.873,1.873,0,0,1-1.519-2.17l2.484-14.089A1.872,1.872,0,0,1,280.928,71.021Z" transform="translate(-92.944 -68.588)" fill="#92d9ef"/>
      <path id="Trazado_141469" data-name="Trazado 141469" d="M235.5,410.639h0a1.873,1.873,0,0,1,1.7,2.029l-1.247,14.252a1.872,1.872,0,0,1-2.028,1.7h0a1.873,1.873,0,0,1-1.7-2.029l1.247-14.252A1.873,1.873,0,0,1,235.5,410.639Z" transform="translate(-87.719 -108.892)" fill="#92d9ef"/>
      <path id="Trazado_141470" data-name="Trazado 141470" d="M265.4,68.954h0a1.873,1.873,0,0,1,1.7,2.029l-1.247,14.252a1.873,1.873,0,0,1-2.029,1.7h0a1.872,1.872,0,0,1-1.7-2.029l1.247-14.253A1.872,1.872,0,0,1,265.4,68.954Z" transform="translate(-91.267 -68.345)" fill="#92d9ef"/>
    </g>
  </g>
  <path id="Trazado_141471" data-name="Trazado 141471" d="M259.944,300.006a.569.569,0,0,0-.716-.545q-2.094.682-4.21,1.295c-.651.187-1.305.362-1.958.544-.217.06-2.289.605-1.343.227.085-.034.051-.17-.039-.139a2.255,2.255,0,0,0-1.025.727.34.34,0,0,0,.238.575,28.781,28.781,0,0,0,5.669-1.224q-32.542,26.61-65.014,53.307-6.262-7.071-12.523-14.145a.738.738,0,0,0-1.036,0l-19.762,21.736a67.432,67.432,0,0,1-15.957-24.653.763.763,0,0,0-1.255-.331q-26.559,22.808-50.994,47.93A81.491,81.491,0,0,1,82.7,369.656a.749.749,0,0,0-1.23-.325c-15.766,12.455-31.259,25.618-45.154,40.156a.365.365,0,0,0,.516.516c14.629-13.377,29.244-26.648,44.81-38.937a82.086,82.086,0,0,0,7.577,15.846.761.761,0,0,0,1.184.152q24.333-25.077,50.836-47.9a69.05,69.05,0,0,0,16.474,24.816.755.755,0,0,0,1.056,0L178.5,342.24q6.227,7.029,12.445,14.066a.752.752,0,0,0,1.04,0q33.369-27.364,66.7-54.778a32.107,32.107,0,0,0-.244,7.54c.075.516.873.46.989,0C260.134,306.257,259.86,302.9,259.944,300.006Z" transform="translate(-4.297 -35.534)" fill="#fff465"/>
  <g id="Grupo_63402" data-name="Grupo 63402" transform="translate(229.469 314.69)">
    <rect id="Rectángulo_19122" data-name="Rectángulo 19122" width="25.983" height="73.74" fill="#fec438"/>
    <rect id="Rectángulo_19123" data-name="Rectángulo 19123" width="13.499" height="73.74" transform="translate(12.484)" fill="#ffd668"/>
  </g>
  <g id="Grupo_63403" data-name="Grupo 63403" transform="translate(185.279 351.56)">
    <rect id="Rectángulo_19124" data-name="Rectángulo 19124" width="25.983" height="36.87" fill="#ffda8b"/>
    <rect id="Rectángulo_19125" data-name="Rectángulo 19125" width="12.991" height="36.87" transform="translate(12.991)" fill="#ffe5ae"/>
  </g>
  <g id="Grupo_63404" data-name="Grupo 63404" transform="translate(269.994 296.066)">
    <rect id="Rectángulo_19126" data-name="Rectángulo 19126" width="25.983" height="92.365" fill="#ffda8b"/>
    <rect id="Rectángulo_19127" data-name="Rectángulo 19127" width="12.991" height="92.365" transform="translate(12.991)" fill="#ffe5ae"/>
  </g>
  <g id="Grupo_63405" data-name="Grupo 63405" transform="translate(141.09 342.423)">
    <rect id="Rectángulo_19128" data-name="Rectángulo 19128" width="25.983" height="46.007" fill="#fec438"/>
    <rect id="Rectángulo_19129" data-name="Rectángulo 19129" width="12.991" height="46.007" transform="translate(12.991)" fill="#ffd668"/>
  </g>
  <g id="Grupo_63406" data-name="Grupo 63406" transform="translate(96.9 374.572)">
    <rect id="Rectángulo_19130" data-name="Rectángulo 19130" width="25.983" height="13.858" fill="#ffda8b"/>
    <rect id="Rectángulo_19131" data-name="Rectángulo 19131" width="12.991" height="13.858" transform="translate(12.991)" fill="#ffe5ae"/>
  </g>
  <rect id="Rectángulo_19132" data-name="Rectángulo 19132" width="278.428" height="3.175" transform="translate(78.954 388.43)" fill="#735696"/>
  <g id="Grupo_63425" data-name="Grupo 63425">
    <g id="Grupo_63424" data-name="Grupo 63424" clip-path="url(#clip-path)">
      <g id="Grupo_63413" data-name="Grupo 63413" transform="translate(204.819 -22.452)">
        <g id="Grupo_63407" data-name="Grupo 63407">
          <path id="Trazado_141472" data-name="Trazado 141472" d="M367.883,64.375A61.892,61.892,0,0,0,316.245,36.2c-2.37-.016-4.814-.75-7.113-.7-3.4.071-7.295,2.235-9.98,4.163-.724.519,11.837,6.92,12.733,7.4q4.778,2.55,9.725,4.761A155.347,155.347,0,0,0,343.1,59.581,153.517,153.517,0,0,0,367.883,64.375Z" transform="translate(-240.316 18.24)" fill="#b68e62"/>
          <path id="Trazado_141473" data-name="Trazado 141473" d="M301.71,184.76c2.83.951,6.086,1.866,8.664.358a6.644,6.644,0,0,0,2.784-6.82,12.248,12.248,0,0,0-3.958-6.606c-.732-.69-1.561-1.812-.883-2.557a1.747,1.747,0,0,1,1.2-.428c3.386-.243,6.695.98,10.071,1.327s7.35-.553,8.858-3.594c1.2-2.415.377-5.44-1.306-7.544s-4.085-3.489-6.427-4.824c2.5-.349,5.106-.734,7.207-2.142s3.531-4.161,2.605-6.514c-1.411-3.589-6.433-3.535-9.845-5.33-4.552-2.4-6.012-8.048-7.634-12.93a63.168,63.168,0,0,0-13.284-22.635,33.859,33.859,0,0,0-11.159-8.532c-4.326-1.883-9.41-2.366-13.758-.536-4.371,1.838-7.5,5.708-10.435,9.43q-4.08,5.169-8.158,10.337c-2.8,3.55-5.662,7.2-7.026,11.517-1.875,5.921-.956,13.3-.18,19.366,1.17,9.143,4.358,19.833,10.458,26.9a68.687,68.687,0,0,0,12.113,10.507,9.56,9.56,0,0,0,3.4,1.8,3.35,3.35,0,0,0,3.478-1.117c.724-1.058.524-2.49.966-3.693C281.685,174.462,298.018,183.52,301.71,184.76Z" transform="translate(-234.264 11.261)" fill="#fbba84"/>
          <path id="Trazado_141474" data-name="Trazado 141474" d="M313.764,37.653a360.921,360.921,0,0,1,48.753,15.1c1.045.407-1.292,7.094-4.1,14.083-12.378-12.633-30.975-19.489-47.87-24.525C311.625,40.753,312.677,39.177,313.764,37.653Z" transform="translate(-241.671 17.984)" fill="#fbba84"/>
          <path id="Trazado_141475" data-name="Trazado 141475" d="M266.256,179.7c-3.859-1.117-7.362-3.193-11.19-4.4-3.923-1.237-7.953-2.531-11.121-5.153-4.143-3.429-6.123-8.573-7.2-13.7s-2.114-9.7-3.566-14.7c-1.993-6.869.274-14.858,1.9-21.557q3.777-15.518,7.552-31.035c1.044-4.29,2.184-8.768,5.126-12.062,2.176-2.436,5.143-3.993,8.04-5.5l26.573-13.8c3.018-1.568,6.69-2.654,9.469-4.535,3.923-2.657,6.756-6.437,9.431-10.311,16.894,5.036,35.491,11.892,47.87,24.525-2.987,7.432-6.508,15.2-7.068,16.132-3.655,6.037-8.481,11.869-14.916,15.054-6.071,3.005-13.175,2.435-18.728,6.488-2.318,1.692-4.339,3.94-7.067,4.831-3.787,1.236-7.824-.451-11.585-1.767-2.636-.922-5.936-1.827-8.709-.97-2.178.673-3.8,2.389-5.685,3.579-2.021,1.275-3.927,1.593-6.093,2.335-4.9,1.681-8.834,6.659-10.794,11.3-2.891,6.848-1.074,12,.4,18.6.244,1.093.543,11.765.145,11.6,3.469,1.441,7.058,2.751,9.707,5.532a15.786,15.786,0,0,0,2.473,17.091C274.8,181.195,268.562,180.363,266.256,179.7Z" transform="translate(-232.398 17.356)" fill="#fdd5ae"/>
          <path id="Trazado_141476" data-name="Trazado 141476" d="M234.356,147.81a6.976,6.976,0,0,1,1.921-.69,3.179,3.179,0,0,1,2.039.026.392.392,0,0,1-.041.711,5.538,5.538,0,0,1-1.692.19,12.6,12.6,0,0,0-1.91.385C234.314,148.535,233.978,148,234.356,147.81Z" transform="translate(-232.61 5.013)" fill="#fbba84"/>
          <path id="Trazado_141477" data-name="Trazado 141477" d="M246.372,181.082a6.524,6.524,0,0,1,2.648-4.291c.778-.6,3.244-2.485,4.225-1.861a.277.277,0,0,1,.122.355c-.069.2-.124.221-.316.308a.2.2,0,0,1-.233-.075l-.062-.09c-.008-.011,0-.02-.008-.031-.5.328-1.523.939-1.653,1.017A12.773,12.773,0,0,0,249.5,177.5a5.621,5.621,0,0,0-2.162,3.763C247.276,181.893,246.289,181.714,246.372,181.082Z" transform="translate(-234.055 1.709)" fill="#fbba84"/>
          <path id="Trazado_141478" data-name="Trazado 141478" d="M248.072,183.77c.154-.7.836-1.241,1.306-1.757a17.445,17.445,0,0,1,1.662-1.695c.2-.163.5.11.376.327a17.345,17.345,0,0,1-1.4,1.924c-.433.553-.845,1.3-1.51,1.574A.334.334,0,0,1,248.072,183.77Z" transform="translate(-234.257 1.06)" fill="#fbba84"/>
          <path id="Trazado_141479" data-name="Trazado 141479" d="M242.739,179.656a4.468,4.468,0,0,1,.546-1.231c.228-.432.468-.858.7-1.285a.319.319,0,0,1,.573.28c-.209.441-.415.883-.633,1.32a4.505,4.505,0,0,1-.68,1.164A.3.3,0,0,1,242.739,179.656Z" transform="translate(-233.624 1.451)" fill="#fbba84"/>
          <path id="Trazado_141480" data-name="Trazado 141480" d="M264.729,190.893c.315.137.665.309,1.06.518,2.167,1.145,6.73,3.348,6.938,6.1-1.177-.3-11.516-5.275-12.192-4.154C262.1,190.761,262.507,189.927,264.729,190.893Z" transform="translate(-235.737 -0.154)" fill="#ffeed7"/>
          <path id="Trazado_141481" data-name="Trazado 141481" d="M367.853,61.827a47.463,47.463,0,0,1,6.241-16.356c.624-1.017-17.972-10.845-19.726-11.649a112.8,112.8,0,0,0-22.255-7.5,110.9,110.9,0,0,0-23.324-2.7c-3.251-.028-5.2-.256-6.458,2.92a54.568,54.568,0,0,0-2.939,11.192c3.262-.458,6.793-1.36,10.1-1.454,4.551-.129,9.613,1.7,13.958,2.908A126.207,126.207,0,0,1,350.8,50.416,123.771,123.771,0,0,1,367.853,61.827Z" transform="translate(-240.347 19.651)" fill="#ffeed7"/>
          <path id="Trazado_141482" data-name="Trazado 141482" d="M391.475,2.2q-4.566,11.11-9.133,22.222c-2.336,5.685-3.591,12.445-6.886,17.639-2.462-1.444-4.238-3.614-6.591-5.191a79.406,79.406,0,0,0-9.51-5.037,115.531,115.531,0,0,0-40.992-11.219c-1.957-.16-20.1-1.422-20.459.2q4.923-22.083,9.845-44.167a115.467,115.467,0,0,1,78.029,12.433c3.219,1.8,6.7,4.319,6.944,8A11.757,11.757,0,0,1,391.475,2.2Z" transform="translate(-240.171 25.475)" fill="#233143"/>
          <path id="Trazado_141483" data-name="Trazado 141483" d="M368.149,50.9a3.126,3.126,0,0,0,4.044.833,4.369,4.369,0,0,0,1.132-5.52C371.176,43.015,364.7,46.889,368.149,50.9Z" transform="translate(-248.389 17.108)" fill="#8bc751"/>
        </g>
        <g id="Grupo_63411" data-name="Grupo 63411" transform="translate(11.899 177.764)">
          <circle id="Elipse_1938" data-name="Elipse 1938" cx="28.162" cy="28.162" r="28.162" transform="matrix(0.214, -0.977, 0.977, 0.214, 0, 55.02)" fill="#fec438"/>
          <circle id="Elipse_1939" data-name="Elipse 1939" cx="28.162" cy="28.162" r="28.162" transform="matrix(0.033, -0.999, 0.999, 0.033, 6.383, 61.971)" fill="#fff465"/>
          <circle id="Elipse_1940" data-name="Elipse 1940" cx="22.541" cy="22.541" r="22.541" transform="matrix(0.535, -0.845, 0.845, 0.535, 4.345, 41.731)" fill="#fec438"/>
          <g id="Grupo_63408" data-name="Grupo 63408" transform="translate(15.363 14.658)">
            <path id="Trazado_141484" data-name="Trazado 141484" d="M287.751,232.547A20.081,20.081,0,1,1,303.022,208.6,20.1,20.1,0,0,1,287.751,232.547Zm-8.5-38.448a19.3,19.3,0,1,0,23.009,14.673A19.318,19.318,0,0,0,279.246,194.1Z" transform="translate(-263.33 -192.856)" fill="#fff465"/>
          </g>
          <g id="Grupo_63410" data-name="Grupo 63410" transform="translate(29.059 22.984)">
            <g id="Grupo_63409" data-name="Grupo 63409">
              <path id="Trazado_141485" data-name="Trazado 141485" d="M286.517,223.086l-.195.043c-.533.118-1.015.208-1.443.269a11.034,11.034,0,0,1-1.236.107,11.409,11.409,0,0,1-1.19-.028c-.4-.033-.815-.083-1.256-.155a9.132,9.132,0,0,1-.048-1.479c.025-.508.066-1.038.131-1.6a9.685,9.685,0,0,0,2.042.147,11.319,11.319,0,0,0,1.953-.266,4.589,4.589,0,0,0,2.251-1.045,1.879,1.879,0,0,0,.464-1.872,1.84,1.84,0,0,0-.442-.907,2.083,2.083,0,0,0-.72-.491,3.837,3.837,0,0,0-.879-.238c-.316-.048-.627-.107-.93-.176l-1.409-.274a13.975,13.975,0,0,1-1.616-.393,4.74,4.74,0,0,1-1.326-.649,3.739,3.739,0,0,1-1-1.064,5.222,5.222,0,0,1-.636-1.667,4.826,4.826,0,0,1,.476-3.72,5.7,5.7,0,0,1,3.085-2.285l-.568-2.573a3.844,3.844,0,0,1,1.01-.377,4.337,4.337,0,0,1,1.1-.09l.553,2.5a12.828,12.828,0,0,1,1.931-.134,19.529,19.529,0,0,1,2.012.128,8.838,8.838,0,0,1-.164,2.937c-.264-.043-.532-.085-.806-.128a5.885,5.885,0,0,0-.853-.064,8.685,8.685,0,0,0-.992.054,11.124,11.124,0,0,0-1.229.208,6.089,6.089,0,0,0-.824.246,2.194,2.194,0,0,0-.708.424,1.6,1.6,0,0,0-.438.67,1.75,1.75,0,0,0-.016.958,1.866,1.866,0,0,0,.353.787,1.693,1.693,0,0,0,.586.469,3.3,3.3,0,0,0,.744.255c.268.06.534.111.8.155l1.589.285q1.007.184,1.847.406a4.876,4.876,0,0,1,1.481.652,3.952,3.952,0,0,1,1.109,1.155,5.934,5.934,0,0,1,.727,1.913,5.24,5.24,0,0,1-.383,3.613,5.865,5.865,0,0,1-2.878,2.583l.622,2.815a3.882,3.882,0,0,1-1.013.377,4.173,4.173,0,0,1-1.1.09Z" transform="translate(-278.871 -202.303)" fill="#fff"/>
            </g>
          </g>
        </g>
        <g id="Grupo_63412" data-name="Grupo 63412" transform="translate(36.989 93.738)">
          <path id="Trazado_141486" data-name="Trazado 141486" d="M298.139,123.462a25.275,25.275,0,0,1,.4,4.538c-.07,5.624-2.835,12.1-4.785,17.291a34.6,34.6,0,0,1-11.825,15.56c-4.741,3.5-8.032,8.081-7.512,14.439.35,4.267,2.912,10.249,8.016,9.6a12.54,12.54,0,0,0,6.316-3.315,36.852,36.852,0,0,1,5.637-4.517c3.06-1.721,6.738-2.081,9.8-3.8,4.779-2.674,7.209-8.067,10.69-12.295,3.643-4.425,8.579-7.69,11.981-12.3,4.855-6.584,6.123-15.214,8.367-22.907q3.992-13.689,7.107-27.616c.573-2.564,1.118-5.279.3-7.775-1-3.056-3.847-5.131-6.747-6.523-11.462-5.5-27.92-3.524-35.27,7.59-3.491,5.28-4.917,11.734-4.9,18.063C295.73,114.2,297.361,118.868,298.139,123.462Z" transform="translate(-274.367 -80.885)" fill="#fdd5ae"/>
          <path id="Trazado_141487" data-name="Trazado 141487" d="M286.262,196.047a6.39,6.39,0,0,1-6.437-6.4c.13-2.853,3.049-6.065,6.052-5.94,2.951.124,5.485,3.858,7.792,5.381C291.453,191.579,288.721,193.767,286.262,196.047Z" transform="translate(-275.014 -93.086)" fill="#ffeed7"/>
          <path id="Trazado_141488" data-name="Trazado 141488" d="M304,183.585c-1.168-1.314-1.907-2.892-3.176-4.163a25.563,25.563,0,0,0-4.179-3.22.178.178,0,0,1,.157-.32c3.028,1.11,6.953,4.118,7.85,7.372A.37.37,0,0,1,304,183.585Z" transform="translate(-277 -92.156)" fill="#fbba84"/>
          <path id="Trazado_141489" data-name="Trazado 141489" d="M306.729,178.944a3.024,3.024,0,0,1-.111-.717,2.551,2.551,0,0,0-.292-.833,2.69,2.69,0,0,0-1.254-1.085.243.243,0,0,1,.152-.456,2.623,2.623,0,0,1,1.763,1.168,1.98,1.98,0,0,1,.3,2.029C307.14,179.273,306.817,179.146,306.729,178.944Z" transform="translate(-277.995 -92.154)" fill="#fbba84"/>
          <path id="Trazado_141490" data-name="Trazado 141490" d="M330.141,148.1a30.61,30.61,0,0,0-6.712-3.612,27.148,27.148,0,0,0-3.779-1.052c-1.088-.219-3.364-.888-4.273-.139-.16.132-.406-.088-.3-.264,1.043-1.822,5.238-.536,6.754-.159a23.509,23.509,0,0,1,9.076,4.351C331.5,147.7,330.743,148.5,330.141,148.1Z" transform="translate(-279.194 -88.146)" fill="#fbba84"/>
          <path id="Trazado_141491" data-name="Trazado 141491" d="M331.491,141.434c-.356-.231-.1-.826.3-.612.57.309,1.143.617,1.7.943a7.128,7.128,0,0,1,1.5.975c.209.209.063.678-.279.576A13.855,13.855,0,0,1,331.491,141.434Z" transform="translate(-281.126 -87.992)" fill="#fbba84"/>
        </g>
      </g>
      <g id="Grupo_63419" data-name="Grupo 63419" transform="translate(-57.774 53.543)">
        <g id="Grupo_63414" data-name="Grupo 63414">
          <path id="Trazado_141492" data-name="Trazado 141492" d="M9.954,164.768A59.012,59.012,0,0,1,36.21,115.209c1.877-1.259,3.435-3.127,5.289-4.3,2.742-1.732,6.977-2.058,10.126-1.935.85.032-5.776,11.727-6.237,12.577q-2.459,4.541-5.232,8.9a148.264,148.264,0,0,1-13.008,17.472A146.4,146.4,0,0,1,9.954,164.768Z" transform="translate(56.593 -66.472)" fill="#b68e62"/>
          <path id="Trazado_141493" data-name="Trazado 141493" d="M125.978,227.264c-1.752,2.245-3.86,4.684-6.7,4.84a6.335,6.335,0,0,1-5.8-3.961,11.671,11.671,0,0,1-.325-7.335c.219-.934.288-2.262-.642-2.5a1.67,1.67,0,0,0-1.183.291c-2.821,1.587-4.809,4.3-7.312,6.351s-6.136,3.424-8.935,1.8c-2.223-1.291-3.16-4.128-2.927-6.688a20.451,20.451,0,0,1,2.575-7.215c-2.176,1.039-4.447,2.1-6.858,2.085s-5-1.452-5.5-3.811c-.763-3.6,3.258-6.194,5.029-9.415,2.362-4.3.551-9.563-.726-14.3a60.225,60.225,0,0,1-1.334-24.988,32.29,32.29,0,0,1,4.39-12.653,16.9,16.9,0,0,1,10.661-7.659c4.444-.836,8.965.6,13.258,2.014l11.924,3.933c4.1,1.35,8.291,2.754,11.643,5.466,4.6,3.725,7.754,10.077,10.325,15.309,3.876,7.888,6.961,18.066,5.825,26.895a65.474,65.474,0,0,1-4.11,14.725,9.121,9.121,0,0,1-1.763,3.22,3.193,3.193,0,0,1-3.353.94c-1.132-.462-1.726-1.705-2.71-2.43C136.49,208.545,128.262,224.336,125.978,227.264Z" transform="translate(48.01 -70.377)" fill="#fbba84"/>
          <path id="Trazado_141494" data-name="Trazado 141494" d="M39.766,114.843A344.2,344.2,0,0,0,8.93,152.487c-.618.873,4.757,4.964,10.665,9.046,3.2-16.556,14.39-31.785,25.18-44.674C43.1,116.184,41.431,115.485,39.766,114.843Z" transform="translate(56.72 -67.171)" fill="#fbba84"/>
          <path id="Trazado_141495" data-name="Trazado 141495" d="M145.966,207.49c2.483-2.917,4.177-6.41,6.588-9.383,2.469-3.047,4.995-6.194,6.135-9.945,1.493-4.906.363-10.038-1.473-14.681-2.124-5.373-3.868-10.943-6.035-16.324-2.671-6.635-8.266-11.177-13.768-15.417A167.2,167.2,0,0,1,122.3,128.757c-4.042-3.986-7.792-8.111-13.595-9.51a33.9,33.9,0,0,0-8.682-.581c-13.61.291-27.322,1.86-40.889,1.707-4.518-.05-8.759-1.567-12.922-3.242C35.428,130.02,24.242,145.249,21.038,161.8c6.282,4.341,13.169,8.672,14.1,9.115,6.081,2.88,12.986,4.981,19.778,4.132,6.408-.8,11.76-4.99,18.308-4.686,2.733.128,5.522.853,8.159.127,3.662-1.008,5.987-4.473,8.286-7.5,1.611-2.12,3.76-4.574,6.417-5.351,2.085-.61,4.278-.1,6.4-.143,2.278-.048,3.962-.8,6.073-1.346,4.782-1.241,10.528.651,14.527,3.313,5.9,3.927,7.163,8.98,9.46,15,.38,1,5.753,9.644,5.982,9.3a41.842,41.842,0,0,0-5.727,11.119c.074-.244,5.128,5.132,5.512,5.794A21.684,21.684,0,0,1,140.766,208c.3,1.756-.51,2.64,1.634,2.412C143.618,210.279,145.224,208.364,145.966,207.49Z" transform="translate(55.277 -67.442)" fill="#fdd5ae"/>
          <path id="Trazado_141496" data-name="Trazado 141496" d="M162.976,210.879c-.178.274-.366.6-.571.969-1.122,2.051-3.592,6.2-2.31,8.5.776-.862,6.386-10.251,7.513-9.714C165,209.393,164.235,208.943,162.976,210.879Z" transform="translate(38.819 -78.411)" fill="#ffeed7"/>
          <path id="Trazado_141497" data-name="Trazado 141497" d="M42.227,102.949c-2.332,1.111-4.966,2.083-7.324,3.316-.375.192-.746.4-1.1.616-.125.071-.249.144-.372.222a15.583,15.583,0,0,0-1.569,1.116c-.341.259-.682.542-1.01.836a80.968,80.968,0,0,0-7,7.7c-.55.636-1.09,1.276-1.628,1.924-.27.32-.538.647-.8.974q-2.029,2.487-3.918,5.088c-.256.355-.513.71-.763,1.063A118.482,118.482,0,0,0,8.38,139.376c-.127.234-.247.464-.368.694-.065.122-.124.24-.187.368-.685,1.329-1.318,2.687-1.916,4.055-.182.406-.355.81-.526,1.221-1.716,4.034-3.21,8.144-5,12.11-.832-.684-1.67-1.364-2.522-2.039l-.619-.484c-.966-.761-1.948-1.523-2.941-2.272-.285-.219-.567-.432-.849-.644q-2.982-2.224-6.059-4.4c-.316-.216-.627-.442-.942-.657q-1.634-1.154-3.282-2.285c-.325-.219-.641-.435-.959-.658-2.116-1.441-4.237-2.873-6.347-4.276-.3-.2-.6-.4-.9-.6-1.433-.957-2.852-1.9-4.261-2.831A111.173,111.173,0,0,0-42.07,130c-.338-.167-.679-.325-1.022-.49-5.011-2.423-10.114-5.044-14.18-8.3-.256-.206-.5-.409-.75-.618-4.346-3.7-7.354-8.212-7.521-14.146a23.459,23.459,0,0,1,.307-4.488c.025-.186.059-.368.091-.556a28.631,28.631,0,0,1,1.212-4.451c.068-.219.151-.442.236-.659a45.6,45.6,0,0,1,5.826-10.479q1.815-2.513,3.851-4.846c.2-.229.4-.459.6-.681q1.976-2.214,4.14-4.259c.2-.189.4-.378.607-.569A70.8,70.8,0,0,1-33.509,64.732c.266-.142.542-.28.811-.415.287-.151.57-.291.86-.434a27.84,27.84,0,0,1,9.6-3.066c.418-.04.836-.056,1.251-.063.152,0,.3,0,.45,0a16.177,16.177,0,0,1,3.524.469c.428.093.861.215,1.289.347A41.456,41.456,0,0,1-6.241,66.33q1.851,1.154,3.732,2.328c.338.215.678.429,1.024.642,6.748,4.234,13.661,8.686,20.316,13.47.387.277.774.553,1.156.839.83.6,1.649,1.2,2.468,1.812.316.24.635.486.962.73q1.612,1.222,3.2,2.478c.4.311.8.633,1.192.954q3.565,2.866,6.918,5.909c.308.283.62.572.939.858.912.853,1.811,1.712,2.692,2.584.322.317.644.635.953.958C40.308,100.895,41.279,101.918,42.227,102.949Z" transform="translate(65.553 -60.752)" fill="#fff465"/>
          <path id="Trazado_141498" data-name="Trazado 141498" d="M161.848,191.824c-.308.011-.307.475-.018.527a26.786,26.786,0,0,1,6.109,1.6,52.026,52.026,0,0,1,5.007,2.987c.067.038.127-.056.088-.11C170.789,193.62,165.659,191.693,161.848,191.824Z" transform="translate(38.595 -76.305)" fill="#fbba84"/>
          <path id="Trazado_141499" data-name="Trazado 141499" d="M169.75,190.445a.258.258,0,0,0-.084.509,8.754,8.754,0,0,1,2.515,1.117c.681.453,1.18,1.084,1.824,1.569.209.158.55-.054.433-.316C173.7,191.659,171.455,190.647,169.75,190.445Z" transform="translate(37.664 -76.142)" fill="#fbba84"/>
          <path id="Trazado_141500" data-name="Trazado 141500" d="M172.711,188.761c-.289-.083-.361.38-.076.462a10.056,10.056,0,0,1,1.537.761.168.168,0,0,0,.2-.251A3.023,3.023,0,0,0,172.711,188.761Z" transform="translate(37.309 -75.941)" fill="#fbba84"/>
          <path id="Trazado_141501" data-name="Trazado 141501" d="M163.118,159.84c-3.529-1.111-8.632-.405-11.436,2.072a.231.231,0,0,0,.275.372,14.067,14.067,0,0,1,5.926-1.744c1.7-.124,3.462.216,5.136-.085C163.3,160.4,163.456,159.946,163.118,159.84Z" transform="translate(39.785 -72.45)" fill="#fbba84"/>
          <path id="Trazado_141502" data-name="Trazado 141502" d="M156.848,155.6a4.7,4.7,0,0,0-1.9.173,5.769,5.769,0,0,0-1.638.524c-.161.088-.071.341.088.367a6.26,6.26,0,0,0,1.891-.1,4.316,4.316,0,0,0,1.678-.477C157.178,155.964,157.06,155.643,156.848,155.6Z" transform="translate(39.591 -72.002)" fill="#fbba84"/>
          <path id="Trazado_141503" data-name="Trazado 141503" d="M119.575,125.226c-1.727.808-3.729,1.327-5.2,2.587-1.44,1.235-1.939,3-3.113,4.433-.2.238.164.516.37.3,1.346-1.442,1.919-3.363,3.614-4.516,1.448-.984,3.446-1.061,4.6-2.426C120,125.425,119.794,125.124,119.575,125.226Z" transform="translate(44.577 -68.401)" fill="#fbba84"/>
          <path id="Trazado_141504" data-name="Trazado 141504" d="M117.658,123.127a6.757,6.757,0,0,0-1.112.753,8.115,8.115,0,0,1-1.385.776.264.264,0,0,0,.189.492,3.76,3.76,0,0,0,2.613-1.7A.242.242,0,0,0,117.658,123.127Z" transform="translate(44.128 -68.152)" fill="#fbba84"/>
          <path id="Trazado_141505" data-name="Trazado 141505" d="M39.349,99.893c-.308-.323-.631-.641-.953-.958-2.224,1.479-4.418,3.011-6.544,4.6q-1.37-1.219-2.737-2.431a74.28,74.28,0,0,1,6.59-4.75c-.318-.286-.63-.576-.939-.858a71.212,71.212,0,0,0-6.53,4.823Q25.242,97.651,22.259,95c1.773-1.794,3.567-3.557,5.422-5.263.052-.053.115-.1.167-.152-.4-.321-.792-.642-1.192-.954-1.873,1.785-3.673,3.655-5.433,5.444l-2.879-2.551c.961-1.05,1.937-2.1,2.923-3.126q1.089-1.14,2.194-2.245c-.326-.244-.645-.49-.962-.73q-2.59,2.594-5.062,5.3-1.4-1.231-2.8-2.46,2.655-2.39,5.4-4.654c-.382-.286-.769-.562-1.156-.839-1.794,1.49-3.552,3.031-5.276,4.6C7.732,82.258,1.771,77.257-4.38,72.489c.843-.917,1.676-1.838,2.521-2.748.136-.149.279-.3.417-.441-.346-.212-.686-.427-1.024-.642Q-3.9,70.208-5.32,71.774c-1.834-1.414-3.686-2.811-5.564-4.176-2.121-1.535-4.262-3.04-6.438-4.49.538-.52,1.089-1.028,1.64-1.536-.427-.132-.86-.255-1.289-.347-.207.191-.4.388-.612.579-.234.227-.451.454-.687.673-.888-.582-1.778-1.162-2.675-1.725-.414.007-.833.024-1.251.063q1.66,1.13,3.31,2.274c-1.864,1.83-3.7,3.689-5.485,5.6q-4.1-2.262-8.286-4.374c-.269.135-.545.273-.811.415q4.226,2.3,8.389,4.7-3.458,3.745-6.69,7.683c-1.073,1.3-2.118,2.633-3.145,3.966-4.493-2.054-9.081-3.918-13.714-5.627-.207.191-.407.381-.607.569,4.6,1.885,9.191,3.786,13.694,5.868-1.1,1.45-2.195,2.911-3.252,4.4a133.941,133.941,0,0,0-14.582-6.008c-.2.222-.4.452-.6.681q7.416,2.808,14.531,6.252a176.146,176.146,0,0,0-9.514,15.037c-.194-.086-.39-.18-.583-.266-4.611-2.047-9.313-4.02-14.111-5.7-.085.217-.168.441-.236.659,4.863,1.975,9.686,3.99,14.455,6.137-.59,1.053-1.149,2.125-1.713,3.183A139.769,139.769,0,0,0-65.1,101.4c-.032.189-.066.37-.091.556,4.616,1.54,9.17,3.209,13.653,5.049-.976,1.866-1.929,3.747-2.838,5.644-1.239,2.6-2.46,5.249-3.6,7.941.249.209.494.412.75.618.8-1.927,1.627-3.848,2.512-5.743,1.276-2.735,2.634-5.421,4.051-8.082q7.114,2.96,13.972,6.57c-1.149,2.23-2.221,4.493-3.2,6.809a82.838,82.838,0,0,0-3.154,8.748c.344.165.685.323,1.022.49a97.806,97.806,0,0,1,6.391-15.483c.527.287,1.066.561,1.593.849a172.175,172.175,0,0,1,16.392,10.349c-1.217,2.031-2.4,4.081-3.521,6.162Q-23.2,135.642-25,139.506c.3.2.6.395.9.6q3.408-7.009,7.423-13.674,2.907,2.12,5.735,4.351c-.085.153-.178.308-.256.459-2.28,4.235-4.613,8.626-6.554,13.14.318.223.634.439.959.658,1.632-3.561,3.233-7.142,5.049-10.622q.793-1.507,1.615-3c.929.75,1.847,1.512,2.767,2.282q-1.092,2.139-2.125,4.3c-1.456,3.06-2.805,6.168-4.025,9.323.316.215.627.441.942.657q2.9-6.827,6.3-13.38,1.966,1.675,3.877,3.4c.541.49,1.058.982,1.585,1.477-.523.978-1.041,1.947-1.534,2.938A75.181,75.181,0,0,0-6.5,152.385c.282.212.564.425.849.644A92.243,92.243,0,0,1,0,140.226c.8.768,1.591,1.555,2.372,2.337-.6,1.25-1.191,2.518-1.745,3.789A85.815,85.815,0,0,0-2.715,155.3l.619.484a117.979,117.979,0,0,1,5.27-12.407q1.144,1.162,2.252,2.336c.171-.411.345-.814.526-1.221-.742-.742-1.49-1.481-2.241-2.2q.964-1.909,1.978-3.79c.289.249.582.49.87.74.44.393.879.785,1.31,1.2.063-.129.122-.247.187-.368.121-.231.241-.461.368-.694-.711-.641-1.447-1.265-2.172-1.9.6-1.082,1.209-2.157,1.835-3.222,2.053-3.49,4.268-6.89,6.59-10.2.7.58,1.41,1.168,2.109,1.757.25-.353.507-.708.763-1.063-.7-.59-1.413-1.174-2.116-1.754.595-.83,1.188-1.667,1.8-2.485.575-.782,1.161-1.552,1.748-2.322.07.037.143.081.213.118.764.444,1.524.9,2.276,1.355.267-.327.535-.654.8-.974-.843-.5-1.689-1-2.543-1.486a63.487,63.487,0,0,1,8.926-9.632c.088-.082.182-.15.267-.223.167.145.337.271.5.419.494.428.986.857,1.475,1.295.328-.294.669-.577,1.01-.836q-.977-.853-1.967-1.7c.62-.494,1.246-.976,1.881-1.452.681.6,1.353,1.2,2.027,1.813.357-.218.727-.424,1.1-.616q-1.088-.954-2.168-1.911C34.917,102.8,37.131,101.345,39.349,99.893Zm-12.02,1.171c-.639.55-1.266,1.111-1.89,1.68-1.973-1.632-3.958-3.252-5.973-4.846.33-.351.644-.7.977-1.048s.683-.687,1.016-1.031Q24.4,98.432,27.329,101.064Zm-23.4,8.1c.924.632,1.866,1.249,2.817,1.846-.77,1.042-1.536,2.1-2.283,3.161-.784-.621-1.568-1.243-2.363-1.852l-.272-.209C2.518,111.114,3.226,110.137,3.933,109.159ZM.939,111.431c-1.558-1.2-3.132-2.375-4.713-3.548q1.121-1.4,2.274-2.789c1.17.939,2.361,1.869,3.576,2.758.311.226.623.434.932.653Q1.968,109.963.939,111.431Zm4.444-2.652c-.259-.173-.516-.363-.769-.538q4.731-6.447,9.973-12.5c.977.748,1.953,1.5,2.919,2.256q-4.308,4.7-8.252,9.718c-.619.791-1.218,1.59-1.824,2.392C6.743,109.67,6.059,109.226,5.383,108.779Zm-1.707-1.189c-1.513-1.08-3-2.21-4.445-3.37q5.181-6.15,10.952-11.789,1.732,1.284,3.442,2.576Q8.406,101.089,3.676,107.591Zm-5.477-4.2c-3.79-3.085-7.44-6.35-11.284-9.366-1.975-1.552-4.023-3-6.113-4.374,2.991-3.762,6.116-7.423,9.283-11.02q9.7,6.2,19,13Q3.367,97.248-1.8,103.389ZM-15.966,93.18c4.66,3.472,8.945,7.409,13.434,11.084q-1.167,1.411-2.3,2.84c-5.944-4.35-12.035-8.5-18.333-12.314q1.626-2.188,3.321-4.322C-18.535,91.335-17.236,92.232-15.966,93.18Zm10.36,14.9q-4.969,6.357-9.31,13.164a1.077,1.077,0,0,1-.1-.074q-8.844-5.964-18.227-11.1a147,147,0,0,1,9.385-14.347C-17.584,99.559-11.524,103.713-5.606,108.081Zm1.054.783q2.4,1.783,4.78,3.619-4.493,6.6-8.463,13.471-2.793-2.044-5.646-3.992Q-9.526,115.191-4.552,108.863Zm2.524,8.919c1.021-1.563,2.065-3.1,3.13-4.633.879.681,1.754,1.372,2.635,2.061q-4.516,6.507-8.375,13.429c-.917-.7-1.835-1.4-2.764-2.083Q-4.828,122.1-2.028,117.782Zm6.87-1.7q2.764,2.188,5.5,4.4l.317.263c-1.52,2.307-2.992,4.637-4.476,6.954q-2.02,3.169-3.94,6.388c-.4-.322-.784-.662-1.189-.987q-2.258-1.84-4.57-3.612Q.356,122.593,4.842,116.084Zm.738-1.044c.777-1.109,1.571-2.2,2.365-3.281,2.079,1.279,4.2,2.5,6.318,3.717q-1.49,2.076-2.9,4.2C9.448,118.118,7.52,116.564,5.58,115.04Zm3.048-4.2A154.231,154.231,0,0,1,18.6,98.85q2.971,2.348,5.892,4.779a76.894,76.894,0,0,0-7.764,8.544q-.894,1.15-1.758,2.336C12.827,113.3,10.7,112.1,8.627,110.839ZM20.426,94.9c-.682.71-1.37,1.423-2.046,2.148-.953-.748-1.916-1.5-2.883-2.246a.294.294,0,0,0-.056-.042q1.066-1.2,2.14-2.385C18.527,93.215,19.485,94.059,20.426,94.9Zm-3.756-3.331c-.739.813-1.474,1.632-2.2,2.463-1.111-.849-2.22-1.69-3.343-2.526.178-.165.35-.343.531-.516.7-.662,1.416-1.305,2.128-1.956C14.753,89.877,15.71,90.72,16.669,91.571ZM1.637,78.663q5.636,4.657,11.125,9.475c-.917.849-1.831,1.705-2.73,2.58Q.7,83.869-9.088,77.711q1.99-2.243,4-4.444Q-1.692,75.919,1.637,78.663Zm-20.18-14.39c.186-.183.382-.362.568-.546q6.088,4.267,11.963,8.817c-1.362,1.509-2.723,3.018-4.063,4.542q-5.313-3.314-10.74-6.424c-.851-.483-1.711-.947-2.569-1.428C-21.8,67.552-20.191,65.893-18.542,64.274ZM-24.1,70.006q6.693,3.867,13.209,8.01c-2.08,2.394-4.148,4.8-6.169,7.243-1.037,1.248-2.052,2.511-3.066,3.775a113.61,113.61,0,0,0-12.023-6.653c-.589-.279-1.181-.549-1.77-.828Q-29.26,75.568-24.1,70.006ZM-34.544,82.362a117.021,117.021,0,0,1,13.765,7.492c-1.133,1.437-2.26,2.888-3.358,4.352-4.351-2.6-8.79-5.063-13.35-7.29-.118-.059-.225-.107-.344-.165Q-36.217,84.532-34.544,82.362ZM-44.61,96.817q2.912-4.665,6.114-9.146,6.978,3.421,13.676,7.471A145.364,145.364,0,0,0-34.288,109.5q-6.779-3.654-13.788-6.843C-46.953,100.7-45.8,98.743-44.61,96.817Zm8.319,16.35c-4.1-2.146-8.285-4.142-12.551-5.938-.478-.2-.954-.4-1.429-.59.564-1.058,1.14-2.106,1.734-3.151,4.654,2.12,9.255,4.371,13.781,6.844C-35.278,111.272-35.791,112.214-36.291,113.168Zm1.069.552c.489-.941,1-1.881,1.512-2.81q9.368,5.2,18.219,11.244c-.566.907-1.106,1.82-1.655,2.729A167.687,167.687,0,0,0-35.222,113.719Zm20.671,13.014c-.527-.391-1.07-.761-1.6-1.142.554-.918,1.118-1.831,1.687-2.731q2.875,1.975,5.674,4.045c-.561.984-1.1,1.978-1.645,2.965Q-12.47,128.267-14.551,126.733Zm4.916,3.783c.554-1,1.11-2,1.683-2.988.922.689,1.853,1.382,2.771,2.081-.576,1.047-1.126,2.1-1.676,3.153C-7.768,132-8.7,131.256-9.635,130.516Zm3.85,3.158c.568-1.068,1.137-2.136,1.72-3.186.741.574,1.489,1.145,2.226,1.727,1.177.936,2.338,1.894,3.493,2.854q-1,1.72-1.948,3.45C-2.091,136.867-3.924,135.245-5.785,133.674ZM2.9,141.511c-.725-.7-1.466-1.394-2.2-2.084-.062-.056-.13-.11-.192-.167q.96-1.764,1.963-3.5c.792.665,1.576,1.327,2.365,2C4.174,139,3.523,140.254,2.9,141.511Zm2.5-4.775c-.776-.665-1.561-1.31-2.342-1.964q1.428-2.425,2.956-4.815c1.808-2.851,3.625-5.7,5.5-8.509.753.625,1.513,1.248,2.273,1.87A147.628,147.628,0,0,0,5.4,136.736Zm12.035-18.475q-1.479,1.975-2.9,3.992c-.762-.629-1.533-1.256-2.3-1.875.987-1.461,2.006-2.9,3.039-4.326.893.508,1.787,1.022,2.676,1.539C17.773,117.81,17.6,118.035,17.433,118.261Zm1.259-1.653c-.9-.515-1.8-1.023-2.7-1.528a82.053,82.053,0,0,1,9.388-10.706c.873.731,1.752,1.452,2.621,2.193A67.58,67.58,0,0,0,18.691,116.607Zm10.638-11.146c-.113.083-.212.178-.323.268-.884-.759-1.785-1.5-2.68-2.243.443-.411.9-.817,1.363-1.213.169-.145.347-.286.516-.43.62.548,1.231,1.1,1.851,1.647.281.253.563.505.842.751C30.371,104.644,29.844,105.047,29.329,105.461Z" transform="translate(65.51 -60.752)" fill="#c0aec3"/>
        </g>
        <g id="Grupo_63417" data-name="Grupo 63417" transform="translate(99.586 79.761)">
          <path id="Trazado_141506" data-name="Trazado 141506" d="M212.678,247.186c-.3.3-14.355,18-19.751,28.482s-12.02,25.412-12.02,25.412-46.329,1.263-94.435-42.3c-34.525-31.263-39.031-47.968-39.031-47.968l34.182-50.452S110.1,196.88,145.8,222.138C162.9,234.231,212.678,247.186,212.678,247.186Z" transform="translate(-47.442 -152.334)" fill="#81c453"/>
          <path id="Trazado_141507" data-name="Trazado 141507" d="M215.665,234.325c-.273.328-12.9,19.071-17.451,29.946s-9.986,26.279-9.986,26.279-46.087,4.9-97.467-34.743c-36.876-28.452-42.68-44.751-42.68-44.751l30.112-52.983s31.257,34.164,68.834,56.537C165.019,225.323,215.665,234.325,215.665,234.325Z" transform="translate(-47.518 -152.062)" fill="#a0cd4e"/>
          <path id="Trazado_141508" data-name="Trazado 141508" d="M216.256,220.532c-.256.341-11.926,19.692-15.931,30.782s-8.657,26.745-8.657,26.745-45.784,7.2-99.083-29.822c-38.254-26.571-44.867-42.56-44.867-42.56l27.423-54.423s32.928,32.557,71.577,53.024C165.223,214.075,216.256,220.532,216.256,220.532Z" transform="translate(-47.475 -151.253)" fill="#b6d54b"/>
          <path id="Trazado_141509" data-name="Trazado 141509" d="M64.519,208.181a9.743,9.743,0,0,1-3.128,11.2,64.758,64.758,0,0,1-5.986-7.7l4.393-8.718A9.725,9.725,0,0,1,64.519,208.181Z" transform="translate(-48.387 -157.389)" fill="#8bc751"/>
          <path id="Trazado_141510" data-name="Trazado 141510" d="M87.914,169.331a10.346,10.346,0,0,1-12.4,2.363l4.663-9.247C82.272,164.367,84.878,166.7,87.914,169.331Z" transform="translate(-50.773 -152.581)" fill="#8bc751"/>
          <path id="Trazado_141511" data-name="Trazado 141511" d="M208.234,273.369c-1.7,5.193-3.262,10.2-4.271,13.507a105.932,105.932,0,0,1-14.156-.238,14.16,14.16,0,0,1,18.427-13.269Z" transform="translate(-64.336 -165.666)" fill="#8bc751"/>
          <path id="Trazado_141512" data-name="Trazado 141512" d="M226.467,234.94c-1.637,2.882-3.5,6.269-5.311,9.753a11.112,11.112,0,0,1-5.652-11.512C219.63,233.883,223.371,234.477,226.467,234.94Z" transform="translate(-67.369 -160.975)" fill="#8bc751"/>
          <path id="Trazado_141513" data-name="Trazado 141513" d="M154.568,232.489c.8,13.406-6.1,21.9-17.585,27.628a36.019,36.019,0,0,1-10.007,3.68,177.441,177.441,0,0,1-22.225-12.657l0-.007c-.73-1.421-1.415-2.873-2.2-4.363-4.583-8.745-5.837-19.058-2.43-28.464a26.362,26.362,0,0,1,26.251-16.953l22.366,13.526.054.035c.1.129.208.249.306.38C152.837,220.058,154.211,226.46,154.568,232.489Z" transform="translate(-53.463 -157.192)" fill="#8bc751"/>
          <path id="Trazado_141514" data-name="Trazado 141514" d="M207.485,226.546c-1.637,2.882-3.5,6.269-5.311,9.753a127.313,127.313,0,0,0-6.569,14.308c-1.1,3.045-2.236,6.4-3.32,9.677-1.7,5.193-3.262,10.2-4.271,13.507a105.932,105.932,0,0,1-14.156-.238A149.354,149.354,0,0,1,121.9,259.186,177.444,177.444,0,0,1,99.674,246.53l0-.007q-1.375-.916-2.758-1.877C78.273,231.7,67.466,221.44,61.391,214.573a64.758,64.758,0,0,1-5.986-7.7l4.393-8.718,13.326-26.459,4.663-9.247c2.1,1.92,4.705,4.257,7.742,6.884a373.692,373.692,0,0,0,35.77,27.411c7.058,4.726,14.573,9.347,22.366,13.526l.054.035c.374.2.738.4,1.11.593,11.707,6.2,34.873,11.011,51.695,13.891C200.649,225.49,204.389,226.083,207.485,226.546Z" transform="translate(-48.387 -152.581)" fill="none" stroke="#e5eebb" stroke-miterlimit="10" stroke-width="0.849"/>
          <g id="Grupo_63416" data-name="Grupo 63416" transform="translate(62.455 64.836)">
            <g id="Grupo_63415" data-name="Grupo 63415">
              <path id="Trazado_141515" data-name="Trazado 141515" d="M123.405,246.4l-.208-.075q-.85-.305-1.5-.6a12.434,12.434,0,0,1-1.215-.626,12.612,12.612,0,0,1-1.092-.726c-.353-.264-.712-.556-1.081-.883a10.105,10.105,0,0,1,.825-1.407c.321-.457.672-.929,1.06-1.41a10.718,10.718,0,0,0,1.818,1.338,12.578,12.578,0,0,0,1.978.9,5.05,5.05,0,0,0,2.713.348,2.073,2.073,0,0,0,1.534-1.473,2.038,2.038,0,0,0,.12-1.106,2.3,2.3,0,0,0-.382-.88,4.25,4.25,0,0,0-.68-.739c-.265-.23-.521-.468-.763-.711l-1.154-1.083a15.328,15.328,0,0,1-1.275-1.317,5.212,5.212,0,0,1-.856-1.384,4.128,4.128,0,0,1-.307-1.58,5.727,5.727,0,0,1,.387-1.928,5.314,5.314,0,0,1,2.63-3.19,6.289,6.289,0,0,1,4.221-.319l.981-2.733a4.23,4.23,0,0,1,1.164.242,4.728,4.728,0,0,1,1.079.563l-.953,2.655a14.161,14.161,0,0,1,1.878,1.01,21.315,21.315,0,0,1,1.8,1.3,9.766,9.766,0,0,1-1.88,2.643c-.221-.2-.447-.392-.676-.592a6.528,6.528,0,0,0-.758-.562,9.965,9.965,0,0,0-.957-.533,12.518,12.518,0,0,0-1.267-.527,6.6,6.6,0,0,0-.913-.256,2.441,2.441,0,0,0-.91-.021,1.775,1.775,0,0,0-.8.368,1.934,1.934,0,0,0-.578.884,2.074,2.074,0,0,0-.134.941,1.877,1.877,0,0,0,.271.782,3.734,3.734,0,0,0,.545.675q.323.32.654.614l1.315,1.2q.832.764,1.483,1.465a5.354,5.354,0,0,1,1,1.478,4.328,4.328,0,0,1,.356,1.728,6.526,6.526,0,0,1-.446,2.213,5.775,5.775,0,0,1-2.481,3.142,6.462,6.462,0,0,1-4.2.718l-1.074,2.99a4.284,4.284,0,0,1-1.166-.243,4.572,4.572,0,0,1-1.077-.562Z" transform="translate(-118.306 -224.819)" fill="#fff"/>
            </g>
          </g>
        </g>
        <g id="Grupo_63418" data-name="Grupo 63418" transform="translate(88.639 78.534)">
          <path id="Trazado_141516" data-name="Trazado 141516" d="M98.645,169.079a36.992,36.992,0,0,0,3.106,4.062,59.854,59.854,0,0,1,5.464,8.555,27.716,27.716,0,0,0,13.44,12.28c3.732,1.6,7.707,2.83,10.929,5.3,4.884,3.751,9.692,11.348,8.978,17.612-.331,2.9-.858,7.139-4.871,6.972-2.866-.118-4.516-3.18-6.669-5.075-4.1-3.606-10.231-2.982-15.65-3.624-7.6-.9-14.45-4.624-20.806-8.671-2.809-1.789-5.483-2.373-8.407-3.762-3.59-1.707-6.894-4.044-10.378-5.953-10.832-5.936-22.145-9.463-32.28-17.007a20.341,20.341,0,0,1-4.943-4.728,7.823,7.823,0,0,1-1.27-6.524c.694-2.24,2.628-3.84,4.51-5.24,9.322-6.938,21.849-15.478,34.16-12.974,3.025.614,6.143,1.4,9.129,2.212a40.2,40.2,0,0,1,8.84,3.559c2.1,1.152,4.227,2.658,4.987,4.928a22.415,22.415,0,0,1,.525,4.521A8.933,8.933,0,0,0,98.645,169.079Z" transform="translate(-35.021 -149.861)" fill="#fdd5ae"/>
          <path id="Trazado_141517" data-name="Trazado 141517" d="M145.514,230.149a4.663,4.663,0,0,0,4.368-4.981c-.237-2.07-2.521-4.264-4.7-4.023-2.143.237-3.8,3.081-5.405,4.3C141.513,227.154,143.611,228.613,145.514,230.149Z" transform="translate(-47.452 -158.318)" fill="#ffeed7"/>
          <path id="Trazado_141518" data-name="Trazado 141518" d="M93.253,201.213c.084-.4-.493-.621-.615-.21-.175.593-.354,1.186-.513,1.786a6.763,6.763,0,0,0-.351,1.666c0,.281.414.5.576.2A13.176,13.176,0,0,0,93.253,201.213Z" transform="translate(-41.755 -155.904)" fill="#fbba84"/>
          <path id="Trazado_141519" data-name="Trazado 141519" d="M129.431,206.478a19.027,19.027,0,0,0-3.194,7.038c-.549,2.159-1.3,5.522-.323,7.624.026.056.13.078.152,0a14.218,14.218,0,0,0,.261-3.182,24.508,24.508,0,0,1,.552-3.751,32.34,32.34,0,0,1,3.029-7.445A.282.282,0,0,0,129.431,206.478Z" transform="translate(-45.75 -156.567)" fill="#fbba84"/>
          <path id="Trazado_141520" data-name="Trazado 141520" d="M124.211,208.872a11.3,11.3,0,0,0-1.7,3.916c-.331,1.247-.815,2.915-.375,4.174a.145.145,0,0,0,.264.007,22.251,22.251,0,0,0,.746-3.639c.376-1.456,1.028-2.773,1.509-4.185C124.747,208.877,124.4,208.617,124.211,208.872Z" transform="translate(-45.338 -156.851)" fill="#fbba84"/>
          <path id="Trazado_141521" data-name="Trazado 141521" d="M118.852,212a2.985,2.985,0,0,0-.647,2.222.239.239,0,0,0,.452.073,8.242,8.242,0,0,0,.328-1.073,6.285,6.285,0,0,0,.228-1.061A.206.206,0,0,0,118.852,212Z" transform="translate(-44.888 -157.226)" fill="#fbba84"/>
          <path id="Trazado_141522" data-name="Trazado 141522" d="M99.5,199.4a22.72,22.72,0,0,0-2.812,7.815.306.306,0,0,0,.578.173c1.024-2.512,1.915-5.174,2.758-7.754A.287.287,0,0,0,99.5,199.4Z" transform="translate(-42.338 -155.72)" fill="#fbba84"/>
          <path id="Trazado_141523" data-name="Trazado 141523" d="M90.192,182.567a27.381,27.381,0,0,0-5.55,6.958c-1.115,1.927-3.066,4.865-2.22,7.2a.1.1,0,0,0,.191-.019c1.239-5.27,4.623-9.6,7.944-13.754C90.74,182.719,90.426,182.363,90.192,182.567Z" transform="translate(-40.621 -153.735)" fill="#fbba84"/>
        </g>
      </g>
      <g id="Grupo_63423" data-name="Grupo 63423" transform="translate(265.265 157.968)">
        <g id="Grupo_63420" data-name="Grupo 63420" transform="translate(14.641 35.617)">
          <path id="Trazado_141524" data-name="Trazado 141524" d="M442.8,360.476a61.8,61.8,0,0,0,31.655-49.482c.18-2.359,1.081-4.743,1.193-7.037.166-3.392-1.72-7.422-3.454-10.23-.467-.757-7.716,11.311-8.254,12.169q-2.873,4.582-5.418,9.358a155.188,155.188,0,0,0-9.226,20.866A153.26,153.26,0,0,0,442.8,360.476Z" transform="translate(-332.452 -228.437)" fill="#b68e62"/>
          <path id="Trazado_141525" data-name="Trazado 141525" d="M319.147,285.838c-1.143,2.753-2.282,5.933-.958,8.605a6.633,6.633,0,0,0,6.6,3.247,12.235,12.235,0,0,0,6.856-3.484c.739-.681,1.913-1.429,2.608-.7a1.744,1.744,0,0,1,.344,1.229c.007,3.39-1.442,6.6-2.022,9.941s.041,7.359,2.965,9.073c2.322,1.362,5.392.754,7.606-.777A21.423,21.423,0,0,0,348.4,306.9c.174,2.52.377,5.137,1.633,7.328s3.9,3.806,6.309,3.048c3.672-1.157,3.968-6.162,5.993-9.437,2.7-4.369,8.435-5.431,13.411-6.707a63.071,63.071,0,0,0,23.47-11.661,33.814,33.814,0,0,0,9.275-10.523c2.176-4.178,3.01-9.209,1.489-13.668-1.528-4.482-5.166-7.866-8.67-11.05l-9.731-8.846c-3.342-3.038-6.784-6.139-10.984-7.8-5.769-2.277-13.184-1.876-19.279-1.524-9.19.531-20.06,2.964-27.524,8.55a68.566,68.566,0,0,0-11.308,11.337,9.542,9.542,0,0,0-2.027,3.265,3.344,3.344,0,0,0,.871,3.542c1,.794,2.444.694,3.612,1.219C330.8,266.606,320.639,282.246,319.147,285.838Z" transform="translate(-317.594 -221.566)" fill="#fbba84"/>
          <path id="Trazado_141526" data-name="Trazado 141526" d="M473.332,308.417A360.351,360.351,0,0,1,454.9,355.933c-.478,1.013-6.977-1.779-13.743-5.062,13.444-11.453,21.564-29.5,27.756-45.982C470.393,306.071,471.889,307.229,473.332,308.417Z" transform="translate(-332.257 -229.765)" fill="#fbba84"/>
          <path id="Trazado_141527" data-name="Trazado 141527" d="M320.724,250.394c1.381-3.768,3.693-7.113,5.161-10.843,1.5-3.821,3.073-7.746,5.9-10.72,3.7-3.888,8.965-5.5,14.146-6.222s9.806-1.434,14.893-2.532c6.981-1.507,14.782,1.306,21.342,3.395l30.391,9.679c4.2,1.339,8.583,2.785,11.659,5.944,2.276,2.337,3.621,5.4,4.92,8.392l11.9,27.429c1.352,3.116,2.18,6.85,3.861,9.748,2.373,4.093,5.943,7.178,9.616,10.112-6.191,16.479-14.312,34.529-27.756,45.982-7.2-3.491-14.694-7.538-15.579-8.161-5.76-4.06-11.233-9.272-13.96-15.9-2.572-6.257-1.511-13.294-5.163-19.107-1.524-2.426-3.623-4.6-4.32-7.375-.968-3.858.992-7.764,2.565-11.418,1.1-2.562,2.232-5.786,1.571-8.609-.52-2.216-2.116-3.951-3.17-5.912-1.131-2.1-1.314-4.023-1.9-6.231-1.333-5-6.02-9.264-10.508-11.538-6.621-3.355-11.879-1.9-18.555-.894-1.105.167-11.758-.276-11.566-.661-1.676,3.356-3.23,6.84-6.185,9.286a15.761,15.761,0,0,0-17.2,1.277C318.638,258.8,319.9,252.643,320.724,250.394Z" transform="translate(-317.865 -219.65)" fill="#fdd5ae"/>
          <path id="Trazado_141528" data-name="Trazado 141528" d="M373.274,221.7a7.015,7.015,0,0,1,.554,1.962,3.17,3.17,0,0,1-.169,2.029.391.391,0,0,1-.705-.09,5.535,5.535,0,0,1-.072-1.7,12.6,12.6,0,0,0-.251-1.93C372.555,221.6,373.107,221.307,373.274,221.7Z" transform="translate(-324.124 -219.871)" fill="#fbba84"/>
          <path id="Trazado_141529" data-name="Trazado 141529" d="M338.574,231.306a6.515,6.515,0,0,1,4.091,2.936c.547.817,2.25,3.4,1.561,4.338a.277.277,0,0,1-.363.1c-.2-.083-.211-.139-.286-.337a.2.2,0,0,1,.092-.227l.093-.055c.011-.007.021,0,.032-.006-.293-.522-.829-1.582-.9-1.718a12.81,12.81,0,0,0-.973-1.66,5.611,5.611,0,0,0-3.6-2.415C337.7,232.15,337.951,231.18,338.574,231.306Z" transform="translate(-320.011 -221.032)" fill="#fbba84"/>
          <path id="Trazado_141530" data-name="Trazado 141530" d="M336.177,232.839c.684.2,1.178.92,1.66,1.423a17.343,17.343,0,0,1,1.572,1.773c.149.207-.145.494-.352.353a17.381,17.381,0,0,1-1.82-1.526c-.52-.47-1.24-.932-1.462-1.614A.333.333,0,0,1,336.177,232.839Z" transform="translate(-319.75 -221.214)" fill="#fbba84"/>
          <path id="Trazado_141531" data-name="Trazado 141531" d="M340.761,227.82a4.482,4.482,0,0,1,1.189.63c.414.258.821.526,1.231.791a.319.319,0,0,1-.32.551c-.424-.239-.85-.475-1.271-.722a4.523,4.523,0,0,1-1.112-.758A.3.3,0,0,1,340.761,227.82Z" transform="translate(-320.3 -220.619)" fill="#fbba84"/>
          <path id="Trazado_141532" data-name="Trazado 141532" d="M327.4,248.944c-.159.3-.354.641-.59,1.021-1.291,2.079-3.8,6.471-6.56,6.487.386-1.15,6.055-11.1,4.985-11.857C327.709,246.336,328.513,246.8,327.4,248.944Z" transform="translate(-317.909 -222.61)" fill="#ffeed7"/>
          <path id="Trazado_141533" data-name="Trazado 141533" d="M444.09,360.531a47.411,47.411,0,0,1,15.86,7.353c.97.692,12.051-17.15,12.974-18.841a112.61,112.61,0,0,0,9.018-21.649,110.778,110.778,0,0,0,4.313-23.046c.253-3.237.616-5.163-2.461-6.636a54.362,54.362,0,0,0-10.944-3.706c.229,3.28.882,6.861.747,10.166-.188,4.542-2.358,9.458-3.867,13.7a126.04,126.04,0,0,1-13.088,26.462A123.631,123.631,0,0,1,444.09,360.531Z" transform="translate(-332.605 -228.474)" fill="#ffeed7"/>
          <path id="Trazado_141534" data-name="Trazado 141534" d="M497.832,387.9l-21.5-10.64c-5.5-2.722-12.147-4.442-17.093-8.085,1.609-2.352,3.895-3.971,5.629-6.205a79.2,79.2,0,0,0,5.678-9.124,115.355,115.355,0,0,0,14.024-40.055c.3-1.939,2.812-19.922,1.225-20.395l43.314,12.875a115.3,115.3,0,0,1-17.8,76.865c-2.021,3.081-4.769,6.379-8.454,6.362A11.735,11.735,0,0,1,497.832,387.9Z" transform="translate(-334.402 -228.402)" fill="#fec438"/>
        </g>
        <g id="Grupo_63421" data-name="Grupo 63421">
          <path id="Rectángulo_19133" data-name="Rectángulo 19133" d="M3.911,0H15.183a0,0,0,0,1,0,0V60.6a0,0,0,0,1,0,0H0a0,0,0,0,1,0,0V3.911A3.911,3.911,0,0,1,3.911,0Z" transform="translate(98.111 0) rotate(47.622)" fill="#233143"/>
          <rect id="Rectángulo_19134" data-name="Rectángulo 19134" width="15.183" height="3.776" transform="translate(56.136 38.299) rotate(47.622)" fill="#ffeed7"/>
          <path id="Trazado_141535" data-name="Trazado 141535" d="M390.74,223.633h0l31.553-28.79,2.952,3.234-28.318,25.839A4.379,4.379,0,0,1,390.74,223.633Z" transform="translate(-311.633 -181.089)" fill="#364973"/>
          <rect id="Rectángulo_19135" data-name="Rectángulo 19135" width="12.341" height="60.598" transform="translate(54.167 42.02) rotate(47.622)" fill="#233143"/>
          <rect id="Rectángulo_19136" data-name="Rectángulo 19136" width="12.341" height="4.993" transform="translate(54.167 42.02) rotate(47.622)" fill="#162334"/>
          <path id="Trazado_141536" data-name="Trazado 141536" d="M300.982,292.042l3.811-1.681a10.261,10.261,0,0,0-2.046-1.5Z" transform="translate(-300.982 -192.247)" fill="#233143"/>
          <path id="Trazado_141537" data-name="Trazado 141537" d="M310.622,273.258l-7.638,13.755a10.26,10.26,0,0,1,2.046,1.5l13.909-6.135Z" transform="translate(-301.22 -190.395)" fill="#364973"/>
          <rect id="Rectángulo_19137" data-name="Rectángulo 19137" width="7.876" height="1.863" transform="matrix(0.674, 0.739, -0.739, 0.674, 105.351, 7.936)" fill="#364973"/>
        </g>
        <g id="Grupo_63422" data-name="Grupo 63422" transform="translate(15.836 66.553)">
          <path id="Trazado_141538" data-name="Trazado 141538" d="M386.51,285.355a28.4,28.4,0,0,1-5.113.1c-6.291-.517-13.32-4.119-18.986-6.708a38.848,38.848,0,0,1-16.5-14.454c-3.55-5.581-8.42-9.624-15.579-9.538-4.805.058-11.7,2.461-11.371,8.225.155,2.7,1.6,5.158,3.218,7.33s3.457,4.217,4.617,6.664c1.688,3.561,1.8,7.707,3.484,11.271,2.62,5.559,8.469,8.7,12.931,12.929,4.67,4.424,7.941,10.206,12.84,14.375,6.993,5.951,16.558,8.043,24.995,11.155q15.017,5.541,30.366,10.114c2.826.842,5.823,1.664,8.681.941,3.5-.884,6.046-3.906,7.831-7.044,7.054-12.4,6.125-30.987-5.745-40.084-5.638-4.321-12.754-6.422-19.841-6.9C397.063,283.38,391.715,284.843,386.51,285.355Z" transform="translate(-318.95 -254.751)" fill="#fdd5ae"/>
          <path id="Trazado_141539" data-name="Trazado 141539" d="M320,267.36c.056-3.019,3.535-7.913,6.977-5.861a8.572,8.572,0,0,1,2.633,3.036c1.125,1.811,2.649,4.62,1.92,6.859-.249.765-4.349,4.765-4.311,4.8C324.6,273.522,322.362,270.292,320,267.36Z" transform="translate(-319.075 -255.494)" fill="#ffeed7"/>
          <path id="Trazado_141540" data-name="Trazado 141540" d="M377.517,311.727c-1.659,1.2-2.977,2.841-4.622,4.089-1.8,1.367-3.789,2.411-5.677,3.645a.221.221,0,0,0,.17.4c3.739-.958,8.77-4.135,10.675-7.592C378.243,311.948,377.859,311.479,377.517,311.727Z" transform="translate(-324.666 -261.504)" fill="#fbba84"/>
          <path id="Trazado_141541" data-name="Trazado 141541" d="M370.672,312.919a7.588,7.588,0,0,0-.61.976,5.229,5.229,0,0,1-.809.911,16.485,16.485,0,0,1-2.1,1.233.307.307,0,0,0,.072.554,3.282,3.282,0,0,0,2.645-.873,3.564,3.564,0,0,0,1.533-2.5A.435.435,0,0,0,370.672,312.919Z" transform="translate(-324.654 -261.639)" fill="#fbba84"/>
          <path id="Trazado_141542" data-name="Trazado 141542" d="M369.654,307.652c-.795.565-8.27,7.455-8.444,7.249a.229.229,0,0,0-.38.221l.075.226a.274.274,0,0,0,.191.191c1.277.233,2.731-1.507,3.629-2.257a44.319,44.319,0,0,0,5.466-4.934C370.5,307.993,370.092,307.339,369.654,307.652Z" transform="translate(-323.918 -261.019)" fill="#fbba84"/>
          <path id="Trazado_141543" data-name="Trazado 141543" d="M342.175,282.739a13.548,13.548,0,0,0-8.029,4.769c-.108.136.034.387.2.265a39.774,39.774,0,0,1,3.825-2.594c1.369-.754,2.833-1.209,4.254-1.837C342.8,283.177,342.508,282.692,342.175,282.739Z" transform="translate(-320.749 -258.072)" fill="#fbba84"/>
          <path id="Trazado_141544" data-name="Trazado 141544" d="M340.176,288.746a9.6,9.6,0,0,0-3.183,2.331c-.146.133.041.352.2.264a9.5,9.5,0,0,0,3.232-2.158C340.577,289,340.451,288.655,340.176,288.746Z" transform="translate(-321.085 -258.784)" fill="#fbba84"/>
          <path id="Trazado_141545" data-name="Trazado 141545" d="M343.652,289.071a14.445,14.445,0,0,1-2.851,3.207,15.708,15.708,0,0,1-3.872,1.89.218.218,0,0,0,.058.426c3.048.19,6.451-2.394,7.351-5.233C344.476,288.928,343.888,288.746,343.652,289.071Z" transform="translate(-321.065 -258.804)" fill="#fbba84"/>
          <path id="Trazado_141546" data-name="Trazado 141546" d="M382.83,319.334a27.214,27.214,0,0,1-3.64,4.079,50.77,50.77,0,0,1-4.972,3.12c-.16.107-.122.429.11.4,3.623-.4,7.585-3.948,9.075-7.16C383.563,319.433,383.109,318.985,382.83,319.334Z" transform="translate(-325.497 -262.4)" fill="#fbba84"/>
        </g>
      </g>
    </g>
  </g>
</svg>
