<svg xmlns="http://www.w3.org/2000/svg" xmlns:xlink="http://www.w3.org/1999/xlink" width="214" height="294" viewBox="0 0 214 294">
  <defs>
    <clipPath id="clip-path">
      <rect width="214" height="294" fill="none"/>
    </clipPath>
  </defs>
  <g id="Cuadrícula_de_repetición_1" data-name="Cuadrícula de repetición 1" clip-path="url(#clip-path)">
    <g id="Grupo_63819" data-name="Grupo 63819" transform="translate(-451 -3715.5)">
      <g id="Grupo_57258" data-name="Grupo 57258" transform="translate(-11 1878)">
        <g id="CBD-logo_0" transform="translate(462 1896)" fill="rgba(255,255,255,0.97)" stroke="#c2f3f0" stroke-width="3">
          <rect width="184" height="184" rx="21" stroke="none"/>
          <rect x="1.5" y="1.5" width="181" height="181" rx="19.5" fill="none"/>
        </g>
      </g>
      <line id="Línea_611" data-name="Línea 611" y2="294" transform="translate(663.5 3715.5)" fill="none" stroke="#707070" stroke-width="3" stroke-dasharray="5" opacity="0.5"/>
      <g id="Grupo_62180" data-name="Grupo 62180" transform="translate(675.004 3425.319)">
        <path id="Trazado_138430" data-name="Trazado 138430" d="M-140.193,433.485c2.9-.411,4.575.978,5.882,3.019a1.065,1.065,0,0,1-.04,1.367c-1.964,1.63-3.7,3.526-6.032,4.727-3.09,1.594-6.01,3.534-9.152,5-2.128.995-3.941,2.466-6.111,3.4-2.121.916-3.961,2.456-6.017,3.551-1.649.878-3.257,1.8-4.857,2.76-1.774,1.068-3.544,2.116-5.243,3.309-.941.661-1.672.964-3.039-.227a10.573,10.573,0,0,1-3.336-5.219c-.519-1.856-1.036-3.734-1.6-5.583-.936-3.069-.739-6.391-2.168-9.344-.447-.924.786-1.08.929-1.814.26-1.323.687-2.248,2.521-2.311a4.154,4.154,0,0,0,3.117-1.715c.576-.934,2.291.177,2.708-1.3,1.705.489,2.653-1.145,4.091-1.555a20.289,20.289,0,0,0,5.33-2.067c2.254-1.442,4.871-1.77,7.215-2.908,3.356-1.627,7.052-2.435,10.376-4.255a9.259,9.259,0,0,1,6.217-1.008c1.634.334.714,1.934.484,2.558a31.233,31.233,0,0,1-3.014,5.822c-.454.716-.693,1.6-1.165,2.366-.16.259-.507,1.095.527,1.09C-141.681,433.143-140.839,433.665-140.193,433.485Zm-2.436-8.49c-2.1.132-3.551,1.443-5.27,2.067-3.479,1.267-6.818,2.979-10.361,3.993a107.35,107.35,0,0,0-10.826,4.185c-2.708,1.1-5.328,2.421-7.969,3.679-.7.334-1.565.811-1.136,1.747.781,1.7.818,3.539,1.19,5.306a74.232,74.232,0,0,0,3.227,10.714c.4,1.066,1.041,1.515,2.042.936,2.054-1.188,3.83-2.788,5.78-4.137,2.9-2.006,6.127-3.392,9.092-5.266,2.411-1.522,5.143-2.725,7.712-4.043a88.505,88.505,0,0,0,9.146-5.26,1.729,1.729,0,0,0,.609-1.549c-.018-.2.092-.662-.589-.627-1.675.089-3.319-.452-5.053-.087-1.395.294-2.7-1.7-2.553-3.092.083-.8.964-.431.956-1.1a6.781,6.781,0,0,1,2.379-4.829A8.129,8.129,0,0,0-142.629,424.995Z" transform="translate(0 15.755)" fill="#222f3f"/>
        <path id="Trazado_138431" data-name="Trazado 138431" d="M-136.22,417.4c2.458-2.254,4.836-4.387,7.09-6.6,1.221-1.2,2.907-1.937,3.8-3.534a1.431,1.431,0,0,1,1.84-.434c.9.487-.122.849-.239,1.276-.6,2.2-.707,4.5-1.445,6.671-.217.636-.242,1.295-.874,1.7-.152.1-.382.257-.377.38.125,2.678-.919,5.053-1.805,7.5a49.551,49.551,0,0,0-1.2,4.914c-.184.737-.457,1.32-1.46,1.275-1.106-.047-.7-.9-.939-1.412a3.842,3.842,0,0,1,.005-3.152c.879-2.011,1.108-4.19,1.854-6.226.589-1.6,1.12-3.227,1.672-4.844.1-.279.319-.616.008-.841-.387-.284-.584.123-.889.3-1.358.8-1.7,2.548-3.112,3.279-1.816.938-2.645,2.853-4.1,4.147a1.766,1.766,0,0,1-2.752-1.12c-.4-4.193-.652-8.4-1.076-12.59-.057-.572.506-.647.416-1.063-.077-.354-.123-.761-.622-.778-.384-.013-.374.205-.467.549-1.016,3.748-2.024,7.5-3.2,11.2-.656,2.076-1.06,4.238-1.846,6.251-1.19,3.044-3.588,2.768-6.2.744-2.937-2.274-6.022-4.36-9.052-6.513-.184-.132-.462-.209-.829.232a28.1,28.1,0,0,1,2.423,3.593c1.106,2.057,1.894,4.3,3.319,6.222.659.888-.169,1.959-.539,2.982-2.383-1.587-3.506-3.911-4.657-6.5A73.667,73.667,0,0,1-165.047,415c-.3-1.068-1.6-1.288-2-2.3,1.572-.38,12.236,6.366,17.838,11.27a67.391,67.391,0,0,1,2.3-8.413c1.887-5.844,3.457-11.821,6.264-17.342.187-.369.272-.666.716-.629.374.03.389.324.506.624a31.832,31.832,0,0,1,1.412,6.453c.337,2.019.7,4.036,1.015,6.059C-136.655,412.887-136.872,415.121-136.22,417.4Z" transform="translate(10.002 0)" fill="#222f3f"/>
        <path id="Trazado_138432" data-name="Trazado 138432" d="M-143.319,418.853c1.4-.691,2.428.933,3.93,1.081a3.646,3.646,0,0,0,2.4-.115,4.377,4.377,0,0,1,3.995.063c2.848,1.328,5.959,1.817,8.867,2.875a52.42,52.42,0,0,0,5.945,2.261c1.612.372,3.044,1.4,4.759,1.288.786-.053,1.115.657,1.745.9,2.588,1,5.281,1.679,7.744,3.087,2.563,1.465,3.2,2.927,1.285,5.263-1.58,1.931-2.031,4.4-3.477,6.346-1.39,1.872-2.646,4.033-4.944,4.816-1.225.419-2.72-.105-4.122-.057a15.366,15.366,0,0,1-4.48-.986,57.8,57.8,0,0,1-7.185-2.243c-1.859-.8-4.08-1.181-5.98-1.929a54.522,54.522,0,0,1-5.885-2.253c-2.68-1.418-4.23-4.006-6.666-5.491-1.44-.876-2.54-2.2-4.135-2.838a5.365,5.365,0,0,1-2.288-2.154c-.456-.677-.285-1.308.644-1.7,2.021-.849,3.784-2.213,5.9-2.912,1.353-.447,1.842-1.3.472-2.441a1.532,1.532,0,0,1-.522-1.974A1.6,1.6,0,0,1-143.319,418.853Zm30.554,24.858a2.157,2.157,0,0,0,1.881-.953,15.763,15.763,0,0,0,1.605-2.99c1.193-2.188,2.8-4.13,3.811-6.426.287-.652.647-1.211-.6-1.565-.836-.235-1.72-.347-2.553-.569-1.787-.476-3.384-1.418-5.089-1.926-2.253-.667-4.529-1.293-6.756-2.052-3.759-1.283-7.46-2.757-11.265-3.88-1.1-.324-2.253-1.355-3.107-1.078-2.3.749-4.125-.4-6.106-.953-.459-.128-.846-.342-1.07.174-.164.379.177.562.492.811a1.923,1.923,0,0,1-.274,3.245c-1.357.868-3.145.412-4.444,1.557-.315.279-1.3.235-1.073.8.262.647-.032,1.67.968,1.956,1.415.4,2.289,1.527,3.389,2.371.846.651,1.075,1.772,2.129,2.2,3.484,1.425,6.86,3.18,10.436,4.307,3.623,1.14,7.22,2.37,10.818,3.578A43.823,43.823,0,0,0-112.765,443.711Z" transform="translate(20.028 14.111)" fill="#222f3f"/>
        <path id="Trazado_138433" data-name="Trazado 138433" d="M-138.737,439.731c-.12,1.844-1.445,2.361-2.96,2.56a28.267,28.267,0,0,0-6.983,2.376,2,2,0,0,1-1.685.244c-1.857-.689-2.63-1.655-1.714-3.311.954-1.72.591-3.579,1.031-5.336.4-1.585,1.347-3.152,1.048-4.989-.073-.447,1.046-1.178,1.977-.494,2.915,2.138,5.682,4.455,8.387,6.851A2.4,2.4,0,0,1-138.737,439.731Zm-9.655-5.9a3.923,3.923,0,0,1,.082,2.5,16.755,16.755,0,0,0-.836,3.816c-.087.584-.013,1.283.944,1.088a15.265,15.265,0,0,0,4.792-1.639c.637-.377,1.185-1.158.661-1.607C-144.375,436.6-146.187,435.426-148.392,433.834Z" transform="translate(19.751 22.012)" fill="#222f3f"/>
        <path id="Trazado_138434" data-name="Trazado 138434" d="M-147.711,445.877c-.572,1.141.219,2.253.424,3.227.584,2.8-.093,5.57.245,8.33a2.487,2.487,0,0,1-.319,1.368c-.269.507.06,1.677-.894,1.408a2.243,2.243,0,0,1-1.842-1.782c-.27-2.782-.537-5.563-.731-8.35-.133-1.912-.16-3.833-.2-5.752-.017-.808-.254-1.869.943-1.991a2.33,2.33,0,0,1,2.294,1.443A1.866,1.866,0,0,1-147.711,445.877Z" transform="translate(20.689 29.919)" fill="#222f3f"/>
        <path id="Trazado_138435" data-name="Trazado 138435" d="M-152.2,442.8c.252,1.719-1.473,2.545-2.067,3.981-.926,2.233-2.6,4.083-3.346,6.468a2.37,2.37,0,0,1-2.745,1.378c-1.165-.252-.743-1.4-.636-2.311.179-1.505,1.22-2.551,1.877-3.793a6.649,6.649,0,0,0,.746-1.512c.567-2.159,2.5-3.589,3.282-5.7.093-.252,1.045-1.015,1.539-.622C-152.939,441.176-151.989,441.61-152.2,442.8Z" transform="translate(13.942 28.755)" fill="#222f3f"/>
        <path id="Trazado_138436" data-name="Trazado 138436" d="M-129.154,410.539a2.241,2.241,0,0,1-.774,2.1c-2,1.8-3.14,4.4-5.533,5.835-.451.272-.654,1.021-.878,1.587a1.612,1.612,0,0,1-2.134.856c-.988-.254-.948-1.1-.511-1.932.162-.31.09-.8.314-1.011,2.793-2.613,4.854-5.942,8.046-8.18a1.282,1.282,0,0,1,1.223-.225C-128.8,409.728-129.243,410.215-129.154,410.539Z" transform="translate(28.568 7.976)" fill="#222f3f"/>
        <path id="Trazado_138437" data-name="Trazado 138437" d="M-142.694,441.593a1.172,1.172,0,0,1,.637-1.537c.642-.289,1.085.424,1.433.816a27.173,27.173,0,0,1,5,8.423,1.794,1.794,0,0,1-.537,2.326c-.958.494-1.358-.521-1.815-1.125a76.036,76.036,0,0,1-4.542-7.4A1.765,1.765,0,0,1-142.694,441.593Z" transform="translate(26.222 28.357)" fill="#222f3f"/>
        <path id="Trazado_138438" data-name="Trazado 138438" d="M-171.408,412.885c2.426,2.321,4.978,3.8,6.716,6.352.686,1.008,1.752,1.844,2.246,3.047.22.534.347,1.1-.39,1.522a1.076,1.076,0,0,1-1.589-.267C-167.076,420.394-170.15,417.535-171.408,412.885Z" transform="translate(7.085 10.234)" fill="#222f3f"/>
      </g>
    </g>
  </g>
</svg>
