<svg xmlns="http://www.w3.org/2000/svg" xmlns:xlink="http://www.w3.org/1999/xlink" width="138.956" height="153.285" viewBox="0 0 138.956 153.285">
  <defs>
    <linearGradient id="linear-gradient" x1="515.914" y1="47.097" x2="516.92" y2="47.097" gradientUnits="objectBoundingBox">
      <stop offset="0" stop-color="#fff"/>
      <stop offset="1" stop-color="#ededed"/>
    </linearGradient>
    <linearGradient id="linear-gradient-2" x1="1266.323" y1="236.634" x2="1267.224" y2="236.634" xlink:href="#linear-gradient"/>
  </defs>
  <g id="Grupo_63846" data-name="Grupo 63846" transform="translate(-508.984 -5745.5)">
    <line id="Línea_913" data-name="Línea 913" y2="153" transform="translate(643.5 5745.5)" fill="none" stroke="#707070" stroke-width="3" stroke-dasharray="5" opacity="0.5"/>
    <g id="Grupo_63372" data-name="Grupo 63372" transform="translate(-1079.089 4138.171)">
      <path id="Trazado_140871" data-name="Trazado 140871" d="M1693.26,2043.073s1.75-1.666,2.949-.986a2.32,2.32,0,0,0,3.4-1.7l-1.248-4.2Z" transform="translate(-78.414 -311.646)" fill="#375682"/>
      <path id="Trazado_140872" data-name="Trazado 140872" d="M1693.858,2143.035s-3.577,3.831-3.241,4.729a14.8,14.8,0,0,0,.669,1.441l-.066.929-.7-.453-1.193-3.107,3-4.535Z" transform="translate(-75.485 -390.558)" fill="#f69772"/>
      <path id="Trazado_140873" data-name="Trazado 140873" d="M1700.756,2064.03l-1.481,14.558-.169.205-2.067,2.5-5.771,7.7-2.179-1.507c.642-1.046,1.433-2.3,2.192-3.486,1.98-3.091,3.984-6.175,5.267-7.292l-.026-12.115.085-.011Z" transform="translate(-75.304 -332.404)" fill="#1e3565"/>
      <path id="Trazado_140874" data-name="Trazado 140874" d="M1705.527,2080.422l-2.066,2.5c-.732-.224-3.175-.633-5.758,2.708,1.981-3.091,3.984-6.175,5.267-7.292l-.026-12.115.085-.011Z" transform="translate(-81.726 -334.033)" fill="#14274d" opacity="0.3" style="mix-blend-mode: multiply;isolation: isolate"/>
      <path id="Trazado_140875" data-name="Trazado 140875" d="M1727.753,2145.125s-.8,4.923-.125,5.559a7.481,7.481,0,0,0,1.449.889l.3.716h-.8l-2.581-1.611,0-5.552Z" transform="translate(-102.811 -392.858)" fill="#f69772"/>
      <path id="Trazado_140876" data-name="Trazado 140876" d="M1724.119,2166.947a4.007,4.007,0,0,0-.638,2.176l6.189-.012a.254.254,0,0,0,.162-.448,1.25,1.25,0,0,0-1.1-.181.529.529,0,0,1-.342-.046l-1.182-.594-.227.364Z" transform="translate(-100.942 -409.126)" fill="#fff"/>
      <path id="Trazado_140877" data-name="Trazado 140877" d="M1687.924,2163.375a1.287,1.287,0,0,0-1.137-.187.538.538,0,0,1-.35-.049l-.292-.145-.217-.507-.574.193-1.379-2.823a3.326,3.326,0,0,0-1.829,1.161l1.579,1.332,1.769,1.491,1.026,0,1.236,0a.26.26,0,0,0,.168-.461Z" transform="translate(-70.129 -403.84)" fill="#fff"/>
      <path id="Trazado_140878" data-name="Trazado 140878" d="M1719.356,2044l-.881,29.224-2.741,0c0-1.574-.1-2.41-.187-4.175a36.2,36.2,0,0,1,.183-7.993l-1.545-12.028c-1.993-1.929-.727-5.239-.727-5.239l1.086-.221,2.085-.424Z" transform="translate(-93.175 -316.836)" fill="#1e3565"/>
      <path id="Trazado_140879" data-name="Trazado 140879" d="M1717.689,2062.077l-1.2.589a45.362,45.362,0,0,0-.942,7.626,36.207,36.207,0,0,1,.183-7.993l-1.545-12.028c-1.993-1.929-.727-5.239-.727-5.239l1.086-.221,2.075,1.464s-2.023,1.012-.573,4.206l.442,11.6Z" transform="translate(-93.175 -318.077)" fill="#14274d"/>
      <path id="Trazado_140880" data-name="Trazado 140880" d="M1639.01,1996.853a41.04,41.04,0,0,0-2.641,3.873c-.912,1.519-2.076,3.08-3.2,4.589a45.145,45.145,0,0,0-3.892,5.8,10.567,10.567,0,0,0-.853,3.46c-.222,1.68-.451,3.417-1.659,4.682-3.084,3.231-7.768,2.073-11.023.922-2.905-1.029-6.188-1.786-8.512.389a9.836,9.836,0,0,0-2.31,4.521,11.011,11.011,0,0,1-2.417,4.78c-1.694,1.689-3.658,1.9-5.737,2.122-.357.038-.726.078-1.095.125a21.7,21.7,0,0,0-6.322,2.07l-.806.356c-.1.047-.262.108-.468.185v-.824l.158-.066c.273-.119.54-.239.8-.355a22.319,22.319,0,0,1,6.537-2.13c.376-.049.749-.089,1.111-.127,2.024-.217,3.772-.4,5.274-1.9a10.271,10.271,0,0,0,2.227-4.465,10.545,10.545,0,0,1,2.519-4.852c2.64-2.471,6.354-1.594,9.294-.553,6.376,2.256,8.88.665,10.21-.727,1.035-1.085,1.238-2.622,1.453-4.251a11.111,11.111,0,0,1,.933-3.715,45.842,45.842,0,0,1,3.957-5.906c1.115-1.495,2.268-3.039,3.159-4.525a42.073,42.073,0,0,1,2.691-3.947,6.624,6.624,0,0,0,1.481-4.9,5.93,5.93,0,0,0-.659-2.163l.659-.4a6.547,6.547,0,0,1,.761,2.435A7.419,7.419,0,0,1,1639.01,1996.853Z" transform="translate(0 -276.41)" fill="#fff"/>
      <g id="Grupo_63347" data-name="Grupo 63347" transform="translate(1628.34 1632.696)">
        <path id="Trazado_140881" data-name="Trazado 140881" d="M1804.517,1704.45a29.012,29.012,0,0,1-1.066,7.818v0a29.119,29.119,0,1,1-32.874-36.527q1.073-.183,2.173-.278,1.3-.117,2.63-.119c.762,0,1.512.029,2.26.087h0a28.778,28.778,0,0,1,6.135,1.144A29.118,29.118,0,0,1,1804.517,1704.45Z" transform="translate(-1746.277 -1675.347)" fill="#e65056" fill-rule="evenodd"/>
        <path id="Trazado_140882" data-name="Trazado 140882" d="M1801.348,1787.092v-4h2.608Z" transform="translate(-1787.331 -1755.669)" fill="#b73646" fill-rule="evenodd"/>
        <path id="Trazado_140883" data-name="Trazado 140883" d="M1796.117,1705.5h-4.212l-.979.979h-.843l.144-3.115-2.318-1.809-1.592-1.208h-2.511l-1.411-1.109h-.423l-1.4,1.544-3.186-2.8h-1.5v-1.017l1.981-1.978H1776.8l-1.249,1.246h-1.59v-2.26l2.856-3.357,1.054-.5,1.641.869h1.631l-.037-3.091,3.748-2.462v-.964h2.72v-.58l-.788-.851,1.535-1.249,1.185,1.182h1.138v-1.089l-2.4-2.393h-1.15l-1.069,1.069-.049,1.159-2.352.545-.3-.3v-.915l-.29-.321h-.707v-.632l.878-.843,2.292-.426,1.043-1.014,1.179.29,1.109-1.19a29.054,29.054,0,0,0-16.3,8.67v1.185l-1.773,2.1v4.762l.756-.756v-1.581l.8,1.2v1.883l-.481.481v1.353l1.738,2.268h1.3l3.667,3.43h1.836l-1.836,6.034,2.343,2.453v2.6l4.272,2.963v.965l-.553,3.27.889,2.813,1.159,5.889,2.126,2.077h.965l-1.3-1.254v-3.43l1.159-1.4v-2.222h2.945l1.545-2.171-.629-2.97h1.04l1.231-1.231v-2.9l3.186-4.681Z" transform="translate(-1764.526 -1676.509)" fill="#b73646" fill-rule="evenodd"/>
        <path id="Trazado_140884" data-name="Trazado 140884" d="M1855.174,1675.434c-.747-.058-1.5-.087-2.259-.087q-1.329,0-2.63.119v.689l1.156,1.333h.993v-.851l.481-.412Z" transform="translate(-1823.812 -1675.347)" fill="#b73646" fill-rule="evenodd"/>
        <path id="Trazado_140885" data-name="Trazado 140885" d="M1893.611,1680.183l.681.985,2.077.771v1.225l-.991,1.069v1.014l1.521,1.014-.6.942v1.037h1.978l1.544-2.219,1.642.892v.964l1.518-.023.944.023v.869h.82l.533-.771,1.978,2.317v.909h-1.327l-.8-1.008h-1.692l-1.109-1.254H1900.5l-2.462,1.787v.869l-1.234,1.611v.947l-.046,3.042-.556,1.448-.776,1.315.97,2.065h2.847l1.448,2.364,1.135,1.99,3.209-3.293.406.405v.608h2.636l-1.4,2.439v1.014l1.883,1.883v1.466l-1.231,2.155v5.069l-1.81,4.128v2.9h.941l1.338-2.838.032.065,1.065,0,1.056-2.3h1.805a29.125,29.125,0,0,0,1.532-4.2v0a29.114,29.114,0,0,0-19.674-35.69Z" transform="translate(-1856.111 -1678.952)" fill="#b73646" fill-rule="evenodd"/>
      </g>
      <path id="Trazado_140886" data-name="Trazado 140886" d="M1810.182,1874.034l-.011-.025a2.489,2.489,0,0,0-.743-.954c-2.057-1.611-3.814-.433-4.73.489a1.719,1.719,0,0,1-2.431.008,2.145,2.145,0,0,1-.234-2.653,4.4,4.4,0,0,0-.743-4.606,4.6,4.6,0,0,0-1.539-1.105,3.7,3.7,0,0,0-.634-.215,4.35,4.35,0,0,0-4.553,6.754l.042.057a.247.247,0,0,1,.027.044c1.713,3.657.357,5.1-.013,5.406a6.623,6.623,0,0,0-.5.463c-2.133,2.178-1.7,4.227-.776,7.443.978,3.412-2.457,7.007-2.457,7.007l.5.677.319-.314.122.292a7.179,7.179,0,0,1,4.675-.547,2.442,2.442,0,0,0,2.969-1.291c.318-.875-.384-1.961.4-2.678,1.836-1.677,2.788,1.444,3.932,2.19a2.593,2.593,0,0,0,3.772-1.65c.351-1.28-.611-2.632-1.612-3.341-3.479-2.466-9.285,1.821-11.008,3.674q-.158.169-.314.331c.271-.306.537-.614.793-.922a12.652,12.652,0,0,1,6.348-4.31c2.077-.507,4.738-.474,5.219-3.1a5.938,5.938,0,0,1,2.254-3.526A3.033,3.033,0,0,0,1810.182,1874.034Z" transform="translate(-151.189 -183.923)" fill="#fff" opacity="0.8"/>
      <g id="Grupo_63349" data-name="Grupo 63349" transform="translate(1636.917 1707.583)">
        <path id="Trazado_140887" data-name="Trazado 140887" d="M1780.741,1984.469l.02-.012s.838-.781,1.078-1.044a8.518,8.518,0,0,1,.936-.521,4.75,4.75,0,0,0,.5-.369h0c.165-.133.4-.277.422-.4a.622.622,0,0,1-.232-.741.274.274,0,0,0-.169-.033c.122-.151.194-.27.157-.363a.353.353,0,0,0-.26-.213.239.239,0,0,0,.028-.222.272.272,0,0,0-.409-.131,2.106,2.106,0,0,0-.33.253.164.164,0,0,0-.206-.061,5.141,5.141,0,0,0-.808.267.631.631,0,0,0-.147.324c-.037.146-.065.312-.091.439-.09.442-.109.844-.171.982-.011.026-1.085,1-1.085,1Z" transform="translate(-1779.975 -1977.62)" fill="#f69772"/>
        <g id="Grupo_63348" data-name="Grupo 63348" transform="translate(1.053)">
          <path id="Trazado_140888" data-name="Trazado 140888" d="M1785.14,1978.351l-.4-1-.076.059a.185.185,0,0,0-.063.2l.106.345-.26.2.054.069s.156-.146.242,0Z" transform="translate(-1784.359 -1975.372)" fill="#2c518d"/>
          <path id="Trazado_140889" data-name="Trazado 140889" d="M1784.561,1978.481l-.251.2a.122.122,0,0,1-.15-.192l.251-.2Z" transform="translate(-1784.113 -1976.069)" fill="#2c518d"/>
          <path id="Trazado_140890" data-name="Trazado 140890" d="M1786.7,1971.23l-.19.148a.208.208,0,0,0-.079.187l.025.223-.967.756a.39.39,0,0,0-.133.462l.261.76a1.091,1.091,0,0,1,.027.269l.022,1.095a2.741,2.741,0,0,0,.3,1.034l.073.132a.3.3,0,0,0,.406.113l.7-.4a.2.2,0,0,0,.09-.316l-.339-.534a2.4,2.4,0,0,0-.353-1.027.277.277,0,0,1-.019-.247l.073-.178a.281.281,0,0,0,.02-.125.237.237,0,0,0-.086-.165l-.008-.007a.475.475,0,0,1,.015-.738l.376-.294.185.081a.209.209,0,0,0,.212-.027l.2-.158Z" transform="translate(-1785.027 -1970.807)" fill="#2c518d"/>
          <path id="Trazado_140891" data-name="Trazado 140891" d="M1791.646,1971.57l-.1.076a.12.12,0,0,1-.169-.021l-.8-1.025a.12.12,0,0,1,.021-.169l.1-.076Z" transform="translate(-1788.915 -1970.154)" fill="#2e3e73"/>
          <path id="Trazado_140892" data-name="Trazado 140892" d="M1792.059,1970.826a.156.156,0,0,1-.247.192l-.936-1.2a.156.156,0,1,1,.247-.193Z" transform="translate(-1789.13 -1969.567)" fill="#fff"/>
        </g>
        <path id="Trazado_140893" data-name="Trazado 140893" d="M1789.38,1980.9l-.032.024c-.165.121-.376.25-.4.369a.623.623,0,0,1,.213.747.28.28,0,0,0,.168.037c-.126.148-.2.265-.167.359a.353.353,0,0,0,.255.219.239.239,0,0,0-.033.221.271.271,0,0,0,.405.142,2.086,2.086,0,0,0,.336-.245A3.38,3.38,0,0,0,1789.38,1980.9Z" transform="translate(-1786.66 -1978.012)" fill="#f69772"/>
        <path id="Trazado_140894" data-name="Trazado 140894" d="M1786.006,1980.153l1.064-.7a.089.089,0,0,1,.075-.011.091.091,0,0,1,.057.05.3.3,0,0,1-.1.371l-.556.488a.948.948,0,0,1-.142,1.122Z" transform="translate(-1784.471 -1976.926)" fill="#f69772"/>
        <path id="Trazado_140895" data-name="Trazado 140895" d="M1785.862,1983.565a.918.918,0,0,1-.584.186l.185-1.507Z" transform="translate(-1783.928 -1979.017)" fill="#f69772"/>
      </g>
      <rect id="Rectángulo_19109" data-name="Rectángulo 19109" width="0.636" height="1.453" transform="translate(1637.09 1713.156) rotate(-42.407)" fill="#fff"/>
      <path id="Trazado_140896" data-name="Trazado 140896" d="M1744.251,1991.985l-5.833,5.937a1.224,1.224,0,0,1-1.359.27l-.778-.335-4.543-1.964-1.474-.639-.046-4.57,7.4,4.439,5.421-4.47Z" transform="translate(-105.965 -277.703)" fill="#1e3565"/>
      <path id="Trazado_140897" data-name="Trazado 140897" d="M1853.126,1631.807c0-.014,0-.028.007-.042a1.307,1.307,0,1,1,1.745,1.473,1.721,1.721,0,0,1-.212,1.166,1.114,1.114,0,0,1-.617,2.022.679.679,0,1,1-1.064-.7,1.109,1.109,0,0,1-.077-.49l-.061-.01a1.725,1.725,0,0,1,.279-3.417Zm1.136-4.9,0-.028a.876.876,0,1,0-1.43.545,1.157,1.157,0,0,0-.125.784.747.747,0,0,0-.058,1.415.455.455,0,1,0,.828-.207.75.75,0,0,0,.157-.293l.041.007a1.156,1.156,0,0,0,.582-2.223Z" transform="translate(-196.343 -5.768)" fill="#fff" opacity="0.3"/>
      <path id="Trazado_140898" data-name="Trazado 140898" d="M1742.751,1636.8a1.065,1.065,0,0,0-.875-1.894,1.7,1.7,0,0,0,.02-1.051,3.209,3.209,0,1,0,.631-6.083,4.731,4.731,0,0,0,.42-2.506,1.381,1.381,0,1,0,.6-2.664,2.893,2.893,0,1,0-5.316-1.551,4.68,4.68,0,0,0-1.732.344,5.3,5.3,0,1,0-2.872,8.858,1.768,1.768,0,1,0,3.534.09,4.711,4.711,0,0,0,2.91-.231,3.2,3.2,0,0,0,.421,2.553,1.7,1.7,0,1,0,.571,3.185,1.061,1.061,0,0,0,1.69.95Z" transform="translate(-103.819)" fill="#fff" opacity="0.3"/>
      <path id="Trazado_140899" data-name="Trazado 140899" d="M1921.08,1635.315a1.065,1.065,0,0,1,1.1-.4,1.7,1.7,0,0,1-.02-1.051,3.209,3.209,0,1,1-.632-6.083,4.734,4.734,0,0,1-.42-2.506,1.381,1.381,0,1,1-.6-2.664,2.893,2.893,0,1,1,5.316-1.551,4.68,4.68,0,0,1,1.732.344,5.3,5.3,0,1,1,2.872,8.858,1.768,1.768,0,1,1-3.534.09,4.712,4.712,0,0,1-2.91-.231,3.2,3.2,0,0,1-.421,2.553,1.7,1.7,0,1,1-.571,3.185,1.064,1.064,0,1,1-1.914-.54Z" transform="translate(-245.705)" fill="#fff" opacity="0.3"/>
      <path id="Trazado_140900" data-name="Trazado 140900" d="M1740.544,2003.2l-4.543-1.963-.065-3.415a8.111,8.111,0,0,1,2.214,3.365Z" transform="translate(-110.227 -283.048)" fill="#1e3565" opacity="0.3" style="mix-blend-mode: multiply;isolation: isolate"/>
      <path id="Trazado_140901" data-name="Trazado 140901" d="M1731.839,2006.1a6.22,6.22,0,0,1-.07-2.1,13.2,13.2,0,0,0-.3-7.631,3.96,3.96,0,0,0-2-2.123l-.042.337.938,6.484.1.69-.085,1.581-.007.1-.133,2.428a4.828,4.828,0,0,1-.069.6l-.481,2.627a1.319,1.319,0,0,0-.355,1.918,1.011,1.011,0,0,0,.846.069C1732.708,2010.5,1732.149,2008.17,1731.839,2006.1Z" transform="translate(-105.107 -280.385)" fill="#1e3565"/>
      <path id="Trazado_140902" data-name="Trazado 140902" d="M1734.129,2015.072a4.776,4.776,0,0,1-.585,2.437l.912,5.879s.176,1.857-1.156,1.933l-.632-8.271Z" transform="translate(-107.792 -295.907)" fill="#1e3565" opacity="0.4" style="mix-blend-mode: multiply;isolation: isolate"/>
      <path id="Trazado_140903" data-name="Trazado 140903" d="M1727.1,1982.626l-1.688-.31-.572-2.07.334-1.268.991-.737.058-.044h.124l1.794.013-.39,1.656-.03.125-.183.777-.313,1.329,0,.006-.047.2Z" transform="translate(-101.953 -268.418)" fill="#f69772"/>
      <path id="Trazado_140904" data-name="Trazado 140904" d="M1712.056,2003.624a14.543,14.543,0,0,0-2.888.327.64.64,0,0,1-.559-.286.629.629,0,0,1-.053-.622,2.512,2.512,0,0,0,.155-1.589c-.051-.362-.126-.748-.217-1.152-.162-.728-.374-1.51-.588-2.3-.137-.5-.271-1.006-.4-1.5-.1-.406-.2-.8-.276-1.186a7.308,7.308,0,0,1-.064-2.668,6.925,6.925,0,0,1,.75-2.2,9.408,9.408,0,0,1,1.094-1.675c.521-.6,1.741-1.39,2.467-1.216.494.12.964.942,1.426,1.444a1.662,1.662,0,0,0,.332.294,2.561,2.561,0,0,1,.792.758c.056.088.095.152.148.251.037.07.09.172.125.246l.03.06c.072.153.14.313.2.476a7.8,7.8,0,0,1,.377,1.262c.012.062.024.12.034.178a8.036,8.036,0,0,1,.144,1.721,3.677,3.677,0,0,1-.431,1.681,2.835,2.835,0,0,1-.517.685,4.33,4.33,0,0,0,.089,1.2c.074.342.308,2.03.387,2.374.162.73.207,1.706.37,2.534a.478.478,0,0,1-.318.545A5.432,5.432,0,0,1,1712.056,2003.624Z" transform="translate(-88.712 -275.379)" fill="url(#linear-gradient)"/>
      <path id="Trazado_140905" data-name="Trazado 140905" d="M1727.974,1993.921a7.01,7.01,0,0,0-.36-.991,4.588,4.588,0,0,0-.9-1.319l-2.161-2.209,1.38.993a1.665,1.665,0,0,0,.332.294,2.557,2.557,0,0,1,.792.758c.056.088.094.152.148.252s.109.209.155.306h0c.072.153.14.313.2.476a7.8,7.8,0,0,1,.377,1.262C1727.952,1993.8,1727.963,1993.863,1727.974,1993.921Z" transform="translate(-101.742 -276.771)" fill="#cde0eb"/>
      <path id="Trazado_140906" data-name="Trazado 140906" d="M1734.736,1993.612l.46.984-.4.242Z" transform="translate(-109.334 -279.909)" fill="#f05673"/>
      <path id="Trazado_140907" data-name="Trazado 140907" d="M1716.17,2010.863s-2.164,2.345-1.313,4.324c.823,1.912.951.992,1.358,1.923-.083-.012-.17-.018-.252-.029-.043,0-.085-.009-.13-.012a.377.377,0,0,0-.042,0,2.477,2.477,0,0,0-.4,0,2.56,2.56,0,0,0-.63.136,5.216,5.216,0,0,1-1.431.231.64.64,0,0,1-.559-.286.629.629,0,0,1-.053-.621,2.512,2.512,0,0,0,.155-1.59c-.051-.362-.126-.748-.217-1.152l4.506-8.163A5.423,5.423,0,0,1,1716.17,2010.863Z" transform="translate(-92.871 -288.864)" fill="#cde0eb"/>
      <path id="Trazado_140908" data-name="Trazado 140908" d="M1700.792,1995.408c-.044.1-.093.2-.146.3a7.246,7.246,0,0,1-.368.629,10.108,10.108,0,0,1-.852,1.122q-.171.2-.36.4c-.406.435-.838.863-1.2,1.329-1.719,2.189-1.235,3.77-5.083,6.938-.374.309-.79.631-1.252.972a5.5,5.5,0,0,1-.152-3.469,4.871,4.871,0,0,1,.7-1.36l.133-.191a6.254,6.254,0,0,1,.7-.8c.117-.122.232-.241.349-.373.018-.021.037-.042.057-.065a.473.473,0,0,1,.036-.041c.167-.191.552-.618.952-1.059.591-.649,1.216-1.333,1.216-1.333a35.663,35.663,0,0,1-.5-3.755c-.019-.271-.036-.548-.048-.823.087-2.271,1.48-5.61,4.007-6.116l.077-.015C1701.025,1990.522,1701.96,1992.86,1700.792,1995.408Z" transform="translate(-76.853 -275.504)" fill="#1e3565"/>
      <path id="Trazado_140909" data-name="Trazado 140909" d="M1720.663,1987.7l-.5.894.806.337-.381.34s3.293,2.824,1.594,6.591C1722.179,1995.864,1725.159,1992.392,1720.663,1987.7Z" transform="translate(-98.468 -275.503)" fill="#375682"/>
      <g id="Grupo_63351" data-name="Grupo 63351" transform="translate(1620.996 1704.539)">
        <g id="Grupo_63350" data-name="Grupo 63350" transform="translate(0 0)">
          <path id="Trazado_140910" data-name="Trazado 140910" d="M1737.617,1971.546c.1.469.3.825.44.8s.18-.434.081-.9-.3-.825-.44-.8S1737.518,1971.077,1737.617,1971.546Z" transform="translate(-1732.435 -1967.323)" fill="#fff"/>
          <ellipse id="Elipse_1933" data-name="Elipse 1933" cx="1.082" cy="1.161" rx="1.082" ry="1.161" transform="translate(2.715 0.554) rotate(-14.838)" fill="#172f57"/>
          <path id="Trazado_140911" data-name="Trazado 140911" d="M1721.909,1962.216s.934-.62.371-1.356a.865.865,0,0,0-.419-.3,3.2,3.2,0,0,0-1.065-.148,2.7,2.7,0,0,0-1.751.731,4.637,4.637,0,0,1-.526.423,1.084,1.084,0,0,1-.365.159.836.836,0,0,0-.725.894,3.819,3.819,0,0,1,0,.512,2.533,2.533,0,0,0,.59,1.881Z" transform="translate(-1717.422 -1959.694)" fill="#172f57"/>
          <path id="Trazado_140912" data-name="Trazado 140912" d="M1725.274,1969.1a.389.389,0,0,0-.157.315c0,.006,0,.013,0,.019a3.223,3.223,0,0,0,.014.338,2.185,2.185,0,0,0,.041.26,1.152,1.152,0,0,0,.092.266,2.415,2.415,0,0,1,.158.389,1.247,1.247,0,0,1,.05.256c.013.2-.052.363-.309.365,0,0-1.757.139-2.085-.749l-1.116.205-.562.067-1.254-2.273s.015-2,1.59-2.328a3.243,3.243,0,0,1,2.1.105,2.233,2.233,0,0,1,.986,1.627.49.49,0,0,0,.109.379l.425.377A.275.275,0,0,1,1725.274,1969.1Z" transform="translate(-1719.452 -1963.944)" fill="#f69772"/>
          <path id="Trazado_140913" data-name="Trazado 140913" d="M1735.447,1972.048c.1.469.3.825.44.8s.181-.434.081-.9-.3-.825-.44-.8S1735.348,1971.579,1735.447,1972.048Z" transform="translate(-1730.818 -1967.698)" fill="#fff"/>
          <path id="Trazado_140914" data-name="Trazado 140914" d="M1736.5,1982.439l-.418.07a1.268,1.268,0,0,1-1.141-.952,1.236,1.236,0,0,0,1.259-.028,1.147,1.147,0,0,0,.092.265,2.407,2.407,0,0,1,.158.389A1.244,1.244,0,0,1,1736.5,1982.439Z" transform="translate(-1730.485 -1975.44)" fill="#172f57"/>
          <path id="Trazado_140915" data-name="Trazado 140915" d="M1737.714,1979.153a.055.055,0,0,1,.044.012.054.054,0,0,1,.019.042c0,.07,0,.147.006.227a.057.057,0,0,1-.043.06l-.792.207S1737,1979.275,1737.714,1979.153Z" transform="translate(-1731.979 -1973.668)" fill="#172f57"/>
          <path id="Trazado_140916" data-name="Trazado 140916" d="M1726.453,1972.872s-1.757.139-2.085-.749c0,0,.2-1.237-.513-1.328,0,0-1.345-.188-1.167.951l-.812-1.558.206-.927,1.479-1.056.587.141.453.614h0a.842.842,0,0,0-.414,1,2.7,2.7,0,0,0,.6,1.143,3.781,3.781,0,0,1,.413.524,1.645,1.645,0,0,0,1.509.626C1726.8,1972.534,1726.817,1972.869,1726.453,1972.872Z" transform="translate(-1720.742 -1965.507)" fill="#172f57"/>
          <path id="Trazado_140917" data-name="Trazado 140917" d="M1728.411,1973.714a.153.153,0,0,1-.112-.118.144.144,0,0,1,.1-.178l2.551-.586a.153.153,0,0,1,.068.3l-2.551.586A.122.122,0,0,1,1728.411,1973.714Z" transform="translate(-1725.527 -1968.954)" fill="#fff"/>
          <path id="Trazado_140918" data-name="Trazado 140918" d="M1719.361,1970.088a1.474,1.474,0,0,0,.6.76,1.682,1.682,0,0,1,.752.994,1.958,1.958,0,0,0-.37-1.681c-.819-1.208,1.014-2.369,1.828-2.549,0,0-.475-.7-1.683-.228a1.388,1.388,0,0,0-.639.479A2.291,2.291,0,0,0,1719.361,1970.088Z" transform="translate(-1718.764 -1964.773)" fill="#172f57"/>
        </g>
        <path id="Trazado_140919" data-name="Trazado 140919" d="M1734.348,1980.8v0Z" transform="translate(-1730.039 -1974.895)" fill="#f4d3af" style="mix-blend-mode: multiply;isolation: isolate"/>
      </g>
      <path id="Trazado_140920" data-name="Trazado 140920" d="M1729.868,1979.887s-.222.407.328.926l-.161.546.859.643.3-1.262.122-.517a1.307,1.307,0,0,1-1.039-.7s.209-1.274-.528-1.368h0a.448.448,0,0,1,.076.054C1729.982,1978.355,1730.294,1978.794,1729.868,1979.887Z" transform="translate(-105.611 -268.388)" fill="#f69772" opacity="0.5" style="mix-blend-mode: multiply;isolation: isolate"/>
      <path id="Trazado_140921" data-name="Trazado 140921" d="M1727.4,1975.249s-.722-.041-.863-.991a.48.48,0,0,1,.191-.47.3.3,0,0,1,.362.005.421.421,0,0,1,.172.3Z" transform="translate(-103.217 -265.086)" fill="#f69772"/>
      <path id="Trazado_140922" data-name="Trazado 140922" d="M1734.031,1982.984l-.14-.3-1.274-.126-.953.258c-.134,1.218,1.658,2.1,2.324.921A.722.722,0,0,0,1734.031,1982.984Z" transform="translate(-107.039 -271.669)" fill="#172f57"/>
      <path id="Trazado_140923" data-name="Trazado 140923" d="M1697.966,2003.738l-1.117-4.432.023-.017,2.3-1.421-2.69-2.5-.336.353a7.272,7.272,0,0,0-1.183,3.828c.012.276.029.552.048.823a35.659,35.659,0,0,0,.5,3.755s-.625.684-1.216,1.333c-.4.441-.785.868-.952,1.059a.489.489,0,0,0-.036.04c-.02.024-.039.045-.057.066-.117.131-.232.251-.349.373a6.279,6.279,0,0,0-.7.8l-.133.191a0,0,0,0,1,0,0,4.842,4.842,0,0,0-.7,1.357,5.5,5.5,0,0,0,.152,3.469c.462-.341.878-.664,1.252-.972-2.031-2.288,3.073-7.186,3.073-7.186l1.022.23-.744-.6a8.3,8.3,0,0,1,.111-3.8Z" transform="translate(-76.853 -281.217)" fill="#1e3565" opacity="0.3" style="mix-blend-mode: multiply;isolation: isolate"/>
      <path id="Trazado_140924" data-name="Trazado 140924" d="M1747.109,2048.33c-.138.048-.287.114-.405.161a6.693,6.693,0,0,1-.64.281c-.092.015-2.861-1.658-2.861-1.658l-.578,1.057s2.076.973,2.73,1.309c.332.171.877.8,1.157.937a4.635,4.635,0,0,0,.567.207h0c.2.063.439.176.554.127a.275.275,0,0,0,.124-.36c.188.043.362-.085.354-.225a.27.27,0,0,0-.063-.155c.188.018.323.013.379-.067a.342.342,0,0,0,.033-.325.233.233,0,0,0,.2-.1.264.264,0,0,0-.112-.4,2.061,2.061,0,0,0-.382-.132c.3.079.177-.281.1-.344a4.864,4.864,0,0,0-.808-.37A.617.617,0,0,0,1747.109,2048.33Z" transform="translate(-115.215 -319.793)" fill="#f69772"/>
      <path id="Trazado_140925" data-name="Trazado 140925" d="M1751.095,2052.416l.53.266.684-1.3-.53-.267Z" transform="translate(-121.529 -322.774)" fill="#fff"/>
      <path id="Trazado_140926" data-name="Trazado 140926" d="M1712.138,2005a1.831,1.831,0,0,0,.828.9l7.17,3.656.834-1.6-6.481-4.412-1-8.586a1.815,1.815,0,0,0-2.086-1.571l-.285.044-.068.011a1.776,1.776,0,0,0-.4.112,1.814,1.814,0,0,0-1.064,2.158l2.441,8.976A2.257,2.257,0,0,0,1712.138,2005Z" transform="translate(-90.537 -279.724)" fill="#1e3565"/>
      <path id="Trazado_140927" data-name="Trazado 140927" d="M1730.777,1997.451l.094.169c.062.11.153.27.259.488.055.107.115.227.172.359s.127.273.188.428.133.319.194.5.131.363.191.56a12.752,12.752,0,0,1,.337,1.3,12.621,12.621,0,0,1,.207,1.492,10.444,10.444,0,0,1-.014,1.636c-.016.14-.028.282-.048.423l-.071.425-.094.414c-.031.132-.082.286-.123.428-.175.558-.389,1.071-.584,1.559a10.935,10.935,0,0,0-.478,1.374,3.76,3.76,0,0,0-.124,1.173c.011.088.021.174.031.26s.039.167.055.248l.027.12.042.117.066.19.234.53.209.371.047.086.057.087.107.165c.069.106.129.2.189.29l.4.532-.156,1.685-1.706-.37-.411-.7c-.062-.114-.124-.247-.194-.388l-.108-.221-.057-.116-.055-.133-.23-.575-.171-.554c0,.007-.025-.073-.014-.042v-.006l0-.011-.005-.023-.01-.045-.021-.092-.041-.186-.04-.189-.023-.2c-.012-.134-.034-.269-.036-.408s0-.28,0-.423a5.514,5.514,0,0,1,.373-1.677,12.523,12.523,0,0,1,.718-1.491c.255-.468.508-.925.709-1.374.046-.111.1-.208.141-.333l.127-.359.1-.357c.031-.12.056-.241.084-.362a9.451,9.451,0,0,0,.183-1.461,11.829,11.829,0,0,0-.031-1.4,12.068,12.068,0,0,0-.175-1.256c-.035-.194-.077-.379-.119-.554s-.087-.34-.129-.5-.09-.3-.132-.431-.084-.253-.124-.361c-.075-.216-.148-.387-.2-.5l-.074-.179Z" transform="translate(-105.108 -282.771)" fill="#f05673"/>
      <path id="Trazado_140928" data-name="Trazado 140928" d="M1722.654,1985.693l-.514.511,3.266,2.729-.06-1.225Z" transform="translate(-99.944 -274.005)" fill="url(#linear-gradient-2)"/>
      <path id="Trazado_140929" data-name="Trazado 140929" d="M1980.449,2103.1v.579a15.715,15.715,0,0,1-1.642.086,16.015,16.015,0,0,1-2.025-.128c-4.356-.551-8.911-2.9-13.93-7.172a16.235,16.235,0,0,0-9.762-4.187,13.484,13.484,0,0,0-9.746,3.83c-.39.357-.806.775-1.246,1.215-2.062,2.068-4.842,4.853-8.485,4.853-.231,0-.465-.011-.7-.034a4.96,4.96,0,0,1-3.572-1.782c-1.63-2.056-1.41-5.358-1.1-7.664a19.055,19.055,0,0,1,1.074-3.718l.534.215a18.892,18.892,0,0,0-1.038,3.579c-.46,3.451-.138,5.816.982,7.23a4.41,4.41,0,0,0,3.177,1.566c3.718.365,6.495-2.416,8.725-4.652.444-.445.865-.867,1.265-1.233a14.04,14.04,0,0,1,10.16-3.981,16.812,16.812,0,0,1,10.113,4.324c4.93,4.2,9.388,6.5,13.628,7.039A15.315,15.315,0,0,0,1980.449,2103.1Z" transform="translate(-253.42 -351.002)" fill="#fff"/>
      <path id="Trazado_140930" data-name="Trazado 140930" d="M2011.736,2137.389l3.136,5.106a1.238,1.238,0,0,1,.079,1.144l-.524,1.2.127.728.648-.41,1.256-2.616-3.125-6.159Z" transform="translate(-315.83 -386.34)" fill="#f7ba91"/>
      <path id="Trazado_140931" data-name="Trazado 140931" d="M2017.689,2160.632l-1.665,2.475-.368-.18-.647,1.083a.481.481,0,0,1-.252.211,1.814,1.814,0,0,0-.337.169,1.151,1.151,0,0,0-.959.188.243.243,0,0,0,.156.429h.758a.92.92,0,0,0,.49-.141l1.366-.863,3.081-1.944A3.806,3.806,0,0,0,2017.689,2160.632Zm-3.309,3.782h0C2014.374,2164.415,2014.376,2164.415,2014.38,2164.415Z" transform="translate(-317.053 -404.418)" fill="#fff"/>
      <path id="Trazado_140932" data-name="Trazado 140932" d="M2007.139,2119.415l-2.043,1.134-.783-1.26-4.692-7.562,1.253-4,.139-.446C2002.794,2109.38,2004.912,2114.873,2007.139,2119.415Z" transform="translate(-306.798 -364.648)" fill="#1e3565"/>
      <path id="Trazado_140933" data-name="Trazado 140933" d="M2010.459,2119.415l-2.043,1.134-.783-1.26c1.515-4.235-3.558-10.088-3.558-10.088l.119-1.471.139-.446C2006.115,2109.38,2008.232,2114.873,2010.459,2119.415Z" transform="translate(-310.119 -364.648)" fill="#1e3565" opacity="0.3" style="mix-blend-mode: multiply;isolation: isolate"/>
      <g id="Grupo_63355" data-name="Grupo 63355" transform="translate(1674.271 1677.806)">
        <path id="Trazado_140934" data-name="Trazado 140934" d="M1938.313,1911.751l-11.577,48.549c-.038.16.318.38.817.5s.945.087.982-.072l11.577-48.549Z" transform="translate(-1926.733 -1896.69)" fill="#fff"/>
        <g id="Grupo_63354" data-name="Grupo 63354" transform="translate(6.056)">
          <path id="Trazado_140935" data-name="Trazado 140935" d="M1972.576,1912.178l-1.162,4.9-1.133-3.237.5-2.09Z" transform="translate(-1965.254 -1896.691)" fill="#d3e5f0" style="mix-blend-mode: multiply;isolation: isolate"/>
          <rect id="Rectángulo_19110" data-name="Rectángulo 19110" width="2.034" height="2.527" transform="translate(5.08 15.462) rotate(-76.667)" fill="#fff"/>
          <path id="Trazado_140936" data-name="Trazado 140936" d="M1974.037,1905.051a.339.339,0,0,1-.408.252l-2.579-.611a.339.339,0,0,1-.251-.408l.064-.27,3.238.767Z" transform="translate(-1965.632 -1890.922)" fill="#1e3465"/>
          <g id="Grupo_63352" data-name="Grupo 63352" transform="translate(3.151 8.943)">
            <path id="Trazado_140937" data-name="Trazado 140937" d="M1963.124,1891.677l.657-2.772a1.311,1.311,0,0,1,1.578-.974l4.346,1.03a3.313,3.313,0,0,1,2.459,3.987l-.057.24a.6.6,0,0,1-.723.446Z" transform="translate(-1963.068 -1887.85)" fill="#fff"/>
            <path id="Trazado_140938" data-name="Trazado 140938" d="M1971.36,1893.562a.653.653,0,0,1-.15-.017l-8.3-1.968.668-2.817a1.356,1.356,0,0,1,1.634-1.008l4.346,1.03a3.362,3.362,0,0,1,2.493,4.043l-.057.24A.644.644,0,0,1,1971.36,1893.562Zm-8.343-2.055,8.215,1.947a.555.555,0,0,0,.667-.412l.057-.24a3.269,3.269,0,0,0-2.425-3.931l-4.346-1.03a1.28,1.28,0,0,0-.293-.034,1.26,1.26,0,0,0-1.23.974Z" transform="translate(-1962.905 -1887.715)" fill="#fff"/>
          </g>
          <g id="Grupo_63353" data-name="Grupo 63353" transform="translate(0.891 9.758)">
            <path id="Trazado_140939" data-name="Trazado 140939" d="M1955.838,1894.016l-.952-.226a1.116,1.116,0,1,1,.515-2.172l.952.226Z" transform="translate(-1954.026 -1891.416)" fill="#1e3465"/>
            <rect id="Rectángulo_19111" data-name="Rectángulo 19111" width="2.804" height="1.232" transform="translate(1.116 2.728) rotate(-76.667)" fill="#2c518d"/>
          </g>
          <rect id="Rectángulo_19112" data-name="Rectángulo 19112" width="0.485" height="0.763" transform="matrix(0.231, -0.973, 0.973, 0.231, 1.966, 13.268)" fill="#fff"/>
          <path id="Trazado_140940" data-name="Trazado 140940" d="M1953.086,1904.548a.235.235,0,0,0-.457-.108l-1.229,4.06a5.242,5.242,0,0,0-.148.623l-.724,4.179a.235.235,0,0,0,.456.108l1.229-4.06a5.258,5.258,0,0,0,.148-.623Z" transform="translate(-1950.526 -1891.116)" fill="#fff"/>
          <rect id="Rectángulo_19113" data-name="Rectángulo 19113" width="0.485" height="0.763" transform="matrix(0.231, -0.973, 0.973, 0.231, 2.862, 9.49)" fill="#fff"/>
          <path id="Trazado_140941" data-name="Trazado 140941" d="M1962.781,1861.608a.235.235,0,0,0,.456.108l1.229-4.06a5.193,5.193,0,0,0,.148-.623l.724-4.18a.235.235,0,0,0-.456-.108l-1.229,4.06a5.2,5.2,0,0,0-.147.623Z" transform="translate(-1959.659 -1852.579)" fill="#fff"/>
        </g>
      </g>
      <path id="Trazado_140942" data-name="Trazado 140942" d="M1964.78,1966.026c-.009-.015-.1-.406-.176-.64a.489.489,0,0,1,.028-.359c.1-.2.215-.393.235-.444a5.871,5.871,0,0,0,.3-.945,13.318,13.318,0,0,0-.193-1.541c0-.209-.005-.438,0-.563,0-.012,0-.023,0-.033.021-.228-.158-.348-.28-.251a.212.212,0,0,0-.047.055.633.633,0,0,0-.069.194c-.005.009-.011.014-.016.024a3.234,3.234,0,0,0-.064,1.029c0,.063.006.1.005.108a.23.23,0,0,0-.352.107,1.923,1.923,0,0,0-.06.876.922.922,0,0,1-.121.305,1.458,1.458,0,0,0-.356,1.029c.084.4.43,1.912.43,1.912Z" transform="translate(-279.95 -255.759)" fill="#f7ba91"/>
      <path id="Trazado_140943" data-name="Trazado 140943" d="M1947,2016.441s-.1-.192-.312-.581c-.063-.113-.138-.26-.216-.386a.624.624,0,0,0-.234-.261.365.365,0,0,0-.048-.01v-.005l-1.208-.34a.089.089,0,0,0-.074.012.088.088,0,0,0-.039.064.29.29,0,0,0,.2.319l-.234-.072a.268.268,0,0,0-.345.245.234.234,0,0,0,.093.2.348.348,0,0,0-.182.277c-.007.1.1.189.256.295a.246.246,0,0,0-.014.484.278.278,0,0,0-.132.363c.059.113.323.178.517.254h0a4.443,4.443,0,0,0,.578.183,8,8,0,0,0,1.2,0c.51.039,2.3,0,2.3,0v-1.056Z" transform="translate(-265.633 -295.745)" fill="#f7ba91"/>
      <rect id="Rectángulo_19114" data-name="Rectángulo 19114" width="1.438" height="0.681" transform="translate(1681.631 1721.93) rotate(-89.837)" fill="#fff"/>
      <rect id="Rectángulo_19115" data-name="Rectángulo 19115" width="1.347" height="0.651" transform="translate(1683.634 1710.089) rotate(-14.49)" fill="#fff"/>
      <path id="Trazado_140944" data-name="Trazado 140944" d="M1974.26,1986.524l-5.872,1.636-.035.011-1.179.33a1.5,1.5,0,0,1-1.847-1.052l-2.047-7.62,1.617-.457,2.3,6.356,3.034-1.571.61-.315,2.162-1.121Z" transform="translate(-279.707 -269.294)" fill="#1e3565"/>
      <path id="Trazado_140945" data-name="Trazado 140945" d="M1989.119,1996.333l-5.872,1.636-.035.011a5.107,5.107,0,0,0,1.874-4.013l.61-.315,2.162-1.121Z" transform="translate(-294.566 -279.103)" fill="#1e3565" opacity="0.3" style="mix-blend-mode: multiply;isolation: isolate"/>
      <g id="Grupo_63356" data-name="Grupo 63356" transform="translate(1686.806 1751.622)">
        <path id="Trazado_140946" data-name="Trazado 140946" d="M1987.03,2142.593l-.075,5.992a1.237,1.237,0,0,1-.544,1.01l-1.083.734-.281.683h.767l2.458-1.541.646-6.876Z" transform="translate(-1982.739 -2142.593)" fill="#f7ba91"/>
        <path id="Trazado_140947" data-name="Trazado 140947" d="M1981.515,2169.667a3.824,3.824,0,0,1,.612,2.074h-5.9a.242.242,0,0,1-.155-.428,1.2,1.2,0,0,1,1.049-.175.5.5,0,0,0,.325-.044l1.127-.569.217.347Z" transform="translate(-1975.983 -2162.776)" fill="#fff"/>
      </g>
      <path id="Trazado_140948" data-name="Trazado 140948" d="M2014.86,2045.418s-1.686-1.44-2.751-.757-3.338.805-4.087-.159l1.822-5.14Z" transform="translate(-313.061 -314.014)" fill="#375682"/>
      <path id="Trazado_140949" data-name="Trazado 140949" d="M1995.871,2054.4l-1.587,10.15c.306,1.4-.013,4.212-.419,7.232-.286,2.131-.616,4.324-.8,6.248h-2.469l.637-28.982h5.489A5,5,0,0,1,1995.871,2054.4Z" transform="translate(-300.068 -321.235)" fill="#1e3565"/>
      <path id="Trazado_140950" data-name="Trazado 140950" d="M1990.185,2009.721a5.851,5.851,0,0,0,.075-1.975,12.409,12.409,0,0,1,.311-7.173,3.725,3.725,0,0,1,1.893-1.987l.038.317-.909,6.093-.1.649.074,1.487.006.092.115,2.283a4.5,4.5,0,0,0,.062.564l.441,2.472c.422.817.648,1.543.323,1.811,0,0,.005.052-.009.006a.934.934,0,0,1-.785.049C1989.349,2013.845,1989.885,2011.661,1990.185,2009.721Z" transform="translate(-299.539 -283.618)" fill="#1e3565"/>
      <path id="Trazado_140951" data-name="Trazado 140951" d="M2000.149,2054.4l-1.587,10.15c.306,1.4-.013,4.212-.419,7.232a39.912,39.912,0,0,0-.375-6.677l-1.437-.593h1.461l.664-10.48c1.8-1.171.981-4.232.981-4.232l.834-.752H2001A5,5,0,0,1,2000.149,2054.4Z" transform="translate(-304.347 -321.235)" fill="#1e3565" opacity="0.3" style="mix-blend-mode: multiply;isolation: isolate"/>
      <circle id="Elipse_1934" data-name="Elipse 1934" cx="0.938" cy="0.938" r="0.938" transform="translate(1695.419 1709.287) rotate(-72.535)" fill="#172f57"/>
      <path id="Trazado_140952" data-name="Trazado 140952" d="M1996.331,1984.218l-.066,1.445-.084,1.86.6-.332,1.41-.78.525-.771.029-.437.085-1.065-1.724-.177A1.007,1.007,0,0,0,1996.331,1984.218Z" transform="translate(-304.234 -272.712)" fill="#f7ba91"/>
      <path id="Trazado_140953" data-name="Trazado 140953" d="M1996.265,1988.353l-.084,1.86.6-.333,0-.7a2.028,2.028,0,0,0,.879-1.621Z" transform="translate(-304.234 -275.401)" fill="#f7ba91" opacity="0.5" style="mix-blend-mode: multiply;isolation: isolate"/>
      <path id="Trazado_140954" data-name="Trazado 140954" d="M1999.877,1999.631c-.075.361-.167.732-.266,1.114-.122.463-.252.936-.381,1.41-.167.606-.334,1.209-.473,1.781-.031.13-.061.255-.089.378-.089.378-.16.742-.211,1.083a2.372,2.372,0,0,0,.139,1.495.584.584,0,0,1-.051.582.607.607,0,0,1-.528.269,9.83,9.83,0,0,1-1.444-.249,3.7,3.7,0,0,0-1.27-.072,5.135,5.135,0,0,1-2.455-.347.449.449,0,0,1-.3-.514c.157-.776.2-1.692.357-2.38.078-.323.3-1.91.375-2.23a4.01,4.01,0,0,0,.088-1.127,2.693,2.693,0,0,1-.483-.647,3.491,3.491,0,0,1-.4-1.58,7.626,7.626,0,0,1,.143-1.621c.01-.051.02-.109.034-.167a7.3,7.3,0,0,1,.358-1.185c.061-.153.126-.3.194-.446a.428.428,0,0,0,.027-.058c.034-.068.085-.163.119-.228.051-.1.089-.153.143-.238a2.43,2.43,0,0,1,.746-.708,1.437,1.437,0,0,0,.313-.276c.436-.47.882-1.239,1.348-1.352.684-.16,1.825.593,2.312,1.154a8.741,8.741,0,0,1,1.022,1.58,6.473,6.473,0,0,1,.7,2.07A6.918,6.918,0,0,1,1999.877,1999.631Z" transform="translate(-301.484 -278.928)" fill="#fff"/>
      <path id="Trazado_140955" data-name="Trazado 140955" d="M1993.058,1998.288a6.568,6.568,0,0,1,.343-.931,4.315,4.315,0,0,1,.852-1.236l2.041-2.067-1.3.927a1.563,1.563,0,0,1-.314.275,2.4,2.4,0,0,0-.747.709c-.053.082-.089.143-.14.236s-.1.2-.146.287h0c-.068.143-.133.293-.193.447a7.32,7.32,0,0,0-.359,1.185C1993.079,1998.179,1993.068,1998.234,1993.058,1998.288Z" transform="translate(-301.906 -280.239)" fill="#cde0eb"/>
      <path id="Trazado_140956" data-name="Trazado 140956" d="M1990.69,2001.257l-.09.158c-.059.1-.145.253-.246.457-.052.1-.109.213-.164.336s-.121.256-.178.4-.126.3-.184.466-.125.34-.182.526a12,12,0,0,0-.322,1.216,11.846,11.846,0,0,0-.2,1.4,9.784,9.784,0,0,0,.006,1.538c.014.132.025.265.043.4l.065.4.086.39c.029.124.075.269.114.4.162.526.361,1.008.543,1.469a10.379,10.379,0,0,1,.443,1.294,3.533,3.533,0,0,1,.111,1.1l-.031.244c-.01.08-.037.157-.052.233l-.026.113-.04.11-.063.179-.222.5-.2.348-.045.081-.054.082-.1.155c-.066.1-.122.191-.179.272l-.379.5.278,1.513,1.467-.269.389-.66c.059-.107.118-.232.184-.364l.1-.207.054-.109.052-.125.219-.54.163-.52c0,.006.024-.068.013-.039v-.005l0-.01.005-.021.01-.043.02-.086.039-.175.039-.178.023-.187c.012-.126.033-.252.036-.383s0-.263,0-.4a5.185,5.185,0,0,0-.344-1.578,11.765,11.765,0,0,0-.669-1.4c-.238-.441-.474-.872-.661-1.3-.043-.105-.089-.2-.131-.313l-.118-.338-.1-.336c-.029-.113-.052-.228-.078-.341a8.865,8.865,0,0,1-.166-1.375,11.048,11.048,0,0,1,.035-1.317,11.319,11.319,0,0,1,.169-1.18c.033-.183.074-.356.114-.52s.084-.319.124-.465.086-.28.126-.405.08-.238.118-.339c.072-.2.14-.364.187-.473l.071-.168Z" transform="translate(-298.953 -285.608)" fill="#ebc269"/>
      <path id="Trazado_140957" data-name="Trazado 140957" d="M1994.812,1997.968l-.467.917.405.234Z" transform="translate(-302.866 -283.156)" fill="#ebc269"/>
      <g id="Grupo_63359" data-name="Grupo 63359" transform="translate(1690.299 1706.297)">
        <g id="Grupo_63358" data-name="Grupo 63358" transform="translate(0.744 0)">
          <g id="Grupo_63357" data-name="Grupo 63357">
            <path id="Trazado_140958" data-name="Trazado 140958" d="M1994.275,1975.363c-.156.414-.416.7-.58.636s-.172-.448-.017-.861.416-.7.58-.636S1994.431,1974.949,1994.275,1975.363Z" transform="translate(-1993.328 -1971.953)" fill="#fff"/>
            <path id="Trazado_140959" data-name="Trazado 140959" d="M1992.635,1973.632a.132.132,0,0,0,.076.086l.335.125s-.033.247-.068.592c0,.021,0,.043-.007.063v.006l-.013.132c-.016.17-.031.353-.043.54a.887.887,0,0,0,.992.939h0l.013,0,.036-.006c.016,0,.035-.006.058-.012h0l.04-.01.239-.884.653.331.358.181.5-.179h0l.456-.164.016-.044h0l1.107-2.937-1.192-.449-.548-.207-1.524-.573a3.874,3.874,0,0,0-.542.869,3.616,3.616,0,0,0-.212.584h0c-.007.028-.015.057-.022.086l-.108.129-.368.444-.214.254A.132.132,0,0,0,1992.635,1973.632Z" transform="translate(-1992.632 -1969.464)" fill="#f7ba91"/>
            <path id="Trazado_140960" data-name="Trazado 140960" d="M2001.654,1973.406l-.826.893-.14,1.263.384.145.813.307s-.5,1.04.214,1.48l.188-.494a.67.67,0,0,1,.265-.325c.582-.373,2.3-1.573,1.633-2.314Z" transform="translate(-1998.637 -1971.143)" fill="#375a93"/>
            <path id="Trazado_140961" data-name="Trazado 140961" d="M2002.561,1967.735l.136-.361a.612.612,0,0,0-.357-.788,1.255,1.255,0,0,1-.548-.4l-.519-.667a2.842,2.842,0,0,0-1.243-.917l-.082-.03a.781.781,0,0,0-1.008.467l-.441,1.171Z" transform="translate(-1997.006 -1964.516)" fill="#172f57"/>
            <path id="Trazado_140962" data-name="Trazado 140962" d="M1996.536,1976.214c-.156.414-.416.7-.58.636s-.172-.448-.016-.861.416-.7.581-.636S1996.692,1975.8,1996.536,1976.214Z" transform="translate(-1995.014 -1972.589)" fill="#fff"/>
            <rect id="Rectángulo_19116" data-name="Rectángulo 19116" width="0.248" height="2.585" transform="translate(0.526 3.327) rotate(-69.366)" fill="#fff"/>
            <path id="Trazado_140963" data-name="Trazado 140963" d="M2002.745,1980.123l.019-.417a.5.5,0,0,1,.154-.34.477.477,0,0,1,.708.109.681.681,0,0,1-.116.806l-.005.007-.417.523a.2.2,0,0,1-.163.074h-.014a.2.2,0,0,1-.189-.206Z" transform="translate(-2000.152 -1975.5)" fill="#f7ba91"/>
          </g>
        </g>
        <path id="Trazado_140964" data-name="Trazado 140964" d="M1990.147,1983.073a3.07,3.07,0,0,0,.58-1,.2.2,0,1,1,.162-.373,1.02,1.02,0,0,1,.54.408.475.475,0,0,0,.74.107,1.5,1.5,0,0,0,.333-.482l.542.192h0c0,.005,0,.009,0,.014a2.423,2.423,0,0,1,.016.687,2.32,2.32,0,0,1-2.429,2.077,1.238,1.238,0,0,1-.852-.538C1989.565,1983.774,1989.856,1983.34,1990.147,1983.073Z" transform="translate(-1989.708 -1977.312)" fill="#172f57"/>
      </g>
      <path id="Trazado_140965" data-name="Trazado 140965" d="M2005.569,2027.569a2.372,2.372,0,0,0,.139,1.495.584.584,0,0,1-.051.582.607.607,0,0,1-.528.269,9.841,9.841,0,0,1-1.444-.249c-.33-1.175.347-.783.909-2.029s-.793-2.384-.793-2.384a10.2,10.2,0,0,1-1.771-3.214l3.837,4.069c-.031.13-.061.256-.089.378C2005.691,2026.865,2005.62,2027.229,2005.569,2027.569Z" transform="translate(-308.595 -301.101)" fill="#cde0eb"/>
      <path id="Trazado_140966" data-name="Trazado 140966" d="M2008.772,2010.745c-.434-.322-.823-.625-1.173-.919-3.6-2.993-3.144-4.478-4.749-6.542-.342-.441-.745-.844-1.125-1.257-.12-.126-.232-.254-.339-.377a9.7,9.7,0,0,1-.8-1.059c-.128-.2-.242-.4-.344-.594-.049-.093-.094-.19-.136-.285-1.087-2.4-.178-4.591,1.69-7.232h0a2.589,2.589,0,0,1,.781.3,6.163,6.163,0,0,1,1.022.8c.121.118.245.246.37.387.085.1.171.2.253.309.067.085.131.17.193.261.029.038.053.079.082.12a6.843,6.843,0,0,1,1.095,3.6c-.009.185-.021.37-.033.556,0,.073-.008.147-.014.218a34.309,34.309,0,0,1-.488,3.522l0,.006s.584.645,1.136,1.257c.375.416.735.822.892,1a.206.206,0,0,0,.02.023l.011.017c.02.021.037.042.054.06.109.125.219.238.326.353a5.861,5.861,0,0,1,.653.753c.043.06.084.119.125.179a0,0,0,0,0,0,0,6.631,6.631,0,0,1,.424.712,3.3,3.3,0,0,1,.223.568A5.171,5.171,0,0,1,2008.772,2010.745Z" transform="translate(-306.816 -279.065)" fill="#1e3565"/>
      <path id="Trazado_140967" data-name="Trazado 140967" d="M2001.194,1992.48l.68,1.038-.987.115.356.321s-3.108,2.641-1.526,6.189C1999.717,2000.143,1996.947,1996.87,2001.194,1992.48Z" transform="translate(-306.209 -279.065)" fill="#375682"/>
      <path id="Trazado_140968" data-name="Trazado 140968" d="M2010.553,2011.46a0,0,0,0,1,0,0c-.041-.06-.081-.12-.125-.179a5.878,5.878,0,0,0-.653-.753c-.107-.115-.217-.227-.326-.353-.017-.019-.034-.04-.052-.061l-.014-.016a.2.2,0,0,1-.02-.023c-.157-.179-.517-.584-.892-1-.552-.613-1.136-1.257-1.136-1.257v-.006l.486-3.522.016-.219c.012-.185.024-.371.033-.556a6.843,6.843,0,0,0-1.095-3.6c-.029-.041-.053-.082-.082-.12-.062-.091-.126-.176-.193-.261l-.386,2.014-3.422,3.386,4.128-1.7a13.136,13.136,0,0,1,.093,3.3,5.713,5.713,0,0,1-.161,1.425l-.7.562.919-.2.436.305a22.353,22.353,0,0,1,3.571,3.546A6.663,6.663,0,0,0,2010.553,2011.46Z" transform="translate(-309.088 -284.32)" fill="#1e3565" opacity="0.3" style="mix-blend-mode: multiply;isolation: isolate"/>
      <path id="Trazado_140969" data-name="Trazado 140969" d="M1998.538,1990.575l.5.485-3.1,2.549.062-1.151Z" transform="translate(-304.053 -277.645)" fill="#fff"/>
      <path id="Trazado_140970" data-name="Trazado 140970" d="M1966.1,2005.924a1.845,1.845,0,0,1-1.172.278l-7.292-.731v-1.687h7.292l5.482-4.991a2,2,0,0,1,2.178-.342,1.485,1.485,0,0,1,.71.684,2.667,2.667,0,0,1,.225.629,1.862,1.862,0,0,1-.82,1.961Z" transform="translate(-275.5 -283.382)" fill="#1e3565"/>
      <g id="Grupo_63360" data-name="Grupo 63360" transform="translate(1661.626 1678.356)" opacity="0.8">
        <path id="Trazado_140971" data-name="Trazado 140971" d="M1885.38,1888.118l9.754,2.317.311-1.308-9.754-2.317a3.072,3.072,0,1,0,2.278,3.7l-1.308-.311a1.728,1.728,0,1,1-1.281-2.081Z" transform="translate(-1880.672 -1878.584)" fill="#fff"/>
        <path id="Trazado_140972" data-name="Trazado 140972" d="M1906.682,1859.492l7.478,1.775-.311,1.308-7.478-1.775a3.072,3.072,0,1,1,3.7-2.278l-1.308-.311a1.728,1.728,0,1,0-2.081,1.281Z" transform="translate(-1897.149 -1854.737)" fill="#fff"/>
        <path id="Trazado_140973" data-name="Trazado 140973" d="M1879.729,1861.954l15.6,3.709-.311,1.308-15.6-3.709a3.072,3.072,0,1,1,3.7-2.278l-1.307-.311a1.728,1.728,0,1,0-2.081,1.281Z" transform="translate(-1877.056 -1856.573)" fill="#fff"/>
      </g>
      <g id="Grupo_63366" data-name="Grupo 63366" transform="translate(1658.988 1730.125)">
        <g id="Grupo_63361" data-name="Grupo 63361" transform="translate(7.342 8.81)">
          <path id="Trazado_140974" data-name="Trazado 140974" d="M1909.01,2106.32l.013-.012a3.692,3.692,0,0,1,1.63-.748.548.548,0,0,1,.511.275,1.826,1.826,0,0,1,.451,1.488c0,.01-.152.932-.995.932l-.753-.057-.295-.121-.018-.01a1.961,1.961,0,0,1-.764-1.109A.8.8,0,0,1,1909.01,2106.32Z" transform="translate(-1905.413 -2102.298)" fill="#1d2554"/>
          <path id="Trazado_140975" data-name="Trazado 140975" d="M1905.231,2098s.05-.134.464-.212a1.219,1.219,0,0,1,.126-.017.84.84,0,0,0,.812-1.04,1.613,1.613,0,0,0-.834-1.193,1.729,1.729,0,0,1-.775.309,1.009,1.009,0,0,0-.665.429.776.776,0,0,0-.037.929A1.465,1.465,0,0,0,1905.231,2098Z" transform="translate(-1901.982 -2094.828)" fill="#1d2554"/>
          <path id="Trazado_140976" data-name="Trazado 140976" d="M1904.743,2093.8s.114-.322-.53-.739l-.055-.038a2.1,2.1,0,0,1-.259-.213c-.069-.066-.206-.134-.387.1,0,0-.966.928-.038,1.667Z" transform="translate(-1901.153 -2092.744)" fill="#1d2554"/>
          <path id="Trazado_140977" data-name="Trazado 140977" d="M1900.031,2101.7s.284-.644-.53-1.288a.825.825,0,0,0-.747-.011,1.647,1.647,0,0,1-.2.067c-.115.031-.291.114-.212.323a1.323,1.323,0,0,1,.076.815Z" transform="translate(-1897.615 -2098.391)" fill="#1d2554"/>
          <path id="Trazado_140978" data-name="Trazado 140978" d="M1895.981,2104.468s2.027-.511,2.425.511a1.767,1.767,0,0,1-.3,1.61s-.8.834-1.534.606a1.463,1.463,0,0,1-.909-1.269l-.114-.89A.461.461,0,0,1,1895.981,2104.468Z" transform="translate(-1895.536 -2101.389)" fill="#1d2554"/>
          <path id="Trazado_140979" data-name="Trazado 140979" d="M1898.667,2116.17a1.584,1.584,0,0,0-.591.73.643.643,0,0,1-.229.357.907.907,0,0,1-.979.049,1.105,1.105,0,0,1-.474-.474l-.492-.852s-.3-.4-.095-.644a2.168,2.168,0,0,1,.777-.739,1.259,1.259,0,0,1,1.534.208,1.567,1.567,0,0,1,.3.682A1.034,1.034,0,0,0,1898.667,2116.17Z" transform="translate(-1895.683 -2108.904)" fill="#1d2554"/>
          <path id="Trazado_140980" data-name="Trazado 140980" d="M1900.771,2123.544s1.913-.587,2.349.833a.679.679,0,0,1-.227.644.285.285,0,0,0-.038.4.456.456,0,0,0-.417.093,1.3,1.3,0,0,1-.352.175c-.315.1-.832.2-1.036-.131l-.038-.061A2,2,0,0,1,1900.771,2123.544Z" transform="translate(-1899.302 -2115.615)" fill="#1d2554"/>
          <path id="Trazado_140981" data-name="Trazado 140981" d="M1908.006,2105.729l.2-.1a8.045,8.045,0,0,1-.482-1.749l-.217.035A8.1,8.1,0,0,0,1908.006,2105.729Z" transform="translate(-1904.457 -2101.047)" fill="#1d2554"/>
          <rect id="Rectángulo_19117" data-name="Rectángulo 19117" width="0.22" height="1.781" transform="translate(2.613 3.981) rotate(-51.92)" fill="#1d2554"/>
          <path id="Trazado_140982" data-name="Trazado 140982" d="M1909.71,2121.139c.118-.554.028-.711-.092-.848-.067-.075-.13-.146.106-.745a14.1,14.1,0,0,0,.557-3.713,2.125,2.125,0,0,0-.45-1.1,1.133,1.133,0,0,1-.224-.655,16.7,16.7,0,0,1,.085-1.742l-.218-.023a17.014,17.014,0,0,0-.087,1.77,1.353,1.353,0,0,0,.267.781,1.913,1.913,0,0,1,.406.972,14.2,14.2,0,0,1-.542,3.628c-.266.675-.2.818-.066.971.069.078.147.166.042.656Z" transform="translate(-1905.823 -2107.334)" fill="#1d2554"/>
          <path id="Trazado_140983" data-name="Trazado 140983" d="M1909.046,2131.894l.161-.092a1.41,1.41,0,0,1-.2-.681,1.217,1.217,0,0,0-.2-.647,2.89,2.89,0,0,0-.342-.434l-.131.131a2.766,2.766,0,0,1,.317.4,1.031,1.031,0,0,1,.165.548A1.6,1.6,0,0,0,1909.046,2131.894Z" transform="translate(-1905.082 -2120.547)" fill="#1d2554"/>
          <path id="Trazado_140984" data-name="Trazado 140984" d="M1911.1,2117.54l.194-.1a3.34,3.34,0,0,1,.184-3.184l-.183-.121A3.574,3.574,0,0,0,1911.1,2117.54Z" transform="translate(-1906.871 -2108.688)" fill="#1d2554"/>
          <path id="Trazado_140985" data-name="Trazado 140985" d="M1907.094,2121.507l.045-.215a1.342,1.342,0,0,1-.627-.293l-.017-.014a.9.9,0,0,0-.824-.1l.089.2a.678.678,0,0,1,.608.081A1.568,1.568,0,0,0,1907.094,2121.507Z" transform="translate(-1903.091 -2113.679)" fill="#1d2554"/>
          <path id="Trazado_140986" data-name="Trazado 140986" d="M1905.664,2113.762l.215-.046a3.657,3.657,0,0,0-1.418-1.861l-.123.182A3.5,3.5,0,0,1,1905.664,2113.762Z" transform="translate(-1902.097 -2106.99)" fill="#1d2554"/>
        </g>
        <g id="Grupo_63362" data-name="Grupo 63362">
          <path id="Trazado_140987" data-name="Trazado 140987" d="M1875.377,2102.4a4.68,4.68,0,0,1-1.334-1.1l.176-.132a4.571,4.571,0,0,0,1.268,1.04Z" transform="translate(-1872.171 -2090.218)" fill="#1d2554"/>
          <path id="Trazado_140988" data-name="Trazado 140988" d="M1892.245,2081.12a1.917,1.917,0,0,1,.186-1.487,1.633,1.633,0,0,1,.3-.3,1.487,1.487,0,0,1,1.789-.441.876.876,0,0,1,.558.836s.209.581-.047.79c0,0-.1.082-.1.341a.584.584,0,0,1-.034.211,1.074,1.074,0,0,1-.583.593,1.341,1.341,0,0,0-.253.159.731.731,0,0,1-.723.166,1.8,1.8,0,0,0-.239-.08A1.214,1.214,0,0,1,1892.245,2081.12Z" transform="translate(-1885.686 -2073.514)" fill="#1d2554"/>
          <path id="Trazado_140989" data-name="Trazado 140989" d="M1872.773,2081.131a1.342,1.342,0,0,0-.325.952s-.086,1.156.812,1.29a.634.634,0,0,1,.209.07,1.137,1.137,0,0,0,.86.081l.3.023a.682.682,0,0,1,.052-.164.7.7,0,0,1,.309-.33,1.39,1.39,0,0,0,.727-.883c0-.027.008-.056.013-.083a1.1,1.1,0,0,0-.293-1.064c-.067-.048-.135-.1-.2-.157a1.707,1.707,0,0,0-1.517-.478,1.024,1.024,0,0,0-.286.206.5.5,0,0,1-.159.111A1.029,1.029,0,0,0,1872.773,2081.131Z" transform="translate(-1870.976 -2074.686)" fill="#1d2554"/>
          <path id="Trazado_140990" data-name="Trazado 140990" d="M1867.481,2093.734c-.063.01-.129.02-.193.027-.107.012-.33.084-.451.464,0,0-.279.3-.07,1.115a5.754,5.754,0,0,0,.651,1.254s.465.627,1,.535c0,0,.674-.07.929-1.022a2,2,0,0,0-.12-2.125.584.584,0,0,0-.291-.169A3.906,3.906,0,0,0,1867.481,2093.734Z" transform="translate(-1866.69 -2084.644)" fill="#1d2554"/>
          <path id="Trazado_140991" data-name="Trazado 140991" d="M1877.879,2102.633c-.069.023-.143.045-.213.064a1.269,1.269,0,0,0-.959,1.212l-.018.671a1.9,1.9,0,0,0,.1.675,1.1,1.1,0,0,0,1.54.746,1.766,1.766,0,0,0,.917-.809.8.8,0,0,1,.155-.18l.086-.074a1.256,1.256,0,0,0,.4-.657,2.1,2.1,0,0,0,0-.928S1879.623,2102.045,1877.879,2102.633Z" transform="translate(-1874.143 -2091.193)" fill="#1d2554"/>
          <path id="Trazado_140992" data-name="Trazado 140992" d="M1886.666,2121.244h-.22v-4.326a2.177,2.177,0,0,0-.169-.842l-1.426-3.408.2-.085,1.426,3.409a2.392,2.392,0,0,1,.186.927Z" transform="translate(-1880.229 -2098.723)" fill="#1d2554"/>
          <path id="Trazado_140993" data-name="Trazado 140993" d="M1883.732,2116.493c-.121-.423-.661-.573-.666-.575a1.18,1.18,0,0,1-.894-1.086l.219.008-.11,0,.11,0a.966.966,0,0,0,.741.869,1.213,1.213,0,0,1,.812.723Z" transform="translate(-1878.231 -2100.401)" fill="#1d2554"/>
          <path id="Trazado_140994" data-name="Trazado 140994" d="M1887.394,2116.652l-.215-.044.256-1.255a1.747,1.747,0,0,0-.4-1.208l-1.2-1.442.169-.141,1.2,1.442a1.955,1.955,0,0,1,.45,1.377Z" transform="translate(-1880.959 -2098.709)" fill="#1d2554"/>
          <path id="Trazado_140995" data-name="Trazado 140995" d="M1880.235,2092.888a14.145,14.145,0,0,0-.505-3.847l.208-.071a14.055,14.055,0,0,1,.517,3.913Z" transform="translate(-1876.411 -2081.121)" fill="#1d2554"/>
          <path id="Trazado_140996" data-name="Trazado 140996" d="M1884.218,2090.047a1.64,1.64,0,0,1,.4-2.311l1.645-1.251.133.175-1.649,1.255a1.409,1.409,0,0,0-.346,2.013Z" transform="translate(-1879.516 -2079.268)" fill="#1d2554"/>
          <path id="Trazado_140997" data-name="Trazado 140997" d="M1884.673,2079.377h-.22c0-1.585,1.231-4.5,1.609-5.353a.731.731,0,0,0,.052-.414,1.812,1.812,0,0,1,.006-.554,1.345,1.345,0,0,1-.078-1.133,1.689,1.689,0,0,0,.11-1.023l.214-.049a1.885,1.885,0,0,1-.126,1.167,1.122,1.122,0,0,0,.09.961l.022.037-.009.043a1.631,1.631,0,0,0-.012.517.944.944,0,0,1-.069.538C1885.89,2074.958,1884.673,2077.835,1884.673,2079.377Z" transform="translate(-1879.932 -2067.612)" fill="#1d2554"/>
          <path id="Trazado_140998" data-name="Trazado 140998" d="M1886.216,2061.175s-.4-.093-.651,1.022l-.124.929a.7.7,0,0,0,.557.9,1.508,1.508,0,0,0,1.3-.031s.544.057.779-.983a.8.8,0,0,0-.221-.751S1886.96,2061.175,1886.216,2061.175Z" transform="translate(-1880.648 -2060.398)" fill="#1d2554"/>
          <path id="Trazado_140999" data-name="Trazado 140999" d="M1894.415,2058.372s-.139.186-.372.441c0,0-.767.79-.163,1.44a.963.963,0,0,0,.65.441l.209.116s.674.395,1.068-.023a.937.937,0,0,0,.116-1.185,5.5,5.5,0,0,1-.859-1.069S1894.717,2057.745,1894.415,2058.372Z" transform="translate(-1886.787 -2058.13)" fill="#1d2554"/>
          <path id="Trazado_141000" data-name="Trazado 141000" d="M1891.311,2069.62l-.15-.16a5.717,5.717,0,0,0,1.592-3.3l.219.02A5.833,5.833,0,0,1,1891.311,2069.62Z" transform="translate(-1884.932 -2064.117)" fill="#1d2554"/>
        </g>
        <g id="Grupo_63363" data-name="Grupo 63363" transform="translate(1.64 15.601)">
          <path id="Trazado_141001" data-name="Trazado 141001" d="M1902.773,2161.845a3.158,3.158,0,0,0-2.107,1.976,4.007,4.007,0,0,0-.394,1.724h.231a3.513,3.513,0,0,1,.044-.713.89.89,0,0,1,.484-.667,6.713,6.713,0,0,1,.7-.313c.457-.161.4-.846.859-1.181s.492-.571.434-.708A.211.211,0,0,0,1902.773,2161.845Z" transform="translate(-1893.363 -2151.041)" fill="#fff"/>
          <path id="Trazado_141002" data-name="Trazado 141002" d="M1888,2158.793c-.014-.093-.028-.191-.044-.293s-.029-.207-.048-.312-.04-.213-.06-.321-.038-.215-.062-.32-.046-.209-.068-.309-.047-.2-.069-.287-.043-.177-.065-.257-.038-.138-.054-.2a2,2,0,0,0-.626-2.287,3.452,3.452,0,0,0-1.308-.583,2.229,2.229,0,0,0,1.851,2.924c.012.052.024.108.038.169.018.079.033.166.052.257s.039.188.054.288.035.2.053.309.032.213.047.321.029.215.044.32.022.211.033.312c0,.011,0,.021,0,.032h0a1.557,1.557,0,0,0-.939-.885.109.109,0,0,0-.136.133,1.834,1.834,0,0,0,1.111,1.119h0c0,.053.006.1.009.152.009.139.016.257.021.347h.237c-.01-.093-.024-.219-.04-.367C1888.022,2158.974,1888.014,2158.886,1888,2158.793Z" transform="translate(-1882.346 -2144.92)" fill="#fff"/>
          <path id="Trazado_141003" data-name="Trazado 141003" d="M1880.663,2129.221c-.03.027-.059.052-.089.082-.055.051-.105.109-.16.165s-.1.12-.154.181-.1.126-.143.19-.088.128-.129.191l-.111.185c-.029.05-.053.1-.077.145.007-.184.015-.366.025-.545a2.457,2.457,0,0,0,.4-1.153,1.9,1.9,0,0,0-.33.189c.059-.694.136-1.342.219-1.925a3.341,3.341,0,0,1,2.1.026l0,0a4.722,4.722,0,0,0,3.533-.482,3.614,3.614,0,0,0-5.411-.89c.085-.467.165-.852.228-1.137l.081-.009a2.611,2.611,0,0,0,1.913-1.365,1.968,1.968,0,0,0,.2-1.341,4.671,4.671,0,0,1-.195-1.322c.043-.331.209-.635.263-.963l0-.014a4.6,4.6,0,0,0-2.7,2.045,2.835,2.835,0,0,0-.331,1.738,1.591,1.591,0,0,0,.621,1.183c-.094.428-.178.867-.253,1.309-.045.032-.088.061-.133.1a3.128,3.128,0,0,0-.883,1.6,16.859,16.859,0,0,1,.407-2.706.994.994,0,0,0,.269-.438c-.007-.193-.21-.435-.27-.619a3.469,3.469,0,0,1-.172-.946s-.408,1.3,0,1.884a15.434,15.434,0,0,0-.533,3.586,9.979,9.979,0,0,0-.385-1.709,1.137,1.137,0,0,1-.024-.655c.966-3.719-3.855-4.214-3.855-4.214-.151,4.4,2.331,4.76,3.313,4.733a.4.4,0,0,1,.39.266,13.349,13.349,0,0,1,.575,3.461q-.036-.172-.079-.347a6.026,6.026,0,0,0-.424-1.195,1.513,1.513,0,0,0-.075-.145l-.081-.143-.09-.138c-.016-.023-.03-.046-.046-.069l-.051-.066c-.035-.042-.067-.088-.1-.129l-.115-.121a1.591,1.591,0,0,0-.125-.112c-.043-.037-.086-.073-.129-.1-.348-.263-.7-.513-1.052-.761s-.688-.5-1.006-.748a9.469,9.469,0,0,1-.873-.776,5.7,5.7,0,0,1-.665-.8,7.077,7.077,0,0,1-.8-2l-.013,2.09c0,1.527,1.2,1.765,2.02,1.815a2.1,2.1,0,0,1,1.116.4l.152.11c.233.169.467.338.7.51a3.6,3.6,0,0,0-2.513-.5c-.6.144-1.317.681-1.321,1.348s.638.541,1.071.355a12.571,12.571,0,0,1,1.564-.8,3.072,3.072,0,0,1,.849-.1,4.241,4.241,0,0,1,.8.04l.023.019a1.246,1.246,0,0,1,.117.106l.109.115c.035.039.066.083.1.124l.048.063c.016.021.029.044.044.066l.087.133.077.139c.026.045.051.092.072.141a5.949,5.949,0,0,1,.407,1.171,12.021,12.021,0,0,1,.28,1.859c.016.665.017,1.4,0,2.23v.111h.962c-.064-.678-.1-1.35-.107-2.009.416-.119.9-.487,1.036-1.527a.1.1,0,0,0-.107-.109,1.714,1.714,0,0,0-.809.324c.016-.043.038-.089.061-.14s.048-.11.078-.168l.1-.183.113-.19c.04-.064.084-.126.127-.19s.091-.124.138-.182.095-.116.145-.168c.016-.018.032-.032.047-.048a2.38,2.38,0,0,0,1.868-.027,2.809,2.809,0,0,0,1.207-1.8S1881.108,2126.952,1880.663,2129.221Zm-1.39.9a.615.615,0,0,0,.4-.146q-.027.389-.047.755l-.006.014.006,0c0,.044,0,.088-.007.132a2.018,2.018,0,0,0-.269.4C1879.333,2130.872,1879.309,2130.477,1879.274,2130.122Zm.138-2.6a1.884,1.884,0,0,1,.552-.517c-.088.665-.159,1.324-.214,1.959a1.57,1.57,0,0,0-.521.776q-.015-.111-.033-.214a7.914,7.914,0,0,1-.082-1.509A2.488,2.488,0,0,1,1879.412,2127.521Zm.141,4.909a5.012,5.012,0,0,1-.075.733,4.4,4.4,0,0,1-.119.505c.01-.5.015-1.092.005-1.7a1.421,1.421,0,0,0,.2-.009C1879.562,2132.126,1879.557,2132.283,1879.553,2132.43Z" transform="translate(-1873.132 -2119.426)" fill="#fff"/>
        </g>
        <g id="Grupo_63365" data-name="Grupo 63365" transform="translate(1.543 28.222)">
          <path id="Trazado_141004" data-name="Trazado 141004" d="M1879.249,2171.278a.763.763,0,0,0-1.2-.512.956.956,0,0,0-.866-.553c-.023,0-.046,0-.069,0a5.45,5.45,0,0,0-4.362,1.062Z" transform="translate(-1872.751 -2169.011)" fill="#1d2554"/>
          <g id="Grupo_63364" data-name="Grupo 63364" transform="translate(5.602 0.881)">
            <path id="Trazado_141005" data-name="Trazado 141005" d="M1906.828,2173.86a.467.467,0,0,0-.734-.313.583.583,0,0,0-.529-.338l-.042,0a3.333,3.333,0,0,0-2.666.649Z" transform="translate(-1900.796 -2172.474)" fill="#1d2554"/>
            <path id="Trazado_141006" data-name="Trazado 141006" d="M1897.254,2175.372a.293.293,0,0,0-.461-.2.367.367,0,0,0-.332-.212h-.026a2.094,2.094,0,0,0-1.673.407Z" transform="translate(-1894.762 -2173.986)" fill="#1d2554"/>
          </g>
        </g>
      </g>
      <g id="Grupo_63371" data-name="Grupo 63371" transform="translate(1630.577 1741.512)">
        <path id="Trazado_141007" data-name="Trazado 141007" d="M1779.915,2114.119a.032.032,0,0,0,.019,0l.032-.016a.847.847,0,0,0,.424-.633.637.637,0,0,0-.092-.429,1.524,1.524,0,0,1-.21-.379c-.025-.105-.009-.217-.03-.322v0a1.491,1.491,0,0,0-.586.929.919.919,0,0,0,.1.565A.5.5,0,0,0,1779.915,2114.119Z" transform="translate(-1773.251 -2109.924)" fill="#14274d"/>
        <path id="Trazado_141008" data-name="Trazado 141008" d="M1783.876,2106.274a.064.064,0,0,1-.034-.018l-.049-.049a1.653,1.653,0,0,1-.4-1.434,1.247,1.247,0,0,1,.435-.74,2.961,2.961,0,0,0,.623-.574c.11-.18.149-.4.254-.579l0-.008a2.911,2.911,0,0,1,.517,2.083,1.8,1.8,0,0,1-.529.988A.975.975,0,0,1,1783.876,2106.274Z" transform="translate(-1776.164 -2102.872)" fill="#14274d"/>
        <path id="Trazado_141009" data-name="Trazado 141009" d="M1783.768,2145.732h.244a3.709,3.709,0,0,1,.047-.754.942.942,0,0,1,.512-.705,7.222,7.222,0,0,1,.745-.332c.483-.17.425-.895.908-1.249s.521-.6.459-.748a.223.223,0,0,0-.269-.125,3.34,3.34,0,0,0-2.229,2.091A4.236,4.236,0,0,0,1783.768,2145.732Z" transform="translate(-1776.461 -2131.899)" fill="#14274d"/>
        <path id="Trazado_141010" data-name="Trazado 141010" d="M1760.424,2128.414a4.45,4.45,0,0,0-3.32-.965c-.631.152-1.392.72-1.4,1.426s.675.572,1.133.376a13.214,13.214,0,0,1,1.654-.852,3.284,3.284,0,0,1,.9-.106C1759.625,2128.3,1760.238,2128.263,1760.424,2128.414Z" transform="translate(-1755.543 -2121.14)" fill="#14274d"/>
        <path id="Trazado_141011" data-name="Trazado 141011" d="M1755.064,2111.488c0,1.615,1.272,1.866,2.136,1.919a2.219,2.219,0,0,1,1.18.424l.161.116c.367.266.741.531,1.105.81.047.034.089.07.131.107a1.3,1.3,0,0,1,.124.113l.115.122c.037.041.069.088.1.131l.051.066c.017.022.031.047.047.07l.092.141.081.146a1.644,1.644,0,0,1,.076.149,6.265,6.265,0,0,1,.431,1.238,12.668,12.668,0,0,1,.3,1.967q.014.18.025.35c.04.685.037,1.259.029,1.659,0,.2-.011.359-.017.466h.171c0-.108.011-.265.014-.463.006-.4.006-.981-.039-1.672a14.335,14.335,0,0,0-.256-1.975c-.025-.121-.052-.244-.083-.367a6.367,6.367,0,0,0-.448-1.264,1.63,1.63,0,0,0-.079-.154l-.085-.151-.1-.146c-.017-.024-.032-.049-.049-.073l-.054-.07c-.037-.045-.071-.093-.111-.137l-.122-.128c-.04-.044-.089-.079-.132-.119s-.091-.077-.137-.11c-.368-.278-.745-.542-1.113-.8s-.728-.524-1.064-.791a10.006,10.006,0,0,1-.923-.821,6.015,6.015,0,0,1-.7-.849,7.486,7.486,0,0,1-.843-2.111Z" transform="translate(-1755.064 -2107.647)" fill="#14274d"/>
        <path id="Trazado_141012" data-name="Trazado 141012" d="M1770.264,2136.233a2.18,2.18,0,0,0-.639-2.49,3.651,3.651,0,0,0-1.383-.617A2.363,2.363,0,0,0,1770.264,2136.233Z" transform="translate(-1764.808 -2125.426)" fill="#14274d"/>
        <path id="Trazado_141013" data-name="Trazado 141013" d="M1775.88,2143.718s.016.056.04.154c.011.048.028.107.042.176s.032.145.051.229.035.176.055.272.041.2.057.3.037.216.056.327.033.226.05.339.031.227.047.338.023.223.035.329c0,.011,0,.023,0,.034.01.095.018.187.028.274,0,.039.008.077.011.115,0,.056.007.11.01.161.009.146.017.271.022.367h.25c-.011-.1-.025-.231-.042-.389-.009-.087-.018-.18-.034-.279s-.03-.2-.047-.31-.031-.218-.051-.33-.042-.226-.063-.34-.041-.228-.066-.338-.049-.221-.072-.327-.05-.207-.073-.3-.046-.188-.069-.272-.044-.16-.062-.228-.037-.127-.051-.176c-.029-.1-.047-.152-.047-.152Z" transform="translate(-1770.582 -2133.304)" fill="#14274d"/>
        <path id="Trazado_141014" data-name="Trazado 141014" d="M1774.407,2151.308a1.935,1.935,0,0,0-1.153-1.381.116.116,0,0,0-.144.141A2.009,2.009,0,0,0,1774.407,2151.308Z" transform="translate(-1768.514 -2137.947)" fill="#14274d"/>
        <path id="Trazado_141015" data-name="Trazado 141015" d="M1764.566,2110.926a.425.425,0,0,1,.413.282,14.123,14.123,0,0,1,.609,3.661c.034.489.059,1.032.073,1.634.017.7.018,1.485,0,2.358v.117h.451c0-.088,0-.18.006-.276a28.369,28.369,0,0,0-.173-4.382,15.41,15.41,0,0,1,.416-5.257.108.108,0,0,0-.009-.085.109.109,0,0,0-.067-.052h0a.1.1,0,0,0-.079.011.1.1,0,0,0-.047.063,16.894,16.894,0,0,0-.584,3.875,10.559,10.559,0,0,0-.407-1.807,1.2,1.2,0,0,1-.025-.693c1.022-3.933-4.077-4.457-4.077-4.457C1760.9,2110.571,1763.527,2110.955,1764.566,2110.926Zm1.007,1.964s0,.008,0,.011S1765.574,2112.9,1765.573,2112.89Z" transform="translate(-1759.531 -2105.144)" fill="#14274d"/>
        <path id="Trazado_141016" data-name="Trazado 141016" d="M1780.755,2123.425a3.366,3.366,0,0,0-1.01,2.544,1.643,1.643,0,0,1,.359-.719c.777-1.061,1.836-.85,2.964-.6Z" transform="translate(-1773.461 -2118.194)" fill="#14274d"/>
        <path id="Trazado_141017" data-name="Trazado 141017" d="M1781.729,2142.193a.1.1,0,0,0-.114-.115,2,2,0,0,0-1.688,1.751S1781.456,2144.238,1781.729,2142.193Z" transform="translate(-1773.599 -2132.098)" fill="#14274d"/>
        <path id="Trazado_141018" data-name="Trazado 141018" d="M1781.3,2135.331a1.808,1.808,0,0,0-1.107,1.533S1781.043,2137.119,1781.3,2135.331Z" transform="translate(-1773.796 -2127.069)" fill="#14274d"/>
        <path id="Trazado_141019" data-name="Trazado 141019" d="M1789.6,2130.368s-2.908-.612-3.321,1.9a2.551,2.551,0,0,0,2.043,0A2.973,2.973,0,0,0,1789.6,2130.368Z" transform="translate(-1778.337 -2123.321)" fill="#14274d"/>
        <path id="Trazado_141020" data-name="Trazado 141020" d="M1783.707,2135.994l-.027.014c-.019.009-.043.024-.076.042a2.834,2.834,0,0,0-.252.171c-.049.04-.1.08-.158.129s-.111.1-.167.154-.112.115-.169.175-.109.127-.163.191-.1.133-.151.2-.093.135-.136.2l-.117.2c-.036.063-.066.124-.1.18s-.057.107-.077.154l-.055.121-.048.106.213.083.041-.1.046-.119c.016-.046.041-.1.066-.152s.051-.116.083-.178l.1-.194.12-.2c.043-.067.089-.134.134-.2s.1-.13.146-.193.1-.123.153-.178.1-.109.153-.158.1-.092.145-.133a2.684,2.684,0,0,1,.234-.178l.068-.043.025-.014Z" transform="translate(-1775.155 -2127.563)" fill="#14274d"/>
        <path id="Trazado_141021" data-name="Trazado 141021" d="M1789.764,2120.8s-2.214-3.632-6.045-.709A5.268,5.268,0,0,0,1789.764,2120.8Z" transform="translate(-1776.426 -2114.862)" fill="#14274d"/>
        <path id="Trazado_141022" data-name="Trazado 141022" d="M1780.522,2125.778h.667a34.348,34.348,0,0,1,.852-10.634l-.146-.1a46.235,46.235,0,0,0-1.062,9.15,5.277,5.277,0,0,1-.079.775,4.661,4.661,0,0,1-.125.535A1.742,1.742,0,0,1,1780.522,2125.778Z" transform="translate(-1774.042 -2111.944)" fill="#14274d"/>
        <path id="Trazado_141023" data-name="Trazado 141023" d="M1776.236,2125.722c.4.074.782.177,1.178.229-.358-.2-.741-.39-1.12-.565.022-.115.047-.231.073-.349a12.428,12.428,0,0,0,1.649.562c-.507-.37-1-.759-1.5-1.123.1-.34.214-.686.349-1.034a3.286,3.286,0,0,0,.469.059c-.135-.083-.265-.166-.394-.249.038-.094.077-.187.117-.281a5.7,5.7,0,0,0,.942.363,4.225,4.225,0,0,1-.73-.828,12.458,12.458,0,0,1,1-1.724v-.045l.016.023.016-.023v.045c.181.259.352.526.512.8-.123.247-.248.495-.381.735.167-.167.334-.345.509-.51.168.3.323.608.465.917a5.3,5.3,0,0,1-.5.778c.221-.153.414-.334.625-.486.04.094.08.188.117.282-.334.373-.722.7-1.033,1.1a13,13,0,0,1,1.174-.731,11.419,11.419,0,0,1,.447,1.542c-.331.341-.7.647-1.019,1,.376-.161.737-.353,1.109-.509.021.135.039.268.053.4a20.074,20.074,0,0,0-1.764,1.109l1.8-.521a3.8,3.8,0,0,1-.141,1.165c-.485.24-.933.556-1.431.749.422-.069.827-.206,1.235-.309a1.342,1.342,0,0,1-.1.143,2.1,2.1,0,0,1-1.5.831v.768h-.431v-.77a2.112,2.112,0,0,1-1.464-.829,2.038,2.038,0,0,1-.384-.958,6.056,6.056,0,0,0,1.4.356c-.5-.292-.962-.625-1.448-.92A6.679,6.679,0,0,1,1776.236,2125.722Z" transform="translate(-1770.784 -2116.189)" fill="#2c518d"/>
        <path id="Trazado_141024" data-name="Trazado 141024" d="M1779.5,2167.113s-.5,1.6.114,2.124c.1.084.356-.394.353-.468-.007-.2-.222-.46-.286-.655A3.67,3.67,0,0,1,1779.5,2167.113Z" transform="translate(-1773.138 -2150.762)" fill="#f0969a"/>
        <g id="Grupo_63367" data-name="Grupo 63367" transform="translate(4.893 6.926)">
          <path id="Trazado_141025" data-name="Trazado 141025" d="M1785.481,2132.512a7.915,7.915,0,0,0,.038,1.437,3.807,3.807,0,0,1,.123,1.446c-.076.747-.378,2.476-.4,2.542s-.151-2.807-.151-2.807a1.424,1.424,0,0,0,.095-.567A5.026,5.026,0,0,1,1785.481,2132.512Z" transform="translate(-1782.343 -2131.894)" fill="#4c81c5"/>
          <path id="Trazado_141026" data-name="Trazado 141026" d="M1786.647,2147.239h.658a1.23,1.23,0,0,0,.25-.584,1.493,1.493,0,0,1,.114-.435l.151-.427.01-.027a2.179,2.179,0,0,0,.16-.85,1.843,1.843,0,0,1,.206-1.1,2.1,2.1,0,0,0-.489,1.075,3.185,3.185,0,0,1-.208.595l-.167.344Z" transform="translate(-1783.501 -2140.318)" fill="#2e5580"/>
          <path id="Trazado_141027" data-name="Trazado 141027" d="M1788.406,2152.213h.411a.8.8,0,0,0,.116-.527c-.009-.34.114-.312.2-.416s.123-.028.16-.284a1.018,1.018,0,0,1,.359-.5,1.025,1.025,0,0,0-.52.282A3.231,3.231,0,0,0,1788.406,2152.213Z" transform="translate(-1784.813 -2145.292)" fill="#4c81c5"/>
          <path id="Trazado_141028" data-name="Trazado 141028" d="M1788.524,2139.105s.142-2.5.194-2.982a10.5,10.5,0,0,0-.494,2.954Z" transform="translate(-1784.676 -2134.585)" fill="#8fbfe1"/>
          <path id="Trazado_141029" data-name="Trazado 141029" d="M1785.655,2136.953a5.574,5.574,0,0,0,0-1.645l.066-.6s-.009-.68-.047-1.313a5.676,5.676,0,0,1-.009-1.068,2.846,2.846,0,0,0-.312,1.333,5.822,5.822,0,0,1-.113,1.4,7.472,7.472,0,0,0-.274,1.768l-.113.6a3.257,3.257,0,0,0-.1,1.238Z" transform="translate(-1782.064 -2131.756)" fill="#09264e"/>
          <path id="Trazado_141030" data-name="Trazado 141030" d="M1784.493,2143.873h.776a3.27,3.27,0,0,0,.454-1.331c0-.028,0-.055,0-.082a2.085,2.085,0,0,1,.212-.866,1.261,1.261,0,0,0,.132-.4,1.617,1.617,0,0,0,.012-.422,4.139,4.139,0,0,1,.114-1.432c.084-.178-.2.187-.372.833l0,.018a3.651,3.651,0,0,0-.119.793.684.684,0,0,1-.114.355c-.012.017-.026.042-.042.071l-.021.039c-.1.2-.255.552-.349.777a3.14,3.14,0,0,1-.181.363c-.027.047-.059.1-.093.165s-.06.112-.091.175l-.019.038a4.077,4.077,0,0,0-.188.444c-.02.055-.037.111-.053.167A1.7,1.7,0,0,0,1784.493,2143.873Z" transform="translate(-1781.896 -2136.952)" fill="#8fbfe1"/>
          <path id="Trazado_141031" data-name="Trazado 141031" d="M1774.288,2151.677s.557-.123.671.1.189.057.3.558c.083.368.08.44.192.584h.5l-.529-1.246a.819.819,0,0,0-.159-.149.6.6,0,0,0-.1-.059.366.366,0,0,0-.273-.01Z" transform="translate(-1774.288 -2146.002)" fill="#4c81c5"/>
          <path id="Trazado_141032" data-name="Trazado 141032" d="M1776.529,2144.711a1.493,1.493,0,0,0,.132.832,1,1,0,0,1,.125.238,3.561,3.561,0,0,1,.13.414,5.077,5.077,0,0,0,.292.981h.473l-.3-1.3a1.284,1.284,0,0,1-.52-.926,1.781,1.781,0,0,0-.529-1.219A2.114,2.114,0,0,1,1776.529,2144.711Z" transform="translate(-1775.811 -2140.255)" fill="#2e5580"/>
          <path id="Trazado_141033" data-name="Trazado 141033" d="M1783.019,2133.824a26.029,26.029,0,0,0,.167,3.179h.589v-1.959c0-.231-.017-.457-.039-.675a10.666,10.666,0,0,0-.185-1.138c-.065-.306-.128-.56-.164-.739-.094-.473.047-.567-.009-1.295a2.714,2.714,0,0,0-.293-1.115,1.674,1.674,0,0,1,0,.9,9.384,9.384,0,0,0-.085,1.21c-.065.366.075.668.03,1.466Q1783.026,2133.736,1783.019,2133.824Z" transform="translate(-1780.77 -2130.082)" fill="#09264e"/>
          <path id="Trazado_141034" data-name="Trazado 141034" d="M1780.842,2136.155c.179.34.142.482.142.482,0,.072-.008.144-.01.214,0,.1,0,.194,0,.288a9.612,9.612,0,0,0,.129,1.538h.771c-.008-.04-.015-.081-.021-.124-.015-.1-.028-.213-.038-.335-.008-.092-.014-.189-.02-.294-.016-.293-.027-.638-.042-1.05a3.663,3.663,0,0,0-.385-1.544c0-.014-.008-.029-.011-.044a5.559,5.559,0,0,1-.17-1.229,3.519,3.519,0,0,0-.265-1.73,3.874,3.874,0,0,1-.028,1.181,6.254,6.254,0,0,0-.066,1l.031.44a1.5,1.5,0,0,1-.039.462c0,.006,0,.012,0,.019A.87.87,0,0,0,1780.842,2136.155Z" transform="translate(-1779.103 -2131.756)" fill="#2e5580"/>
          <path id="Trazado_141035" data-name="Trazado 141035" d="M1779.523,2141.239a2.459,2.459,0,0,1,.444,1.191l.2.964-.094.406-.4-.491A7.987,7.987,0,0,0,1779.523,2141.239Z" transform="translate(-1778.19 -2138.399)" fill="#4c81c5"/>
          <path id="Trazado_141036" data-name="Trazado 141036" d="M1777.478,2139.715a3.083,3.083,0,0,0,.11.978,1.967,1.967,0,0,1,.284.945v0a2.258,2.258,0,0,0,.179.9l.237.556h.361l-.107-.7c-.068-.426-.095-.717-.155-.969-.013-.055-.027-.107-.044-.159a1.774,1.774,0,0,0-.207-.432,1.928,1.928,0,0,1-.173-.3,5.67,5.67,0,0,1-.12-.849,4.986,4.986,0,0,0-.625-1.432A8.236,8.236,0,0,1,1777.478,2139.715Z" transform="translate(-1776.472 -2136.171)" fill="#09264e"/>
        </g>
        <g id="Grupo_63369" data-name="Grupo 63369" transform="translate(3.517 13.517)">
          <g id="Grupo_63368" data-name="Grupo 63368" transform="translate(0.548 0.878)">
            <path id="Trazado_141037" data-name="Trazado 141037" d="M1777.4,2159.427v3.03a1.06,1.06,0,0,1-1.06,1.061H1772.1a1.06,1.06,0,0,1-1.06-1.061v-3.03Z" transform="translate(-1771.036 -2159.427)" fill="#fff"/>
            <path id="Trazado_141038" data-name="Trazado 141038" d="M1775.126,2159.427v3.03a1.06,1.06,0,0,1-1.06,1.061H1772.1a1.06,1.06,0,0,1-1.06-1.061v-3.03Z" transform="translate(-1771.036 -2159.427)" fill="#c7dfec" style="mix-blend-mode: multiply;isolation: isolate"/>
          </g>
          <rect id="Rectángulo_19118" data-name="Rectángulo 19118" width="7.458" height="1" fill="#fff"/>
          <rect id="Rectángulo_19119" data-name="Rectángulo 19119" width="1.348" height="1" transform="translate(5.287)" fill="#c7dfec" style="mix-blend-mode: multiply;isolation: isolate"/>
        </g>
        <g id="Grupo_63370" data-name="Grupo 63370" transform="translate(1.139 16.106)">
          <path id="Trazado_141039" data-name="Trazado 141039" d="M1759.54,2168.53a.8.8,0,0,1,1.26-.537,1,1,0,0,1,.909-.581c.024,0,.048,0,.072,0a5.721,5.721,0,0,1,4.576,1.114Z" transform="translate(-1759.54 -2166.151)" fill="#14274d"/>
          <path id="Trazado_141040" data-name="Trazado 141040" d="M1783.409,2171.125a.5.5,0,0,1,.791-.337.629.629,0,0,1,.57-.364l.045,0a3.588,3.588,0,0,1,2.872.7Z" transform="translate(-1777.334 -2168.746)" fill="#14274d"/>
        </g>
      </g>
    </g>
  </g>
</svg>
