<svg xmlns="http://www.w3.org/2000/svg" width="128" height="153" viewBox="0 0 128 153">
  <g id="Grupo_63844" data-name="Grupo 63844" transform="translate(-517 -5358.5)">
    <line id="Línea_615" data-name="Línea 615" y2="153" transform="translate(643.5 5358.5)" fill="none" stroke="#707070" stroke-width="3" stroke-dasharray="5" opacity="0.5"/>
    <g id="Grupo_63342" data-name="Grupo 63342" transform="translate(216.555 3661.124)">
      <g id="Grupo_63287" data-name="Grupo 63287" transform="translate(302.235 1723.424)">
        <g id="Grupo_63276" data-name="Grupo 63276" transform="translate(0 0)">
          <path id="Trazado_140808" data-name="Trazado 140808" d="M407.2,1764.705l-69.172,47.84a1.324,1.324,0,0,1-1.842-.336l-26.881-38.868a1.324,1.324,0,0,1,.336-1.842l69.172-47.84a1.324,1.324,0,0,1,1.842.336l26.881,38.868A1.324,1.324,0,0,1,407.2,1764.705Z" transform="translate(-309.072 -1723.424)" fill="#44bc58"/>
        </g>
        <g id="Grupo_63277" data-name="Grupo 63277" transform="translate(10.459 10.459)">
          <path id="Trazado_140809" data-name="Trazado 140809" d="M437.267,1795.472l-13.393-19.366a8.95,8.95,0,0,1-12.451-2.27l-49.67,34.352a8.949,8.949,0,0,1-2.27,12.451L372.876,1840a8.949,8.949,0,0,1,12.451,2.27L435,1807.922A8.949,8.949,0,0,1,437.267,1795.472Z" transform="translate(-359.483 -1773.836)" fill="#bff4ba"/>
        </g>
        <g id="Grupo_63279" data-name="Grupo 63279" transform="translate(8.988 57.051)" opacity="0.6">
          <g id="Grupo_63278" data-name="Grupo 63278">
            <path id="Trazado_140810" data-name="Trazado 140810" d="M367.675,1998.408a23.8,23.8,0,0,0-15.28,5.522l18.128,26.212a1.324,1.324,0,0,0,1.842.336l18.732-12.955A23.91,23.91,0,0,0,367.675,1998.408Z" transform="translate(-352.395 -1998.408)" fill="#3ca64e"/>
          </g>
        </g>
        <g id="Grupo_63282" data-name="Grupo 63282" transform="translate(22.466 23.561)">
          <g id="Grupo_63280" data-name="Grupo 63280" transform="translate(0 32.026)">
            <circle id="Elipse_1917" data-name="Elipse 1917" cx="3.808" cy="3.808" r="3.808" transform="translate(0 7.551) rotate(-82.533)" fill="#44bc58"/>
          </g>
          <g id="Grupo_63281" data-name="Grupo 63281" transform="translate(43.754)">
            <circle id="Elipse_1918" data-name="Elipse 1918" cx="3.808" cy="3.808" r="3.808" transform="translate(0 6.187) rotate(-54.33)" fill="#44bc58"/>
          </g>
        </g>
        <g id="Grupo_63283" data-name="Grupo 63283" transform="translate(28.831 24.158)">
          <circle id="Elipse_1919" data-name="Elipse 1919" cx="14.51" cy="14.51" r="14.51" transform="translate(0 20.52) rotate(-45)" fill="#44bc58"/>
        </g>
        <g id="Grupo_63286" data-name="Grupo 63286" transform="translate(41.332 34.586)">
          <g id="Grupo_63285" data-name="Grupo 63285">
            <g id="Grupo_63284" data-name="Grupo 63284">
              <path id="Trazado_140811" data-name="Trazado 140811" d="M518.556,1898.184a4.8,4.8,0,0,1,2.107-.015,3.6,3.6,0,0,1,1.935,1.181,4.078,4.078,0,0,1,1.049,3.486,7.244,7.244,0,0,1-2.09,3.894l1.625,2.31a.929.929,0,0,1,.143.777,1.418,1.418,0,0,1-.442.727,1.013,1.013,0,0,1-.683.289.716.716,0,0,1-.61-.355l-1.642-2.372a6.058,6.058,0,0,1-3.372,1.2,3.346,3.346,0,0,1-2.628-1.095,2.159,2.159,0,0,1-.654-1.491,1.638,1.638,0,0,1,.548-1.228,1.321,1.321,0,0,1,1.054-.412,2.592,2.592,0,0,1,1.2.608,1.931,1.931,0,0,0,1.11.481,2.192,2.192,0,0,0,1.229-.282l-2.453-3.567a15.011,15.011,0,0,1-2.385.71,4.782,4.782,0,0,1-2.143-.068,4.081,4.081,0,0,1-2-1.3,4.23,4.23,0,0,1-1.113-3.621,6.99,6.99,0,0,1,2.016-3.827l-1.663-2.352a.813.813,0,0,1-.165-.738,1.364,1.364,0,0,1,.42-.688,1.125,1.125,0,0,1,.7-.309.656.656,0,0,1,.612.315l1.678,2.454a5.394,5.394,0,0,1,2.987-1,3.167,3.167,0,0,1,2.416,1.094,1.9,1.9,0,0,1,.6,1.407,1.744,1.744,0,0,1-.607,1.185,1.364,1.364,0,0,1-.981.386,1.418,1.418,0,0,1-.979-.465,1.644,1.644,0,0,0-1.9-.4l2.64,3.86A19.34,19.34,0,0,1,518.556,1898.184Zm-5.813,1.61a4.222,4.222,0,0,0,1.415-.141l-2.286-3.255a2.544,2.544,0,0,0-.654,1.516,1.887,1.887,0,0,0,.528,1.374A1.5,1.5,0,0,0,512.744,1899.794Zm8.016,3.281a1.536,1.536,0,0,0-.412-1.266,1.4,1.4,0,0,0-.979-.464,4.066,4.066,0,0,0-1.439.221l2.1,3A2.948,2.948,0,0,0,520.76,1903.075Z" transform="translate(-508.292 -1890.128)" fill="#bff4ba"/>
            </g>
          </g>
        </g>
      </g>
      <g id="Grupo_63289" data-name="Grupo 63289" transform="translate(334.038 1747.536)" opacity="0.6">
        <g id="Grupo_63288" data-name="Grupo 63288" transform="translate(0 0)">
          <path id="Trazado_140812" data-name="Trazado 140812" d="M518.422,1839.644,462.358,1861.4l54.138,3.847,12.19-8.431a1.324,1.324,0,0,0,.336-1.842Z" transform="translate(-462.358 -1839.644)" fill="#3ca64e"/>
        </g>
      </g>
      <g id="Grupo_63299" data-name="Grupo 63299" transform="translate(318.744 1747.866)">
        <g id="Grupo_63290" data-name="Grupo 63290" transform="translate(0)">
          <path id="Trazado_140813" data-name="Trazado 140813" d="M484.981,1888.749l-79.971,26.04a1.324,1.324,0,0,1-1.669-.849L388.709,1869a1.324,1.324,0,0,1,.849-1.669l79.971-26.04a1.324,1.324,0,0,1,1.669.849l14.632,44.936A1.324,1.324,0,0,1,484.981,1888.749Z" transform="translate(-388.644 -1841.23)" fill="#44bc58"/>
        </g>
        <g id="Grupo_63291" data-name="Grupo 63291" transform="translate(7.759 7.759)">
          <path id="Trazado_140814" data-name="Trazado 140814" d="M507.776,1906.757l-7.29-22.389a8.949,8.949,0,0,1-11.28-5.739l-57.424,18.7a8.949,8.949,0,0,1-5.739,11.28l7.29,22.389a8.949,8.949,0,0,1,11.28,5.739l57.424-18.7A8.949,8.949,0,0,1,507.776,1906.757Z" transform="translate(-426.043 -1878.63)" fill="#bff4ba"/>
        </g>
        <g id="Grupo_63294" data-name="Grupo 63294" transform="translate(17.484 24.204)">
          <g id="Grupo_63292" data-name="Grupo 63292" transform="translate(0 15.551)">
            <circle id="Elipse_1920" data-name="Elipse 1920" cx="3.808" cy="3.808" r="3.808" transform="translate(0 6.771) rotate(-62.756)" fill="#44bc58"/>
          </g>
          <g id="Grupo_63293" data-name="Grupo 63293" transform="translate(53.105)">
            <circle id="Elipse_1921" data-name="Elipse 1921" cx="3.808" cy="3.808" r="3.808" transform="matrix(0.002, -1, 1, 0.002, 0, 7.616)" fill="#44bc58"/>
          </g>
        </g>
        <g id="Grupo_63295" data-name="Grupo 63295" transform="translate(28.106 16.292)">
          <circle id="Elipse_1922" data-name="Elipse 1922" cx="14.51" cy="14.51" r="14.51" transform="translate(0 20.52) rotate(-45)" fill="#44bc58"/>
        </g>
        <g id="Grupo_63298" data-name="Grupo 63298" transform="translate(41.185 25.21)">
          <g id="Grupo_63297" data-name="Grupo 63297">
            <g id="Grupo_63296" data-name="Grupo 63296">
              <path id="Trazado_140815" data-name="Trazado 140815" d="M597.331,1973.036a4.807,4.807,0,0,1,2.023.589,3.6,3.6,0,0,1,1.516,1.686,4.078,4.078,0,0,1,.007,3.64,7.242,7.242,0,0,1-3.118,3.133l.9,2.678a.929.929,0,0,1-.085.785,1.419,1.419,0,0,1-.631.57,1.013,1.013,0,0,1-.737.082.716.716,0,0,1-.483-.515l-.895-2.742a6.058,6.058,0,0,1-3.573.181,3.345,3.345,0,0,1-2.2-1.8,2.159,2.159,0,0,1-.2-1.616,1.636,1.636,0,0,1,.877-1.02,1.32,1.32,0,0,1,1.128-.094,2.6,2.6,0,0,1,.98.927,1.93,1.93,0,0,0,.926.779,2.19,2.19,0,0,0,1.259.082l-1.329-4.12a15.044,15.044,0,0,1-2.488,0,4.784,4.784,0,0,1-2.034-.678,4.081,4.081,0,0,1-1.546-1.814,4.23,4.23,0,0,1-.03-3.788,6.99,6.99,0,0,1,3.027-3.09l-.921-2.73a.813.813,0,0,1,.053-.754,1.361,1.361,0,0,1,.6-.539,1.123,1.123,0,0,1,.763-.094.656.656,0,0,1,.5.477l.906,2.832a5.391,5.391,0,0,1,3.149-.106,3.165,3.165,0,0,1,2,1.74,1.9,1.9,0,0,1,.169,1.52,1.744,1.744,0,0,1-.92.961,1.363,1.363,0,0,1-1.051.089,1.417,1.417,0,0,1-.8-.726,1.644,1.644,0,0,0-1.71-.928l1.425,4.454A19.314,19.314,0,0,1,597.331,1973.036Zm-6.03-.121a4.213,4.213,0,0,0,1.4.27l-1.259-3.773a2.544,2.544,0,0,0-1.06,1.266,1.888,1.888,0,0,0,.113,1.467A1.505,1.505,0,0,0,591.3,1972.915Zm6.742,5.438a1.538,1.538,0,0,0-.032-1.331,1.4,1.4,0,0,0-.805-.725,4.074,4.074,0,0,0-1.442-.2l1.149,3.477A2.946,2.946,0,0,0,598.042,1978.353Z" transform="translate(-587.155 -1962.742)" fill="#bff4ba"/>
            </g>
          </g>
        </g>
      </g>
      <g id="Grupo_63301" data-name="Grupo 63301" transform="translate(320.898 1781.632)" opacity="0.6">
        <g id="Grupo_63300" data-name="Grupo 63300" transform="translate(0 0)">
          <path id="Trazado_140816" data-name="Trazado 140816" d="M439.015,2012.874a21.856,21.856,0,0,0-13.836,4.913,23.927,23.927,0,0,0-26.153-13.382l12.543,38.522a1.324,1.324,0,0,0,1.669.849l46.808-15.242A21.956,21.956,0,0,0,439.015,2012.874Z" transform="translate(-399.026 -2003.983)" fill="#3ca64e"/>
        </g>
      </g>
      <g id="Grupo_63322" data-name="Grupo 63322" transform="translate(328.887 1782.688)">
        <g id="Grupo_63318" data-name="Grupo 63318" transform="translate(0 0)">
          <g id="Grupo_63302" data-name="Grupo 63302">
            <circle id="Elipse_1923" data-name="Elipse 1923" cx="21.95" cy="21.95" r="21.95" transform="translate(0 31.042) rotate(-45)" fill="#ffce33"/>
          </g>
          <g id="Grupo_63303" data-name="Grupo 63303" transform="translate(9.092 12.769)">
            <path id="Trazado_140817" data-name="Trazado 140817" d="M481.355,2088.895a21.863,21.863,0,0,0,5.5,14.529,23.9,23.9,0,0,0,4.287-32.8A21.927,21.927,0,0,0,481.355,2088.895Z" transform="translate(-481.355 -2070.621)" fill="#f7a614"/>
          </g>
          <g id="Grupo_63304" data-name="Grupo 63304" transform="translate(11.571 11.571)">
            <circle id="Elipse_1924" data-name="Elipse 1924" cx="16.921" cy="16.921" r="16.921" transform="translate(0 5.562) rotate(-9.46)" fill="#ffc001"/>
          </g>
          <g id="Grupo_63305" data-name="Grupo 63305" transform="translate(15.012 15.11)">
            <circle id="Elipse_1925" data-name="Elipse 1925" cx="16.921" cy="16.921" r="16.921" fill="#fd3"/>
          </g>
          <g id="Grupo_63306" data-name="Grupo 63306" transform="translate(11.571 11.571)">
            <circle id="Elipse_1926" data-name="Elipse 1926" cx="16.921" cy="16.921" r="16.921" transform="translate(0 5.562) rotate(-9.46)" fill="#ffb103"/>
          </g>
          <g id="Grupo_63307" data-name="Grupo 63307" transform="translate(10.983 10.983)">
            <circle id="Elipse_1927" data-name="Elipse 1927" cx="14.184" cy="14.184" r="14.184" transform="translate(0 20.059) rotate(-45)" fill="#ffb103"/>
          </g>
          <g id="Grupo_63308" data-name="Grupo 63308" transform="translate(14.121 14.122)">
            <path id="Trazado_140818" data-name="Trazado 140818" d="M507.377,2095.461a16.922,16.922,0,0,1,26.454-13.981,16.921,16.921,0,1,0-20.847,26.563A16.878,16.878,0,0,1,507.377,2095.461Z" transform="translate(-505.596 -2077.14)" fill="#eba303"/>
          </g>
          <g id="Grupo_63309" data-name="Grupo 63309" transform="translate(14.122 17.857)">
            <path id="Trazado_140819" data-name="Trazado 140819" d="M505.6,2108.331a16.845,16.845,0,0,0,3.386,10.155,23.9,23.9,0,0,0,2.935-23.341A16.885,16.885,0,0,0,505.6,2108.331Z" transform="translate(-505.597 -2095.145)" fill="#f4a00b"/>
          </g>
          <g id="Grupo_63312" data-name="Grupo 63312" transform="translate(16.026 17.407)" opacity="0.2">
            <g id="Grupo_63310" data-name="Grupo 63310">
              <path id="Trazado_140820" data-name="Trazado 140820" d="M516.9,2114.406l24.8-16.991a15.113,15.113,0,0,0-5.576-4.439L514.777,2107.6A14.969,14.969,0,0,0,516.9,2114.406Z" transform="translate(-514.777 -2092.975)" fill="#ffec7d"/>
            </g>
            <g id="Grupo_63311" data-name="Grupo 63311" transform="translate(3.494 6.41)">
              <path id="Trazado_140821" data-name="Trazado 140821" d="M556.345,2123.87l-24.726,16.94a15.147,15.147,0,0,0,3.148,2.828l23.077-15.81A14.949,14.949,0,0,0,556.345,2123.87Z" transform="translate(-531.619 -2123.87)" fill="#ffec7d"/>
            </g>
          </g>
          <g id="Grupo_63314" data-name="Grupo 63314" transform="translate(25.905 19.752)">
            <g id="Grupo_63313" data-name="Grupo 63313">
              <path id="Trazado_140822" data-name="Trazado 140822" d="M571.782,2115.96a4.742,4.742,0,0,1,1.718,1.17,3.551,3.551,0,0,1,.907,2.044,4.022,4.022,0,0,1-1.1,3.417,7.142,7.142,0,0,1-3.881,1.986l.022,2.786a.917.917,0,0,1-.32.71,1.4,1.4,0,0,1-.766.342,1,1,0,0,1-.716-.148.706.706,0,0,1-.3-.63l0-2.845a5.976,5.976,0,0,1-3.406-.921,3.3,3.3,0,0,1-1.518-2.363,2.129,2.129,0,0,1,.306-1.576,1.616,1.616,0,0,1,1.134-.689,1.3,1.3,0,0,1,1.086.257,2.558,2.558,0,0,1,.636,1.169,1.9,1.9,0,0,0,.63,1.013,2.164,2.164,0,0,0,1.156.461l.012-4.27a14.831,14.831,0,0,1-2.333-.762,4.722,4.722,0,0,1-1.7-1.258,4.027,4.027,0,0,1-.9-2.174,4.173,4.173,0,0,1,1.128-3.562,6.893,6.893,0,0,1,3.783-1.973l-.03-2.842a.8.8,0,0,1,.28-.691,1.341,1.341,0,0,1,.726-.322,1.108,1.108,0,0,1,.745.145.647.647,0,0,1,.32.6l-.015,2.933a5.321,5.321,0,0,1,2.986.862,3.124,3.124,0,0,1,1.346,2.243,1.872,1.872,0,0,1-.305,1.477,1.721,1.721,0,0,1-1.157.621,1.345,1.345,0,0,1-1.013-.238,1.4,1.4,0,0,1-.533-.926,1.622,1.622,0,0,0-1.32-1.393l-.024,4.613A19.06,19.06,0,0,1,571.782,2115.96Zm-5.619-1.955a4.172,4.172,0,0,0,1.227.679l-.028-3.923a2.51,2.51,0,0,0-1.381.863,1.862,1.862,0,0,0-.342,1.41A1.486,1.486,0,0,0,566.164,2114.005Zm4.662,7.159a1.516,1.516,0,0,0,.376-1.259,1.377,1.377,0,0,0-.533-.926,4.018,4.018,0,0,0-1.291-.628l.016,3.611A2.907,2.907,0,0,0,570.826,2121.165Z" transform="translate(-562.391 -2104.277)" fill="#eba303"/>
            </g>
          </g>
          <g id="Grupo_63317" data-name="Grupo 63317" transform="translate(25.014 19.437)">
            <g id="Grupo_63316" data-name="Grupo 63316">
              <g id="Grupo_63315" data-name="Grupo 63315">
                <path id="Trazado_140823" data-name="Trazado 140823" d="M567.49,2114.445a4.737,4.737,0,0,1,1.718,1.17,3.552,3.552,0,0,1,.907,2.044,4.022,4.022,0,0,1-1.1,3.416,7.143,7.143,0,0,1-3.881,1.986l.022,2.786a.918.918,0,0,1-.32.711,1.4,1.4,0,0,1-.766.342,1,1,0,0,1-.716-.148.706.706,0,0,1-.3-.63v-2.845a5.975,5.975,0,0,1-3.407-.921,3.3,3.3,0,0,1-1.518-2.363,2.13,2.13,0,0,1,.306-1.577,1.614,1.614,0,0,1,1.134-.689,1.3,1.3,0,0,1,1.086.257,2.56,2.56,0,0,1,.636,1.169,1.9,1.9,0,0,0,.63,1.013,2.16,2.16,0,0,0,1.156.461l.012-4.27a14.813,14.813,0,0,1-2.333-.762,4.718,4.718,0,0,1-1.7-1.257,4.026,4.026,0,0,1-.9-2.174,4.173,4.173,0,0,1,1.128-3.562,6.892,6.892,0,0,1,3.783-1.973l-.03-2.842a.8.8,0,0,1,.28-.691,1.344,1.344,0,0,1,.726-.323,1.11,1.11,0,0,1,.744.145.647.647,0,0,1,.32.6l-.015,2.933a5.321,5.321,0,0,1,2.986.862,3.123,3.123,0,0,1,1.346,2.243,1.873,1.873,0,0,1-.305,1.477,1.719,1.719,0,0,1-1.157.621,1.346,1.346,0,0,1-1.013-.238,1.4,1.4,0,0,1-.534-.926,1.621,1.621,0,0,0-1.32-1.393l-.024,4.613A19.031,19.031,0,0,1,567.49,2114.445Zm-5.619-1.956a4.163,4.163,0,0,0,1.227.679l-.028-3.923a2.509,2.509,0,0,0-1.381.863,1.861,1.861,0,0,0-.342,1.41A1.483,1.483,0,0,0,561.871,2112.489Zm4.662,7.159a1.515,1.515,0,0,0,.377-1.258,1.378,1.378,0,0,0-.534-.926,4.014,4.014,0,0,0-1.291-.628l.016,3.611A2.9,2.9,0,0,0,566.533,2119.648Z" transform="translate(-558.098 -2102.761)" fill="#fd3"/>
              </g>
            </g>
          </g>
        </g>
        <g id="Grupo_63319" data-name="Grupo 63319" transform="translate(35.458 11.661)">
          <path id="Trazado_140824" data-name="Trazado 140824" d="M615.18,2068.515a3.729,3.729,0,0,1-3.08-3.08.221.221,0,0,0-.424,0,3.728,3.728,0,0,1-3.079,3.08.221.221,0,0,0,0,.424,3.728,3.728,0,0,1,3.079,3.079.221.221,0,0,0,.424,0,3.728,3.728,0,0,1,3.08-3.079A.221.221,0,0,0,615.18,2068.515Z" transform="translate(-608.439 -2065.278)" fill="#fff"/>
        </g>
        <g id="Grupo_63320" data-name="Grupo 63320" transform="translate(16.071 39.366)">
          <path id="Trazado_140825" data-name="Trazado 140825" d="M521.735,2202.055a3.728,3.728,0,0,1-3.08-3.079.221.221,0,0,0-.424,0,3.728,3.728,0,0,1-3.079,3.079.221.221,0,0,0,0,.424,3.728,3.728,0,0,1,3.079,3.079.221.221,0,0,0,.424,0,3.729,3.729,0,0,1,3.08-3.079A.221.221,0,0,0,521.735,2202.055Z" transform="translate(-514.994 -2198.818)" fill="#fff"/>
        </g>
        <g id="Grupo_63321" data-name="Grupo 63321" transform="translate(40.88 18.777)">
          <path id="Trazado_140826" data-name="Trazado 140826" d="M638.018,2101.235a1.906,1.906,0,0,1-1.574-1.574.113.113,0,0,0-.216,0,1.905,1.905,0,0,1-1.574,1.574.113.113,0,0,0,0,.216,1.905,1.905,0,0,1,1.574,1.574.113.113,0,0,0,.216,0,1.906,1.906,0,0,1,1.574-1.574A.113.113,0,0,0,638.018,2101.235Z" transform="translate(-634.574 -2099.581)" fill="#fff"/>
        </g>
      </g>
      <g id="Grupo_63341" data-name="Grupo 63341" transform="translate(300.446 1781.76)">
        <g id="Grupo_63337" data-name="Grupo 63337" transform="translate(0 0)">
          <g id="Grupo_63323" data-name="Grupo 63323" transform="translate(2.156 2.156)">
            <circle id="Elipse_1928" data-name="Elipse 1928" cx="23.902" cy="23.902" r="23.902" fill="#ffce33"/>
          </g>
          <g id="Grupo_63324" data-name="Grupo 63324">
            <circle id="Elipse_1929" data-name="Elipse 1929" cx="18.426" cy="18.426" r="18.426" transform="translate(0 26.058) rotate(-45)" fill="#ffc001"/>
          </g>
          <g id="Grupo_63325" data-name="Grupo 63325" transform="translate(0.97 1.076)">
            <circle id="Elipse_1930" data-name="Elipse 1930" cx="18.426" cy="18.426" r="18.426" transform="translate(0 26.058) rotate(-45)" fill="#fd3"/>
          </g>
          <g id="Grupo_63326" data-name="Grupo 63326">
            <circle id="Elipse_1931" data-name="Elipse 1931" cx="18.426" cy="18.426" r="18.426" transform="translate(0 26.058) rotate(-45)" fill="#ffb103"/>
          </g>
          <g id="Grupo_63327" data-name="Grupo 63327" transform="translate(10.612 10.612)">
            <circle id="Elipse_1932" data-name="Elipse 1932" cx="15.445" cy="15.445" r="15.445" fill="#ffb103"/>
          </g>
          <g id="Grupo_63328" data-name="Grupo 63328" transform="translate(7.632 7.632)">
            <path id="Trazado_140827" data-name="Trazado 140827" d="M339.172,2061.337a18.427,18.427,0,0,1,28.806-15.224,18.426,18.426,0,1,0-22.7,28.924A18.378,18.378,0,0,1,339.172,2061.337Z" transform="translate(-337.232 -2041.387)" fill="#eba303"/>
          </g>
          <g id="Grupo_63331" data-name="Grupo 63331" transform="translate(9.706 11.21)" opacity="0.2">
            <g id="Grupo_63329" data-name="Grupo 63329">
              <path id="Trazado_140828" data-name="Trazado 140828" d="M349.539,2081.966l27.006-18.5a16.456,16.456,0,0,0-6.072-4.834l-23.244,15.925A16.3,16.3,0,0,0,349.539,2081.966Z" transform="translate(-347.229 -2058.63)" fill="#ffec7d"/>
            </g>
            <g id="Grupo_63330" data-name="Grupo 63330" transform="translate(3.805 6.98)">
              <path id="Trazado_140829" data-name="Trazado 140829" d="M392.493,2092.273l-26.924,18.446A16.486,16.486,0,0,0,369,2113.8l25.128-17.216A16.281,16.281,0,0,0,392.493,2092.273Z" transform="translate(-365.569 -2092.273)" fill="#ffec7d"/>
            </g>
          </g>
          <g id="Grupo_63333" data-name="Grupo 63333" transform="translate(20.463 13.763)">
            <g id="Grupo_63332" data-name="Grupo 63332">
              <path id="Trazado_140830" data-name="Trazado 140830" d="M409.3,2083.659a5.163,5.163,0,0,1,1.871,1.274,3.867,3.867,0,0,1,.988,2.226,4.381,4.381,0,0,1-1.2,3.72,7.78,7.78,0,0,1-4.226,2.163l.024,3.033a1,1,0,0,1-.348.774,1.526,1.526,0,0,1-.834.372,1.087,1.087,0,0,1-.78-.162.769.769,0,0,1-.322-.686l0-3.1a6.506,6.506,0,0,1-3.71-1,3.594,3.594,0,0,1-1.653-2.573,2.319,2.319,0,0,1,.334-1.717,1.759,1.759,0,0,1,1.234-.75,1.417,1.417,0,0,1,1.183.28,2.783,2.783,0,0,1,.693,1.273,2.074,2.074,0,0,0,.686,1.1,2.351,2.351,0,0,0,1.258.5l.013-4.649a16.158,16.158,0,0,1-2.541-.83,5.137,5.137,0,0,1-1.852-1.369,4.384,4.384,0,0,1-.975-2.367,4.543,4.543,0,0,1,1.229-3.878,7.506,7.506,0,0,1,4.119-2.149l-.032-3.094a.873.873,0,0,1,.3-.752,1.463,1.463,0,0,1,.791-.351,1.207,1.207,0,0,1,.811.157.7.7,0,0,1,.348.652l-.017,3.194a5.793,5.793,0,0,1,3.252.939,3.4,3.4,0,0,1,1.465,2.443,2.038,2.038,0,0,1-.332,1.608,1.873,1.873,0,0,1-1.26.676,1.466,1.466,0,0,1-1.1-.259,1.523,1.523,0,0,1-.581-1.009,1.766,1.766,0,0,0-1.437-1.517l-.026,5.023A20.749,20.749,0,0,1,409.3,2083.659Zm-6.118-2.129a4.53,4.53,0,0,0,1.336.74L404.49,2078a2.73,2.73,0,0,0-1.5.94,2.026,2.026,0,0,0-.373,1.536A1.618,1.618,0,0,0,403.185,2081.53Zm5.077,7.8a1.651,1.651,0,0,0,.41-1.37,1.5,1.5,0,0,0-.581-1.009,4.37,4.37,0,0,0-1.406-.684l.018,3.933A3.169,3.169,0,0,0,408.262,2089.326Z" transform="translate(-399.077 -2070.937)" fill="#eba303"/>
            </g>
          </g>
          <g id="Grupo_63336" data-name="Grupo 63336" transform="translate(19.493 13.421)">
            <g id="Grupo_63335" data-name="Grupo 63335">
              <g id="Grupo_63334" data-name="Grupo 63334">
                <path id="Trazado_140831" data-name="Trazado 140831" d="M404.629,2082.01a5.167,5.167,0,0,1,1.871,1.274,3.869,3.869,0,0,1,.988,2.226,4.381,4.381,0,0,1-1.2,3.72,7.778,7.778,0,0,1-4.226,2.163l.024,3.033a1,1,0,0,1-.348.774,1.527,1.527,0,0,1-.835.372,1.087,1.087,0,0,1-.78-.162.769.769,0,0,1-.322-.686l0-3.1a6.5,6.5,0,0,1-3.71-1,3.592,3.592,0,0,1-1.653-2.573,2.318,2.318,0,0,1,.334-1.717,1.758,1.758,0,0,1,1.234-.75,1.417,1.417,0,0,1,1.183.279,2.786,2.786,0,0,1,.693,1.273,2.073,2.073,0,0,0,.686,1.1,2.354,2.354,0,0,0,1.259.5l.013-4.649a16.132,16.132,0,0,1-2.541-.83,5.144,5.144,0,0,1-1.852-1.369,4.384,4.384,0,0,1-.975-2.367,4.544,4.544,0,0,1,1.229-3.879,7.509,7.509,0,0,1,4.119-2.149l-.032-3.094a.873.873,0,0,1,.3-.752,1.459,1.459,0,0,1,.791-.351,1.205,1.205,0,0,1,.811.157.7.7,0,0,1,.349.652l-.017,3.193a5.8,5.8,0,0,1,3.252.939,3.4,3.4,0,0,1,1.465,2.442,2.039,2.039,0,0,1-.332,1.608,1.874,1.874,0,0,1-1.26.676,1.464,1.464,0,0,1-1.1-.259,1.522,1.522,0,0,1-.581-1.008,1.765,1.765,0,0,0-1.437-1.517l-.026,5.023A20.747,20.747,0,0,1,404.629,2082.01Zm-6.118-2.129a4.528,4.528,0,0,0,1.336.74l-.031-4.272a2.731,2.731,0,0,0-1.5.94,2.026,2.026,0,0,0-.373,1.536A1.616,1.616,0,0,0,398.511,2079.88Zm5.077,7.8a1.651,1.651,0,0,0,.41-1.37,1.5,1.5,0,0,0-.581-1.009,4.371,4.371,0,0,0-1.406-.684l.018,3.933A3.166,3.166,0,0,0,403.587,2087.676Z" transform="translate(-394.402 -2069.287)" fill="#fd3"/>
              </g>
            </g>
          </g>
        </g>
        <g id="Grupo_63338" data-name="Grupo 63338" transform="translate(30.866 4.952)">
          <path id="Trazado_140832" data-name="Trazado 140832" d="M456.559,2032a4.06,4.06,0,0,1-3.353-3.353.241.241,0,0,0-.461,0,4.06,4.06,0,0,1-3.353,3.353.241.241,0,0,0,0,.461,4.06,4.06,0,0,1,3.353,3.353.241.241,0,0,0,.461,0,4.06,4.06,0,0,1,3.353-3.353A.241.241,0,0,0,456.559,2032Z" transform="translate(-449.219 -2028.47)" fill="#fff"/>
        </g>
        <g id="Grupo_63339" data-name="Grupo 63339" transform="translate(9.755 35.122)">
          <path id="Trazado_140833" data-name="Trazado 140833" d="M354.805,2177.41a4.06,4.06,0,0,1-3.353-3.353.241.241,0,0,0-.461,0,4.06,4.06,0,0,1-3.353,3.353.241.241,0,0,0,0,.461,4.06,4.06,0,0,1,3.353,3.353.241.241,0,0,0,.461,0,4.06,4.06,0,0,1,3.353-3.353A.241.241,0,0,0,354.805,2177.41Z" transform="translate(-347.466 -2173.885)" fill="#fff"/>
        </g>
        <g id="Grupo_63340" data-name="Grupo 63340" transform="translate(36.771 12.702)">
          <path id="Trazado_140834" data-name="Trazado 140834" d="M481.429,2067.625a2.075,2.075,0,0,1-1.714-1.714.123.123,0,0,0-.236,0,2.075,2.075,0,0,1-1.714,1.714.123.123,0,0,0,0,.236,2.075,2.075,0,0,1,1.714,1.714.123.123,0,0,0,.236,0,2.075,2.075,0,0,1,1.714-1.714A.123.123,0,0,0,481.429,2067.625Z" transform="translate(-477.678 -2065.823)" fill="#fff"/>
        </g>
      </g>
    </g>
  </g>
</svg>
