<svg xmlns="http://www.w3.org/2000/svg" width="112" height="153" viewBox="0 0 112 153">
  <g id="Grupo_63847" data-name="Grupo 63847" transform="translate(-533 -5943.5)">
    <line id="Línea_914" data-name="Línea 914" y2="153" transform="translate(643.5 5943.5)" fill="none" stroke="#707070" stroke-width="3" stroke-dasharray="5" opacity="0.5"/>
    <g id="Grupo_63346" data-name="Grupo 63346" transform="translate(496.457 5806.526)">
      <path id="Trazado_140860" data-name="Trazado 140860" d="M70.043,258.258c-13.684-16.741-20.2-32.507-18.833-45.589a28.247,28.247,0,0,1,10.482-19.536l2.318,2.879a24.613,24.613,0,0,0-9.125,17.041c-1.259,12.081,4.972,26.905,18.019,42.868Z" transform="translate(3.36 7.522)" fill="#469600"/>
      <g id="Grupo_63345" data-name="Grupo 63345" transform="translate(60.329 160.694)">
        <path id="Trazado_140861" data-name="Trazado 140861" d="M61.489,200.27l1.3-1.058,1.168,1.445,1.216-.987-1.169-1.442,1.3-1.053,1.166,1.443L77.2,189.933l-5.556-6.848L60.928,191.77l1.169,1.445-1.307,1.057-1.166-1.444-1.21.979,1.168,1.444-1.3,1.059-1.169-1.444-1.258,1.019,5.548,6.852,1.266-1.024Z" transform="translate(-55.852 -155.502)" fill="#414042"/>
        <path id="Trazado_140862" data-name="Trazado 140862" d="M101.686,192.359,78.118,163.286,64.413,174.4a6.913,6.913,0,0,1-1.275,9.679l-.541.443a7.394,7.394,0,0,0-1.359,10.367l6.036,7.449a7.4,7.4,0,0,0,10.432.813l.538-.44a6.914,6.914,0,0,1,9.736.759Z" transform="translate(-54.961 -160.093)" fill="#006482"/>
        <rect id="Rectángulo_19106" data-name="Rectángulo 19106" width="16.734" height="37.426" transform="matrix(0.777, -0.63, 0.63, 0.777, 10.158, 13.73)" fill="#fff" opacity="0.2" style="mix-blend-mode: screen;isolation: isolate"/>
        <path id="Trazado_140863" data-name="Trazado 140863" d="M81.455,174.51l-3-3.7,11.873-9.633a2.159,2.159,0,0,1,3.039.319l.285.351a2.159,2.159,0,0,1-.32,3.034Z" transform="translate(-50.611 -160.693)" fill="#e1e1e1"/>
        <rect id="Rectángulo_19107" data-name="Rectángulo 19107" width="16.734" height="18.714" transform="translate(21.941 28.264) rotate(-39.021)" fill="#fff" opacity="0.2" style="mix-blend-mode: screen;isolation: isolate"/>
        <path id="Trazado_140864" data-name="Trazado 140864" d="M89.64,184.6l-3-3.705,11.881-9.625a2.16,2.16,0,0,1,3.037.317l.283.35a2.159,2.159,0,0,1-.318,3.038Z" transform="translate(-48.714 -158.353)" fill="#e1e1e1"/>
        <rect id="Rectángulo_19108" data-name="Rectángulo 19108" width="3.061" height="42.997" transform="translate(19.027 2.957) rotate(-39.032)" fill="#006482"/>
        <path id="Trazado_140865" data-name="Trazado 140865" d="M92.377,161.843l-.283-.35a2.16,2.16,0,0,0-3.038-.318l-5.1,4.135,3.006,3.7,5.1-4.134A2.159,2.159,0,0,0,92.377,161.843Z" transform="translate(-49.336 -160.694)" fill="#b4b4b4"/>
        <path id="Trazado_140866" data-name="Trazado 140866" d="M100.561,171.939l-.282-.351a2.169,2.169,0,0,0-3.04-.317l-5.1,4.137,3,3.7,5.106-4.133A2.161,2.161,0,0,0,100.561,171.939Z" transform="translate(-47.439 -158.352)" fill="#b4b4b4"/>
      </g>
      <path id="Trazado_140867" data-name="Trazado 140867" d="M114.767,212c-5.389.77-17.544-8.029-28.641-6.929-21.749,2.156-27.923,32.115-19.813,46.238,1.951-10.822,6.114-18.572,18.274-17.443C106.144,235.865,114.767,212,114.767,212Z" transform="translate(6.109 10.267)" fill="#78b400"/>
      <path id="Trazado_140868" data-name="Trazado 140868" d="M65.565,251.944l-.379-.632a11.878,11.878,0,0,1-.506-1.112,10.879,10.879,0,0,1-.4-1.355,21.762,21.762,0,0,1-.092-7.955,42.106,42.106,0,0,1,2.975-10.348,37.906,37.906,0,0,1,6.488-10.4,23.9,23.9,0,0,1,4.738-4.108c.427-.256.9-.583,1.335-.8.434-.235.868-.471,1.344-.684a23.45,23.45,0,0,1,2.777-1.11,25.481,25.481,0,0,1,10.483-1.058,30.4,30.4,0,0,1,7.216,1.656,21.129,21.129,0,0,1,2.576,1.1,21.291,21.291,0,0,0-2.626-.946,30,30,0,0,0-7.208-1.227,24.632,24.632,0,0,0-10.045,1.588,22.251,22.251,0,0,0-2.55,1.191c-.41.211-.832.469-1.255.733-.442.254-.77.524-1.188.8a22.253,22.253,0,0,0-4.186,4.07,35.73,35.73,0,0,0-5.546,10.125,39.226,39.226,0,0,0-2.228,9.779,18.5,18.5,0,0,0,.415,6.7,7.151,7.151,0,0,0,.323.9l.234.479.409.6Z" transform="translate(6.337 11.953)" fill="#469600"/>
      <path id="Trazado_140869" data-name="Trazado 140869" d="M36.543,242.208c3.491-9.547,16.284-16.836,28.519.924-4.908-1.438-13.121,4.876-18.048,4.876S36.543,242.208,36.543,242.208Z" transform="translate(0 16.603)" fill="#78b400"/>
      <path id="Trazado_140870" data-name="Trazado 140870" d="M64.077,242.172s-.361-.154-.978-.448c-.61-.313-1.507-.694-2.559-1.176-1.066-.46-2.295-1.014-3.65-1.482-.666-.267-1.385-.442-2.094-.673a20.864,20.864,0,0,0-2.2-.494,15.565,15.565,0,0,0-2.224-.265,18.133,18.133,0,0,0-2.166,0,18.508,18.508,0,0,0-2.017.269,14.535,14.535,0,0,0-1.786.435c-.557.143-1.047.335-1.492.49a9.256,9.256,0,0,0-1.132.456c-.621.277-.989.423-.989.423s.309-.237.873-.632a9.518,9.518,0,0,1,1.052-.661,10.065,10.065,0,0,1,1.444-.739l.859-.368.956-.3a13.071,13.071,0,0,1,2.123-.453,14.308,14.308,0,0,1,2.325-.113,16.124,16.124,0,0,1,2.387.243,21.266,21.266,0,0,1,2.321.565,21.534,21.534,0,0,1,2.153.8,21.078,21.078,0,0,1,1.927.923c.611.3,1.147.648,1.657.944,1.005.617,1.8,1.2,2.353,1.6S64.077,242.172,64.077,242.172Z" transform="translate(0.985 17.562)" fill="#469600"/>
    </g>
  </g>
</svg>
