<svg xmlns="http://www.w3.org/2000/svg" width="108" height="153" viewBox="0 0 108 153">
  <g id="Grupo_63845" data-name="Grupo 63845" transform="translate(-537 -5554.5)">
    <line id="Línea_915" data-name="Línea 915" y2="153" transform="translate(643.5 5554.5)" fill="none" stroke="#707070" stroke-width="3" stroke-dasharray="5" opacity="0.5"/>
    <g id="Grupo_63344" data-name="Grupo 63344" transform="translate(85.206 5288.25)">
      <path id="Trazado_140835" data-name="Trazado 140835" d="M488.677,380.248a16.163,16.163,0,0,1-12.324-5.839c-3.576-4.146-5.468-10-5.468-16.918h2.753c0,13.744,7.8,20,15.039,20,7.172,0,14.892-6.261,14.892-20V336.808h2.753v20.683C506.322,373.126,497.175,380.248,488.677,380.248Z" transform="translate(7.189 19.604)" fill="#505050"/>
      <rect id="Rectángulo_19105" data-name="Rectángulo 19105" width="6.848" height="6.848" transform="translate(476.026 374.587)" fill="#469600"/>
      <path id="Trazado_140836" data-name="Trazado 140836" d="M507.952,343.515l-.619-16.436-.014-.482-6.442-6.938-.5-12.2-14.3-12.183-1.955,2.285,13.3,11.329.482,11.962-3,.083a2.028,2.028,0,0,0-1.969,2.037l.193,14.11a2.011,2.011,0,0,1-.895,1.693l-4.02,2.726a2.026,2.026,0,0,0-.881,1.679l.055,3.841v.537a2.079,2.079,0,0,0,.606,1.4,2.055,2.055,0,0,0,1.432.578l2.187-.028.125,10.434a2.013,2.013,0,0,0,2.037,1.982l5.341-.069,1.253-.014a2.033,2.033,0,0,0,2-2.037l-.138-10.434.358-.014a1.992,1.992,0,0,0,1.982-2.024l-.041-3.772ZM493.76,360.227l-.1-6.718a4.034,4.034,0,0,1,3.965-4.075h.385l.136,10.737Z" transform="translate(12.174 3.965)" fill="#006482"/>
      <path id="Trazado_140837" data-name="Trazado 140837" d="M492.191,291.25c-6.022,0-13.6,9.727-13.6,9.727s-2.73,12.4,3.026,16.22C481.179,306.909,492.191,291.25,492.191,291.25Z" transform="translate(9.847 2.448)" fill="#469600"/>
      <path id="Trazado_140838" data-name="Trazado 140838" d="M459.294,288.375c8.087,2.065,9.774,8.664,9.774,8.664,3.132,4.241-3.315,14.552-3.315,14.552S464.628,292.5,459.294,288.375Z" transform="translate(2.824 1.365)" fill="#469600"/>
      <path id="Trazado_140839" data-name="Trazado 140839" d="M480.546,348.461a4.129,4.129,0,0,1-4.13,4.13h-5.342a4.129,4.129,0,0,1-4.13-4.13v-1.377h13.6Z" transform="translate(5.705 23.473)" fill="#78b400"/>
      <path id="Trazado_140840" data-name="Trazado 140840" d="M475.62,372.506c24.778,0,9.808-87.756,0-87.756S450.842,372.506,475.62,372.506Z" transform="translate(3.877)" fill="#ffdc00"/>
      <g id="Grupo_63343" data-name="Grupo 63343" transform="translate(466.278 284.75)">
        <path id="Trazado_140841" data-name="Trazado 140841" d="M473.953,284.75a1.18,1.18,0,0,0-.838.491,7.88,7.88,0,0,0-1.21,2.54,62.667,62.667,0,0,0-1.96,9.954c-.589,4.165-1.024,9.062-1.419,14.307s-.686,10.854-.635,16.456c-.033,5.627-.08,11.242.054,16.505s.311,10.166.816,14.337c.5,4.154,1.18,7.633,2.348,9.781a4.48,4.48,0,0,0,1.875,2.028,2.64,2.64,0,0,0,.712.208l.257.028-.259-.007a2.759,2.759,0,0,1-.741-.158,4.472,4.472,0,0,1-2.077-1.963c-1.3-2.149-2.262-5.626-2.888-9.812a129.329,129.329,0,0,1-1.24-14.406c-.189-5.282-.223-10.919-.228-16.541.012-5.649.37-11.285.819-16.55s1.141-10.158,1.847-14.329a55.871,55.871,0,0,1,2.47-9.925,7.533,7.533,0,0,1,1.405-2.5A1.2,1.2,0,0,1,473.953,284.75Z" transform="translate(-460.733 -284.75)" fill="#f0c800"/>
        <path id="Trazado_140842" data-name="Trazado 140842" d="M471.919,284.75a1.2,1.2,0,0,1,.891.442,7.508,7.508,0,0,1,1.407,2.5,55.99,55.99,0,0,1,2.47,9.925c.7,4.171,1.386,9.063,1.847,14.329s.807,10.9.818,16.55c-.005,5.622-.039,11.259-.227,16.541a129.636,129.636,0,0,1-1.24,14.406c-.626,4.186-1.587,7.663-2.888,9.812a4.48,4.48,0,0,1-2.079,1.963,2.749,2.749,0,0,1-.741.158l-.257.007.256-.028a2.646,2.646,0,0,0,.713-.208,4.471,4.471,0,0,0,1.874-2.028c1.17-2.147,1.847-5.626,2.348-9.781.507-4.171.679-9.08.818-14.337s.087-10.878.054-16.505c.05-5.6-.245-11.208-.635-16.456s-.83-10.141-1.419-14.307a62.661,62.661,0,0,0-1.96-9.954,7.851,7.851,0,0,0-1.211-2.54A1.176,1.176,0,0,0,471.919,284.75Z" transform="translate(-458.7 -284.75)" fill="#f0c800"/>
        <path id="Trazado_140843" data-name="Trazado 140843" d="M472.107,284.75s.048,1.353.133,3.722c.055,2.369.19,5.754.252,9.814s.184,8.8.211,13.874.059,10.491.091,15.906c-.032,5.414-.061,10.829-.091,15.906s-.153,9.812-.209,13.874-.2,7.445-.252,9.812c-.087,2.369-.135,3.724-.135,3.724s-.048-1.355-.135-3.724c-.055-2.368-.191-5.753-.252-9.812s-.187-8.8-.211-13.874-.059-10.492-.089-15.906c.03-5.415.062-10.83.091-15.906s.154-9.814.211-13.874.2-7.445.252-9.814C472.059,286.1,472.107,284.75,472.107,284.75Z" transform="translate(-458.888 -284.75)" fill="#f0c800"/>
        <path id="Trazado_140844" data-name="Trazado 140844" d="M467.5,291.25s.183.08.511.194l.593.178a5.746,5.746,0,0,0,.763.2l.924.171a6.183,6.183,0,0,0,1.028.149l1.115.061,1.115.084c.786-.056,1.571-.117,2.308-.147a5.971,5.971,0,0,0,1.021-.15l.913-.168a5.759,5.759,0,0,0,.765-.2c.23-.069.429-.129.595-.178.322-.112.507-.193.507-.193a3.434,3.434,0,0,1-.449.312l-.556.293a3.177,3.177,0,0,1-.75.336l-.936.292a4.581,4.581,0,0,1-1.059.259c-.732.088-1.516.157-2.3.229l-1.224-.107-1.154-.125a4.434,4.434,0,0,1-1.053-.259c-.328-.1-.639-.2-.926-.289a3.368,3.368,0,0,1-.75-.335c-.215-.116-.4-.213-.556-.295A3.422,3.422,0,0,1,467.5,291.25Z" transform="translate(-460.363 -282.302)" fill="#f0c800"/>
        <path id="Trazado_140845" data-name="Trazado 140845" d="M466.347,294.828a13.034,13.034,0,0,0,2.343.775,11.471,11.471,0,0,0,1.16.245c.416.059.848.153,1.306.186s.924.113,1.4.122.968.032,1.456.05c.491-.018.983-.033,1.466-.05s.942-.088,1.4-.124.888-.128,1.3-.186a11.123,11.123,0,0,0,1.16-.245,13.16,13.16,0,0,0,2.343-.774,4.829,4.829,0,0,1-.567.394,9.557,9.557,0,0,1-1.644.794,11.378,11.378,0,0,1-1.166.381,9.606,9.606,0,0,1-1.337.31c-.469.059-.972.182-1.458.194l-1.5.077-1.51-.077c-.5-.015-.981-.136-1.451-.2a9.747,9.747,0,0,1-1.333-.308,11.36,11.36,0,0,1-1.165-.381,9.589,9.589,0,0,1-1.645-.793A4.535,4.535,0,0,1,466.347,294.828Z" transform="translate(-460.798 -280.955)" fill="#f0c800"/>
        <path id="Trazado_140846" data-name="Trazado 140846" d="M465.026,299.616s.288.107.8.255c.526.11,1.233.355,2.128.483.445.067.929.142,1.44.217a10.259,10.259,0,0,0,1.6.2c1.127.037,2.321.111,3.516.183l1.78-.1c.6-.029,1.185-.055,1.754-.081a10.489,10.489,0,0,0,1.6-.194c.508-.078.986-.151,1.427-.217.891-.128,1.606-.374,2.13-.485.509-.143.8-.252.8-.252l-.187.112a4.167,4.167,0,0,1-.548.3,16.256,16.256,0,0,1-2.075.808l-1.454.373a8.532,8.532,0,0,1-1.638.314l-1.748.154-1.838.138c-1.229-.091-2.459-.18-3.605-.295a8.447,8.447,0,0,1-1.633-.314l-1.444-.372a16.741,16.741,0,0,1-2.073-.808,4.126,4.126,0,0,1-.545-.295Z" transform="translate(-461.296 -279.152)" fill="#f0c800"/>
        <path id="Trazado_140847" data-name="Trazado 140847" d="M464.238,304.227s.321.121.892.292c.582.134,1.374.4,2.368.556.5.081,1.034.171,1.605.253a12.462,12.462,0,0,0,1.789.223c1.169.043,2.4.125,3.638.2l1.988-.091,1.964-.087a12.884,12.884,0,0,0,1.8-.208c.573-.083,1.116-.168,1.62-.242.933-.134,1.7-.388,2.264-.509.625-.168,1.017-.307,1.1-.335s.061-.011-.056.059a5.714,5.714,0,0,1-.637.351,17.623,17.623,0,0,1-2.309.911c-.5.131-1.045.278-1.62.423a9.984,9.984,0,0,1-1.825.352c-.635.059-1.29.129-1.955.182l-2.048.145c-1.275-.092-2.548-.182-3.743-.295a10.465,10.465,0,0,1-1.842-.335c-.581-.135-1.13-.281-1.64-.409a18.812,18.812,0,0,1-2.212-.838,6.21,6.21,0,0,1-.845-.42C464.34,304.293,464.238,304.227,464.238,304.227Z" transform="translate(-461.592 -277.416)" fill="#f0c800"/>
        <path id="Trazado_140848" data-name="Trazado 140848" d="M463.5,308.841s.35.138.973.329c.632.158,1.5.447,2.595.63.544.092,1.132.2,1.759.289a15.184,15.184,0,0,0,1.966.246c1.188.047,2.441.142,3.7.209.73-.025,1.459-.051,2.183-.074s1.458-.063,2.163-.091a15.616,15.616,0,0,0,2-.222c.637-.081,1.242-.182,1.8-.264.962-.135,1.758-.4,2.372-.526.746-.2,1.247-.363,1.414-.424s.2-.069.095,0a6.7,6.7,0,0,1-.728.409,18.713,18.713,0,0,1-2.53,1.01c-.548.15-1.141.317-1.773.469a11.3,11.3,0,0,1-2,.392c-.7.066-1.419.157-2.149.208l-2.245.15c-1.3-.089-2.6-.18-3.82-.29a12.685,12.685,0,0,1-2.044-.35c-.648-.135-1.26-.3-1.828-.442a21.3,21.3,0,0,1-2.326-.856,8.207,8.207,0,0,1-1.17-.553C463.639,308.937,463.5,308.841,463.5,308.841Z" transform="translate(-461.87 -275.678)" fill="#f0c800"/>
        <path id="Trazado_140849" data-name="Trazado 140849" d="M462.866,313.468s.377.151,1.045.361a27.994,27.994,0,0,0,2.79.7c.584.107,1.216.23,1.89.324a17.111,17.111,0,0,0,2.114.267c1.187.054,2.435.157,3.695.219l2.348-.052,2.333-.094a18.968,18.968,0,0,0,2.172-.23c.694-.083,1.355-.2,1.973-.284.976-.136,1.792-.4,2.438-.534.865-.223,1.473-.418,1.733-.513s.357-.129.26-.073a7.191,7.191,0,0,1-.812.464,19.2,19.2,0,0,1-2.717,1.1c-.588.164-1.222.351-1.9.512a12.956,12.956,0,0,1-2.156.427c-.75.072-1.532.182-2.317.231s-1.605.1-2.414.151c-1.3-.085-2.6-.172-3.824-.277a14.99,14.99,0,0,1-2.22-.359c-.709-.135-1.374-.317-2-.471a21.4,21.4,0,0,1-2.4-.858,10.2,10.2,0,0,1-1.5-.687C463.046,313.595,462.866,313.468,462.866,313.468Z" transform="translate(-462.109 -273.936)" fill="#f0c800"/>
        <path id="Trazado_140850" data-name="Trazado 140850" d="M462.446,318.119s.391.162,1.089.387a29.762,29.762,0,0,0,2.917.749c.611.114,1.269.252,1.98.347a19.034,19.034,0,0,0,2.214.282c1.154.056,2.362.169,3.582.226l2.463-.03,2.45-.1a21.937,21.937,0,0,0,2.292-.233c.737-.08,1.436-.205,2.1-.3.962-.131,1.776-.384,2.439-.527.964-.242,1.672-.463,2.026-.593s.508-.187.424-.139a8.527,8.527,0,0,1-.874.508,19.72,19.72,0,0,1-2.844,1.158c-.613.173-1.275.377-1.989.541a14.029,14.029,0,0,1-2.258.449c-.786.078-1.608.209-2.428.255-.836.048-1.681.1-2.527.15-1.261-.083-2.522-.162-3.718-.257a16.941,16.941,0,0,1-2.348-.361c-.753-.128-1.459-.328-2.124-.486a22.817,22.817,0,0,1-2.408-.834,11.844,11.844,0,0,1-1.816-.815A6.679,6.679,0,0,1,462.446,318.119Z" transform="translate(-462.267 -272.184)" fill="#f0c800"/>
        <path id="Trazado_140851" data-name="Trazado 140851" d="M462.475,322.824s.391.167,1.083.392a27.581,27.581,0,0,0,2.906.767c.608.118,1.265.263,1.971.355a21.716,21.716,0,0,0,2.208.288c1.067.056,2.178.169,3.3.216l2.459-.007,2.45-.089c.818-.01,1.561-.15,2.3-.223s1.448-.205,2.114-.3c.9-.118,1.681-.354,2.328-.5a22.207,22.207,0,0,0,2.218-.643,4.535,4.535,0,0,1,.568-.2,8.86,8.86,0,0,1-.9.526,19.225,19.225,0,0,1-2.83,1.166c-.613.175-1.271.385-1.981.547a15.044,15.044,0,0,1-2.251.45c-.787.08-1.608.223-2.427.261s-1.677.094-2.519.14c-1.165-.073-2.331-.14-3.444-.224a18.7,18.7,0,0,1-2.362-.344c-.76-.116-1.472-.319-2.147-.479a22.871,22.871,0,0,1-2.3-.772,13.56,13.56,0,0,1-2.039-.9A6.619,6.619,0,0,1,462.475,322.824Z" transform="translate(-462.256 -270.412)" fill="#f0c800"/>
        <path id="Trazado_140852" data-name="Trazado 140852" d="M462.316,327.509s.4.169,1.1.407a28.63,28.63,0,0,0,2.954.792c.619.127,1.283.281,2,.372s1.458.257,2.248.295c1,.059,2.044.176,3.1.216.829,0,1.664.01,2.5.017.84-.029,1.679-.059,2.5-.089.834-.011,1.6-.15,2.362-.219s1.488-.206,2.175-.3c.865-.113,1.62-.333,2.269-.476a23.926,23.926,0,0,0,2.442-.7c.505-.179.765-.292.719-.264a9.426,9.426,0,0,1-.94.555,19.1,19.1,0,0,1-2.876,1.195c-.619.183-1.287.4-2.013.563a15.737,15.737,0,0,1-2.289.46c-.8.084-1.637.24-2.471.274s-1.7.089-2.562.136c-1.1-.063-2.193-.127-3.25-.2a20.878,20.878,0,0,1-2.42-.335c-.782-.106-1.516-.321-2.209-.483a22.423,22.423,0,0,1-2.252-.728,15.019,15.019,0,0,1-2.288-1A7.859,7.859,0,0,1,462.316,327.509Z" transform="translate(-462.316 -268.648)" fill="#f0c800"/>
        <path id="Trazado_140853" data-name="Trazado 140853" d="M462.514,332.236s.387.169,1.074.4a26.144,26.144,0,0,0,2.889.794c.607.128,1.255.286,1.959.374s1.432.249,2.207.29c.906.059,1.846.176,2.8.2.812.014,1.633.026,2.452.041.826-.03,1.649-.058,2.456-.087.819-.014,1.575-.142,2.331-.207s1.473-.2,2.157-.3c.8-.1,1.5-.3,2.128-.438a24.128,24.128,0,0,0,2.565-.738c.564-.2.862-.333.834-.314a9.261,9.261,0,0,1-.946.564,18.458,18.458,0,0,1-2.814,1.178c-.6.182-1.258.4-1.969.556a16.667,16.667,0,0,1-2.241.454c-.785.083-1.609.246-2.427.274l-2.508.127c-.994-.052-1.986-.107-2.95-.167a22.523,22.523,0,0,1-2.39-.314,21.339,21.339,0,0,1-2.19-.468c-.8-.179-1.5-.463-2.12-.661a15.86,15.86,0,0,1-2.442-1.053A7.688,7.688,0,0,1,462.514,332.236Z" transform="translate(-462.241 -266.868)" fill="#f0c800"/>
        <path id="Trazado_140854" data-name="Trazado 140854" d="M463.1,337.012s.362.161,1,.385a24.93,24.93,0,0,0,2.709.76c.567.123,1.174.275,1.838.357s1.341.231,2.068.275c.785.055,1.591.168,2.42.189.758.017,1.529.036,2.3.054.776-.025,1.549-.052,2.31-.077s1.484-.131,2.2-.189,1.393-.189,2.042-.278a18.84,18.84,0,0,0,1.915-.387,23.947,23.947,0,0,0,2.56-.731c.586-.211.907-.352.895-.344a8.572,8.572,0,0,1-.907.544,16.765,16.765,0,0,1-2.635,1.114c-.569.173-1.178.384-1.845.526a16.046,16.046,0,0,1-2.1.428c-.735.081-1.511.245-2.278.264-.776.039-1.564.076-2.351.112-.86-.041-1.719-.085-2.559-.129-.776-.019-1.529-.194-2.259-.282a18.259,18.259,0,0,1-2.076-.435,19.35,19.35,0,0,1-1.913-.575,15.819,15.819,0,0,1-2.468-1.053A7.351,7.351,0,0,1,463.1,337.012Z" transform="translate(-462.021 -265.07)" fill="#f0c800"/>
        <path id="Trazado_140855" data-name="Trazado 140855" d="M462.859,341.686s.372.169,1.028.4a24.865,24.865,0,0,0,2.782.794,18.991,18.991,0,0,0,1.887.374c.677.095,1.381.234,2.125.285s1.5.175,2.282.189l2.366.076,2.377-.077c.8-.017,1.535-.132,2.277-.189s1.444-.191,2.12-.285a19.071,19.071,0,0,0,1.887-.374,25.126,25.126,0,0,0,2.779-.793c.661-.234,1.03-.4,1.03-.4a7.881,7.881,0,0,1-.95.577,16.987,16.987,0,0,1-2.706,1.151c-.582.18-1.209.4-1.893.547a17.521,17.521,0,0,1-2.161.442c-.757.085-1.557.263-2.344.278-.8.037-1.607.073-2.416.109-.814-.036-1.627-.073-2.428-.11-.8-.018-1.58-.193-2.337-.278a17.615,17.615,0,0,1-2.154-.442,19.475,19.475,0,0,1-1.893-.547,17.028,17.028,0,0,1-2.708-1.149A8.078,8.078,0,0,1,462.859,341.686Z" transform="translate(-462.112 -263.31)" fill="#f0c800"/>
      </g>
      <path id="Trazado_140856" data-name="Trazado 140856" d="M451.794,303.583c20.649,7.4,19.739,62.094,28.518,62.094-16.285,0-20.947-11.39-20.947-28.885C459.365,311.5,451.794,303.583,451.794,303.583Z" transform="translate(0 7.092)" fill="#78b400"/>
      <path id="Trazado_140857" data-name="Trazado 140857" d="M471.919,284.75v87.756C496.7,372.506,481.727,284.75,471.919,284.75Z" transform="translate(7.578)" fill="#ffdc00" opacity="0.2" style="mix-blend-mode: screen;isolation: isolate"/>
      <path id="Trazado_140858" data-name="Trazado 140858" d="M470.919,362.618c14.282,0,17.207-10.3,17.207-27.508s7.915-23.4,7.915-23.4a29.1,29.1,0,0,0-14.454,19.864C478.662,345.95,477.63,361.219,470.919,362.618Z" transform="translate(7.202 10.152)" fill="#78b400"/>
      <path id="Trazado_140859" data-name="Trazado 140859" d="M507.333,327.079l-19.947,19.947-.055-3.841a2.026,2.026,0,0,1,.881-1.679l4.02-2.726a2.011,2.011,0,0,0,.895-1.693l-.193-14.11a2.028,2.028,0,0,1,1.969-2.037l3-.083-.482-11.962-13.3-11.329,1.955-2.285,14.3,12.183.5,12.2,6.442,6.938Z" transform="translate(12.174 3.965)" fill="#fff" opacity="0.2" style="mix-blend-mode: screen;isolation: isolate"/>
    </g>
  </g>
</svg>
