<svg xmlns="http://www.w3.org/2000/svg" width="214" height="231" viewBox="0 0 214 231">
  <g id="Grupo_63821" data-name="Grupo 63821" transform="translate(-451 -4388.5)">
    <g id="Grupo_62175" data-name="Grupo 62175" transform="translate(-11 2518)">
      <g id="CBD-logo_0" transform="translate(462 1896)" fill="rgba(255,255,255,0.97)" stroke="#c2f3f0" stroke-width="3">
        <rect width="184" height="184" rx="21" stroke="none"/>
        <rect x="1.5" y="1.5" width="181" height="181" rx="19.5" fill="none"/>
      </g>
    </g>
    <line id="Línea_880" data-name="Línea 880" y2="231" transform="translate(663.5 4388.5)" fill="none" stroke="#707070" stroke-width="3" stroke-dasharray="5" opacity="0.5"/>
    <g id="yMPi34.tif" transform="translate(708.234 4159.275)">
      <g id="Grupo_62181" data-name="Grupo 62181" transform="translate(-198.234 284.443)">
        <path id="Trazado_138439" data-name="Trazado 138439" d="M-198.117,331.323c1.38-1.4.61-3.36,1.321-5.009,1.031-2.39,2.3-4.649,3.455-6.961.5-1.006,2.021-.862,2.912-1.582a4.064,4.064,0,0,1,5.23-.2c.527.349.83.2.993-.41,1.161-4.377,4.595-6.171,8.518-7.242a7.225,7.225,0,0,1,3.47.194,1.666,1.666,0,0,0,1.882-.617c1.463-1.391,3.488-2.871,5.219-2.61,1.535.234,2.853-.9,4.129-.193,1.449.8,3.11,1,4.512,1.8a3.492,3.492,0,0,1,1.661,2.089c.812,2.446,2.232,4.683,1.535,7.453-.2.776.58.891,1.056.682,1.747-.763,3.664-.625,5.457-1.148,2.4-.7,3.2-.214,3.7,2.4.607,3.171.9,6.409,1.589,9.558.786,3.583,1.141,7.235,1.884,10.825.248,1.2.759,2.709.355,3.864a8.716,8.716,0,0,1-2.6,3.833,77.678,77.678,0,0,0-7.49,7.372,26.754,26.754,0,0,0-5.718,7.773,48.725,48.725,0,0,0-2.287,6.535,31.171,31.171,0,0,0-1.083,9.652,11.916,11.916,0,0,1-.137,3.236c-.121.54-.191,1.2-.695,1.263-.391.05-.943-.376-1.263-.733-.353-.391-.522-.947-1.208-.8a15.956,15.956,0,0,1-.333-6.488c.634-3.376.8-6.8,1.877-10.158,1.011-3.173,2.836-5.808,4.2-8.727.378-.806,1.42-.664,1.733-1.452l1.884-3.054a10.479,10.479,0,0,0,3.072-3.263c1.119-1.807,2.987-2.86,4.514-4.256a4.09,4.09,0,0,0,1.4-4.47c-.714-2.165-.268-4.434-.869-6.558-.3-1.046-.365-2.125-.643-3.117a21.271,21.271,0,0,1-1.15-6.6c.038-.916-1.245-3.155-1.8-2.871-1.38.707-2.847.342-4.244.653-4.865,1.082-9.749,2.084-14.61,3.182-1.456.329-3.205.515-3.4,2.487a5.027,5.027,0,0,0,1.109,3.1c1.573,2.4,7.647,2.953,9.774,2.154a.758.758,0,0,0,.543-.493c.437-1.346,1.755-1.112,2.676-1.258a2.1,2.1,0,0,1,2.232,1.791,1.628,1.628,0,0,1-1.112,2c-1.652.475-2.878,1.865-4.265,2.451-3.1,1.31-4.942,3.927-7.445,5.811-2.867,2.156-3.936,5.928-7.04,7.879.058.092.178.193.167.275-.3,2.244-1.893,3.922-2.664,5.977-.371,1-1.53.419-2.372.317-1.164-.14-.463-.934-.4-1.332.353-2.061.612-4.139,2.021-5.885a17.376,17.376,0,0,0,1.659-2.266c.74-1.375,1.139-2.759,2.793-3.367.477-.176-.005-.916.344-1.436.4-.588.265-2.178.81-1.954,1.386.563,1.524-.38,1.926-1.067.93-1.595,2.77-2.268,4.147-4.057-1.636.529-2.552-1.391-3.787-.441-.934.718-1.343,2.194-2.111,2.876-1.418,1.256-3.13,3.085-5.221,2.406a1.415,1.415,0,0,0-1.99.77c-.644,1.654-2.048,2.655-3,4.017-1.829,2.62-5.664,1.665-6.891-.277-1.317-2.086-2.449-4.253-3.659-6.389A19.638,19.638,0,0,1-193.605,335a1.794,1.794,0,0,1,.921-2.154c.589-.238,1.2.578,1.442,1.337.139.437.437.822.583,1.258.821,2.455,2.908,4.208,3.61,6.771.383,1.4,3.162,1.791,4.121.77,2.512-2.671,3.23-8.225,1.276-11.171-1.62-2.442-2.111-5.289-2.723-7.992-.319-1.409-.806-2.575-1.805-3-1.661-.7-3.761.427-4.726,1.834a21.438,21.438,0,0,0-2.97,6.423c-.909,3.284-2.052,6.664.2,9.9a1.339,1.339,0,0,1,.14,1.116c-.511,3.454.452,6.783,1.015,10.116a79.2,79.2,0,0,0,2.361,8.682,50.487,50.487,0,0,0,2.206,5.7c.437,1.026,1.679,2.109,1.492,2.921-.563,2.446.47,5-.731,7.366a6.5,6.5,0,0,0-.376,3.693,3.49,3.49,0,0,0,1.31,2.647c1.681,1.082,4.055-.122,5.584,1.611a.586.586,0,0,0,.463-.173c.482-1.334,1.712-.545,2.124-.373a10.538,10.538,0,0,0,5.341.556c2.183-.27,4.472.727,6.551-.513.146-.086.462-.122.549-.034,1.33,1.357,2.646.4,3.965.005.646,2.493.077,3.583-2.572,3.824-3.88.353-7.723.9-11.714.437-2.608-.3-5.286-.4-7.9-.866a14.294,14.294,0,0,1-5.444-1.866,4.912,4.912,0,0,1-1.947-4.42c.054-3.427.822-6.8,1.1-10.219a5.024,5.024,0,0,0-.8-2.957,59.907,59.907,0,0,1-3.177-8.3c-1.159-3.3-1.548-6.751-2.277-10.132a55.788,55.788,0,0,1-.812-6.943,11.516,11.516,0,0,0-1.019-3.963Q-198.175,334.115-198.117,331.323Zm26.475-15.623c.371-1.033.187-1.211-.58-1.5a7.15,7.15,0,0,0-4.587-.1c-3.141.821-4.674,3.941-5.018,6.3-.418,2.863,1.3,5.32,1.947,7.973.679,2.782,1.863,5.471,2.347,8.352.085.508.891,1.4,1.071,1.076.65-1.143,2.419-.311,2.824-1.868a1.709,1.709,0,0,1,1.881-1.217c.1.022.263-.207.4-.32-1.2-.551.207-2.226-1.177-2.709-.493-.173-.6-.579-.686-1.085-.493-2.793-.05-5.261,2.277-7.136.436-.351.747-.587.371-1.281C-171.735,320.044-170.641,317.562-171.642,315.7Zm3.733,5.264c-.218.948,0,1.269.758,1.008,3.461-1.181,7.125-1.337,10.654-2.169-.205-.578,1.478-.1.632-1.344a5.968,5.968,0,0,1-.8-2.665,4.772,4.772,0,0,0-4.409-4.584c-1.076-.038-2.41-.016-3.155-.61-1.416-1.128-1.119.684-1.794.839-.817.189-1.888.081-2.433.979-.09.149.139.466.146.707C-168.229,315.739-167.182,318.315-167.909,320.964Z" transform="translate(198.234 -266.836)" fill="#222f3f"/>
        <path id="Trazado_138440" data-name="Trazado 138440" d="M-152.422,296.564c-3.315,4.852-6.6,9.724-9.987,14.527-.41.583-.815.867-1.958-.112-2.163-1.852-2.489-4.328-2.759-6.429-.209-1.622-.932-3.238-.756-5.066.167-1.724-.738-3.576-.9-5.458a12.371,12.371,0,0,0-.18-2.478c-.11-.371-.191-.882-.682-.833-.511.049-.524.527-.407.925a2.815,2.815,0,0,1-.934,2.838c-.436.464-1.02.808-.077,1.319a.458.458,0,0,1,.128.31c-2.016,1.406-1.4,3.905-2.313,5.8-.718,1.487-1.724,3.045-1.757,4.866-.027,1.512-1.64,2.52-1.319,4.226.094.5-.756.992-1.368.83-1.091-.29-2.313-.374-3.157-1.244-2.763-2.849-5.516-5.707-8.21-8.621-.331-.358-.448-.812-1.026-.556-.63.281-.256.655-.175,1.118a15.515,15.515,0,0,0,2.124,5.376c.907,1.526,1.006,3.581,1.271,5.43a19.427,19.427,0,0,0,1.5,4.857c.374.875-.563,1.431-.261,2.043.839,1.7-.365,1.67-1.371,1.661-1.713-.014-2.113-1.1-2.077-2.633.023-1.056.121-2.457-.47-3.112-1.409-1.566-1.494-3.47-1.832-5.266-.641-3.385-1.451-6.718-2.248-10.064-.394-1.657.211-3.542-1.087-5.068-.068-.079.416-.711.722-1,.373-.358.713-.07,1.031.189,2.9,2.376,5.545,5.032,8.234,7.642,1.8,1.747,3.765,3.322,5.831,5.126-.633-3.794,7.757-22.491,10.183-23.261,1.035,3.682,2.174,7.345,3.074,11.065.887,3.671,1.528,7.4,2.277,11.1.857.023,1.177-.536,1.49-1.123a31.944,31.944,0,0,1,8.286-10.073c.328-.261,1.693-1.933,1.555.439C-152.158,296.089-152.289,296.326-152.422,296.564Z" transform="translate(201.05 -284.443)" fill="#222f3f"/>
        <path id="Trazado_138441" data-name="Trazado 138441" d="M-169.138,291.495c.133-.238.265-.475.4-.713.979.2,1.9,2.323,1.911,3.482.014,2.75-1.474,5.2-1.146,8.108.211,1.859-.522,4.012-.9,6.016-.578,3.049-.632,6.209-1.76,9.137-.317.821-.356,2.322-1.708,2-1.294-.31-1.411-1.539-1.145-2.773a3.437,3.437,0,0,0-.32-3.117c1.654-.68.8-2.194,1.046-3.313.666-3.054.675-6.184,1.749-9.243a16.466,16.466,0,0,0,1.177-5.64,2.3,2.3,0,0,1,1.082-2.032C-167.934,292.943-168.092,291.964-169.138,291.495Z" transform="translate(217.766 -279.374)" fill="#222f3f"/>
        <path id="Trazado_138442" data-name="Trazado 138442" d="M-143.661,307.105c-2.219,4.02-5.761,6.472-8.783,9.429a99.188,99.188,0,0,0-7.6,7.615,2.763,2.763,0,0,1-2.68,1.19c-.963-.131-.768-.814-.909-1.254-.394-1.231.714-1.638,1.386-2.341,1.37-1.436,2.9-2.772,3.691-4.676.094-.227.261-.574.428-.6,2.915-.38,3.549-3.486,5.768-4.766C-149.573,310.1-147.585,307.037-143.661,307.105Z" transform="translate(225.836 -266.321)" fill="#222f3f"/>
        <path id="Trazado_138443" data-name="Trazado 138443" d="M-142.82,316.882c-.171,1.557-.8,2.691-1.924,3.054-3.112,1.01-5.619,3.284-8.9,3.981-1.382.293-2.624,1.326-3.95,1.98-1.841.907-2.557-.58-3.5-1.244-.526-.371.522-1.539,1.008-1.71,2.993-1.058,5.786-2.568,8.757-3.684,2.167-.813,4.161-2.136,6.344-3.016C-143.857,315.787-143.1,315.868-142.82,316.882Z" transform="translate(227.82 -259.225)" fill="#222f3f"/>
        <path id="Trazado_138444" data-name="Trazado 138444" d="M-145.97,332.244c-5.417-.293-9.792-2.9-14.39-4.906-1.076-.466-.72-1.29-.682-1.884.059-.981.934-1.364,1.845-1.362a3.687,3.687,0,0,1,1.517.365c3.16,1.488,6.371,2.892,9.414,4.593A6.38,6.38,0,0,1-145.97,332.244Z" transform="translate(227.907 -252.736)" fill="#222f3f"/>
      </g>
    </g>
  </g>
</svg>
