<svg xmlns="http://www.w3.org/2000/svg" width="214" height="281" viewBox="0 0 214 281">
  <g id="Grupo_63822" data-name="Grupo 63822" transform="translate(-451 -4706.5)">
    <g id="Grupo_62176" data-name="Grupo 62176" transform="translate(-11 2865)">
      <g id="CBD-logo_0" transform="translate(462 1896)" fill="rgba(255,255,255,0.97)" stroke="#c2f3f0" stroke-width="3">
        <rect width="184" height="184" rx="21" stroke="none"/>
        <rect x="1.5" y="1.5" width="181" height="181" rx="19.5" fill="none"/>
      </g>
    </g>
    <line id="Línea_881" data-name="Línea 881" y2="281" transform="translate(663.5 4706.5)" fill="none" stroke="#707070" stroke-width="3" stroke-dasharray="5" opacity="0.5"/>
    <g id="Grupo_62178" data-name="Grupo 62178" transform="translate(757.045 4182.53)">
      <path id="Trazado_138411" data-name="Trazado 138411" d="M-190.467,707.312c-1.757-.116-3.493.2-5.264.162-2.568-.062-5.142.335-7.717.405-5.667.159-11.353.018-17,.411-4.931.342-9.851.037-14.775.222-3.271.123-6.564-.555-9.855-.737a75.51,75.51,0,0,1-10.861-1.657c-3.035-.617-5.956-1.773-7.874-4.712-1.708-2.619-.927-5.209-.233-7.636A68.234,68.234,0,0,1-260,683.508c.62-1.313,1.944-2.814,2.115-3.872.423-2.606,2.964-3.919,3.2-6.464a4.448,4.448,0,0,1,.994-2.023c2.337-3.144,3.523-6.887,5.41-10.265,1.734-3.105,3.657-6.108,5.428-9.159,1.211-2.087,3.066-3.72,3.976-6.076a7.205,7.205,0,0,1,3.021-3.449c1.336-.686,1.523-2.7,3.347-2.566-.7-2.3,1.984-2.012,2.372-2.992.62-1.563,2.548-1.293,2.918-2.844.317-1.322,1.859-1.553,2.582-2.6.92-1.334,3.831-1.753,5.28-.943a26.08,26.08,0,0,1,8.935,8.455c1.7,2.522,3.156,5.273,4.964,7.6a84.378,84.378,0,0,1,5.326,8.57c1.3,2.159,2.665,4.355,3.868,6.609,1.47,2.751,3.246,5.352,4.555,8.173.967,2.09,2.478,3.851,3.348,5.935,1.093,2.614,2.823,4.885,3.868,7.451.418,1.024.67,2.617,1.121,3.466a31.653,31.653,0,0,1,2.368,6.533c.886,3.179,2.12,6.325,2.222,9.649.056,1.806-1.916,2.39-3.2,2.843a63.766,63.766,0,0,1-7.715,1.81A2.946,2.946,0,0,1-190.467,707.312Zm8.147-6.549c-.4-1.605-.774-3.22-1.207-4.814-.379-1.387-.908-2.737-1.227-4.136a43.2,43.2,0,0,0-3.114-8.283c-1.835-3.988-4.266-7.735-6.286-11.677-1.621-3.167-3.41-6.244-5.223-9.31-1.956-3.3-3.919-6.623-5.692-10.015-.6-1.138-1.727-1.757-2.171-3.077A5.8,5.8,0,0,0-208.5,646.9c-1.694-1.5-2.557-3.56-3.657-5.419-1.8-3.038-4.443-5.186-7-7.447a1.977,1.977,0,0,0-2.892-.1,58.545,58.545,0,0,0-7.18,6.646c-2.266,2.443-4.852,4.617-6.668,7.433-1.294,2-3.348,3.458-4.4,5.489-2.65,5.139-6.305,9.751-8.186,15.272-.5,1.463-2,2.113-2.324,3.544-.523,2.3-2.132,4.046-3.019,6.193-1.056,2.559-2.62,4.989-3.733,7.557-1.218,2.811-2.666,5.505-3.657,8.457-1.193,3.558-.162,7.3,4.252,7.992,1.838.287,3.637.76,5.5,1.017a33.7,33.7,0,0,1,3.422.654c3.276.823,6.6.553,9.923.657a77.677,77.677,0,0,0,9.608.03c1.63-.148,3.429.351,4.959.162,2.062-.255,4.074.183,6.087-.137a15.949,15.949,0,0,1,2.954-.331c2.7.137,5.377-.379,8.039-.183,4.915.363,9.767-.649,14.673-.481.633.021,1.551.381,1.951,0,1.736-1.632,4.062-.213,5.969-1.338C-183.011,702.055-181.956,702.24-182.32,700.764Z" transform="translate(4.727 0.281)" fill="#222f3f"/>
      <path id="Trazado_138412" data-name="Trazado 138412" d="M-260.494,635.758c.46-.541.206-.864-.039-1-1.648-.9-.962-2.5-1.294-3.817-.245-.975.871-.8.747-1.436.585.654,1.392-.516,1.933.211,1.086,1.457,2.287,2.948,2.582,4.737.594,3.6,2.555,6.718,3.373,10.237a2.324,2.324,0,0,1-.15,2.113c-.869-.682-2.2,1.32-2.98-.689-1.086-2.814-3.285-5.19-3.179-8.482C-259.478,636.9-260.769,636.563-260.494,635.758Z" transform="translate(7 0)" fill="#222f3f"/>
      <path id="Trazado_138413" data-name="Trazado 138413" d="M-239.874,681.929c.331,1.907-1.135,3.322-1.745,4.936a41.705,41.705,0,0,1-4.122,8.47c-.4.606-.592,1.507-1.63,1.382-.9-.111-.731-1.019-1.068-1.419-1.787-2.125-.349-3.578.767-5.146a5.027,5.027,0,0,0,.948-2.079,5.533,5.533,0,0,1,2.081-3.829,2.268,2.268,0,0,0,1.138-2.233c-.058-.345.423-.76.6-1.167.345-.784,1.265-1.482,1.718-1.248C-240.456,679.973-239.434,680.632-239.874,681.929Z" transform="translate(16.589 38.175)" fill="#222f3f"/>
      <path id="Trazado_138414" data-name="Trazado 138414" d="M-271.045,639.169c.724-.185,1.36-.079,1.639-.583,1.207-2.182,2.374-.241,3.3.212.513.25.575.421,1.278.291a3.54,3.54,0,0,1,2.984,1.471,6.3,6.3,0,0,0,2.871,2c2.122.6,2.5,2.6,3.8,3.8.731.677-.726,1.019-.379,1.8.109.243-.6.167-.966.072a21.428,21.428,0,0,1-5.787-2.969c-2.044-1.276-4.014-2.719-6.427-3.147C-270.477,641.809-269.806,639.918-271.045,639.169Z" transform="translate(0 6.174)" fill="#222f3f"/>
      <path id="Trazado_138415" data-name="Trazado 138415" d="M-223.359,647.68c-1.456.016-2.545-2.009-1.729-2.947,1.235-1.419,2.222-3.061,3.764-4.235.582-.442.652-1.642,1.1-1.961,1.225-.885,1.8-2.321,3.176-3.119a2.189,2.189,0,0,1,2.425.016c.691.414.733,1.149.157,2.122-1.637,2.767-3.835,5.063-5.761,7.585C-221.165,646.362-221.794,647.8-223.359,647.68Z" transform="translate(34.819 4.261)" fill="#222f3f"/>
      <path id="Trazado_138416" data-name="Trazado 138416" d="M-235.905,694.688c-1.091-1.072-2.011-1.99-1.956-3.507.035-.969-1.239-1.278-1.16-2.388.178-2.508-1.923-4.652-1.205-7.315A2.765,2.765,0,0,1-239,679.6c1.012-.6,1.332.4,1.842.867a4.984,4.984,0,0,1,1.789,3.708,39.438,39.438,0,0,0,1.639,7.479c.13.5-.009.439-.324.6A3.555,3.555,0,0,0-235.905,694.688Z" transform="translate(23.378 38.074)" fill="#222f3f"/>
      <path id="Trazado_138417" data-name="Trazado 138417" d="M-259.929,652.127c-3.191-.113-6.134-.333-9.074-.687a1.958,1.958,0,0,1-1.718-1.221c-.328-.835.673-1.131,1.184-1.5a3.818,3.818,0,0,1,3.028-.573c2.159.553,4.305-.074,6.4.226a16.452,16.452,0,0,0,4.353.088c.966-.116,1.338.8,1.817,1.443-.791.361-.266,1.792-1.621,1.812C-257.093,651.741-258.579,652.494-259.929,652.127Z" transform="translate(0.198 14.162)" fill="#222f3f"/>
      <path id="Trazado_138418" data-name="Trazado 138418" d="M-220.526,649.748c-1.6.506-1.223.185-1.11-1.251.162-2.085,1.227-2.284,2.645-3.036,2.453-1.3,5.038-2.351,7.414-3.761,1.308-.777,1.852.092,2.42.675.8.825-.019,1.815-.589,2.124-1.923,1.04-3.5,2.684-5.838,3.066-1.084.178-1.572,1.8-2.969,1.916C-219.219,649.534-219.819,650.141-220.526,649.748Z" transform="translate(37.572 9.087)" fill="#222f3f"/>
      <path id="Trazado_138419" data-name="Trazado 138419" d="M-243.474,641.386c3.482-.338,6.6-.255,9.724-.289,1.3-.014,2.259,1.234,3.7.684.227-.088.858,1.759.663,2.557a79.887,79.887,0,0,0-1.323,8.818c-.631,4.94-1.53,9.825-2.4,14.719-.206,1.165-.074,2.422-.848,3.437-.6.784-1.087,1.94-2.3.562-.715-.814-1.662-.187-2.474-.067-1.466.217-2.406.548-3.091-1.623-.975-3.086-1.177-6.2-1.7-9.31-.913-5.392-.782-10.922-2.231-16.245A2.674,2.674,0,0,1-243.474,641.386Zm.693,3.061c.439,2.03.543,3.736.878,5.35,1.147,5.528,1.29,11.171,2.155,16.726a2.268,2.268,0,0,0,2.235,2.257c1.052.1,1.29-.34,1.4-1.44a29.427,29.427,0,0,1,1.3-5.726c.328-1.04-.174-2.042.106-2.969.629-2.081.338-4.265.973-6.369.527-1.755.409-3.683.967-5.5.16-.525.552-2.028-.723-2.042-1.595-.018-3.354-.73-4.693-.178A5.253,5.253,0,0,1-242.782,644.447Z" transform="translate(19.218 8.863)" fill="#222f3f"/>
      <path id="Trazado_138420" data-name="Trazado 138420" d="M-232.579,665.137c1.5,1.5-.3,2.763-.957,3.8-1.13,1.789-3.338,2.353-5.424,2.566-2,.2-5.5-2.629-5.493-4.282.019-3.993,2.83-7.187,6.357-7.222C-235.85,659.972-232.581,662.882-232.579,665.137Zm-6.254,3.822c1.316-.018,2.973-1.426,2.989-2.539a4.241,4.241,0,0,0-3.583-3.761c-.571-.011-2.374,2.617-2.333,3.4C-241.72,666.826-239.556,668.969-238.833,668.96Z" transform="translate(20.271 23.268)" fill="#222f3f"/>
    </g>
  </g>
</svg>
