<svg xmlns="http://www.w3.org/2000/svg" width="36" height="36" viewBox="0 0 36 36">
  <g id="Grupo_57144" data-name="Grupo 57144" transform="translate(-435.366 -4838.691)">
    <circle id="Elipse_48" data-name="Elipse 48" cx="18" cy="18" r="18" transform="translate(435.366 4838.691)" fill="#f6b53e" opacity="0.8"/>
    <g id="Grupo_1213" data-name="Grupo 1213" transform="translate(-1536.094 -3281)">
      <path id="Trazado_1888" data-name="Trazado 1888" d="M1977.047,8133.366a13.139,13.139,0,0,0,0,8.649.78.78,0,0,0,.042.119,13.144,13.144,0,0,0,24.741,0,.767.767,0,0,0,.042-.119,13.139,13.139,0,0,0,0-8.649.82.82,0,0,0-.042-.118,13.144,13.144,0,0,0-24.741,0,.835.835,0,0,0-.042.118Zm12.412-6.936c.5,0,1.308.906,1.983,2.93a20.636,20.636,0,0,1,.776,3.321H1986.7a20.61,20.61,0,0,1,.776-3.321c.675-2.024,1.482-2.93,1.982-2.93Zm2.988,8.135c.09,1,.138,2.053.138,3.126s-.048,2.121-.138,3.125h-5.975c-.09-1-.138-2.052-.138-3.125s.048-2.121.138-3.126Zm8.273,3.126a11.19,11.19,0,0,1-.442,3.125h-5.942c.089-1.025.133-2.076.133-3.125s-.044-2.1-.133-3.126h5.942a11.2,11.2,0,0,1,.442,3.126Zm-11.261,11.26c-.5,0-1.307-.906-1.982-2.93a20.566,20.566,0,0,1-.776-3.321h5.517a20.592,20.592,0,0,1-.776,3.321c-.675,2.024-1.482,2.93-1.983,2.93Zm-4.876-8.135h-5.942a11.271,11.271,0,0,1,0-6.251h5.942c-.089,1.026-.133,2.077-.133,3.126s.044,2.1.133,3.125Zm-5.206,1.884h5.421a18.116,18.116,0,0,0,1.717,5.86,11.311,11.311,0,0,1-7.138-5.86Zm13.027,5.86a18.116,18.116,0,0,0,1.717-5.86h5.421a11.311,11.311,0,0,1-7.138,5.86Zm7.138-15.879h-5.421a18.121,18.121,0,0,0-1.717-5.859,11.312,11.312,0,0,1,7.138,5.859Zm-13.027-5.859a18.12,18.12,0,0,0-1.717,5.859h-5.421a11.312,11.312,0,0,1,7.138-5.859Zm0,0" fill="#fff"/>
    </g>
  </g>
</svg>
