<svg xmlns="http://www.w3.org/2000/svg" width="526.051" height="352.9" viewBox="0 0 526.051 352.9">
  <g id="Grupo_63816" data-name="Grupo 63816" transform="translate(-1109.708 -13.896)">
    <path id="Trazado_38710" data-name="Trazado 38710" d="M-232.27-3342.933q.672-2.4,1.454-4.787C-207.807-3418-116.5-3427.651-81.091-3489.313c40.347-70.255,138.593-99.614,213.851-57.607a145.744,145.744,0,0,1,65.222,76.5c11.448,31.219-4.951,77.377,21.911,101.167,19.35,17.136,42.054,27.024,56.655,49.171,10.574,16.038,15.925,35.569,11.767,53.913-10.075,44.458-55.171,42.473-93.9,37.54a1037.751,1037.751,0,0,0-189.634-6.607c-59.69,3.384-122.026,23.354-180.386,3.875C-226.8-3248.451-245.366-3296.213-232.27-3342.933Z" transform="translate(1346.032 3580.221)" fill="#fff" opacity="0.16"/>
    <g id="Grupo_62159" data-name="Grupo 62159" transform="translate(-490.842 -1078.737)">
      <g id="Grupo_62124" data-name="Grupo 62124" transform="translate(1813.377 1092.737)">
        <g id="Grupo_62118" data-name="Grupo 62118" transform="translate(30.166 172.572)">
          <path id="Trazado_138228" data-name="Trazado 138228" d="M2030.069,1466.07c0-.132.724-15.02-6.469-18.446l.508-.487c3.295,1.15,6.947,4.707,8.408,9.729,1.086,3.733.26,4.553.265,4.693Z" transform="translate(-2023.601 -1447.137)" fill="#6f7302"/>
        </g>
        <g id="Grupo_62123" data-name="Grupo 62123">
          <g id="Grupo_62120" data-name="Grupo 62120">
            <path id="Trazado_138229" data-name="Trazado 138229" d="M1961.65,1138.3a45.378,45.378,0,0,0,10.378,28.95,37.984,37.984,0,0,1,8.724,24.144v12.715a14.743,14.743,0,0,0,14.7,14.7h23.522a14.742,14.742,0,0,0,14.7-14.7v-12.738a38.139,38.139,0,0,1,8.768-24.177,45.576,45.576,0,0,0-43.406-73.722q-.882.159-1.752.354A45.575,45.575,0,0,0,1961.65,1138.3Z" transform="translate(-1961.65 -1092.737)" fill="#fcebd9"/>
            <path id="Trazado_138230" data-name="Trazado 138230" d="M1961.65,1139.446a45.377,45.377,0,0,0,10.378,28.95,37.984,37.984,0,0,1,8.724,24.144v12.716a14.743,14.743,0,0,0,14.7,14.7h3.616a14.742,14.742,0,0,0,14.7-14.7v-12.738a38.138,38.138,0,0,1,8.768-24.177,39.868,39.868,0,1,0-60.884-28.894Z" transform="translate(-1961.65 -1093.883)" fill="#fae2c9"/>
            <path id="Trazado_138231" data-name="Trazado 138231" d="M2030.379,1244.393a27.323,27.323,0,0,0,3.585,2.673c1.862,1.234,5.317,2.027,6.04,10.944-.037,7.923.015,27.853.016,28.076l.885,0c0-.218-.05-19.285-.018-27.528h.018c0-.013,0-.208-.016-.541,0-.879.009-1.613.016-2.152.062-5.132,5.677-8.687,5.738-8.719h0c3.685-2.256,7.754-6.537,7.754-11.93a13.934,13.934,0,0,0-27.869,0A13,13,0,0,0,2030.379,1244.393Zm.6-.218a13,13,0,0,1-3.563-8.961c0-7.2,5.854-12.524,13.049-12.524s13.05,5.329,13.05,12.524c0,5.13-3.558,9.529-7.085,11.615a16.6,16.6,0,0,0-3.048,2.281,10.5,10.5,0,0,0-3.142,5.053,10.705,10.705,0,0,0-5.765-7.367A15.68,15.68,0,0,1,2030.976,1244.175Z" transform="translate(-1994.936 -1158.687)" fill="#ee9849"/>
            <path id="Trazado_138232" data-name="Trazado 138232" d="M2052.366,1351.641l-.051.391-.646,4.954-.17,1.3v.011l-.173,1.314-.644,4.952-.17,1.305,0,.011-.17,1.316-.095.726c-.327,2.513-3.2,4.432-6.635,4.432h-7.741a8.819,8.819,0,0,1-2.329-.307h0a7.5,7.5,0,0,1-1.8-.75l-.042-.024a5.98,5.98,0,0,1-1.172-.894,4.241,4.241,0,0,1-1.283-2.411l-.275-1.919-.175-1.21v0l0-.027v0l-.17-1.184-.657-4.591-.172-1.206,0-.026-.17-1.19-.712-4.974Z" transform="translate(-1995.127 -1225.57)" fill="#afcdfb"/>
            <g id="Grupo_62119" data-name="Grupo 62119" transform="translate(32.485 126.071)">
              <path id="Trazado_138233" data-name="Trazado 138233" d="M2050.045,1351.641h-4.375c-7.06,2.041-14.063,4.059-17.307,4.974l.17,1.19,0,.026.172,1.206c2.628-.728,8.936-2.535,24.356-7l.051-.391Z" transform="translate(-2028.363 -1351.641)" fill="#9abcef"/>
              <path id="Trazado_138234" data-name="Trazado 138234" d="M2030.6,1370.445v0l0,.027v0l.175,1.21c3.039-.854,9.307-2.652,22.363-6.436l.173-1.314v-.011l.17-1.3c-8.25,2.389-18.236,5.273-23.053,6.642Z" transform="translate(-2029.421 -1357.273)" fill="#9abcef"/>
              <path id="Trazado_138235" data-name="Trazado 138235" d="M2035.508,1384.9l.042.024a7.491,7.491,0,0,0,1.8.75h0c3.581-1.027,8.9-2.561,16.8-4.85l.17-1.316,0-.011.17-1.305c-7.06,2.044-15.159,4.384-20.162,5.815A5.97,5.97,0,0,0,2035.508,1384.9Z" transform="translate(-2031.428 -1365.262)" fill="#9abcef"/>
            </g>
          </g>
          <path id="Trazado_138236" data-name="Trazado 138236" d="M1998.238,1424.574s-.822,7.659,3.19,10.916,11.339.881,11.339.881.821-7.658-3.19-10.916S1998.238,1424.574,1998.238,1424.574Z" transform="translate(-1980.386 -1262.56)" fill="#6f7302"/>
          <g id="Grupo_62121" data-name="Grupo 62121" transform="translate(34.795 146.758)">
            <path id="Trazado_138237" data-name="Trazado 138237" d="M2033.719,1466.8a86.818,86.818,0,0,1,3.906-37.824,70.772,70.772,0,0,0,2.818-34.851h4.692c.121.68.447,16.3-4.55,37.717-4.5,19.268,3.9,34.958,2.112,34.958Z" transform="translate(-2033.107 -1394.125)" fill="#6f7302"/>
          </g>
          <g id="Grupo_62122" data-name="Grupo 62122" transform="translate(44.506 153.26)">
            <path id="Trazado_138238" data-name="Trazado 138238" d="M2053.8,1421.888c.025-.1,2.264-12.947,8.288-14.409h0a11.206,11.206,0,0,0-8.028,5.87c-1.422,2.669-.925,3.426-.951,3.532Z" transform="translate(-2053.049 -1407.479)" fill="#6f7302"/>
          </g>
        </g>
      </g>
      <g id="Grupo_62130" data-name="Grupo 62130" transform="translate(1672.652 1355.829)">
        <rect id="Rectángulo_18712" data-name="Rectángulo 18712" width="71.059" height="8.869" rx="4.435" transform="translate(0 0)" fill="#f99746"/>
        <g id="Grupo_62129" data-name="Grupo 62129" transform="translate(2.462 8.869)">
          <g id="Grupo_62126" data-name="Grupo 62126">
            <g id="Grupo_62125" data-name="Grupo 62125">
              <path id="Trazado_138239" data-name="Trazado 138239" d="M1692.467,1651.246l-.844,5.19-12.22,75.125a.608.608,0,0,1-.639.461c-.627,0-1.116-.436-1.049-.938l9.692-76.932.367-2.906Z" transform="translate(-1677.708 -1651.246)" fill="#efcbab"/>
            </g>
            <path id="Trazado_138240" data-name="Trazado 138240" d="M1702.685,1651.246l-.844,5.19c-.58-2.068-4.216-2.284-4.216-2.284l.367-2.906Z" transform="translate(-1687.926 -1651.246)" fill="#cca07f"/>
          </g>
          <g id="Grupo_62128" data-name="Grupo 62128" transform="translate(51.377)">
            <g id="Grupo_62127" data-name="Grupo 62127">
              <path id="Trazado_138241" data-name="Trazado 138241" d="M1796.921,1732.021a.607.607,0,0,1-.639-.461l-12.22-75.125-.526-3.238-.318-1.952h4.694l.367,2.906.287,2.28,9.4,74.651C1798.037,1731.585,1797.548,1732.021,1796.921,1732.021Z" transform="translate(-1783.218 -1651.246)" fill="#efcbab"/>
            </g>
            <path id="Trazado_138242" data-name="Trazado 138242" d="M1788.566,1656.432c-1.194-2.473-5.028-3.232-5.028-3.232l0,0-.318-1.952h4.694l.367,2.906Z" transform="translate(-1783.218 -1651.246)" fill="#cca07f"/>
          </g>
        </g>
      </g>
      <g id="Grupo_62131" data-name="Grupo 62131" transform="translate(1684.99 1176.078)">
        <path id="Trazado_138243" data-name="Trazado 138243" d="M1758.33,1269.161c-.016-.427-.346-5.031-7.359-5.272,0,0,3.448.411,4.044,1.927,0,0-2.348-1.873-4.26-1.271s-3.035,3.953-3.046,5.054,1.051,4.654,2.264,4.956a3.7,3.7,0,0,0,1.47,0,16.557,16.557,0,0,0-.942,1.681c-2.8,5.744.087,11.357,2.456,10.737,1.519-.4,1.949,2.195,1.949,2.195l14.76-11.949S1764.245,1266,1758.33,1269.161Z" transform="translate(-1723.499 -1263.889)" fill="#2f2d2c"/>
        <path id="Trazado_138244" data-name="Trazado 138244" d="M1843.447,1409.61s2.925-.571,3.594,0,3.84,3.793,3.161,4.851-3.935-.876-4.612-1.058-2.57-.922-2.57-.922Z" transform="translate(-1772.399 -1338.522)" fill="#ffb27d"/>
        <path id="Trazado_138245" data-name="Trazado 138245" d="M1752.914,1519.578l-3.135,1.168s-13.617-18.886-15.294-35.5a25.244,25.244,0,0,1,.448-8.5s-.133-.76-.366-2.1c-.108-.628-.24-1.382-.391-2.248-.443-2.536-1.052-6.007-1.748-9.959-1.6-9.094-3.678-20.72-5.291-29.267l.844-.271,9.14-2.948,1.889-6,6.806-1.792s1.52,2.974,2.879,17.024c.251,1.843.479,3.875.65,6.079a120.337,120.337,0,0,1-.647,24.61q-.469,3.663-1.2,7.553a33.67,33.67,0,0,0-.261,7.459C1747.927,1498.467,1752.914,1519.578,1752.914,1519.578Z" transform="translate(-1712.944 -1345.09)" fill="#2b478b"/>
        <path id="Trazado_138246" data-name="Trazado 138246" d="M1749.345,1445.261l-14.779,29.382c-.108-.628-.24-1.382-.391-2.248-.443-2.536-1.052-6.007-1.748-9.959-1.6-9.094-3.678-20.72-5.291-29.267l.844-.271,9.14-2.948,1.889-6,6.806-1.792s1.52,2.974,2.879,17.024C1748.946,1441.025,1749.174,1443.057,1749.345,1445.261Z" transform="translate(-1712.944 -1345.09)" fill="#233862"/>
        <path id="Trazado_138247" data-name="Trazado 138247" d="M1728.451,1422.327l-.342-2.934c-5.732,1.523-21.047-4.254-21.047-4.254s-5.553,4.881-4.824,16.582c.356,5.71,1.006,29.977,1.685,37.158.245,2.6.46,4.455.548,5.195a.012.012,0,0,1,0,.007,1.027,1.027,0,0,1-.167.636,33.693,33.693,0,0,0-2.506,5.27c-6.663,17.756,1.026,39.623,1.026,39.623l2-.8s4.376-24.335,7.932-35.086a21.258,21.258,0,0,1,1.713-4.113c1.546-2.495,2.98-6.572,4.283-11.421a280.955,280.955,0,0,0,5.761-30.3C1724.692,1437.9,1728.451,1422.327,1728.451,1422.327Z" transform="translate(-1698.552 -1341.489)" fill="#2b478b"/>
        <path id="Trazado_138248" data-name="Trazado 138248" d="M1808.382,1375.667l-.427,2.871s-.189,0-.521-.024c-1.044-.071-3.583-.213-6.453-.522-4.318-.427-9.443-1.187-11.484-2.443-3.108-1.9-8.209-7.711-11.531-13.524a3.876,3.876,0,0,1-.238-.427c-1.731-3.084-2.942-6.145-3.036-8.589a12.271,12.271,0,0,1,.4-3.891,9.92,9.92,0,0,1,1.756-3.511,1.762,1.762,0,0,1,.332-.4,8.2,8.2,0,0,1,2.254-1.922c.569-.237,1.186.048,1.826.735v.024a10.874,10.874,0,0,1,1.637,2.42c.024.024.048.048.048.071.119.214.237.451.38.712a.589.589,0,0,1,.094.166q.391.819.783,1.708c2.918,6.359,6.026,15.991,8.612,18.862,1.115,1.234,6.216,3.654,10.273,5.457C1806.009,1374.718,1808.382,1375.667,1808.382,1375.667Z" transform="translate(-1737.334 -1304.58)" fill="#ffb27d"/>
        <path id="Trazado_138249" data-name="Trazado 138249" d="M1761.758,1334.341a17.858,17.858,0,0,1-6.6,1.546c-9.855.54-12.092-8.1-12.5-13.832a8.265,8.265,0,0,1,3.381-.427c.7.038,1.428.11,2.03.184,1.206-.63,3.371-3.688,4.623-8.8l.425.2,7.111,3.343s-.755,2.314-1.313,4.527c-.435,1.733-.748,3.407-.487,3.876.561.228.9.371.9.371a.022.022,0,0,0,0,.008A48.725,48.725,0,0,1,1761.758,1334.341Z" transform="translate(-1720.907 -1289.089)" fill="#ffb27d"/>
        <path id="Trazado_138250" data-name="Trazado 138250" d="M1771.246,1316.758s-.756,2.312-1.313,4.528c-4.156-1.159-5.419-5.528-5.8-7.87Z" transform="translate(-1731.926 -1289.299)" fill="#ed985f"/>
        <path id="Trazado_138251" data-name="Trazado 138251" d="M1771.5,1306.251s-9.944-2.3-8.416-8.472,1.275-10.623,7.688-9.414,7.059,3.867,7.05,6.051S1774.127,1306.691,1771.5,1306.251Z" transform="translate(-1731.306 -1276.345)" fill="#ffb27d"/>
        <path id="Trazado_138252" data-name="Trazado 138252" d="M1775.749,1289.728c-1.069-2.236-2.327-2.117-3.114-1.72a7.133,7.133,0,0,0-9.255-.791,12.144,12.144,0,0,1-5.587,6s1.528,1.564,5.955,1.53a7.287,7.287,0,0,0,3.95-1.487,23.813,23.813,0,0,1-5.185,3.867c5.542-1.061,9.259-7.477,9.639-8.159a8,8,0,0,1,1.443,3.415c.1,1.694-.48,4.983.49,5.108C1774.085,1297.492,1777.352,1293.082,1775.749,1289.728Z" transform="translate(-1728.673 -1275.16)" fill="#2f2d2c"/>
        <path id="Trazado_138253" data-name="Trazado 138253" d="M1750.824,1342.5c-.358-1.075-2.753-5.251-2.753-5.251h0a19.9,19.9,0,0,0-5.725-3.045.022.022,0,0,0,0,.008c.067.245,1.861,6.744,1.206,8.132-.665,1.41-13.261-3.144-13.95-4.183-.55-.834-.565-5.244-.55-6.962,0-.428.008-.689.008-.689s-4.7-.637-7.346.432a20.354,20.354,0,0,1,1.428,4.769c.036.238.067.476.09.714a9.518,9.518,0,0,1,.038,1.5,2.867,2.867,0,0,1-.909,1.789,13.9,13.9,0,0,1-1.894,1.572c-.489.353-1.014.724-1.556,1.126h0a127.019,127.019,0,0,1-.384,12.954,8.735,8.735,0,0,1-1.259,3.676,8.866,8.866,0,0,1-.932,1.254c-2.777,3.115-7.7,9.324-6.619,13.189.079,3.645,30.822,8.434,30.165,4.431,0,0,4.62-22.266,7.115-27.641.09-.2.172-.389.246-.586a12.572,12.572,0,0,0,.395-6.256A5.76,5.76,0,0,1,1750.824,1342.5Z" transform="translate(-1703.929 -1297.974)" fill="#0487d9"/>
        <path id="Trazado_138254" data-name="Trazado 138254" d="M1739.721,1380.333c-6.064-.064-11.2-6.36-14.336-11.392a8.735,8.735,0,0,0,1.259-3.676,127.017,127.017,0,0,0,.384-12.953h0c.542-.4,1.067-.773,1.556-1.126a13.9,13.9,0,0,0,1.894-1.572C1735.444,1358.006,1747.943,1380.42,1739.721,1380.333Z" transform="translate(-1712.045 -1307.871)" fill="#0487d9"/>
        <path id="Trazado_138255" data-name="Trazado 138255" d="M1763.663,1374.289l-.83,3.037s-1.044-.189-2.7-.5c-.5-.095-.783-.166-.783-.166-1.328-.261-2.918-.617-4.65-1h-.023c-2.966-.712-6.287-1.566-9.087-2.515a24.963,24.963,0,0,1-4.84-2.159,2.848,2.848,0,0,1-.332-.238c-2.776-2.016-6.074-7.948-8.636-14.306-.356-.878-.689-1.756-1.021-2.61a64.886,64.886,0,0,1-2.7-9.016,25.513,25.513,0,0,1-.641-4.295,10.455,10.455,0,0,1-.024-1.21c.048-6.88,3.464-7.829,3.464-7.829.071-.024.142-.048.237-.071.593-.095,1.21.308,1.851,1.091a21.544,21.544,0,0,1,2.538,4.484c1.353,3.06,2.776,7.023,4.1,10.962.735,2.159,1.447,4.318,2.159,6.311.4,1.21.806,2.349,1.186,3.393a32.617,32.617,0,0,0,1.993,4.626,11.48,11.48,0,0,0,2.918,2.633,106.187,106.187,0,0,0,9.4,5.837c1.328.76,2.586,1.448,3.63,2.017C1762.548,1373.7,1763.663,1374.289,1763.663,1374.289Z" transform="translate(-1713.067 -1298.528)" fill="#ffb27d"/>
        <path id="Trazado_138256" data-name="Trazado 138256" d="M1735.469,1337.015c-4.567-1.259-8.091,2.307-8.091,2.307.057-6.869,3.477-7.81,3.477-7.81C1732.231,1330.943,1733.825,1333.325,1735.469,1337.015Z" transform="translate(-1713.068 -1298.541)" fill="#0487d9"/>
        <path id="Trazado_138257" data-name="Trazado 138257" d="M1713.867,1623.655h-15.791a8.672,8.672,0,0,1,.447-4.233c.79-1.752,2.028-2.548,1.732-4.668a5.687,5.687,0,0,0,4.922,1.882,17.328,17.328,0,0,0,2.74,3.552C1708.948,1620.931,1713.549,1620.667,1713.867,1623.655Z" transform="translate(-1697.99 -1443.904)" fill="#2f2d2c"/>
        <path id="Trazado_138258" data-name="Trazado 138258" d="M1783.409,1624.4h-15.79a6.564,6.564,0,0,1,.447-4.233c.917-1.516.566-2.38-.113-3.635a6.133,6.133,0,0,0,2.659.5,5.567,5.567,0,0,0,2.349-.826,56.857,56.857,0,0,0,4.5,4.726C1778.49,1621.677,1783.092,1621.412,1783.409,1624.4Z" transform="translate(-1733.628 -1444.65)" fill="#2f2d2c"/>
        <path id="Trazado_138259" data-name="Trazado 138259" d="M1807.224,1438.492l2.184.9,10.479,4.295a8.182,8.182,0,0,0,10.645-4.455l1.026-2.5q1-.649,2.048-1.4c11.442-8.232,23.813-.221,23.813-.221a2.045,2.045,0,0,0,.163-.863,2.129,2.129,0,0,0-.5-1.3c-7.707-5.353-18.692-5.995-23.524-5.995-1.53,0-2.442.063-2.442.063l-.292-.119c1.958-6.62-.433-13.361-5.769-15.547a9.356,9.356,0,0,0-3.526-.7,11.649,11.649,0,0,0-6.608,2.174,15.64,15.64,0,0,0-4.9,5.569,2.538,2.538,0,0,0-3.016,1.478l-3.752,9.154A7.289,7.289,0,0,0,1807.224,1438.492Zm15.2-19.65-.591-.244a2.112,2.112,0,0,0-2.748,1.153l-4.27-1.752a2.505,2.505,0,0,0-3.1,1.048l-.63-.257a14.372,14.372,0,0,1,4.949-5.368,9.947,9.947,0,0,1,6.534-1.583,8.017,8.017,0,0,1,2.052.542c4.764,1.953,6.882,8.035,5.146,14.066l-.457-.187a2.5,2.5,0,0,0-1.472-2.921l-4.268-1.751A2.112,2.112,0,0,0,1822.422,1418.842Z" transform="translate(-1751.72 -1339.178)" fill="#c94c43"/>
        <path id="Trazado_138260" data-name="Trazado 138260" d="M1861.511,1457.472q1-.649,2.048-1.4c11.442-8.232,23.813-.221,23.813-.221a2.043,2.043,0,0,0,.163-.863,23.873,23.873,0,0,0-16.265-3.638C1861.847,1452.866,1860.142,1454.177,1861.511,1457.472Z" transform="translate(-1781.673 -1359.929)" fill="#b23b38"/>
        <path id="Trazado_138261" data-name="Trazado 138261" d="M1807.224,1438.492l2.184.9c-3.274-1.788.781-9.339,3.151-14.324s5.959-2.707,5.959-2.707a2.851,2.851,0,0,1,2.583-1.581,1.99,1.99,0,0,1,1.321-1.933l-.591-.244a2.112,2.112,0,0,0-2.748,1.153l-4.27-1.752a2.505,2.505,0,0,0-3.1,1.048l-.63-.257a14.372,14.372,0,0,1,4.949-5.368,9.947,9.947,0,0,1,6.534-1.583,4.643,4.643,0,0,1-1.043-1.206,11.649,11.649,0,0,0-6.608,2.174,15.64,15.64,0,0,0-4.9,5.569,2.538,2.538,0,0,0-3.016,1.478l-3.752,9.154A7.289,7.289,0,0,0,1807.224,1438.492Z" transform="translate(-1751.72 -1339.178)" fill="#b23b38"/>
        <path id="Trazado_138262" data-name="Trazado 138262" d="M1807.169,1420.768c-1.518.64-3.654,2.871-7.07,1.518a53.06,53.06,0,0,0-6.287-1.922c-.5-.095-.783-.166-.783-.166l1.353-3.938a.717.717,0,0,0,.166.047c.878.19,5.338,1.139,7.426.665,2.349-.546,6.287,2.277,6.287,2.277S1808.687,1420.151,1807.169,1420.768Z" transform="translate(-1746.75 -1342.064)" fill="#ffb27d"/>
        <path id="Trazado_138263" data-name="Trazado 138263" d="M1910.1,1468.314c0-1.425,2.58-5.823,2.58-5.823s2.58,4.4,2.58,5.823a2.58,2.58,0,0,1-5.16,0Z" transform="translate(-1806.814 -1365.784)" fill="#afcdfb"/>
      </g>
      <g id="Grupo_62137" data-name="Grupo 62137" transform="translate(1756.038 1160.099)">
        <path id="Trazado_138264" data-name="Trazado 138264" d="M1922.383,1338.115s-6.5-9.176-13.88-11.87c0,0,2.76,21.522-1.276,21.788s-1.346-24.2-1.346-24.2-19.227-10.676-27.034-10.379c0,0,11.054,21.505,7.076,20.77s-16.519-22.579-16.519-22.579-20.065-4.945-24.025,6.885.947,18.149,3.908,19.076,22.26,1.807,21.612,4.282-13.905,5.719-21.035,3.039c0,0,6.855,20.254,17.432,19.869s14.214-6.706,20.755-6.825,11.2,1.912,7.838,3.474-14.309-.261-19.83,3.9-9.94,6.668-.29,9.244,24.214-.333,31.125-4.939c.021-.013,5.659-.461,10.1,25.643,1.712,10.063.4,24.991.4,24.991l3.581-.546c1.987-29.26-8.573-53.586-8.573-53.586S1930.312,1352.9,1922.383,1338.115Z" transform="translate(-1843.897 -1271.884)" fill="#6f7302"/>
        <g id="Grupo_62133" data-name="Grupo 62133" transform="translate(121.553 45.757)">
          <path id="Trazado_138265" data-name="Trazado 138265" d="M2109.053,1384.135s-21.587-9.07-13.86-25.572c0,0,6.507-10.331,14.351-13.687,0,0-1.726,23.5,2.666,23.549s.037-26.323.037-26.323,20.219-12.706,28.7-12.844c0,0-10.72,23.968-6.451,22.936s16.583-25.454,16.583-25.454,21.465-6.542,26.455,6.052.041,19.734-3.115,20.914-24.03,3.268-23.182,5.914,15.414,5.383,22.987,2.058c0,0-6.241,22.364-17.732,22.568s-15.807-6.435-22.905-6.18-12.027,2.732-8.294,4.229,15.5-1.126,21.731,3.063,11.17,6.646.858,10.006-29.412,4.152-34.121-3.54Z" transform="translate(-2093.522 -1325.043)" fill="#6f7302"/>
          <g id="Grupo_62132" data-name="Grupo 62132" transform="translate(8.998 12.945)">
            <path id="Trazado_138266" data-name="Trazado 138266" d="M2181,1351.627s-54.759,24.84-58.928,46.147a43.454,43.454,0,0,1-3.176,20.373l.459,4.061s4.392-14.479,7.427-16.741C2126.78,1405.466,2112.035,1389.041,2181,1351.627Z" transform="translate(-2115.537 -1351.627)" fill="#a0a603"/>
            <path id="Trazado_138267" data-name="Trazado 138267" d="M2115.357,1485.265s-7.259,14.3-.427,29.943l2.186-.861s-4.21-17.6-.639-27.1S2115.357,1485.265,2115.357,1485.265Z" transform="translate(-2112 -1418.745)" fill="#a0a603"/>
          </g>
        </g>
        <g id="Grupo_62134" data-name="Grupo 62134" transform="translate(25.782)">
          <path id="Trazado_138268" data-name="Trazado 138268" d="M1925.837,1237.667c8.848,9.415,4.245,28.114,4.245,28.114s-18.949,3.432-27.8-5.983-4.245-28.114-4.245-28.114S1916.99,1228.252,1925.837,1237.667Z" transform="translate(-1896.844 -1231.075)" fill="#6f7302"/>
          <path id="Trazado_138269" data-name="Trazado 138269" d="M1927.1,1237.667c8.848,9.415,4.245,28.114,4.245,28.114l-32.041-34.1S1918.25,1228.252,1927.1,1237.667Z" transform="translate(-1898.105 -1231.075)" fill="#a0a603"/>
        </g>
        <g id="Grupo_62135" data-name="Grupo 62135" transform="translate(140.611 20.858)">
          <path id="Trazado_138270" data-name="Trazado 138270" d="M2148.638,1289.545c-4.617,5.349-15.05,3.911-15.05,3.911s-2.946-10.111,1.671-15.46,15.05-3.91,15.05-3.91S2153.256,1284.2,2148.638,1289.545Z" transform="translate(-2132.662 -1273.91)" fill="#6f7302"/>
          <path id="Trazado_138271" data-name="Trazado 138271" d="M2149.614,1289.73c-4.617,5.349-15.05,3.911-15.05,3.911l16.721-19.37S2154.231,1284.382,2149.614,1289.73Z" transform="translate(-2133.638 -1274.095)" fill="#a0a603"/>
        </g>
        <g id="Grupo_62136" data-name="Grupo 62136" transform="translate(10.896 123.926)">
          <path id="Trazado_138272" data-name="Trazado 138272" d="M2047.329,1492.8l-.006.085-2.09,32.141-7.769,119.332H1892.246l-8.55-117.7-2.356-32.438-.1-1.422Z" transform="translate(-1873.951 -1489.281)" fill="#d9ae79"/>
          <path id="Trazado_138273" data-name="Trazado 138273" d="M2047.431,1492.975l-2.09,32.141c-10.941-3.813-41.342-12.968-80.949-12.968-50.019,0-80.588,14.6-80.588,14.6l-2.356-32.438Z" transform="translate(-1874.059 -1489.371)" fill="#a37543"/>
          <path id="Trazado_138274" data-name="Trazado 138274" d="M2044.7,1506.082H1868.294l-2.02-20.509H2046.94Z" transform="translate(-1866.274 -1485.574)" fill="#d9ae79"/>
          <path id="Trazado_138275" data-name="Trazado 138275" d="M2046.2,1809.6h-150.57l-1.724-7.144h154.206Z" transform="translate(-1880.449 -1648.155)" fill="#a37543"/>
        </g>
      </g>
      <g id="Grupo_62139" data-name="Grupo 62139" transform="translate(1790.02 1267.04)">
        <path id="Trazado_138276" data-name="Trazado 138276" d="M2035.213,1790.74l0-1.233s-5.707-6.335-7.459-9.558l-4.818-8.9-6.308,1.56,8.006,11.346Z" transform="translate(-1966.499 -1615.055)" fill="#ffb27d"/>
        <path id="Trazado_138277" data-name="Trazado 138277" d="M1949.576,1463.106c1.1-4.533-.5-6.644-1.937-7.768a6.869,6.869,0,0,0-2.262-3.324,8.158,8.158,0,0,0-4.418-.845,2.066,2.066,0,0,1,.932-.443,6.847,6.847,0,0,0-2.444.638c-10.52-4.053-12.173,11.436-11.952,15.035s.19,7.836-5.283,10.671c-10.442,5.41,3.471,25.8,3.471,25.8-.265-2.908,13.152-18.254,20.153-22.85,1.7-2.509,2.31-6.941,2.355-7.29a19.123,19.123,0,0,1-1.433,6.6C1949.947,1476.386,1950.42,1469.334,1949.576,1463.106Z" transform="translate(-1916.065 -1450.693)" fill="#2f2d2c"/>
        <path id="Trazado_138278" data-name="Trazado 138278" d="M1963.525,1500.462c.035.016-3.38,1.789-5.949,1.086-2.416-.659-3.995-3.791-3.962-3.8,1.023-.2,1.319-1.609,1.3-7.652l.463.091,7.778,1.54s-.177,2.448-.182,4.753C1962.964,1498.419,1963.082,1500.256,1963.525,1500.462Z" transform="translate(-1934.171 -1470.91)" fill="#ffb27d"/>
        <path id="Trazado_138279" data-name="Trazado 138279" d="M1965.006,1491.825s-.177,2.448-.182,4.753c-4.352-.123-6.653-4.093-7.6-6.294Z" transform="translate(-1936.025 -1471.006)" fill="#ed975d"/>
        <path id="Trazado_138280" data-name="Trazado 138280" d="M1990.348,1688.942l-4.123.126-4.463.137a88.089,88.089,0,0,1-16.091-29.875q-.2-.641-.427-1.3c-3.164-9.227-9.725-20.809-13.181-31.292-.55-1.67-1.044-3.242-1.488-4.729q-.213-.715-.412-1.405a111.174,111.174,0,0,1-3.965-20.874l24.963.2A465.329,465.329,0,0,0,1990.348,1688.942Z" transform="translate(-1930.366 -1527.159)" fill="#2a4e96"/>
        <path id="Trazado_138281" data-name="Trazado 138281" d="M1956.394,1536.6c-.063,11.879,1.742,16.976,1.742,16.976a33.543,33.543,0,0,1-23.391,1.433c-.15-.047-10.518-2.413-10.518-2.413.212-.481,2.1-8.487,2.31-8.928,2.682-5.759,4.719-8.285,5.037-10.055a37.685,37.685,0,0,0,.309-9.953,79.844,79.844,0,0,0-3.08-15.629,81.174,81.174,0,0,0,10.305-3.523c.829,1.032,3.362,2.112,5.559,2.062,2.53-.056,3.351-1.139,3.22-2.322,2.7,1.5,4.848,2.918,4.848,2.918,2.292,3.981,6.94,7.847,7.276,13.954C1960.094,1522.619,1956.4,1536.265,1956.394,1536.6Z" transform="translate(-1919.093 -1478.169)" fill="#e7f1fd"/>
        <path id="Trazado_138282" data-name="Trazado 138282" d="M1965.207,1479.624s-10.3.17-10.3-6.245-1.341-10.713,5.234-11.093,7.854,2.067,8.378,4.207S1967.885,1479.414,1965.207,1479.624Z" transform="translate(-1934.772 -1456.621)" fill="#ffb27d"/>
        <path id="Trazado_138283" data-name="Trazado 138283" d="M1961.336,1460.632s-2.819,7.526-7.146,8.638-6.2-.047-6.2-.047a12.251,12.251,0,0,0,4.008-7.239S1959.21,1457.05,1961.336,1460.632Z" transform="translate(-1931.283 -1455.123)" fill="#2f2d2c"/>
        <path id="Trazado_138284" data-name="Trazado 138284" d="M1973.968,1461.967a9.091,9.091,0,0,1,2.619,3.314c.513,1.633.744,5,1.724,4.882,0,0,2.124-5.115-.263-8.009C1975.517,1459.085,1973.968,1461.967,1973.968,1461.967Z" transform="translate(-1944.613 -1455.848)" fill="#2f2d2c"/>
        <path id="Trazado_138285" data-name="Trazado 138285" d="M1951.865,1790.3c-.351-1.927-1.017-5.26-1.017-5.26l.155-11.827h-7.183l2.688,11.32a11.519,11.519,0,0,1-.552,4.727s-.69,3.143,2.406,3.2S1952.215,1792.23,1951.865,1790.3Z" transform="translate(-1929.145 -1616.167)" fill="#ffb27d"/>
        <path id="Trazado_138286" data-name="Trazado 138286" d="M1947.842,1806.086a21.708,21.708,0,0,0-.232,5.336s.913.061,3.162.061c2.132,0,3.272-.061,3.272-.061s.066-4.045-.5-5.417C1953.54,1806.006,1951.346,1809.3,1947.842,1806.086Z" transform="translate(-1931.032 -1632.99)" fill="#2f2d2c"/>
        <path id="Trazado_138287" data-name="Trazado 138287" d="M2003.19,1587.617l4.864,14.828-2.774,1.113-8.042-13.1Z" transform="translate(-1956.552 -1520.943)" fill="#ffb27d"/>
        <path id="Trazado_138288" data-name="Trazado 138288" d="M2044.957,1805.165s-6.214.117-7.265,0-1.864-2.021-3-4.3a3.834,3.834,0,0,0-2.585-1.728l.051,6.026h-1.577l-1.628-6.358c-1.011-1.857-.244-3.532.467-5,.827,0,3.216.555,7.432,5.305a5.527,5.527,0,0,0,4.434,2.069.386.386,0,0,0,.063.033C2044.852,1802.793,2044.957,1805.165,2044.957,1805.165Z" transform="translate(-1972.573 -1626.732)" fill="#2f2d2c"/>
        <path id="Trazado_138289" data-name="Trazado 138289" d="M1991.868,1546.285s-.752-1.935-1.753-4.379-3.514-26.244-5.174-29.792-7.395-5.824-7.395-5.824l-4.732-2.045s5.958,14.719,6.133,17.7.7,48.71.7,48.71-.351,2.1,3.679,1.227,5.082-1.752,5.082-1.752-1.464-10.711-2.341-21.228C1988.977,1548.721,1991.868,1546.285,1991.868,1546.285Z" transform="translate(-1944.022 -1478.169)" fill="#2a4e96"/>
        <path id="Trazado_138290" data-name="Trazado 138290" d="M1990.4,1708.123l-4.463.137a88.088,88.088,0,0,1-16.09-29.875q-.2-.641-.427-1.3c-3.164-9.227-9.725-20.809-13.182-31.292-.55-1.67-1.044-3.242-1.488-4.729q-.213-.715-.412-1.405l3.677-2.79s11.037,17.873,14.453,34.692C1975.439,1686.171,1987.326,1703.751,1990.4,1708.123Z" transform="translate(-1934.543 -1546.213)" fill="#1e3d70"/>
        <path id="Trazado_138291" data-name="Trazado 138291" d="M1942.534,1668.131c.063,8.179-.351,26.984-1.416,34.769h-3.953c-2.185,0-3.275-.031-3.275-.031-2.672-13.536-4.573-24.736-5.958-34.387-1.135-7.92-2.145-14.709-2.921-20.555-.781-5.882-1.324-10.807-1.519-14.969-.03-.656-.052-1.293-.065-1.912s-.016-1.227-.011-1.813l21.57-2.1C1944.716,1641.461,1942.5,1663.377,1942.534,1668.131Z" transform="translate(-1918.677 -1541.216)" fill="#2a4e96"/>
        <path id="Trazado_138292" data-name="Trazado 138292" d="M1937.247,1709.04c-2.185,0-3.275-.031-3.275-.031-2.672-13.536-4.573-24.736-5.958-34.387-1.135-7.92-2.145-14.709-2.921-20.555-.782-5.882-1.324-10.807-1.519-14.969l7.915,4.656s-5.052,1.782-3.124,15.274S1934.565,1707.13,1937.247,1709.04Z" transform="translate(-1918.759 -1547.356)" fill="#1e3d70"/>
        <path id="Trazado_138293" data-name="Trazado 138293" d="M1933.191,1570.094s-1.519,5.49-6.776,4.789-12.732-3.855-12.732-3.855,2.247-7.1,5.039-16.423c3.382-11.29,7.568-25.843,9.541-35.023a56.807,56.807,0,0,0,1.073-6.259l4.361-8.461s6.5,14.594,6.853,18.273S1933.191,1570.094,1933.191,1570.094Z" transform="translate(-1913.684 -1478.485)" fill="#2a4e96"/>
        <path id="Trazado_138294" data-name="Trazado 138294" d="M1933.285,1522.587l5.756-17.725a88.766,88.766,0,0,0-10.918,4s-2.281,2.94-3.693,9.724c0,0-1.49,16.287,1.838,22.244,0,0,10.514,2.1,27.334-3.679V1533.3s-18.4.964-22.165,1.4Z" transform="translate(-1919.027 -1478.485)" fill="#ffb27d"/>
        <path id="Trazado_138295" data-name="Trazado 138295" d="M1938.268,1546.355c-.235,5.957-1.636,17.522-14.135,23.712-.033.016-.066.033-.1.047,3.382-11.29,7.568-25.843,9.541-35.023C1935.869,1538.522,1938.4,1543.075,1938.268,1546.355Z" transform="translate(-1918.994 -1493.995)" fill="#1e3d70"/>
        <path id="Trazado_138296" data-name="Trazado 138296" d="M1938.452,1504.862s-10.669.752-13.239,6.475-3.388,24.764-.117,30.371c0,0,4.5,1.283,12.467-.207l.295-.056s2.541-6.22.263-7.447c0,0-6.717.351-6.016-1.869S1938.452,1504.862,1938.452,1504.862Z" transform="translate(-1918.438 -1478.485)" fill="#2a4e96"/>
        <g id="Grupo_62138" data-name="Grupo 62138" transform="translate(28.793 51.748)">
          <path id="Trazado_138297" data-name="Trazado 138297" d="M1990.788,1562.412l-.315,1.01-17.507-5.447a.672.672,0,0,1-.118-.619.5.5,0,0,1,.432-.391Z" transform="translate(-1972.815 -1556.966)" fill="#a9453d"/>
          <path id="Trazado_138298" data-name="Trazado 138298" d="M2010.659,1569.105l-1.266-.954-.314,1.01Z" transform="translate(-1991.42 -1562.705)" fill="#a9453d"/>
        </g>
        <path id="Trazado_138299" data-name="Trazado 138299" d="M2015.459,1617.237s4.441,2.454,5.026,4.324.183,5.785-.522,5.727-1.757-4.208-2.341-4.5-1.4-1.168-1.4-.525.584,1.811.292,1.987-1.227-1.636-1.87-1.987-.913-3.24-1.537-4.017S2015.459,1617.237,2015.459,1617.237Z" transform="translate(-1964.648 -1536.14)" fill="#ffb27d"/>
        <path id="Trazado_138300" data-name="Trazado 138300" d="M1982.977,1561.038s3.972-2.447,5.638-2.07,5.913,3.452,3.87,4.118-3.7-.033-4.482.451-1.365,1.368-5.026,1.356S1982.977,1561.038,1982.977,1561.038Z" transform="translate(-1948.401 -1506.224)" fill="#ffb27d"/>
      </g>
      <g id="Grupo_62140" data-name="Grupo 62140" transform="translate(1963.099 1257.544)">
        <path id="Trazado_138301" data-name="Trazado 138301" d="M2317.394,1585.138s-5.06,2.877-6.477,2.877-6.978-1.075-8.527-.283a18.124,18.124,0,0,0-4.882,5.02c-.946,1.872,3.811,1.045,6.06-.549a1.418,1.418,0,0,1,1.123-.232c1.165.254,3.585.694,4.752.261,1.571-.581,9.846-1.227,9.846-1.227Z" transform="translate(-2283.624 -1510.175)" fill="#ed975d"/>
        <path id="Trazado_138302" data-name="Trazado 138302" d="M2371.335,1499.172s-5.245,37.284-13.932,40.623c-4.286,1.647-23.228,5.383-28.831,5.758,0,0-1.373-1.114-1.038-5.646,0,0,19.846-7.286,22.665-11.248,4.2-5.9-2.6-24.091,2.66-29.629S2366.992,1491.111,2371.335,1499.172Z" transform="translate(-2299.066 -1463.399)" fill="#0487d9"/>
        <path id="Trazado_138303" data-name="Trazado 138303" d="M2358.311,1642.9a65.262,65.262,0,0,1-5.125,7.332c-5.638,7.117-11.775,12.986-12.844,18.533a25.1,25.1,0,0,1-.991,3.551c-.447,1.27-1,2.607-1.635,3.988a122.9,122.9,0,0,1-9.543,16.313c-6.175,9.15-11.982,16.786-11.982,16.786l-10.649-.454c.427-1.067,5.071-13.7,11.284-29.142,2.523-6.268,5.207-12.935,7.795-19.365q.517-1.288,1.031-2.561c.792-1.968,1.57-3.9,2.331-5.791,5.834-14.5,10.481-26.042,10.481-26.042s23.318-8.834,25.74-3.11C2366.2,1627.659,2364.573,1632.283,2358.311,1642.9Z" transform="translate(-2287.809 -1528.579)" fill="#233862"/>
        <path id="Trazado_138304" data-name="Trazado 138304" d="M2303.982,1795.586s-.544,8.787-2.245,8.914c-.226.017-8.623.017-8.623.017l-10.719-.062a3.477,3.477,0,0,1,3.2-3.128c3.133-.546,8.377-2.748,10.275-6.89C2297.872,1790.08,2303.982,1795.586,2303.982,1795.586Z" transform="translate(-2275.934 -1616.697)" fill="#2f2d2c"/>
        <path id="Trazado_138305" data-name="Trazado 138305" d="M2344.707,1748.775s7.407,4.76,6.688,6.305c-.1.206-4.188,7.537-4.188,7.537l-5.28,9.329a3.477,3.477,0,0,1-1.17-4.322c1.051-3,1.684-8.654-1.006-12.33C2336.92,1751.426,2344.707,1748.775,2344.707,1748.775Z" transform="translate(-2305.042 -1594.13)" fill="#2f2d2c"/>
        <path id="Trazado_138306" data-name="Trazado 138306" d="M2313.793,1693.182s6.275.6,8.1-7.042c0,0-6.736-24.176-10.874-29.3-.19-.235-.142-.494.109-.776,3.124-3.523,37.83-10.683,42.367-17.74a21.879,21.879,0,0,0,2.931-6.757,15.975,15.975,0,0,0,.215-7.281l-34.662-1s-28.779,17.991-32.127,30.222C2287.86,1660.788,2313.793,1693.182,2313.793,1693.182Z" transform="translate(-2279.704 -1529.747)" fill="#2a4e96"/>
        <path id="Trazado_138307" data-name="Trazado 138307" d="M2333.663,1657.731c3.124-3.522,37.83-10.682,42.367-17.74a21.876,21.876,0,0,0,2.931-6.757v-4.386l-14.732-2.317s-4.178,12.855-16.551,17.675C2336.089,1648.721,2333.894,1656.732,2333.663,1657.731Z" transform="translate(-2302.237 -1531.411)" fill="#1e3d70"/>
        <path id="Trazado_138308" data-name="Trazado 138308" d="M2375.425,1482.784c7.012,1.812,18.636-4.684,18.636-4.684a17.208,17.208,0,0,1-6.187-9.7c-.085-.336-.161-.68-.23-1.033l-3.6-.764-5.356,4.8a46.073,46.073,0,0,0,.792,5.417q.174.9.4,1.922A16.52,16.52,0,0,0,2375.425,1482.784Z" transform="translate(-2323.664 -1449.361)" fill="#ffb27d"/>
        <path id="Trazado_138309" data-name="Trazado 138309" d="M2390.949,1521.036c-1,13.508.317,34.053-.822,37.611-.984,3.07-12.188,1.245-16.66.22-1.655-.379-3.66-.921-5.731-1.562-5.776-1.789-12.07-4.343-12.745-6.239a1.515,1.515,0,0,1-.062-.218,1.733,1.733,0,0,1,.012-.8c.225-.966,1.092-2.012,1.194-4.4.114-2.672.1-5.818.2-9.2.005-.381.011-.8.052-1.176l0-.138c0-.073,0-.144,0-.217.1-3.772.294-7.739.523-11.673.146-2.471.313-4.917.507-7.262a97.075,97.075,0,0,1,2.081-14.835,23.824,23.824,0,0,1,7.653-11.814l2.131-1.828a12.328,12.328,0,0,0,7.735-1.03c2.753-1.307,3.7-2.244,4.183-1.891C2387.563,1489.491,2392.135,1504.522,2390.949,1521.036Z" transform="translate(-2313.127 -1458.547)" fill="#529ad9"/>
        <path id="Trazado_138310" data-name="Trazado 138310" d="M2367.779,1579.072c-5.776-1.789-12.07-4.343-12.745-6.239a1.513,1.513,0,0,1-.062-.218c0-.265.007-.53.012-.8.225-.966,1.092-2.012,1.194-4.4.114-2.672.1-5.818.2-9.2.005-.381.01-.8.052-1.176l0-.138c0-.073,0-.144,0-.217l23.351-29.749S2395.482,1559.621,2367.779,1579.072Z" transform="translate(-2313.17 -1480.313)" fill="#0487d9"/>
        <path id="Trazado_138311" data-name="Trazado 138311" d="M2382.127,1471.4a46.073,46.073,0,0,0,.792,5.417c5.23-1.69,7.6-6.415,8.394-8.418-.085-.336-.161-.68-.23-1.033l-3.6-.764Z" transform="translate(-2327.102 -1449.361)" fill="#ed975d"/>
        <path id="Trazado_138312" data-name="Trazado 138312" d="M2374.021,1461.292s11.406-1.9,10.111-8.988-.694-12.1-8.031-11.186-8.254,3.877-8.4,6.347S2371.021,1461.6,2374.021,1461.292Z" transform="translate(-2319.7 -1436.228)" fill="#ffb27d"/>
        <path id="Trazado_138313" data-name="Trazado 138313" d="M2306.562,1577.511l-28.473.608-7.931-24.41a.529.529,0,0,0-.667-.339h0a.529.529,0,0,0-.339.666l8.243,25.37a.657.657,0,0,0,.639.454l28.565-.61Z" transform="translate(-2269.126 -1493.862)" fill="#4a75cb"/>
        <path id="Trazado_138314" data-name="Trazado 138314" d="M2323.563,1603.827s-9.335,2.461-12.836,2.2-6.413-1.923-6.853-2.792-1.366-2.411,1.017-2.126,5.638.791,5.739.333-1.943-.414-1.943-.414-.618-.9.16-.931,3.047-.648,3.89-.227,1.621,1.978,2.237,1.912,7.812-3.241,7.812-3.241Z" transform="translate(-2286.671 -1517.053)" fill="#ffb27d"/>
        <path id="Trazado_138315" data-name="Trazado 138315" d="M2371.649,1503.224s-1.1,37.634-9.368,41.911c-4.079,2.11-22.493,7.911-28.021,8.9,0,0-1.487-.955-1.655-5.5,0,0,18.922-9.43,21.287-13.678,3.52-6.324-5.245-23.657-.622-29.742S2366.443,1495.691,2371.649,1503.224Z" transform="translate(-2301.695 -1465.92)" fill="#529ad9"/>
        <path id="Trazado_138316" data-name="Trazado 138316" d="M2379.4,1450.232a5.4,5.4,0,0,0-1.369-3.823s.522-2.437-.442-2.839-1.165,1.647-1.607,1.326a9.845,9.845,0,0,1-3.254-4.1c-.844-2.25-8.564.475-9.465.88s-3.792-1.081-4.354-2.286a16.931,16.931,0,0,0,2.33-2.25c.723-.964,5.785-7.472,12.855-5.624s8.034,5.222,7.632,8.115S2382.3,1449.262,2379.4,1450.232Z" transform="translate(-2315.191 -1431.19)" fill="#2f2d2c"/>
      </g>
      <g id="Grupo_62146" data-name="Grupo 62146" transform="translate(2004.955 1368.263)">
        <rect id="Rectángulo_18713" data-name="Rectángulo 18713" width="57.603" height="15.067" rx="7.533" transform="translate(3.997 0)" fill="#f99746"/>
        <g id="Grupo_62145" data-name="Grupo 62145" transform="translate(0 15.067)">
          <g id="Grupo_62142" data-name="Grupo 62142">
            <g id="Grupo_62141" data-name="Grupo 62141">
              <path id="Trazado_138317" data-name="Trazado 138317" d="M2369.842,1689.509,2369,1693.5l-12.22,57.708c-.034.2-.31.354-.639.354-.627,0-1.115-.335-1.049-.72l9.692-59.1.367-2.232Z" transform="translate(-2355.083 -1689.509)" fill="#efcbab"/>
            </g>
            <path id="Trazado_138318" data-name="Trazado 138318" d="M2380.06,1689.509l-.844,3.986c-.58-1.588-4.216-1.754-4.216-1.754l.367-2.232Z" transform="translate(-2365.301 -1689.509)" fill="#cca07f"/>
          </g>
          <g id="Grupo_62144" data-name="Grupo 62144" transform="translate(51.377)">
            <g id="Grupo_62143" data-name="Grupo 62143">
              <path id="Trazado_138319" data-name="Trazado 138319" d="M2474.3,1751.557c-.329,0-.6-.152-.639-.354l-12.22-57.708-.527-2.487-.318-1.5h4.694l.367,2.232.287,1.751,9.4,57.344C2475.412,1751.222,2474.923,1751.557,2474.3,1751.557Z" transform="translate(-2460.593 -1689.509)" fill="#efcbab"/>
            </g>
            <path id="Trazado_138320" data-name="Trazado 138320" d="M2465.94,1693.493c-1.194-1.9-5.028-2.483-5.028-2.483h0l-.318-1.5h4.694l.367,2.232Z" transform="translate(-2460.593 -1689.509)" fill="#cca07f"/>
          </g>
        </g>
      </g>
      <g id="Grupo_62158" data-name="Grupo 62158" transform="translate(1871.754 1324.74)">
        <g id="Grupo_62148" data-name="Grupo 62148" transform="translate(59.806 18.212)">
          <g id="Grupo_62147" data-name="Grupo 62147">
            <path id="Trazado_138321" data-name="Trazado 138321" d="M2230.678,1708.985a.977.977,0,0,1-1.185-.712l-11.681-47.062-2.259-9.106-4.438-17.879L2204.357,1607l6.354-.415,3.735,18.454,5.369,26.527,2.7,13.367,8.731,43.143A.772.772,0,0,1,2230.678,1708.985Z" transform="translate(-2204.357 -1606.589)" fill="#f9ddbf"/>
          </g>
        </g>
        <path id="Trazado_138322" data-name="Trazado 138322" d="M2214.445,1625.043c-.056.17-.088.26-.088.26s-3.12,4.534-3.243,8.923L2204.357,1607l6.354-.415Z" transform="translate(-2144.551 -1588.377)" fill="#eac8a9"/>
        <g id="Grupo_62150" data-name="Grupo 62150" transform="translate(37.434 18.212)">
          <g id="Grupo_62149" data-name="Grupo 62149">
            <path id="Trazado_138323" data-name="Trazado 138323" d="M2185.322,1607l-11.2,45.1-2.26,9.106-11.681,47.062a.977.977,0,0,1-1.185.712.772.772,0,0,1-.572-.905l8.731-43.143,2.7-13.367,9.1-44.981Z" transform="translate(-2158.413 -1606.589)" fill="#f9ddbf"/>
          </g>
          <path id="Trazado_138324" data-name="Trazado 138324" d="M2183.343,1699.053l-2.26,9.106c-2.668.172-4.706,3.726-4.706,3.726l2.705-13.367,4.24-.424S2183.337,1698.46,2183.343,1699.053Z" transform="translate(-2167.63 -1653.536)" fill="#eac8a9"/>
        </g>
        <g id="Grupo_62152" data-name="Grupo 62152" transform="translate(0 18.212)">
          <g id="Grupo_62151" data-name="Grupo 62151">
            <path id="Trazado_138325" data-name="Trazado 138325" d="M2108.445,1607l-11.2,45.1-2.259,9.106-11.681,47.062a.977.977,0,0,1-1.185.712.772.772,0,0,1-.572-.905l8.731-43.143,2.7-13.367,9.1-44.981Z" transform="translate(-2081.536 -1606.589)" fill="#f9ddbf"/>
          </g>
          <path id="Trazado_138326" data-name="Trazado 138326" d="M2106.466,1699.053l-2.26,9.106c-2.668.172-4.707,3.726-4.707,3.726l2.705-13.367,4.24-.424S2106.46,1698.46,2106.466,1699.053Z" transform="translate(-2090.753 -1653.536)" fill="#eac8a9"/>
        </g>
        <path id="Trazado_138327" data-name="Trazado 138327" d="M2138.731,1639.7h-53.895l19.09-70.507h52.564Z" transform="translate(-2083.23 -1569.188)" fill="#f9ddbf"/>
        <path id="Trazado_138328" data-name="Trazado 138328" d="M2135.431,1639.7h-53.894l19.09-70.507h52.564Z" transform="translate(-2081.536 -1569.188)" fill="#fcecdb"/>
        <g id="Grupo_62154" data-name="Grupo 62154" transform="translate(21.291 8.882)">
          <path id="Trazado_138329" data-name="Trazado 138329" d="M2158.965,1603.9a23.411,23.411,0,0,1-6.953,10.467,19.609,19.609,0,0,0-5.823,8.73l-1.405,4.6a7.831,7.831,0,0,1-6.94,5.315h-8.505c-2.924,0-4.583-2.392-3.689-5.315l1.408-4.605a11.579,11.579,0,0,0-.5-8.742,13.837,13.837,0,0,1-.511-10.547c2.831-9.086,12.394-16.375,21.479-16.375a15.217,15.217,0,0,1,2.876.266q.3.058.594.128C2157.869,1589.459,2161.369,1596.037,2158.965,1603.9Z" transform="translate(-2125.26 -1587.428)" fill="#fcebd9"/>
          <path id="Trazado_138330" data-name="Trazado 138330" d="M2166.548,1604.318a23.412,23.412,0,0,1-6.953,10.467,19.607,19.607,0,0,0-5.823,8.73l-1.405,4.6a7.831,7.831,0,0,1-6.94,5.315h-1.308c-2.923,0-4.583-2.392-3.69-5.315l1.408-4.605a11.578,11.578,0,0,0-.5-8.742,13.833,13.833,0,0,1-.512-10.547,24.644,24.644,0,0,1,17.752-15.981C2165.452,1589.875,2168.953,1596.452,2166.548,1604.318Z" transform="translate(-2132.843 -1587.843)" fill="#fae2c9"/>
          <path id="Trazado_138331" data-name="Trazado 138331" d="M2152.588,1638.945c.85-2.778-.72-5.038-3.5-5.038a7.406,7.406,0,0,0-6.578,5.038,3.89,3.89,0,0,0,1.484,4.313h0a3.129,3.129,0,0,1,1.111,3.152c-.057.195-.137.46-.232.778-.043.121-.064.191-.065.2h.006c-.9,2.98-3.025,9.875-3.05,9.953h.32c.025-.081,2.247-7.287,3.11-10.152,1.246-3.224,2.584-3.511,3.393-3.957a15,15,0,0,0,1.592-.967A6.834,6.834,0,0,0,2152.588,1638.945Zm-4.152,4.188a5.955,5.955,0,0,0-2.9,2.664,2.723,2.723,0,0,0-.577-1.827,3.845,3.845,0,0,0-.85-.825,3.77,3.77,0,0,1-1.278-4.2,6.674,6.674,0,0,1,6.1-4.529,3.266,3.266,0,0,1,3.334,4.529,6.789,6.789,0,0,1-2.279,3.24A8.692,8.692,0,0,1,2148.436,1643.134Z" transform="translate(-2133.728 -1611.275)" fill="#ee9849"/>
          <path id="Trazado_138332" data-name="Trazado 138332" d="M2140.31,1681.042l-.062.142-.781,1.791-.206.472v0l-.208.475-.78,1.79-.206.472,0,0-.207.476-.115.262a3.234,3.234,0,0,1-2.889,1.6h-2.8a2.825,2.825,0,0,1-.808-.111h0a1.936,1.936,0,0,1-.569-.271l-.012-.009a1.375,1.375,0,0,1-.325-.323,1.153,1.153,0,0,1-.2-.872l.113-.694.07-.438h0l0-.01h0l.069-.428.27-1.66.071-.436v-.01l.07-.43.292-1.8Z" transform="translate(-2127.756 -1635.458)" fill="#afcdfb"/>
          <g id="Grupo_62153" data-name="Grupo 62153" transform="translate(2.499 45.584)">
            <path id="Trazado_138333" data-name="Trazado 138333" d="M2139.77,1681.042h-1.582c-2.778.738-5.533,1.468-6.807,1.8l-.07.43v.01l-.071.436c1.03-.263,3.511-.917,9.581-2.533l.062-.142Z" transform="translate(-2130.826 -1681.042)" fill="#9abcef"/>
            <path id="Trazado_138334" data-name="Trazado 138334" d="M2130.464,1687.842h0l0,.01h0l-.071.438c1.193-.309,3.658-.959,8.8-2.327l.208-.475v0l.206-.472c-3.247.864-7.177,1.906-9.07,2.4Z" transform="translate(-2130.391 -1683.079)" fill="#9abcef"/>
            <path id="Trazado_138335" data-name="Trazado 138335" d="M2130.889,1693.067l.012.009a1.935,1.935,0,0,0,.569.271h0c1.408-.371,3.5-.926,6.611-1.754l.207-.476,0,0,.206-.472c-2.779.739-5.966,1.585-7.933,2.1A1.37,1.37,0,0,0,2130.889,1693.067Z" transform="translate(-2130.48 -1685.967)" fill="#9abcef"/>
          </g>
        </g>
        <g id="Grupo_62155" data-name="Grupo 62155" transform="translate(35.016 59.033)">
          <path id="Trazado_138336" data-name="Trazado 138336" d="M2171.127,1690.636h-.373a.108.108,0,0,1,0-.215h.373a.108.108,0,0,1,0,.215Zm-1.448,0H2168.6a.108.108,0,1,1,0-.215h1.075a.108.108,0,0,1,0,.215Zm-2.15,0h-1.075a.108.108,0,1,1,0-.215h1.075a.108.108,0,0,1,0,.215Zm-2.15,0H2164.3a.108.108,0,0,1,0-.215h1.075a.108.108,0,0,1,0,.215Zm-2.15,0h-1.075a.108.108,0,0,1,0-.215h1.075a.108.108,0,1,1,0,.215Zm-2.15,0H2160a.108.108,0,1,1,0-.215h1.075a.108.108,0,0,1,0,.215Zm-2.15,0h-1.075a.108.108,0,1,1,0-.215h1.075a.108.108,0,0,1,0,.215Zm-2.15,0H2155.7a.108.108,0,0,1,0-.215h1.075a.108.108,0,0,1,0,.215Zm-2.15,0h-1.075a.108.108,0,1,1,0-.215h1.075a.108.108,0,0,1,0,.215Z" transform="translate(-2153.446 -1690.421)" fill="#eac8a9"/>
        </g>
        <g id="Grupo_62156" data-name="Grupo 62156" transform="translate(49.558 4.385)">
          <path id="Trazado_138337" data-name="Trazado 138337" d="M2183.417,1581.573a.107.107,0,0,1-.076-.183l.76-.76a.108.108,0,0,1,.152.152l-.76.76A.106.106,0,0,1,2183.417,1581.573Zm1.52-1.52a.106.106,0,0,1-.076-.031.108.108,0,0,1,0-.152l.76-.76a.108.108,0,0,1,.152,0,.107.107,0,0,1,0,.152l-.76.761A.107.107,0,0,1,2184.937,1580.053Zm1.52-1.52a.106.106,0,0,1-.076-.032.107.107,0,0,1,0-.152l.124-.124a.107.107,0,0,1,.076-.031h.9a.107.107,0,1,1,0,.215h-.856l-.092.092A.1.1,0,0,1,2186.457,1578.532Zm13.071-.124h-.221a.107.107,0,1,1,0-.215h.221a.107.107,0,1,1,0,.215Zm-1.3,0h-1.075a.107.107,0,1,1,0-.215h1.075a.107.107,0,1,1,0,.215Zm-2.15,0h-1.075a.107.107,0,1,1,0-.215h1.075a.107.107,0,0,1,0,.215Zm-2.15,0h-1.075a.107.107,0,1,1,0-.215h1.075a.107.107,0,1,1,0,.215Zm-2.15,0h-1.075a.107.107,0,1,1,0-.215h1.075a.107.107,0,0,1,0,.215Zm-2.15,0h-1.075a.107.107,0,1,1,0-.215h1.075a.107.107,0,1,1,0,.215Z" transform="translate(-2183.31 -1578.194)" fill="#eac8a9"/>
        </g>
        <path id="Trazado_138338" data-name="Trazado 138338" d="M2203.971,1582.6h-8.817a.47.47,0,0,1-.468-.469h0a.47.47,0,0,1,.468-.468h8.817a.47.47,0,0,1,.469.468h0A.47.47,0,0,1,2203.971,1582.6Z" transform="translate(-2139.589 -1575.589)" fill="#eac8a9"/>
        <path id="Trazado_138339" data-name="Trazado 138339" d="M2177.322,1696.172h-8.816a.47.47,0,0,1-.468-.469h0a.47.47,0,0,1,.468-.469h8.816a.47.47,0,0,1,.469.469h0A.47.47,0,0,1,2177.322,1696.172Z" transform="translate(-2125.916 -1633.858)" fill="#eac8a9"/>
        <rect id="Rectángulo_18714" data-name="Rectángulo 18714" width="7.618" height="0.937" rx="0.469" transform="translate(10.837 39.941)" fill="#eac8a9"/>
        <g id="Grupo_62157" data-name="Grupo 62157" transform="translate(13.081 38.475)">
          <path id="Trazado_138340" data-name="Trazado 138340" d="M2116.195,1652.071a.109.109,0,0,1-.091-.049l-.584-.9a.107.107,0,1,1,.18-.117l.584.9a.108.108,0,0,1-.032.148A.109.109,0,0,1,2116.195,1652.071Zm-1.168-1.805a.107.107,0,0,1-.091-.049l-.584-.9a.107.107,0,1,1,.18-.117l.584.9a.108.108,0,0,1-.032.149A.1.1,0,0,1,2115.027,1650.266Zm-1.169-1.805a.106.106,0,0,1-.086-.044h-.964a.107.107,0,1,1,0-.215h1.023a.107.107,0,0,1,.09.049l.029.044a.107.107,0,0,1-.091.166Zm-2.125-.044h-1.075a.107.107,0,1,1,0-.215h1.075a.107.107,0,1,1,0,.215Zm-2.15,0h-1.074a.107.107,0,1,1,0-.215h1.074a.107.107,0,1,1,0,.215Z" transform="translate(-2108.4 -1648.202)" fill="#eac8a9"/>
        </g>
      </g>
    </g>
  </g>
</svg>
