<svg xmlns="http://www.w3.org/2000/svg" width="17.11" height="14" viewBox="0 0 17.11 14">
  <g id="Grupo_24742" data-name="Grupo 24742" transform="translate(-337 -3265)">
    <g id="Smartphone-in-out-security-arrow" transform="translate(297 3252)">
      <path id="Trazado_12139" data-name="Trazado 12139" d="M56.917,19.487l-5.444-6.222A.763.763,0,0,0,50.889,13H47a.778.778,0,0,0-.6,1.276l2.831,3.391H40.778a.778.778,0,0,0-.778.778v3.111a.778.778,0,0,0,.778.778h8.454L46.4,25.724A.778.778,0,0,0,47,27h3.889a.763.763,0,0,0,.583-.264l5.444-6.222A.778.778,0,0,0,56.917,19.487Zm-6.378,5.958H48.657l2.831-3.391a.778.778,0,0,0-.6-1.276H41.556V19.222h9.333a.778.778,0,0,0,.6-1.276l-2.831-3.391h1.882L55.3,20Z" transform="translate(0 0)" fill="#2a8bbd"/>
    </g>
  </g>
</svg>
