<svg xmlns="http://www.w3.org/2000/svg" width="839.5" height="403.774" viewBox="0 0 839.5 403.774">
  <g id="Grupo_63817" data-name="Grupo 63817" transform="translate(-540 -1464)">
    <g id="Grupo_62170" data-name="Grupo 62170" transform="translate(39)">
      <path id="Trazado_142082" data-name="Trazado 142082" d="M6.812.737a5.291,5.291,0,0,1,3.806,1.292,4.563,4.563,0,0,1,1.5,2.936H10.415A3.549,3.549,0,0,0,9.259,2.987a3.663,3.663,0,0,0-2.43-.729A3.9,3.9,0,0,0,3.749,3.6,6.11,6.11,0,0,0,2.575,7.707a5.968,5.968,0,0,0,1.059,3.678A3.7,3.7,0,0,0,6.794,12.8a3.338,3.338,0,0,0,2.944-1.485,5.649,5.649,0,0,0,.8-2.057h1.705a5.826,5.826,0,0,1-1.512,3.419,5.379,5.379,0,0,1-4.148,1.661A5.475,5.475,0,0,1,2.8,12.972Q.791,11.17.791,7.408A7.107,7.107,0,0,1,2.3,2.724,5.522,5.522,0,0,1,6.812.737Zm8.93,3.85v6.249a2.635,2.635,0,0,0,.229,1.178,1.6,1.6,0,0,0,1.573.844,2.224,2.224,0,0,0,2.25-1.477,5.858,5.858,0,0,0,.325-2.171V4.587H21.7V14H20.206l.018-1.389a3.191,3.191,0,0,1-.765.905,3.365,3.365,0,0,1-2.2.738A2.834,2.834,0,0,1,14.52,12.91a4,4,0,0,1-.4-1.925v-6.4ZM25.383,11.5a1.3,1.3,0,0,0,.5,1.081,1.857,1.857,0,0,0,1.187.4,3.608,3.608,0,0,0,1.617-.387,2.176,2.176,0,0,0,1.318-2.1V9.21a2.707,2.707,0,0,1-.747.308,6.366,6.366,0,0,1-.9.176l-.958.123a3.664,3.664,0,0,0-1.292.36A1.4,1.4,0,0,0,25.383,11.5Zm3.832-3.2a.859.859,0,0,0,.729-.457,1.391,1.391,0,0,0,.105-.606,1.285,1.285,0,0,0-.576-1.173,3.089,3.089,0,0,0-1.648-.365,2.094,2.094,0,0,0-1.758.668,2.2,2.2,0,0,0-.378,1.1H24.214A2.718,2.718,0,0,1,25.343,5.04a4.637,4.637,0,0,1,2.518-.681,5.124,5.124,0,0,1,2.7.633A2.147,2.147,0,0,1,31.588,6.96v5.423a.694.694,0,0,0,.1.4.487.487,0,0,0,.426.149q.105,0,.237-.013t.281-.04v1.169a4.406,4.406,0,0,1-.562.132,4.111,4.111,0,0,1-.527.026,1.3,1.3,0,0,1-1.187-.58,2.239,2.239,0,0,1-.272-.87,4.025,4.025,0,0,1-1.389,1.1,4.3,4.3,0,0,1-2,.466,2.967,2.967,0,0,1-2.14-.8,2.642,2.642,0,0,1-.831-1.991,2.564,2.564,0,0,1,.817-2.03,3.889,3.889,0,0,1,2.145-.888ZM35.183,9.4a4.666,4.666,0,0,0,.642,2.531,2.248,2.248,0,0,0,2.057,1.02,2.166,2.166,0,0,0,1.806-.945A4.462,4.462,0,0,0,40.395,9.3a4.009,4.009,0,0,0-.729-2.641,2.276,2.276,0,0,0-1.8-.857,2.378,2.378,0,0,0-1.938.914A4.186,4.186,0,0,0,35.183,9.4ZM37.564,4.42a3.349,3.349,0,0,1,1.811.457,4.253,4.253,0,0,1,.958.923V1.045h1.521V14H40.43V12.69a3.423,3.423,0,0,1-1.31,1.257,3.748,3.748,0,0,1-1.731.387,3.506,3.506,0,0,1-2.725-1.323,5.172,5.172,0,0,1-1.151-3.52,6.076,6.076,0,0,1,1.05-3.564A3.439,3.439,0,0,1,37.564,4.42Zm6.671.167h1.5V6.213a3.592,3.592,0,0,1,.905-1.156A2.347,2.347,0,0,1,48.3,4.376q.044,0,.149.009t.36.035V6.09a2.363,2.363,0,0,0-.259-.035q-.119-.009-.259-.009a2.258,2.258,0,0,0-1.837.769,2.684,2.684,0,0,0-.642,1.771V14H44.235Zm9.686,8.394a2.182,2.182,0,0,0,2.158-1.191,5.933,5.933,0,0,0,.584-2.65A4.718,4.718,0,0,0,56.241,7a2.373,2.373,0,0,0-2.3-1.3A2.271,2.271,0,0,0,51.829,6.8a5.133,5.133,0,0,0-.659,2.672,4.465,4.465,0,0,0,.659,2.5A2.322,2.322,0,0,0,53.921,12.98Zm.062-8.666a4.262,4.262,0,0,1,3.076,1.213A4.736,4.736,0,0,1,58.315,9.1a6.122,6.122,0,0,1-1.107,3.762,4.006,4.006,0,0,1-3.437,1.485,3.88,3.88,0,0,1-3.085-1.314A5.19,5.19,0,0,1,49.544,9.5a5.615,5.615,0,0,1,1.2-3.779A4.041,4.041,0,0,1,53.982,4.314Zm14.95,8.666A2.182,2.182,0,0,0,71.09,11.79a5.933,5.933,0,0,0,.584-2.65A4.718,4.718,0,0,0,71.253,7a2.373,2.373,0,0,0-2.3-1.3A2.271,2.271,0,0,0,66.841,6.8a5.133,5.133,0,0,0-.659,2.672,4.465,4.465,0,0,0,.659,2.5A2.322,2.322,0,0,0,68.933,12.98Zm.062-8.666A4.262,4.262,0,0,1,72.07,5.527,4.736,4.736,0,0,1,73.327,9.1a6.122,6.122,0,0,1-1.107,3.762,4.006,4.006,0,0,1-3.437,1.485A3.88,3.88,0,0,1,65.7,13.029,5.19,5.19,0,0,1,64.556,9.5a5.615,5.615,0,0,1,1.2-3.779A4.041,4.041,0,0,1,68.994,4.314ZM80.525,1.959h1.6V4.587h1.5V5.879h-1.5v6.144a.665.665,0,0,0,.334.659,1.42,1.42,0,0,0,.615.1q.114,0,.246,0t.308-.022V14a3.532,3.532,0,0,1-.567.114,5.39,5.39,0,0,1-.637.035,1.717,1.717,0,0,1-1.5-.567,2.519,2.519,0,0,1-.4-1.472V5.879H79.251V4.587h1.274Zm5.9,9.536a1.3,1.3,0,0,0,.5,1.081,1.857,1.857,0,0,0,1.187.4,3.608,3.608,0,0,0,1.617-.387,2.176,2.176,0,0,0,1.318-2.1V9.21a2.707,2.707,0,0,1-.747.308,6.366,6.366,0,0,1-.9.176l-.958.123a3.664,3.664,0,0,0-1.292.36A1.4,1.4,0,0,0,86.423,11.5Zm3.832-3.2a.859.859,0,0,0,.729-.457,1.391,1.391,0,0,0,.105-.606,1.285,1.285,0,0,0-.576-1.173,3.089,3.089,0,0,0-1.648-.365,2.094,2.094,0,0,0-1.758.668,2.2,2.2,0,0,0-.378,1.1H85.254A2.718,2.718,0,0,1,86.383,5.04,4.637,4.637,0,0,1,88.9,4.358a5.124,5.124,0,0,1,2.7.633A2.147,2.147,0,0,1,92.628,6.96v5.423a.694.694,0,0,0,.1.4.487.487,0,0,0,.426.149q.105,0,.237-.013t.281-.04v1.169a4.406,4.406,0,0,1-.562.132,4.111,4.111,0,0,1-.527.026,1.3,1.3,0,0,1-1.187-.58,2.239,2.239,0,0,1-.272-.87,4.025,4.025,0,0,1-1.389,1.1,4.3,4.3,0,0,1-2,.466,2.967,2.967,0,0,1-2.14-.8,2.642,2.642,0,0,1-.831-1.991,2.564,2.564,0,0,1,.817-2.03,3.889,3.889,0,0,1,2.145-.888ZM95.1,1.045h1.538V5.729a3.447,3.447,0,0,1,2.8-1.389,3.667,3.667,0,0,1,2.852,1.208,5.148,5.148,0,0,1,1.094,3.564,6.112,6.112,0,0,1-1.081,3.709,3.507,3.507,0,0,1-3,1.477A3.071,3.071,0,0,1,97.5,13.78a4.372,4.372,0,0,1-.94-.984V14H95.1ZM99.211,12.9a2.114,2.114,0,0,0,1.92-1.02,5.02,5.02,0,0,0,.637-2.689,4.414,4.414,0,0,0-.637-2.461,2.1,2.1,0,0,0-1.876-.976,2.617,2.617,0,0,0-1.894.8,3.592,3.592,0,0,0-.813,2.637,5.827,5.827,0,0,0,.334,2.153A2.308,2.308,0,0,0,99.211,12.9Zm6.064-11.812h1.582V14h-1.582ZM110.443,11.5a1.3,1.3,0,0,0,.5,1.081,1.857,1.857,0,0,0,1.187.4,3.608,3.608,0,0,0,1.617-.387,2.176,2.176,0,0,0,1.318-2.1V9.21a2.707,2.707,0,0,1-.747.308,6.366,6.366,0,0,1-.9.176l-.958.123a3.664,3.664,0,0,0-1.292.36A1.4,1.4,0,0,0,110.443,11.5Zm3.832-3.2A.859.859,0,0,0,115,7.839a1.391,1.391,0,0,0,.105-.606,1.285,1.285,0,0,0-.576-1.173,3.089,3.089,0,0,0-1.648-.365,2.094,2.094,0,0,0-1.758.668,2.2,2.2,0,0,0-.378,1.1h-1.477A2.718,2.718,0,0,1,110.4,5.04a4.637,4.637,0,0,1,2.518-.681,5.124,5.124,0,0,1,2.7.633,2.147,2.147,0,0,1,1.028,1.969v5.423a.694.694,0,0,0,.1.4.487.487,0,0,0,.426.149q.105,0,.237-.013t.281-.04v1.169a4.406,4.406,0,0,1-.562.132,4.111,4.111,0,0,1-.527.026,1.3,1.3,0,0,1-1.187-.58,2.239,2.239,0,0,1-.272-.87,4.025,4.025,0,0,1-1.389,1.1,4.3,4.3,0,0,1-2,.466,2.967,2.967,0,0,1-2.14-.8,2.642,2.642,0,0,1-.831-1.991,2.564,2.564,0,0,1,.817-2.03,3.889,3.889,0,0,1,2.145-.888Zm13.939,4.641a2.257,2.257,0,0,0,1.841-.927,4.413,4.413,0,0,0,.734-2.773,5.176,5.176,0,0,0-.325-1.934,2.383,2.383,0,0,0-4.5.088,6.514,6.514,0,0,0-.325,2.232,4.732,4.732,0,0,0,.325,1.854A2.243,2.243,0,0,0,128.215,12.937Zm-4.1-8.306h1.538V5.879a3.84,3.84,0,0,1,1.037-.993,3.338,3.338,0,0,1,1.881-.527,3.537,3.537,0,0,1,2.716,1.226,5.023,5.023,0,0,1,1.116,3.5q0,3.076-1.608,4.395a3.634,3.634,0,0,1-2.373.835,3.221,3.221,0,0,1-1.784-.466,4.111,4.111,0,0,1-.94-.905v4.808h-1.582ZM135.466,11.5a1.3,1.3,0,0,0,.5,1.081,1.857,1.857,0,0,0,1.187.4,3.608,3.608,0,0,0,1.617-.387,2.176,2.176,0,0,0,1.318-2.1V9.21a2.707,2.707,0,0,1-.747.308,6.366,6.366,0,0,1-.9.176l-.958.123a3.664,3.664,0,0,0-1.292.36A1.4,1.4,0,0,0,135.466,11.5ZM139.3,8.3a.859.859,0,0,0,.729-.457,1.391,1.391,0,0,0,.105-.606,1.285,1.285,0,0,0-.576-1.173,3.089,3.089,0,0,0-1.648-.365,2.094,2.094,0,0,0-1.758.668,2.2,2.2,0,0,0-.378,1.1H134.3a2.718,2.718,0,0,1,1.129-2.421,4.637,4.637,0,0,1,2.518-.681,5.124,5.124,0,0,1,2.7.633,2.147,2.147,0,0,1,1.028,1.969v5.423a.694.694,0,0,0,.1.4.487.487,0,0,0,.426.149q.105,0,.237-.013t.281-.04v1.169a4.406,4.406,0,0,1-.562.132,4.111,4.111,0,0,1-.527.026,1.3,1.3,0,0,1-1.187-.58,2.239,2.239,0,0,1-.272-.87,4.025,4.025,0,0,1-1.389,1.1,4.3,4.3,0,0,1-2,.466,2.967,2.967,0,0,1-2.14-.8,2.642,2.642,0,0,1-.831-1.991,2.564,2.564,0,0,1,.817-2.03,3.889,3.889,0,0,1,2.145-.888Zm5.01-3.709h1.5V6.213a3.592,3.592,0,0,1,.905-1.156,2.347,2.347,0,0,1,1.661-.681q.044,0,.149.009t.36.035V6.09a2.363,2.363,0,0,0-.259-.035q-.119-.009-.259-.009a2.258,2.258,0,0,0-1.837.769,2.684,2.684,0,0,0-.642,1.771V14h-1.582Zm7.163,6.908a1.3,1.3,0,0,0,.5,1.081,1.857,1.857,0,0,0,1.187.4,3.608,3.608,0,0,0,1.617-.387,2.176,2.176,0,0,0,1.318-2.1V9.21a2.707,2.707,0,0,1-.747.308,6.366,6.366,0,0,1-.9.176l-.958.123a3.664,3.664,0,0,0-1.292.36A1.4,1.4,0,0,0,151.471,11.5ZM155.3,8.3a.859.859,0,0,0,.729-.457,1.391,1.391,0,0,0,.105-.606,1.285,1.285,0,0,0-.576-1.173,3.089,3.089,0,0,0-1.648-.365,2.094,2.094,0,0,0-1.758.668,2.2,2.2,0,0,0-.378,1.1H150.3a2.718,2.718,0,0,1,1.129-2.421,4.637,4.637,0,0,1,2.518-.681,5.124,5.124,0,0,1,2.7.633,2.147,2.147,0,0,1,1.028,1.969v5.423a.694.694,0,0,0,.1.4.487.487,0,0,0,.426.149q.105,0,.237-.013t.281-.04v1.169a4.406,4.406,0,0,1-.562.132,4.111,4.111,0,0,1-.527.026,1.3,1.3,0,0,1-1.187-.58,2.239,2.239,0,0,1-.272-.87,4.025,4.025,0,0,1-1.389,1.1,4.3,4.3,0,0,1-2,.466,2.967,2.967,0,0,1-2.14-.8,2.642,2.642,0,0,1-.831-1.991,2.564,2.564,0,0,1,.817-2.03,3.889,3.889,0,0,1,2.145-.888Zm10.011-3.709h1.5V6.213a3.592,3.592,0,0,1,.905-1.156,2.347,2.347,0,0,1,1.661-.681q.044,0,.149.009t.36.035V6.09a2.363,2.363,0,0,0-.259-.035q-.119-.009-.259-.009a2.258,2.258,0,0,0-1.837.769,2.684,2.684,0,0,0-.642,1.771V14h-1.582Zm9.87-.211a4.294,4.294,0,0,1,1.942.47,3.582,3.582,0,0,1,1.433,1.217,4.2,4.2,0,0,1,.633,1.661,10.868,10.868,0,0,1,.141,2.074h-6.9a4.026,4.026,0,0,0,.677,2.3,2.266,2.266,0,0,0,1.96.866,2.534,2.534,0,0,0,1.978-.817,2.755,2.755,0,0,0,.6-1.1H179.2a3.276,3.276,0,0,1-.409,1.156,4.111,4.111,0,0,1-.778,1.042,3.687,3.687,0,0,1-1.784.949,5.42,5.42,0,0,1-1.292.141,3.964,3.964,0,0,1-2.979-1.279,4.976,4.976,0,0,1-1.222-3.582,5.41,5.41,0,0,1,1.23-3.683A4.059,4.059,0,0,1,175.184,4.376Zm2.522,4.166a4.1,4.1,0,0,0-.448-1.644,2.3,2.3,0,0,0-2.171-1.143,2.406,2.406,0,0,0-1.828.787,2.972,2.972,0,0,0-.782,2Zm7.2-4.228a4.1,4.1,0,0,1,2.588.773,3.705,3.705,0,0,1,1.2,2.663h-1.538a2.839,2.839,0,0,0-.642-1.446,2.027,2.027,0,0,0-1.608-.576,2.222,2.222,0,0,0-2.162,1.477,5.865,5.865,0,0,0-.422,2.364,4.449,4.449,0,0,0,.6,2.382,2.317,2.317,0,0,0,3.441.365,3.311,3.311,0,0,0,.8-1.648h1.538a4.129,4.129,0,0,1-1.318,2.738,4.113,4.113,0,0,1-2.7.866,3.6,3.6,0,0,1-2.944-1.349,5.164,5.164,0,0,1-1.1-3.371,5.678,5.678,0,0,1,1.2-3.858A3.891,3.891,0,0,1,184.9,4.314Zm9.105,8.666a2.182,2.182,0,0,0,2.158-1.191,5.933,5.933,0,0,0,.584-2.65A4.718,4.718,0,0,0,196.33,7a2.373,2.373,0,0,0-2.3-1.3A2.271,2.271,0,0,0,191.918,6.8a5.133,5.133,0,0,0-.659,2.672,4.465,4.465,0,0,0,.659,2.5A2.322,2.322,0,0,0,194.01,12.98Zm.062-8.666a4.262,4.262,0,0,1,3.076,1.213A4.736,4.736,0,0,1,198.4,9.1a6.122,6.122,0,0,1-1.107,3.762,4.006,4.006,0,0,1-3.437,1.485,3.88,3.88,0,0,1-3.085-1.314A5.19,5.19,0,0,1,189.633,9.5a5.615,5.615,0,0,1,1.2-3.779A4.041,4.041,0,0,1,194.071,4.314Zm10.187,8.622a2.257,2.257,0,0,0,1.841-.927,4.413,4.413,0,0,0,.734-2.773,5.176,5.176,0,0,0-.325-1.934,2.383,2.383,0,0,0-4.5.088,6.514,6.514,0,0,0-.325,2.232,4.732,4.732,0,0,0,.325,1.854A2.243,2.243,0,0,0,204.258,12.937Zm-4.1-8.306H201.7V5.879a3.84,3.84,0,0,1,1.037-.993,3.338,3.338,0,0,1,1.881-.527,3.537,3.537,0,0,1,2.716,1.226,5.023,5.023,0,0,1,1.116,3.5q0,3.076-1.608,4.395a3.634,3.634,0,0,1-2.373.835,3.221,3.221,0,0,1-1.784-.466,4.111,4.111,0,0,1-.94-.905v4.808h-1.582Zm10.134,0H211.9V14H210.3Zm0-3.542H211.9V2.882H210.3Zm4.043,0h1.582V14h-1.582ZM219.507,11.5a1.3,1.3,0,0,0,.5,1.081,1.857,1.857,0,0,0,1.187.4,3.608,3.608,0,0,0,1.617-.387,2.176,2.176,0,0,0,1.318-2.1V9.21a2.707,2.707,0,0,1-.747.308,6.366,6.366,0,0,1-.9.176l-.958.123a3.664,3.664,0,0,0-1.292.36A1.4,1.4,0,0,0,219.507,11.5Zm3.832-3.2a.859.859,0,0,0,.729-.457,1.391,1.391,0,0,0,.105-.606,1.285,1.285,0,0,0-.576-1.173,3.089,3.089,0,0,0-1.648-.365,2.094,2.094,0,0,0-1.758.668,2.2,2.2,0,0,0-.378,1.1h-1.477a2.718,2.718,0,0,1,1.129-2.421,4.637,4.637,0,0,1,2.518-.681,5.124,5.124,0,0,1,2.7.633,2.147,2.147,0,0,1,1.028,1.969v5.423a.694.694,0,0,0,.1.4.487.487,0,0,0,.426.149q.105,0,.237-.013t.281-.04v1.169a4.406,4.406,0,0,1-.562.132,4.111,4.111,0,0,1-.527.026,1.3,1.3,0,0,1-1.187-.58,2.239,2.239,0,0,1-.272-.87,4.025,4.025,0,0,1-1.389,1.1,4.3,4.3,0,0,1-2,.466,2.967,2.967,0,0,1-2.14-.8,2.642,2.642,0,0,1-.831-1.991,2.564,2.564,0,0,1,.817-2.03,3.889,3.889,0,0,1,2.145-.888Zm5.01-3.709h1.5V6.213a3.592,3.592,0,0,1,.905-1.156,2.347,2.347,0,0,1,1.661-.681q.044,0,.149.009t.36.035V6.09a2.363,2.363,0,0,0-.259-.035q-.119-.009-.259-.009a2.258,2.258,0,0,0-1.837.769,2.684,2.684,0,0,0-.642,1.771V14h-1.582Zm11-3.5h1.582V14h-1.582ZM244.512,11.5a1.3,1.3,0,0,0,.5,1.081,1.857,1.857,0,0,0,1.187.4,3.608,3.608,0,0,0,1.617-.387,2.176,2.176,0,0,0,1.318-2.1V9.21a2.707,2.707,0,0,1-.747.308,6.366,6.366,0,0,1-.9.176l-.958.123a3.664,3.664,0,0,0-1.292.36A1.4,1.4,0,0,0,244.512,11.5Zm3.832-3.2a.859.859,0,0,0,.729-.457,1.391,1.391,0,0,0,.105-.606,1.285,1.285,0,0,0-.576-1.173,3.089,3.089,0,0,0-1.648-.365,2.094,2.094,0,0,0-1.758.668,2.2,2.2,0,0,0-.378,1.1h-1.477a2.718,2.718,0,0,1,1.129-2.421,4.637,4.637,0,0,1,2.518-.681,5.124,5.124,0,0,1,2.7.633,2.147,2.147,0,0,1,1.028,1.969v5.423a.694.694,0,0,0,.1.4.487.487,0,0,0,.426.149q.105,0,.237-.013t.281-.04v1.169a4.406,4.406,0,0,1-.562.132,4.111,4.111,0,0,1-.527.026,1.3,1.3,0,0,1-1.187-.58,2.239,2.239,0,0,1-.272-.87,4.025,4.025,0,0,1-1.389,1.1,4.3,4.3,0,0,1-2,.466,2.967,2.967,0,0,1-2.14-.8,2.642,2.642,0,0,1-.831-1.991,2.564,2.564,0,0,1,.817-2.03,3.889,3.889,0,0,1,2.145-.888Zm9.967-3.665h1.608V14h-1.608Zm0-3.542h1.608V2.882h-1.608Zm4,3.5h1.5V5.923a4.215,4.215,0,0,1,1.415-1.187,3.773,3.773,0,0,1,1.661-.36,2.739,2.739,0,0,1,2.707,1.4,4.962,4.962,0,0,1,.387,2.188V14h-1.608V8.067a3.212,3.212,0,0,0-.255-1.389A1.545,1.545,0,0,0,266.59,5.8a3.114,3.114,0,0,0-.923.114,2.377,2.377,0,0,0-1.143.773,2.329,2.329,0,0,0-.514.962,6.478,6.478,0,0,0-.119,1.419V14H262.31Zm10.406-1.433a2.821,2.821,0,0,1,.343-1.441A2.423,2.423,0,0,1,275.194.9q.149,0,.308.009t.36.026V2.381q-.246-.018-.356-.022t-.207,0q-.721,0-.861.374a7.385,7.385,0,0,0-.141,1.9h1.564V5.879H274.28V14h-1.564V5.879h-1.31V4.631h1.31Zm8.341,9.826a2.182,2.182,0,0,0,2.158-1.191,5.933,5.933,0,0,0,.584-2.65A4.718,4.718,0,0,0,283.377,7a2.373,2.373,0,0,0-2.3-1.3A2.271,2.271,0,0,0,278.965,6.8a5.133,5.133,0,0,0-.659,2.672,4.465,4.465,0,0,0,.659,2.5A2.322,2.322,0,0,0,281.057,12.98Zm.062-8.666a4.262,4.262,0,0,1,3.076,1.213A4.736,4.736,0,0,1,285.451,9.1a6.122,6.122,0,0,1-1.107,3.762,4.006,4.006,0,0,1-3.437,1.485,3.88,3.88,0,0,1-3.085-1.314A5.19,5.19,0,0,1,276.68,9.5a5.615,5.615,0,0,1,1.2-3.779A4.041,4.041,0,0,1,281.118,4.314Zm6.258.272h1.5V6.213a3.592,3.592,0,0,1,.905-1.156,2.347,2.347,0,0,1,1.661-.681q.044,0,.149.009t.36.035V6.09a2.363,2.363,0,0,0-.259-.035q-.119-.009-.259-.009a2.258,2.258,0,0,0-1.837.769,2.684,2.684,0,0,0-.642,1.771V14h-1.582Zm5.95,0h1.564V5.923a5.258,5.258,0,0,1,1.02-1.011,3.066,3.066,0,0,1,1.775-.536,2.794,2.794,0,0,1,1.811.554,2.894,2.894,0,0,1,.7.932,3.419,3.419,0,0,1,1.239-1.121,3.457,3.457,0,0,1,1.6-.365,2.616,2.616,0,0,1,2.584,1.371,4.482,4.482,0,0,1,.369,1.986V14h-1.644V7.461a1.523,1.523,0,0,0-.47-1.292,1.861,1.861,0,0,0-1.147-.352,2.277,2.277,0,0,0-1.6.624,2.74,2.74,0,0,0-.672,2.083V14h-1.608V7.856a3.192,3.192,0,0,0-.229-1.4,1.394,1.394,0,0,0-1.345-.659,2.32,2.32,0,0,0-1.63.694,3.4,3.4,0,0,0-.734,2.514V14h-1.582ZM309.533,11.5a1.3,1.3,0,0,0,.5,1.081,1.857,1.857,0,0,0,1.187.4,3.608,3.608,0,0,0,1.617-.387,2.176,2.176,0,0,0,1.318-2.1V9.21a2.707,2.707,0,0,1-.747.308,6.366,6.366,0,0,1-.9.176l-.958.123a3.664,3.664,0,0,0-1.292.36A1.4,1.4,0,0,0,309.533,11.5Zm3.832-3.2a.859.859,0,0,0,.729-.457,1.391,1.391,0,0,0,.105-.606,1.285,1.285,0,0,0-.576-1.173,3.089,3.089,0,0,0-1.648-.365,2.094,2.094,0,0,0-1.758.668,2.2,2.2,0,0,0-.378,1.1h-1.477a2.718,2.718,0,0,1,1.129-2.421,4.637,4.637,0,0,1,2.518-.681,5.124,5.124,0,0,1,2.7.633,2.147,2.147,0,0,1,1.028,1.969v5.423a.694.694,0,0,0,.1.4.487.487,0,0,0,.426.149q.105,0,.237-.013t.281-.04v1.169a4.406,4.406,0,0,1-.562.132,4.111,4.111,0,0,1-.527.026,1.3,1.3,0,0,1-1.187-.58,2.239,2.239,0,0,1-.272-.87,4.025,4.025,0,0,1-1.389,1.1,4.3,4.3,0,0,1-2,.466,2.967,2.967,0,0,1-2.14-.8,2.642,2.642,0,0,1-.831-1.991A2.564,2.564,0,0,1,308.7,9.5a3.889,3.889,0,0,1,2.145-.888Zm8.6-3.981a4.1,4.1,0,0,1,2.588.773,3.705,3.705,0,0,1,1.2,2.663h-1.538a2.839,2.839,0,0,0-.642-1.446,2.027,2.027,0,0,0-1.608-.576A2.222,2.222,0,0,0,319.8,7.206a5.865,5.865,0,0,0-.422,2.364,4.449,4.449,0,0,0,.6,2.382,2.317,2.317,0,0,0,3.441.365,3.311,3.311,0,0,0,.8-1.648h1.538a4.129,4.129,0,0,1-1.318,2.738,4.113,4.113,0,0,1-2.7.866,3.6,3.6,0,0,1-2.944-1.349,5.164,5.164,0,0,1-1.1-3.371,5.678,5.678,0,0,1,1.2-3.858A3.891,3.891,0,0,1,321.961,4.314Zm5.37.316h1.608V14h-1.608Zm0-3.542h1.608V2.882h-1.608Zm7.734,11.892a2.182,2.182,0,0,0,2.158-1.191,5.933,5.933,0,0,0,.584-2.65A4.718,4.718,0,0,0,337.386,7a2.373,2.373,0,0,0-2.3-1.3A2.271,2.271,0,0,0,332.974,6.8a5.133,5.133,0,0,0-.659,2.672,4.465,4.465,0,0,0,.659,2.5A2.322,2.322,0,0,0,335.065,12.98Zm.062-8.666A4.262,4.262,0,0,1,338.2,5.527,4.736,4.736,0,0,1,339.46,9.1a6.122,6.122,0,0,1-1.107,3.762,4.006,4.006,0,0,1-3.437,1.485,3.88,3.88,0,0,1-3.085-1.314A5.19,5.19,0,0,1,330.688,9.5a5.615,5.615,0,0,1,1.2-3.779A4.041,4.041,0,0,1,335.127,4.314ZM336.964.8l-2.347,2.54H333.4L335.013.8Zm4.377,3.788h1.5V5.923a4.215,4.215,0,0,1,1.415-1.187,3.773,3.773,0,0,1,1.661-.36,2.739,2.739,0,0,1,2.707,1.4,4.962,4.962,0,0,1,.387,2.188V14h-1.608V8.067a3.212,3.212,0,0,0-.255-1.389,1.545,1.545,0,0,0-1.529-.879,3.114,3.114,0,0,0-.923.114,2.377,2.377,0,0,0-1.143.773,2.329,2.329,0,0,0-.514.962,6.478,6.478,0,0,0-.119,1.419V14h-1.582Zm10.389,7.5h1.837V14h-1.837ZM6.812,65.537a5.291,5.291,0,0,1,3.806,1.292,4.563,4.563,0,0,1,1.5,2.936H10.415a3.549,3.549,0,0,0-1.156-1.978,3.663,3.663,0,0,0-2.43-.729A3.9,3.9,0,0,0,3.749,68.4a6.11,6.11,0,0,0-1.173,4.109,5.968,5.968,0,0,0,1.059,3.678A3.7,3.7,0,0,0,6.794,77.6a3.338,3.338,0,0,0,2.944-1.485,5.649,5.649,0,0,0,.8-2.057h1.705a5.826,5.826,0,0,1-1.512,3.419,5.379,5.379,0,0,1-4.148,1.661A5.475,5.475,0,0,1,2.8,77.772Q.791,75.97.791,72.208A7.107,7.107,0,0,1,2.3,67.524,5.522,5.522,0,0,1,6.812,65.537Zm7.392.352h1.582V78.8H14.2ZM19.371,76.3a1.3,1.3,0,0,0,.5,1.081,1.857,1.857,0,0,0,1.187.4,3.608,3.608,0,0,0,1.617-.387,2.176,2.176,0,0,0,1.318-2.1V74.01a2.707,2.707,0,0,1-.747.308,6.366,6.366,0,0,1-.9.176l-.958.123a3.664,3.664,0,0,0-1.292.36A1.4,1.4,0,0,0,19.371,76.3ZM23.2,73.1a.859.859,0,0,0,.729-.457,1.391,1.391,0,0,0,.105-.606,1.285,1.285,0,0,0-.576-1.173,3.089,3.089,0,0,0-1.648-.365,2.094,2.094,0,0,0-1.758.668,2.2,2.2,0,0,0-.378,1.1H18.2a2.718,2.718,0,0,1,1.129-2.421,4.637,4.637,0,0,1,2.518-.681,5.124,5.124,0,0,1,2.7.633,2.147,2.147,0,0,1,1.028,1.969v5.423a.694.694,0,0,0,.1.4.487.487,0,0,0,.426.149q.105,0,.237-.013t.281-.04v1.169a4.406,4.406,0,0,1-.562.132,4.111,4.111,0,0,1-.527.026,1.3,1.3,0,0,1-1.187-.58,2.239,2.239,0,0,1-.272-.87,4.025,4.025,0,0,1-1.389,1.1,4.3,4.3,0,0,1-2,.466,2.967,2.967,0,0,1-2.14-.8,2.642,2.642,0,0,1-.831-1.991,2.564,2.564,0,0,1,.817-2.03,3.889,3.889,0,0,1,2.145-.888Zm5.01-3.709h1.5v1.626a3.592,3.592,0,0,1,.905-1.156,2.347,2.347,0,0,1,1.661-.681q.044,0,.149.009t.36.035v1.67a2.363,2.363,0,0,0-.259-.035q-.119-.009-.259-.009a2.258,2.258,0,0,0-1.837.769,2.684,2.684,0,0,0-.642,1.771V78.8H28.213Zm5.95.044h1.608V78.8H34.163Zm0-3.542h1.608v1.793H34.163Zm5,8.314a4.666,4.666,0,0,0,.642,2.531,2.248,2.248,0,0,0,2.057,1.02,2.166,2.166,0,0,0,1.806-.945,4.462,4.462,0,0,0,.708-2.711,4.009,4.009,0,0,0-.729-2.641,2.276,2.276,0,0,0-1.8-.857,2.378,2.378,0,0,0-1.938.914A4.186,4.186,0,0,0,39.164,74.2Zm2.382-4.983a3.349,3.349,0,0,1,1.811.457,4.253,4.253,0,0,1,.958.923V65.845h1.521V78.8H44.411V77.49a3.423,3.423,0,0,1-1.31,1.257,3.748,3.748,0,0,1-1.731.387,3.506,3.506,0,0,1-2.725-1.323,5.172,5.172,0,0,1-1.151-3.52,6.076,6.076,0,0,1,1.05-3.564A3.439,3.439,0,0,1,41.546,69.22Zm7.84,7.075a1.3,1.3,0,0,0,.5,1.081,1.857,1.857,0,0,0,1.187.4,3.608,3.608,0,0,0,1.617-.387,2.176,2.176,0,0,0,1.318-2.1V74.01a2.707,2.707,0,0,1-.747.308,6.366,6.366,0,0,1-.9.176l-.958.123a3.664,3.664,0,0,0-1.292.36A1.4,1.4,0,0,0,49.386,76.3Zm3.832-3.2a.859.859,0,0,0,.729-.457,1.391,1.391,0,0,0,.105-.606,1.285,1.285,0,0,0-.576-1.173,3.089,3.089,0,0,0-1.648-.365,2.094,2.094,0,0,0-1.758.668,2.2,2.2,0,0,0-.378,1.1H48.217a2.718,2.718,0,0,1,1.129-2.421,4.637,4.637,0,0,1,2.518-.681,5.124,5.124,0,0,1,2.7.633,2.147,2.147,0,0,1,1.028,1.969v5.423a.694.694,0,0,0,.1.4.487.487,0,0,0,.426.149q.105,0,.237-.013t.281-.04v1.169a4.406,4.406,0,0,1-.562.132,4.111,4.111,0,0,1-.527.026,1.3,1.3,0,0,1-1.187-.58,2.239,2.239,0,0,1-.272-.87,4.025,4.025,0,0,1-1.389,1.1,4.3,4.3,0,0,1-2,.466,2.967,2.967,0,0,1-2.14-.8,2.642,2.642,0,0,1-.831-1.991,2.564,2.564,0,0,1,.817-2.03,3.889,3.889,0,0,1,2.145-.888ZM59.186,74.2a4.666,4.666,0,0,0,.642,2.531,2.248,2.248,0,0,0,2.057,1.02,2.166,2.166,0,0,0,1.806-.945A4.462,4.462,0,0,0,64.4,74.1a4.009,4.009,0,0,0-.729-2.641,2.276,2.276,0,0,0-1.8-.857,2.378,2.378,0,0,0-1.938.914A4.186,4.186,0,0,0,59.186,74.2Zm2.382-4.983a3.349,3.349,0,0,1,1.811.457,4.253,4.253,0,0,1,.958.923V65.845h1.521V78.8H64.433V77.49a3.423,3.423,0,0,1-1.31,1.257,3.748,3.748,0,0,1-1.731.387,3.506,3.506,0,0,1-2.725-1.323,5.172,5.172,0,0,1-1.151-3.52,6.076,6.076,0,0,1,1.05-3.564A3.439,3.439,0,0,1,61.567,69.22Zm15.548-.044a4.294,4.294,0,0,1,1.942.47,3.582,3.582,0,0,1,1.433,1.217,4.2,4.2,0,0,1,.633,1.661,10.868,10.868,0,0,1,.141,2.074h-6.9a4.026,4.026,0,0,0,.677,2.3,2.266,2.266,0,0,0,1.96.866,2.534,2.534,0,0,0,1.978-.817,2.755,2.755,0,0,0,.6-1.1h1.556A3.276,3.276,0,0,1,80.723,77a4.111,4.111,0,0,1-.778,1.042,3.687,3.687,0,0,1-1.784.949,5.42,5.42,0,0,1-1.292.141,3.964,3.964,0,0,1-2.979-1.279,4.976,4.976,0,0,1-1.222-3.582,5.41,5.41,0,0,1,1.23-3.683A4.059,4.059,0,0,1,77.115,69.176Zm2.522,4.166a4.1,4.1,0,0,0-.448-1.644,2.3,2.3,0,0,0-2.171-1.143,2.406,2.406,0,0,0-1.828.787,2.972,2.972,0,0,0-.782,2Zm3.568-3.955h1.5v1.336a4.215,4.215,0,0,1,1.415-1.187,3.773,3.773,0,0,1,1.661-.36,2.739,2.739,0,0,1,2.707,1.4,4.962,4.962,0,0,1,.387,2.188V78.8H89.271V72.867a3.212,3.212,0,0,0-.255-1.389,1.545,1.545,0,0,0-1.529-.879,3.114,3.114,0,0,0-.923.114,2.377,2.377,0,0,0-1.143.773,2.329,2.329,0,0,0-.514.962,6.478,6.478,0,0,0-.119,1.419V78.8H83.206Zm15.056-3.5h1.582V78.8H98.262Zm7.69,11.892a2.182,2.182,0,0,0,2.158-1.191,5.933,5.933,0,0,0,.584-2.65,4.718,4.718,0,0,0-.422-2.145,2.373,2.373,0,0,0-2.3-1.3A2.271,2.271,0,0,0,103.86,71.6a5.133,5.133,0,0,0-.659,2.672,4.465,4.465,0,0,0,.659,2.5A2.322,2.322,0,0,0,105.952,77.78Zm.062-8.666a4.262,4.262,0,0,1,3.076,1.213,4.736,4.736,0,0,1,1.257,3.568,6.122,6.122,0,0,1-1.107,3.762,4.006,4.006,0,0,1-3.437,1.485,3.88,3.88,0,0,1-3.085-1.314,5.19,5.19,0,0,1-1.143-3.529,5.615,5.615,0,0,1,1.2-3.779A4.041,4.041,0,0,1,106.014,69.114Zm7.154,6.732a2.3,2.3,0,0,0,.4,1.213,2.485,2.485,0,0,0,2.074.765,3.059,3.059,0,0,0,1.547-.382,1.27,1.27,0,0,0,.668-1.182,1.011,1.011,0,0,0-.536-.923,6.374,6.374,0,0,0-1.354-.448l-1.257-.316a6.131,6.131,0,0,1-1.775-.668,2,2,0,0,1-1.02-1.775,2.713,2.713,0,0,1,.962-2.162,3.839,3.839,0,0,1,2.588-.826,3.593,3.593,0,0,1,3.067,1.248,2.708,2.708,0,0,1,.571,1.705h-1.494a1.83,1.83,0,0,0-.378-.976,2.41,2.41,0,0,0-1.89-.624,2.259,2.259,0,0,0-1.358.343,1.074,1.074,0,0,0-.461.905,1.114,1.114,0,0,0,.606.984,3.644,3.644,0,0,0,1.037.387l1.046.255a8.087,8.087,0,0,1,2.285.8,2.118,2.118,0,0,1,.923,1.907,2.906,2.906,0,0,1-.954,2.171,4.059,4.059,0,0,1-2.9.914,3.9,3.9,0,0,1-2.975-.954,3.606,3.606,0,0,1-.936-2.36Zm16.69-6.732a4.1,4.1,0,0,1,2.588.773,3.705,3.705,0,0,1,1.2,2.663h-1.538a2.839,2.839,0,0,0-.642-1.446,2.027,2.027,0,0,0-1.608-.576,2.222,2.222,0,0,0-2.162,1.477,5.865,5.865,0,0,0-.422,2.364,4.449,4.449,0,0,0,.6,2.382,2.317,2.317,0,0,0,3.441.365,3.311,3.311,0,0,0,.8-1.648h1.538a3.72,3.72,0,0,1-4.017,3.6,3.6,3.6,0,0,1-2.944-1.349,5.164,5.164,0,0,1-1.1-3.371,5.678,5.678,0,0,1,1.2-3.858A3.891,3.891,0,0,1,129.858,69.114Zm9.105,8.666a2.182,2.182,0,0,0,2.158-1.191,5.933,5.933,0,0,0,.584-2.65,4.718,4.718,0,0,0-.422-2.145,2.373,2.373,0,0,0-2.3-1.3,2.271,2.271,0,0,0-2.109,1.107,5.133,5.133,0,0,0-.659,2.672,4.465,4.465,0,0,0,.659,2.5A2.322,2.322,0,0,0,138.964,77.78Zm.062-8.666a4.262,4.262,0,0,1,3.076,1.213,4.736,4.736,0,0,1,1.257,3.568,6.122,6.122,0,0,1-1.107,3.762,4.006,4.006,0,0,1-3.437,1.485,3.88,3.88,0,0,1-3.085-1.314,5.19,5.19,0,0,1-1.143-3.529,5.615,5.615,0,0,1,1.2-3.779A4.041,4.041,0,0,1,139.025,69.114Zm6.214.272h1.5v1.336a4.215,4.215,0,0,1,1.415-1.187,3.773,3.773,0,0,1,1.661-.36,2.739,2.739,0,0,1,2.707,1.4,4.962,4.962,0,0,1,.387,2.188V78.8H151.3V72.867a3.212,3.212,0,0,0-.255-1.389,1.545,1.545,0,0,0-1.529-.879,3.114,3.114,0,0,0-.923.114,2.377,2.377,0,0,0-1.143.773,2.329,2.329,0,0,0-.514.962,6.478,6.478,0,0,0-.119,1.419V78.8h-1.582Zm13.641-.272a4.1,4.1,0,0,1,2.588.773,3.705,3.705,0,0,1,1.2,2.663H161.13a2.839,2.839,0,0,0-.642-1.446,2.027,2.027,0,0,0-1.608-.576,2.222,2.222,0,0,0-2.162,1.477,5.865,5.865,0,0,0-.422,2.364,4.449,4.449,0,0,0,.6,2.382,2.317,2.317,0,0,0,3.441.365,3.311,3.311,0,0,0,.8-1.648h1.538a3.72,3.72,0,0,1-4.017,3.6,3.6,3.6,0,0,1-2.944-1.349,5.164,5.164,0,0,1-1.1-3.371,5.678,5.678,0,0,1,1.2-3.858A3.891,3.891,0,0,1,158.88,69.114Zm9.29.062a4.294,4.294,0,0,1,1.942.47,3.582,3.582,0,0,1,1.433,1.217,4.2,4.2,0,0,1,.633,1.661,10.868,10.868,0,0,1,.141,2.074h-6.9a4.026,4.026,0,0,0,.677,2.3,2.266,2.266,0,0,0,1.96.866,2.534,2.534,0,0,0,1.978-.817,2.755,2.755,0,0,0,.6-1.1h1.556A3.276,3.276,0,0,1,171.778,77,4.111,4.111,0,0,1,171,78.044a3.687,3.687,0,0,1-1.784.949,5.42,5.42,0,0,1-1.292.141,3.964,3.964,0,0,1-2.979-1.279,4.976,4.976,0,0,1-1.222-3.582,5.41,5.41,0,0,1,1.23-3.683A4.059,4.059,0,0,1,168.17,69.176Zm2.522,4.166a4.1,4.1,0,0,0-.448-1.644,2.3,2.3,0,0,0-2.171-1.143,2.406,2.406,0,0,0-1.828.787,2.972,2.972,0,0,0-.782,2Zm7.541,4.395a2.257,2.257,0,0,0,1.841-.927,4.413,4.413,0,0,0,.734-2.773,5.176,5.176,0,0,0-.325-1.934,2.383,2.383,0,0,0-4.5.088,6.514,6.514,0,0,0-.325,2.232,4.732,4.732,0,0,0,.325,1.854A2.243,2.243,0,0,0,178.233,77.737Zm-4.1-8.306h1.538v1.248a3.84,3.84,0,0,1,1.037-.993,3.338,3.338,0,0,1,1.881-.527,3.537,3.537,0,0,1,2.716,1.226,5.023,5.023,0,0,1,1.116,3.5q0,3.076-1.608,4.395a3.634,3.634,0,0,1-2.373.835,3.221,3.221,0,0,1-1.784-.466,4.111,4.111,0,0,1-.94-.905v4.808h-1.582Zm10.45-2.672h1.6v2.628h1.5v1.292h-1.5v6.144a.665.665,0,0,0,.334.659,1.42,1.42,0,0,0,.615.1q.114,0,.246,0t.308-.022V78.8a3.532,3.532,0,0,1-.567.114,5.39,5.39,0,0,1-.637.035,1.717,1.717,0,0,1-1.5-.567,2.519,2.519,0,0,1-.4-1.472V70.679h-1.274V69.387h1.274Zm8.42,11.021a2.182,2.182,0,0,0,2.158-1.191,5.933,5.933,0,0,0,.584-2.65,4.718,4.718,0,0,0-.422-2.145,2.373,2.373,0,0,0-2.3-1.3,2.271,2.271,0,0,0-2.109,1.107,5.133,5.133,0,0,0-.659,2.672,4.465,4.465,0,0,0,.659,2.5A2.322,2.322,0,0,0,193.008,77.78Zm.062-8.666a4.262,4.262,0,0,1,3.076,1.213A4.736,4.736,0,0,1,197.4,73.9a6.122,6.122,0,0,1-1.107,3.762,4.006,4.006,0,0,1-3.437,1.485,3.88,3.88,0,0,1-3.085-1.314,5.19,5.19,0,0,1-1.143-3.529,5.615,5.615,0,0,1,1.2-3.779A4.041,4.041,0,0,1,193.069,69.114Zm7.154,6.732a2.3,2.3,0,0,0,.4,1.213,2.485,2.485,0,0,0,2.074.765,3.059,3.059,0,0,0,1.547-.382,1.27,1.27,0,0,0,.668-1.182,1.011,1.011,0,0,0-.536-.923,6.374,6.374,0,0,0-1.354-.448l-1.257-.316a6.131,6.131,0,0,1-1.775-.668,2,2,0,0,1-1.02-1.775,2.713,2.713,0,0,1,.962-2.162,3.839,3.839,0,0,1,2.588-.826,3.593,3.593,0,0,1,3.067,1.248,2.708,2.708,0,0,1,.571,1.705h-1.494a1.83,1.83,0,0,0-.378-.976,2.41,2.41,0,0,0-1.89-.624,2.259,2.259,0,0,0-1.358.343,1.074,1.074,0,0,0-.461.905,1.114,1.114,0,0,0,.606.984,3.644,3.644,0,0,0,1.037.387l1.046.255a8.087,8.087,0,0,1,2.285.8,2.118,2.118,0,0,1,.923,1.907,2.906,2.906,0,0,1-.954,2.171,4.059,4.059,0,0,1-2.9.914,3.9,3.9,0,0,1-2.975-.954,3.606,3.606,0,0,1-.936-2.36Zm16.8,1.934a2.182,2.182,0,0,0,2.158-1.191,5.933,5.933,0,0,0,.584-2.65,4.718,4.718,0,0,0-.422-2.145,2.373,2.373,0,0,0-2.3-1.3,2.271,2.271,0,0,0-2.109,1.107,5.133,5.133,0,0,0-.659,2.672,4.465,4.465,0,0,0,.659,2.5A2.322,2.322,0,0,0,217.02,77.78Zm.062-8.666a4.262,4.262,0,0,1,3.076,1.213,4.736,4.736,0,0,1,1.257,3.568,6.122,6.122,0,0,1-1.107,3.762,4.006,4.006,0,0,1-3.437,1.485,3.88,3.88,0,0,1-3.085-1.314,5.19,5.19,0,0,1-1.143-3.529,5.615,5.615,0,0,1,1.2-3.779A4.041,4.041,0,0,1,217.081,69.114Zm6.091-3.27h1.538v4.685a3.447,3.447,0,0,1,2.8-1.389,3.667,3.667,0,0,1,2.852,1.208,5.148,5.148,0,0,1,1.094,3.564,6.112,6.112,0,0,1-1.081,3.709,3.507,3.507,0,0,1-3,1.477,3.071,3.071,0,0,1-1.811-.519,4.372,4.372,0,0,1-.94-.984v1.2h-1.459ZM227.285,77.7a2.114,2.114,0,0,0,1.92-1.02,5.02,5.02,0,0,0,.637-2.689,4.414,4.414,0,0,0-.637-2.461,2.1,2.1,0,0,0-1.876-.976,2.617,2.617,0,0,0-1.894.8,3.592,3.592,0,0,0-.813,2.637,5.827,5.827,0,0,0,.334,2.153A2.308,2.308,0,0,0,227.285,77.7Zm7.6-9.984h-1.582V65.889h1.582Zm-3.076,13.465a3.149,3.149,0,0,0,1.279-.189q.215-.154.215-.962v-10.6h1.582V80.2a2.84,2.84,0,0,1-.334,1.538,2.31,2.31,0,0,1-2.1.861q-.114,0-.242-.009t-.4-.035Zm9.413-12.006a4.294,4.294,0,0,1,1.942.47,3.582,3.582,0,0,1,1.433,1.217,4.2,4.2,0,0,1,.633,1.661,10.868,10.868,0,0,1,.141,2.074h-6.9a4.026,4.026,0,0,0,.677,2.3,2.266,2.266,0,0,0,1.96.866,2.534,2.534,0,0,0,1.978-.817,2.755,2.755,0,0,0,.6-1.1h1.556A3.276,3.276,0,0,1,244.833,77a4.111,4.111,0,0,1-.778,1.042,3.687,3.687,0,0,1-1.784.949,5.42,5.42,0,0,1-1.292.141A3.964,3.964,0,0,1,238,77.855a4.976,4.976,0,0,1-1.222-3.582,5.41,5.41,0,0,1,1.23-3.683A4.059,4.059,0,0,1,241.225,69.176Zm2.522,4.166A4.1,4.1,0,0,0,243.3,71.7a2.3,2.3,0,0,0-2.171-1.143,2.406,2.406,0,0,0-1.828.787,2.972,2.972,0,0,0-.782,2Zm3.885-6.583h1.6v2.628h1.5v1.292h-1.5v6.144a.665.665,0,0,0,.334.659,1.42,1.42,0,0,0,.615.1q.114,0,.246,0t.308-.022V78.8a3.532,3.532,0,0,1-.567.114,5.39,5.39,0,0,1-.637.035,1.717,1.717,0,0,1-1.5-.567,2.519,2.519,0,0,1-.4-1.472V70.679h-1.274V69.387h1.274Zm8.42,11.021a2.182,2.182,0,0,0,2.158-1.191,5.933,5.933,0,0,0,.584-2.65,4.718,4.718,0,0,0-.422-2.145,2.373,2.373,0,0,0-2.3-1.3A2.271,2.271,0,0,0,253.96,71.6a5.133,5.133,0,0,0-.659,2.672,4.465,4.465,0,0,0,.659,2.5A2.322,2.322,0,0,0,256.052,77.78Zm.062-8.666a4.262,4.262,0,0,1,3.076,1.213,4.736,4.736,0,0,1,1.257,3.568,6.122,6.122,0,0,1-1.107,3.762,4.006,4.006,0,0,1-3.437,1.485,3.88,3.88,0,0,1-3.085-1.314,5.19,5.19,0,0,1-1.143-3.529,5.615,5.615,0,0,1,1.2-3.779A4.041,4.041,0,0,1,256.113,69.114ZM268.33,74.2a4.666,4.666,0,0,0,.642,2.531,2.248,2.248,0,0,0,2.057,1.02,2.166,2.166,0,0,0,1.806-.945,4.462,4.462,0,0,0,.708-2.711,4.009,4.009,0,0,0-.729-2.641,2.276,2.276,0,0,0-1.8-.857,2.378,2.378,0,0,0-1.938.914A4.186,4.186,0,0,0,268.33,74.2Zm2.382-4.983a3.349,3.349,0,0,1,1.811.457,4.253,4.253,0,0,1,.958.923V65.845H275V78.8h-1.424V77.49a3.423,3.423,0,0,1-1.31,1.257,3.748,3.748,0,0,1-1.731.387,3.506,3.506,0,0,1-2.725-1.323,5.172,5.172,0,0,1-1.151-3.52,6.076,6.076,0,0,1,1.05-3.564A3.439,3.439,0,0,1,270.712,69.22Zm10.547-.044a4.294,4.294,0,0,1,1.942.47,3.582,3.582,0,0,1,1.433,1.217,4.2,4.2,0,0,1,.633,1.661,10.868,10.868,0,0,1,.141,2.074h-6.9a4.026,4.026,0,0,0,.677,2.3,2.266,2.266,0,0,0,1.96.866,2.534,2.534,0,0,0,1.978-.817,2.755,2.755,0,0,0,.6-1.1h1.556A3.276,3.276,0,0,1,284.867,77a4.111,4.111,0,0,1-.778,1.042,3.687,3.687,0,0,1-1.784.949,5.42,5.42,0,0,1-1.292.141,3.964,3.964,0,0,1-2.979-1.279,4.976,4.976,0,0,1-1.222-3.582,5.41,5.41,0,0,1,1.23-3.683A4.059,4.059,0,0,1,281.259,69.176Zm2.522,4.166a4.1,4.1,0,0,0-.448-1.644,2.3,2.3,0,0,0-2.171-1.143,2.406,2.406,0,0,0-1.828.787,2.972,2.972,0,0,0-.782,2Zm9.782,2.953a1.3,1.3,0,0,0,.5,1.081,1.857,1.857,0,0,0,1.187.4,3.608,3.608,0,0,0,1.617-.387,2.176,2.176,0,0,0,1.318-2.1V74.01a2.707,2.707,0,0,1-.747.308,6.366,6.366,0,0,1-.9.176l-.958.123a3.664,3.664,0,0,0-1.292.36A1.4,1.4,0,0,0,293.563,76.3Zm3.832-3.2a.859.859,0,0,0,.729-.457,1.391,1.391,0,0,0,.105-.606,1.285,1.285,0,0,0-.576-1.173,3.089,3.089,0,0,0-1.648-.365,2.094,2.094,0,0,0-1.758.668,2.2,2.2,0,0,0-.378,1.1h-1.477a2.718,2.718,0,0,1,1.129-2.421,4.637,4.637,0,0,1,2.518-.681,5.124,5.124,0,0,1,2.7.633,2.147,2.147,0,0,1,1.028,1.969v5.423a.694.694,0,0,0,.1.4.487.487,0,0,0,.426.149q.105,0,.237-.013t.281-.04v1.169a4.406,4.406,0,0,1-.562.132,4.111,4.111,0,0,1-.527.026,1.3,1.3,0,0,1-1.187-.58,2.239,2.239,0,0,1-.272-.87,4.025,4.025,0,0,1-1.389,1.1,4.3,4.3,0,0,1-2,.466,2.967,2.967,0,0,1-2.14-.8,2.642,2.642,0,0,1-.831-1.991,2.564,2.564,0,0,1,.817-2.03,3.889,3.889,0,0,1,2.145-.888Zm4.966-3.709h1.5v1.336a4.215,4.215,0,0,1,1.415-1.187,3.773,3.773,0,0,1,1.661-.36,2.739,2.739,0,0,1,2.707,1.4,4.962,4.962,0,0,1,.387,2.188V78.8h-1.608V72.867a3.212,3.212,0,0,0-.255-1.389,1.545,1.545,0,0,0-1.529-.879,3.114,3.114,0,0,0-.923.114,2.377,2.377,0,0,0-1.143.773,2.329,2.329,0,0,0-.514.962,6.478,6.478,0,0,0-.119,1.419V78.8h-1.582ZM313.585,76.3a1.3,1.3,0,0,0,.5,1.081,1.857,1.857,0,0,0,1.187.4,3.608,3.608,0,0,0,1.617-.387,2.176,2.176,0,0,0,1.318-2.1V74.01a2.707,2.707,0,0,1-.747.308,6.366,6.366,0,0,1-.9.176l-.958.123a3.664,3.664,0,0,0-1.292.36A1.4,1.4,0,0,0,313.585,76.3Zm3.832-3.2a.859.859,0,0,0,.729-.457,1.391,1.391,0,0,0,.105-.606,1.285,1.285,0,0,0-.576-1.173,3.089,3.089,0,0,0-1.648-.365,2.094,2.094,0,0,0-1.758.668,2.2,2.2,0,0,0-.378,1.1h-1.477a2.718,2.718,0,0,1,1.129-2.421,4.637,4.637,0,0,1,2.518-.681,5.124,5.124,0,0,1,2.7.633,2.147,2.147,0,0,1,1.028,1.969v5.423a.694.694,0,0,0,.1.4.487.487,0,0,0,.426.149q.105,0,.237-.013t.281-.04v1.169a4.406,4.406,0,0,1-.562.132,4.111,4.111,0,0,1-.527.026,1.3,1.3,0,0,1-1.187-.58,2.239,2.239,0,0,1-.272-.87,4.025,4.025,0,0,1-1.389,1.1,4.3,4.3,0,0,1-2,.466,2.967,2.967,0,0,1-2.14-.8,2.642,2.642,0,0,1-.831-1.991,2.564,2.564,0,0,1,.817-2.03,3.889,3.889,0,0,1,2.145-.888Zm.668-7.5-2.347,2.54h-1.213l1.608-2.54Zm4.342.29h1.582V78.8h-1.582Zm3.955,3.542h1.608V78.8h-1.608Zm0-3.542h1.608v1.793h-1.608Zm4.939,9.958a2.3,2.3,0,0,0,.4,1.213,2.485,2.485,0,0,0,2.074.765,3.059,3.059,0,0,0,1.547-.382,1.27,1.27,0,0,0,.668-1.182,1.011,1.011,0,0,0-.536-.923,6.374,6.374,0,0,0-1.354-.448l-1.257-.316a6.131,6.131,0,0,1-1.775-.668,2,2,0,0,1-1.02-1.775,2.713,2.713,0,0,1,.962-2.162,3.839,3.839,0,0,1,2.588-.826,3.593,3.593,0,0,1,3.067,1.248,2.708,2.708,0,0,1,.571,1.705H335.76a1.83,1.83,0,0,0-.378-.976,2.41,2.41,0,0,0-1.89-.624,2.259,2.259,0,0,0-1.358.343,1.074,1.074,0,0,0-.461.905,1.114,1.114,0,0,0,.606.984,3.644,3.644,0,0,0,1.037.387l1.046.255a8.087,8.087,0,0,1,2.285.8,2.118,2.118,0,0,1,.923,1.907,2.906,2.906,0,0,1-.954,2.171,4.059,4.059,0,0,1-2.9.914,3.9,3.9,0,0,1-2.975-.954,3.606,3.606,0,0,1-.936-2.36Zm8.06-6.416h1.608V78.8h-1.608Zm0-3.542h1.608v1.793h-1.608Zm4.939,9.958a2.3,2.3,0,0,0,.4,1.213,2.485,2.485,0,0,0,2.074.765,3.059,3.059,0,0,0,1.547-.382A1.27,1.27,0,0,0,349,76.26a1.011,1.011,0,0,0-.536-.923,6.374,6.374,0,0,0-1.354-.448l-1.257-.316a6.131,6.131,0,0,1-1.775-.668,2,2,0,0,1-1.02-1.775,2.713,2.713,0,0,1,.962-2.162,3.839,3.839,0,0,1,2.588-.826,3.593,3.593,0,0,1,3.067,1.248,2.708,2.708,0,0,1,.571,1.705h-1.494a1.83,1.83,0,0,0-.378-.976,2.41,2.41,0,0,0-1.89-.624,2.259,2.259,0,0,0-1.358.343,1.074,1.074,0,0,0-.461.905,1.114,1.114,0,0,0,.606.984,3.644,3.644,0,0,0,1.037.387l1.046.255a8.087,8.087,0,0,1,2.285.8,2.118,2.118,0,0,1,.923,1.907,2.906,2.906,0,0,1-.954,2.171,4.059,4.059,0,0,1-2.9.914,3.9,3.9,0,0,1-2.975-.954,3.606,3.606,0,0,1-.936-2.36Zm8.438,1.037h1.837V78.8h-1.837ZM1.371,130.689H3.12v11.373H9.659V143.6H1.371Zm9.844,0H12.8V143.6H11.215Zm5.537,3.5v6.249a2.635,2.635,0,0,0,.229,1.178,1.6,1.6,0,0,0,1.573.844,2.224,2.224,0,0,0,2.25-1.477,5.858,5.858,0,0,0,.325-2.171v-4.623h1.582V143.6H21.217l.018-1.389a3.191,3.191,0,0,1-.765.905,3.365,3.365,0,0,1-2.2.738,2.834,2.834,0,0,1-2.742-1.345,4,4,0,0,1-.4-1.925v-6.4Zm9.2,0,2.514,7.664,2.628-7.664h1.731L29.276,143.6H27.589l-3.472-9.413Zm8.227.044h1.608V143.6H34.181Zm0-3.542h1.608v1.793H34.181ZM39.393,141.1a1.3,1.3,0,0,0,.5,1.081,1.857,1.857,0,0,0,1.187.4,3.608,3.608,0,0,0,1.617-.387,2.176,2.176,0,0,0,1.318-2.1V138.81a2.707,2.707,0,0,1-.747.308,6.366,6.366,0,0,1-.9.176l-.958.123a3.664,3.664,0,0,0-1.292.36A1.4,1.4,0,0,0,39.393,141.1Zm3.832-3.2a.859.859,0,0,0,.729-.457,1.391,1.391,0,0,0,.105-.606,1.285,1.285,0,0,0-.576-1.173,3.089,3.089,0,0,0-1.648-.365,2.094,2.094,0,0,0-1.758.668,2.2,2.2,0,0,0-.378,1.1H38.224a2.718,2.718,0,0,1,1.129-2.421,4.637,4.637,0,0,1,2.518-.681,5.124,5.124,0,0,1,2.7.633A2.147,2.147,0,0,1,45.6,136.56v5.423a.694.694,0,0,0,.1.4.487.487,0,0,0,.426.149q.105,0,.237-.013t.281-.04v1.169a4.406,4.406,0,0,1-.562.132,4.111,4.111,0,0,1-.527.026,1.3,1.3,0,0,1-1.187-.58,2.239,2.239,0,0,1-.272-.87,4.025,4.025,0,0,1-1.389,1.1,4.3,4.3,0,0,1-2,.466,2.967,2.967,0,0,1-2.14-.8,2.642,2.642,0,0,1-.831-1.991,2.564,2.564,0,0,1,.817-2.03,3.889,3.889,0,0,1,2.145-.888ZM54.193,139a4.666,4.666,0,0,0,.642,2.531,2.248,2.248,0,0,0,2.057,1.02,2.166,2.166,0,0,0,1.806-.945,4.462,4.462,0,0,0,.708-2.711,4.009,4.009,0,0,0-.729-2.641,2.276,2.276,0,0,0-1.8-.857,2.378,2.378,0,0,0-1.938.914A4.186,4.186,0,0,0,54.193,139Zm2.382-4.983a3.349,3.349,0,0,1,1.811.457,4.253,4.253,0,0,1,.958.923v-4.755h1.521V143.6H59.44v-1.31a3.423,3.423,0,0,1-1.31,1.257,3.748,3.748,0,0,1-1.731.387,3.506,3.506,0,0,1-2.725-1.323,5.172,5.172,0,0,1-1.151-3.52,6.076,6.076,0,0,1,1.05-3.564A3.439,3.439,0,0,1,56.575,134.02Zm10.547-.044a4.294,4.294,0,0,1,1.942.47,3.582,3.582,0,0,1,1.433,1.217,4.2,4.2,0,0,1,.633,1.661,10.868,10.868,0,0,1,.141,2.074h-6.9a4.026,4.026,0,0,0,.677,2.3,2.266,2.266,0,0,0,1.96.866,2.534,2.534,0,0,0,1.978-.817,2.755,2.755,0,0,0,.6-1.1h1.556a3.276,3.276,0,0,1-.409,1.156,4.111,4.111,0,0,1-.778,1.042,3.687,3.687,0,0,1-1.784.949,5.42,5.42,0,0,1-1.292.141,3.964,3.964,0,0,1-2.979-1.279,4.976,4.976,0,0,1-1.222-3.582,5.41,5.41,0,0,1,1.23-3.683A4.059,4.059,0,0,1,67.122,133.976Zm2.522,4.166A4.1,4.1,0,0,0,69.2,136.5a2.3,2.3,0,0,0-2.171-1.143,2.406,2.406,0,0,0-1.828.787,2.972,2.972,0,0,0-.782,2Zm8.569-3.911h1.608V143.6H78.214Zm0-3.542h1.608v1.793H78.214Zm5,8.314a4.666,4.666,0,0,0,.642,2.531,2.248,2.248,0,0,0,2.057,1.02,2.166,2.166,0,0,0,1.806-.945,4.462,4.462,0,0,0,.708-2.711,4.009,4.009,0,0,0-.729-2.641,2.276,2.276,0,0,0-1.8-.857,2.378,2.378,0,0,0-1.938.914A4.186,4.186,0,0,0,83.215,139ZM85.6,134.02a3.349,3.349,0,0,1,1.811.457,4.253,4.253,0,0,1,.958.923v-4.755h1.521V143.6H88.462v-1.31a3.423,3.423,0,0,1-1.31,1.257,3.748,3.748,0,0,1-1.731.387,3.506,3.506,0,0,1-2.725-1.323,5.172,5.172,0,0,1-1.151-3.52,6.076,6.076,0,0,1,1.05-3.564A3.439,3.439,0,0,1,85.6,134.02Zm10.547-.044a4.294,4.294,0,0,1,1.942.47,3.582,3.582,0,0,1,1.433,1.217,4.2,4.2,0,0,1,.633,1.661,10.868,10.868,0,0,1,.141,2.074h-6.9a4.026,4.026,0,0,0,.677,2.3,2.266,2.266,0,0,0,1.96.866,2.534,2.534,0,0,0,1.978-.817,2.755,2.755,0,0,0,.6-1.1h1.556a3.276,3.276,0,0,1-.409,1.156,4.111,4.111,0,0,1-.778,1.042,3.687,3.687,0,0,1-1.784.949,5.42,5.42,0,0,1-1.292.141,3.964,3.964,0,0,1-2.979-1.279,4.976,4.976,0,0,1-1.222-3.582,5.41,5.41,0,0,1,1.23-3.683A4.059,4.059,0,0,1,96.144,133.976Zm2.522,4.166a4.1,4.1,0,0,0-.448-1.644,2.3,2.3,0,0,0-2.171-1.143,2.406,2.406,0,0,0-1.828.787,2.972,2.972,0,0,0-.782,2Zm4.781,2.953a1.3,1.3,0,0,0,.5,1.081,1.857,1.857,0,0,0,1.187.4,3.608,3.608,0,0,0,1.617-.387,2.176,2.176,0,0,0,1.318-2.1V138.81a2.707,2.707,0,0,1-.747.308,6.366,6.366,0,0,1-.9.176l-.958.123a3.664,3.664,0,0,0-1.292.36A1.4,1.4,0,0,0,103.447,141.1Zm3.832-3.2a.859.859,0,0,0,.729-.457,1.391,1.391,0,0,0,.105-.606,1.285,1.285,0,0,0-.576-1.173,3.089,3.089,0,0,0-1.648-.365,2.094,2.094,0,0,0-1.758.668,2.2,2.2,0,0,0-.378,1.1h-1.477a2.718,2.718,0,0,1,1.129-2.421,4.637,4.637,0,0,1,2.518-.681,5.124,5.124,0,0,1,2.7.633,2.147,2.147,0,0,1,1.028,1.969v5.423a.694.694,0,0,0,.1.4.487.487,0,0,0,.426.149q.105,0,.237-.013t.281-.04v1.169a4.406,4.406,0,0,1-.562.132,4.111,4.111,0,0,1-.527.026,1.3,1.3,0,0,1-1.187-.58,2.239,2.239,0,0,1-.272-.87,4.025,4.025,0,0,1-1.389,1.1,4.3,4.3,0,0,1-2,.466,2.967,2.967,0,0,1-2.14-.8,2.642,2.642,0,0,1-.831-1.991,2.564,2.564,0,0,1,.817-2.03,3.889,3.889,0,0,1,2.145-.888Zm5.906,2.751a2.3,2.3,0,0,0,.4,1.213,2.485,2.485,0,0,0,2.074.765,3.059,3.059,0,0,0,1.547-.382,1.27,1.27,0,0,0,.668-1.182,1.011,1.011,0,0,0-.536-.923,6.374,6.374,0,0,0-1.354-.448l-1.257-.316a6.131,6.131,0,0,1-1.775-.668,2,2,0,0,1-1.02-1.775,2.713,2.713,0,0,1,.962-2.162,3.839,3.839,0,0,1,2.588-.826,3.593,3.593,0,0,1,3.067,1.248,2.708,2.708,0,0,1,.571,1.705h-1.494a1.83,1.83,0,0,0-.378-.976,2.41,2.41,0,0,0-1.89-.624,2.259,2.259,0,0,0-1.358.343,1.074,1.074,0,0,0-.461.905,1.114,1.114,0,0,0,.606.984,3.644,3.644,0,0,0,1.037.387l1.046.255a8.087,8.087,0,0,1,2.285.8,2.118,2.118,0,0,1,.923,1.907,2.906,2.906,0,0,1-.954,2.171,4.059,4.059,0,0,1-2.9.914,3.9,3.9,0,0,1-2.975-.954,3.606,3.606,0,0,1-.936-2.36Zm14.273.448a1.3,1.3,0,0,0,.5,1.081,1.857,1.857,0,0,0,1.187.4,3.608,3.608,0,0,0,1.617-.387,2.176,2.176,0,0,0,1.318-2.1V138.81a2.707,2.707,0,0,1-.747.308,6.366,6.366,0,0,1-.9.176l-.958.123a3.664,3.664,0,0,0-1.292.36A1.4,1.4,0,0,0,127.459,141.1Zm3.832-3.2a.859.859,0,0,0,.729-.457,1.391,1.391,0,0,0,.105-.606,1.285,1.285,0,0,0-.576-1.173,3.089,3.089,0,0,0-1.648-.365,2.094,2.094,0,0,0-1.758.668,2.2,2.2,0,0,0-.378,1.1H126.29a2.718,2.718,0,0,1,1.129-2.421,4.637,4.637,0,0,1,2.518-.681,5.124,5.124,0,0,1,2.7.633,2.147,2.147,0,0,1,1.028,1.969v5.423a.694.694,0,0,0,.1.4.487.487,0,0,0,.426.149q.105,0,.237-.013t.281-.04v1.169a4.406,4.406,0,0,1-.562.132,4.111,4.111,0,0,1-.527.026,1.3,1.3,0,0,1-1.187-.58,2.239,2.239,0,0,1-.272-.87,4.025,4.025,0,0,1-1.389,1.1,4.3,4.3,0,0,1-2,.466,2.967,2.967,0,0,1-2.14-.8,2.642,2.642,0,0,1-.831-1.991,2.564,2.564,0,0,1,.817-2.03,3.889,3.889,0,0,1,2.145-.888Zm8.6-3.981a4.1,4.1,0,0,1,2.588.773,3.705,3.705,0,0,1,1.2,2.663h-1.538a2.839,2.839,0,0,0-.642-1.446,2.027,2.027,0,0,0-1.608-.576,2.222,2.222,0,0,0-2.162,1.477,5.865,5.865,0,0,0-.422,2.364,4.449,4.449,0,0,0,.6,2.382,2.317,2.317,0,0,0,3.441.365,3.311,3.311,0,0,0,.8-1.648h1.538a3.72,3.72,0,0,1-4.017,3.6,3.6,3.6,0,0,1-2.944-1.349,5.164,5.164,0,0,1-1.1-3.371,5.678,5.678,0,0,1,1.2-3.858A3.891,3.891,0,0,1,139.887,133.914Zm9.29.062a4.294,4.294,0,0,1,1.942.47,3.582,3.582,0,0,1,1.433,1.217,4.2,4.2,0,0,1,.633,1.661,10.868,10.868,0,0,1,.141,2.074h-6.9a4.026,4.026,0,0,0,.677,2.3,2.266,2.266,0,0,0,1.96.866,2.534,2.534,0,0,0,1.978-.817,2.755,2.755,0,0,0,.6-1.1h1.556a3.276,3.276,0,0,1-.409,1.156,4.111,4.111,0,0,1-.778,1.042,3.687,3.687,0,0,1-1.784.949,5.42,5.42,0,0,1-1.292.141,3.964,3.964,0,0,1-2.979-1.279,4.976,4.976,0,0,1-1.222-3.582,5.41,5.41,0,0,1,1.23-3.683A4.059,4.059,0,0,1,149.177,133.976Zm2.522,4.166a4.1,4.1,0,0,0-.448-1.644,2.3,2.3,0,0,0-2.171-1.143,2.406,2.406,0,0,0-1.828.787,2.972,2.972,0,0,0-.782,2Zm3.612-3.955h1.5v1.626a3.592,3.592,0,0,1,.905-1.156,2.347,2.347,0,0,1,1.661-.681q.044,0,.149.009t.36.035v1.67a2.363,2.363,0,0,0-.259-.035q-.119-.009-.259-.009a2.258,2.258,0,0,0-1.837.769,2.684,2.684,0,0,0-.642,1.771V143.6h-1.582Zm9.58-.272a4.1,4.1,0,0,1,2.588.773,3.705,3.705,0,0,1,1.2,2.663h-1.538a2.839,2.839,0,0,0-.642-1.446,2.027,2.027,0,0,0-1.608-.576,2.222,2.222,0,0,0-2.162,1.477,5.865,5.865,0,0,0-.422,2.364,4.449,4.449,0,0,0,.6,2.382,2.317,2.317,0,0,0,3.441.365,3.311,3.311,0,0,0,.8-1.648h1.538a3.72,3.72,0,0,1-4.017,3.6,3.6,3.6,0,0,1-2.944-1.349,5.164,5.164,0,0,1-1.1-3.371,5.678,5.678,0,0,1,1.2-3.858A3.891,3.891,0,0,1,164.892,133.914Zm6.583,7.181a1.3,1.3,0,0,0,.5,1.081,1.857,1.857,0,0,0,1.187.4,3.608,3.608,0,0,0,1.617-.387,2.176,2.176,0,0,0,1.318-2.1V138.81a2.707,2.707,0,0,1-.747.308,6.366,6.366,0,0,1-.9.176l-.958.123a3.664,3.664,0,0,0-1.292.36A1.4,1.4,0,0,0,171.475,141.1Zm3.832-3.2a.859.859,0,0,0,.729-.457,1.391,1.391,0,0,0,.105-.606,1.285,1.285,0,0,0-.576-1.173,3.089,3.089,0,0,0-1.648-.365,2.094,2.094,0,0,0-1.758.668,2.2,2.2,0,0,0-.378,1.1h-1.477a2.718,2.718,0,0,1,1.129-2.421,4.637,4.637,0,0,1,2.518-.681,5.124,5.124,0,0,1,2.7.633,2.147,2.147,0,0,1,1.028,1.969v5.423a.694.694,0,0,0,.1.4.487.487,0,0,0,.426.149q.105,0,.237-.013t.281-.04v1.169a4.406,4.406,0,0,1-.562.132,4.111,4.111,0,0,1-.527.026,1.3,1.3,0,0,1-1.187-.58,2.239,2.239,0,0,1-.272-.87,4.025,4.025,0,0,1-1.389,1.1,4.3,4.3,0,0,1-2,.466,2.967,2.967,0,0,1-2.14-.8,2.642,2.642,0,0,1-.831-1.991,2.564,2.564,0,0,1,.817-2.03,3.889,3.889,0,0,1,2.145-.888ZM186.275,139a4.666,4.666,0,0,0,.642,2.531,2.248,2.248,0,0,0,2.057,1.02,2.166,2.166,0,0,0,1.806-.945,4.462,4.462,0,0,0,.708-2.711,4.009,4.009,0,0,0-.729-2.641,2.276,2.276,0,0,0-1.8-.857,2.378,2.378,0,0,0-1.938.914A4.186,4.186,0,0,0,186.275,139Zm2.382-4.983a3.349,3.349,0,0,1,1.811.457,4.253,4.253,0,0,1,.958.923v-4.755h1.521V143.6h-1.424v-1.31a3.423,3.423,0,0,1-1.31,1.257,3.748,3.748,0,0,1-1.731.387,3.506,3.506,0,0,1-2.725-1.323,5.172,5.172,0,0,1-1.151-3.52,6.076,6.076,0,0,1,1.05-3.564A3.439,3.439,0,0,1,188.657,134.02Zm10.547-.044a4.294,4.294,0,0,1,1.942.47,3.582,3.582,0,0,1,1.433,1.217,4.2,4.2,0,0,1,.633,1.661,10.868,10.868,0,0,1,.141,2.074h-6.9a4.026,4.026,0,0,0,.677,2.3,2.266,2.266,0,0,0,1.96.866,2.534,2.534,0,0,0,1.978-.817,2.755,2.755,0,0,0,.6-1.1h1.556a3.276,3.276,0,0,1-.409,1.156,4.111,4.111,0,0,1-.778,1.042,3.687,3.687,0,0,1-1.784.949,5.42,5.42,0,0,1-1.292.141,3.964,3.964,0,0,1-2.979-1.279,4.976,4.976,0,0,1-1.222-3.582,5.41,5.41,0,0,1,1.23-3.683A4.059,4.059,0,0,1,199.2,133.976Zm2.522,4.166a4.1,4.1,0,0,0-.448-1.644,2.3,2.3,0,0,0-2.171-1.143,2.406,2.406,0,0,0-1.828.787,2.972,2.972,0,0,0-.782,2Zm8.613-7.453h1.582V143.6H210.34Zm5.168,10.406a1.3,1.3,0,0,0,.5,1.081,1.857,1.857,0,0,0,1.187.4,3.608,3.608,0,0,0,1.617-.387,2.176,2.176,0,0,0,1.318-2.1V138.81a2.707,2.707,0,0,1-.747.308,6.366,6.366,0,0,1-.9.176l-.958.123a3.664,3.664,0,0,0-1.292.36A1.4,1.4,0,0,0,215.508,141.1Zm3.832-3.2a.859.859,0,0,0,.729-.457,1.391,1.391,0,0,0,.105-.606,1.285,1.285,0,0,0-.576-1.173,3.089,3.089,0,0,0-1.648-.365,2.094,2.094,0,0,0-1.758.668,2.2,2.2,0,0,0-.378,1.1h-1.477a2.718,2.718,0,0,1,1.129-2.421,4.637,4.637,0,0,1,2.518-.681,5.124,5.124,0,0,1,2.7.633,2.147,2.147,0,0,1,1.028,1.969v5.423a.694.694,0,0,0,.1.4.487.487,0,0,0,.426.149q.105,0,.237-.013t.281-.04v1.169a4.406,4.406,0,0,1-.562.132,4.111,4.111,0,0,1-.527.026,1.3,1.3,0,0,1-1.187-.58,2.239,2.239,0,0,1-.272-.87,4.025,4.025,0,0,1-1.389,1.1,4.3,4.3,0,0,1-2,.466,2.967,2.967,0,0,1-2.14-.8,2.642,2.642,0,0,1-.831-1.991,2.564,2.564,0,0,1,.817-2.03,3.889,3.889,0,0,1,2.145-.888Zm10.907,2.751a2.3,2.3,0,0,0,.4,1.213,2.485,2.485,0,0,0,2.074.765,3.059,3.059,0,0,0,1.547-.382,1.27,1.27,0,0,0,.668-1.182,1.011,1.011,0,0,0-.536-.923,6.374,6.374,0,0,0-1.354-.448l-1.257-.316a6.131,6.131,0,0,1-1.775-.668,2,2,0,0,1-1.02-1.775,2.713,2.713,0,0,1,.962-2.162,3.839,3.839,0,0,1,2.588-.826,3.593,3.593,0,0,1,3.067,1.248,2.708,2.708,0,0,1,.571,1.705h-1.494a1.83,1.83,0,0,0-.378-.976,2.41,2.41,0,0,0-1.89-.624,2.259,2.259,0,0,0-1.358.343,1.074,1.074,0,0,0-.461.905,1.114,1.114,0,0,0,.606.984,3.644,3.644,0,0,0,1.037.387l1.046.255a8.087,8.087,0,0,1,2.285.8,2.118,2.118,0,0,1,.923,1.907,2.906,2.906,0,0,1-.954,2.171,4.059,4.059,0,0,1-2.9.914,3.9,3.9,0,0,1-2.975-.954,3.606,3.606,0,0,1-.936-2.36Zm8.06-6.416h1.608V143.6h-1.608Zm0-3.542h1.608v1.793h-1.608Zm4.315.87h1.6v2.628h1.5v1.292h-1.5v6.144a.665.665,0,0,0,.334.659,1.42,1.42,0,0,0,.615.1q.114,0,.246,0t.308-.022V143.6a3.532,3.532,0,0,1-.567.114,5.39,5.39,0,0,1-.637.035,1.717,1.717,0,0,1-1.5-.567,2.519,2.519,0,0,1-.4-1.472v-6.231h-1.274v-1.292h1.274Zm6.267,2.628v6.249a2.635,2.635,0,0,0,.229,1.178,1.6,1.6,0,0,0,1.573.844,2.224,2.224,0,0,0,2.25-1.477,5.858,5.858,0,0,0,.325-2.171v-4.623h1.582V143.6h-1.494l.018-1.389a3.191,3.191,0,0,1-.765.905,3.365,3.365,0,0,1-2.2.738,2.834,2.834,0,0,1-2.742-1.345,4,4,0,0,1-.4-1.925v-6.4Zm9.642,6.908a1.3,1.3,0,0,0,.5,1.081,1.857,1.857,0,0,0,1.187.4,3.608,3.608,0,0,0,1.617-.387,2.176,2.176,0,0,0,1.318-2.1V138.81a2.707,2.707,0,0,1-.747.308,6.366,6.366,0,0,1-.9.176l-.958.123a3.664,3.664,0,0,0-1.292.36A1.4,1.4,0,0,0,258.53,141.1Zm3.832-3.2a.859.859,0,0,0,.729-.457,1.391,1.391,0,0,0,.105-.606,1.285,1.285,0,0,0-.576-1.173,3.089,3.089,0,0,0-1.648-.365,2.094,2.094,0,0,0-1.758.668,2.2,2.2,0,0,0-.378,1.1h-1.477a2.718,2.718,0,0,1,1.129-2.421,4.637,4.637,0,0,1,2.518-.681,5.124,5.124,0,0,1,2.7.633,2.147,2.147,0,0,1,1.028,1.969v5.423a.694.694,0,0,0,.1.4.487.487,0,0,0,.426.149q.105,0,.237-.013t.281-.04v1.169a4.406,4.406,0,0,1-.562.132,4.111,4.111,0,0,1-.527.026,1.3,1.3,0,0,1-1.187-.58,2.239,2.239,0,0,1-.272-.87,4.025,4.025,0,0,1-1.389,1.1,4.3,4.3,0,0,1-2,.466,2.967,2.967,0,0,1-2.14-.8,2.642,2.642,0,0,1-.831-1.991,2.564,2.564,0,0,1,.817-2.03,3.889,3.889,0,0,1,2.145-.888Zm8.6-3.981a4.1,4.1,0,0,1,2.588.773,3.705,3.705,0,0,1,1.2,2.663h-1.538a2.839,2.839,0,0,0-.642-1.446,2.027,2.027,0,0,0-1.608-.576,2.222,2.222,0,0,0-2.162,1.477,5.865,5.865,0,0,0-.422,2.364,4.449,4.449,0,0,0,.6,2.382,2.317,2.317,0,0,0,3.441.365,3.311,3.311,0,0,0,.8-1.648h1.538a3.72,3.72,0,0,1-4.017,3.6,3.6,3.6,0,0,1-2.944-1.349,5.164,5.164,0,0,1-1.1-3.371,5.678,5.678,0,0,1,1.2-3.858A3.891,3.891,0,0,1,270.958,133.914Zm5.37.316h1.608V143.6h-1.608Zm0-3.542h1.608v1.793h-1.608Zm7.734,11.892a2.182,2.182,0,0,0,2.158-1.191,5.933,5.933,0,0,0,.584-2.65,4.718,4.718,0,0,0-.422-2.145,2.373,2.373,0,0,0-2.3-1.3,2.271,2.271,0,0,0-2.109,1.107,5.133,5.133,0,0,0-.659,2.672,4.465,4.465,0,0,0,.659,2.5A2.322,2.322,0,0,0,284.063,142.58Zm.062-8.666a4.262,4.262,0,0,1,3.076,1.213,4.736,4.736,0,0,1,1.257,3.568,6.122,6.122,0,0,1-1.107,3.762,4.006,4.006,0,0,1-3.437,1.485,3.88,3.88,0,0,1-3.085-1.314,5.19,5.19,0,0,1-1.143-3.529,5.615,5.615,0,0,1,1.2-3.779A4.041,4.041,0,0,1,284.124,133.914Zm1.837-3.516-2.347,2.54H282.4l1.608-2.54Zm4.377,3.788h1.5v1.336a4.215,4.215,0,0,1,1.415-1.187,3.773,3.773,0,0,1,1.661-.36,2.739,2.739,0,0,1,2.707,1.4,4.962,4.962,0,0,1,.387,2.188V143.6H296.4v-5.933a3.212,3.212,0,0,0-.255-1.389,1.545,1.545,0,0,0-1.529-.879,3.114,3.114,0,0,0-.923.114,2.377,2.377,0,0,0-1.143.773,2.329,2.329,0,0,0-.514.962,6.478,6.478,0,0,0-.119,1.419V143.6h-1.582Zm18.984,8.35a2.257,2.257,0,0,0,1.841-.927,4.413,4.413,0,0,0,.734-2.773,5.176,5.176,0,0,0-.325-1.934,2.383,2.383,0,0,0-4.5.088,6.514,6.514,0,0,0-.325,2.232,4.732,4.732,0,0,0,.325,1.854A2.243,2.243,0,0,0,309.322,142.537Zm-4.1-8.306h1.538v1.248a3.84,3.84,0,0,1,1.037-.993,3.338,3.338,0,0,1,1.881-.527,3.537,3.537,0,0,1,2.716,1.226,5.023,5.023,0,0,1,1.116,3.5q0,3.076-1.608,4.395a3.634,3.634,0,0,1-2.373.835,3.221,3.221,0,0,1-1.784-.466,4.111,4.111,0,0,1-.94-.905v4.808h-1.582Zm10.178-.044h1.5v1.626a3.592,3.592,0,0,1,.905-1.156,2.347,2.347,0,0,1,1.661-.681q.044,0,.149.009t.36.035v1.67a2.363,2.363,0,0,0-.259-.035q-.119-.009-.259-.009a2.258,2.258,0,0,0-1.837.769,2.684,2.684,0,0,0-.642,1.771V143.6H315.4Zm9.686,8.394a2.182,2.182,0,0,0,2.158-1.191,5.933,5.933,0,0,0,.584-2.65,4.718,4.718,0,0,0-.422-2.145,2.373,2.373,0,0,0-2.3-1.3A2.271,2.271,0,0,0,323,136.4a5.133,5.133,0,0,0-.659,2.672,4.465,4.465,0,0,0,.659,2.5A2.322,2.322,0,0,0,325.09,142.58Zm.062-8.666a4.262,4.262,0,0,1,3.076,1.213,4.736,4.736,0,0,1,1.257,3.568,6.122,6.122,0,0,1-1.107,3.762,4.006,4.006,0,0,1-3.437,1.485,3.88,3.88,0,0,1-3.085-1.314,5.19,5.19,0,0,1-1.143-3.529,5.615,5.615,0,0,1,1.2-3.779A4.041,4.041,0,0,1,325.151,133.914Zm6.091-3.27h1.538v4.685a3.447,3.447,0,0,1,2.8-1.389,3.667,3.667,0,0,1,2.852,1.208,5.148,5.148,0,0,1,1.094,3.564,6.112,6.112,0,0,1-1.081,3.709,3.507,3.507,0,0,1-3,1.477,3.071,3.071,0,0,1-1.811-.519,4.372,4.372,0,0,1-.94-.984v1.2h-1.459Zm4.113,11.856a2.114,2.114,0,0,0,1.92-1.02,5.02,5.02,0,0,0,.637-2.689,4.414,4.414,0,0,0-.637-2.461,2.1,2.1,0,0,0-1.876-.976,2.617,2.617,0,0,0-1.894.8,3.592,3.592,0,0,0-.813,2.637,5.827,5.827,0,0,0,.334,2.153A2.308,2.308,0,0,0,335.355,142.5Zm6.064-11.812H343V143.6H341.42Zm7.875,3.287a4.294,4.294,0,0,1,1.942.47,3.582,3.582,0,0,1,1.433,1.217,4.2,4.2,0,0,1,.633,1.661,10.868,10.868,0,0,1,.141,2.074h-6.9a4.026,4.026,0,0,0,.677,2.3,2.266,2.266,0,0,0,1.96.866,2.534,2.534,0,0,0,1.978-.817,2.755,2.755,0,0,0,.6-1.1h1.556a3.276,3.276,0,0,1-.409,1.156,4.111,4.111,0,0,1-.778,1.042,3.687,3.687,0,0,1-1.784.949,5.42,5.42,0,0,1-1.292.141,3.964,3.964,0,0,1-2.979-1.279,4.976,4.976,0,0,1-1.222-3.582,5.41,5.41,0,0,1,1.23-3.683A4.059,4.059,0,0,1,349.295,133.976Zm2.522,4.166a4.1,4.1,0,0,0-.448-1.644,2.3,2.3,0,0,0-2.171-1.143,2.406,2.406,0,0,0-1.828.787,2.972,2.972,0,0,0-.782,2Zm3.568-3.955h1.564v1.336a5.258,5.258,0,0,1,1.02-1.011,3.066,3.066,0,0,1,1.775-.536,2.794,2.794,0,0,1,1.811.554,2.894,2.894,0,0,1,.7.932,3.419,3.419,0,0,1,1.239-1.121,3.457,3.457,0,0,1,1.6-.365,2.616,2.616,0,0,1,2.584,1.371,4.482,4.482,0,0,1,.369,1.986V143.6h-1.644v-6.539a1.523,1.523,0,0,0-.47-1.292,1.861,1.861,0,0,0-1.147-.352,2.277,2.277,0,0,0-1.6.624,2.74,2.74,0,0,0-.672,2.083V143.6h-1.608v-6.144a3.192,3.192,0,0,0-.229-1.4,1.394,1.394,0,0,0-1.345-.659,2.32,2.32,0,0,0-1.63.694,3.4,3.4,0,0,0-.734,2.514V143.6h-1.582Zm16.207,6.908a1.3,1.3,0,0,0,.5,1.081,1.857,1.857,0,0,0,1.187.4,3.608,3.608,0,0,0,1.617-.387,2.176,2.176,0,0,0,1.318-2.1V138.81a2.707,2.707,0,0,1-.747.308,6.366,6.366,0,0,1-.9.176l-.958.123a3.664,3.664,0,0,0-1.292.36A1.4,1.4,0,0,0,371.593,141.1Zm3.832-3.2a.859.859,0,0,0,.729-.457,1.391,1.391,0,0,0,.105-.606,1.285,1.285,0,0,0-.576-1.173,3.089,3.089,0,0,0-1.648-.365,2.094,2.094,0,0,0-1.758.668,2.2,2.2,0,0,0-.378,1.1h-1.477a2.718,2.718,0,0,1,1.129-2.421,4.637,4.637,0,0,1,2.518-.681,5.124,5.124,0,0,1,2.7.633,2.147,2.147,0,0,1,1.028,1.969v5.423a.694.694,0,0,0,.1.4.487.487,0,0,0,.426.149q.105,0,.237-.013t.281-.04v1.169a4.406,4.406,0,0,1-.562.132,4.111,4.111,0,0,1-.527.026,1.3,1.3,0,0,1-1.187-.58,2.239,2.239,0,0,1-.272-.87,4.025,4.025,0,0,1-1.389,1.1,4.3,4.3,0,0,1-2,.466,2.967,2.967,0,0,1-2.14-.8,2.642,2.642,0,0,1-.831-1.991,2.564,2.564,0,0,1,.817-2.03,3.889,3.889,0,0,1,2.145-.888Zm5.344,3.788h1.837V143.6h-1.837Z" transform="translate(940 1600)" fill="#00223d"/>
      <g id="Grupo_62169" data-name="Grupo 62169" transform="translate(444.041 1367.774)">
        <path id="Trazado_138341" data-name="Trazado 138341" d="M120.292,150.741s129.659-80.119,186.018-46.1-36.641,126.007,9.906,108.853c48.353-17.82,106.508,2.611,109.4,45.709,3.993,59.422-102.13,104.377-80.837,101.764,45.68-5.605,71.5,7.385,45.68,37.416-34.04,39.6-141.654,82.908-163.844,63.1s23.041-75.05-18.875-60.53c-97.585,33.8-174.346-27.622-124.488-80.233,19.988-21.091,84.685-63.731,43.335-68.252C58.554,245.03,14.562,212.174,120.292,150.741Z" fill="#96e5f3" opacity="0.5"/>
        <circle id="Elipse_1850" data-name="Elipse 1850" cx="12.232" cy="12.232" r="12.232" transform="translate(362.597 254.282)" fill="#f5efdb"/>
        <circle id="Elipse_1851" data-name="Elipse 1851" cx="10.679" cy="10.679" r="10.679" transform="translate(334.814 266.588)" fill="#f5efdb"/>
        <path id="Trazado_138342" data-name="Trazado 138342" d="M461.111,157.638a25.568,25.568,0,0,0-25.568-25.567c-.354,0-.706.012-1.057.027a21.153,21.153,0,0,0-35-21.612,11.536,11.536,0,0,0-22.573-1.129,21.155,21.155,0,0,0-36.955,5.284,25.567,25.567,0,0,0-29.608,37.294,11.535,11.535,0,0,0-3.234,21.835,25.567,25.567,0,0,0,18.966,42.712,25.729,25.729,0,0,0,2.663-.139,21.146,21.146,0,0,0,20.849,24.724,21.089,21.089,0,0,0,15.422-6.682c-.013.226-.034.451-.034.681a11.551,11.551,0,1,0,23.1,0c0-.157-.018-.31-.024-.466l.1-.012a11.543,11.543,0,1,0,21.917-5.7,21.15,21.15,0,0,0,31.108-27.452c.265.018.529.04.8.04a11.542,11.542,0,0,0,5.923-21.454A25.559,25.559,0,0,0,461.111,157.638Z" fill="#f5efdb"/>
        <g id="Grupo_62160" data-name="Grupo 62160">
          <path id="Trazado_138343" data-name="Trazado 138343" d="M380.481,204.39l-8.052-71.55s-27.574,4.2-25.5,29.185c2.184,26.335,19.642,15.131,21.267,43.748Z" fill="#f3be61"/>
          <path id="Trazado_138344" data-name="Trazado 138344" d="M380.481,204.39l-8.052-71.55s25.727-4.9,31.35,22.786c5.26,25.9-15.787,19.119-11.01,47.381Z" fill="#f3be61"/>
          <path id="Trazado_138345" data-name="Trazado 138345" d="M367.969,202.98l24.289-3.739,2.226,19.775-24.4,2.746Z" fill="#383a45"/>
          <path id="Trazado_138346" data-name="Trazado 138346" d="M374.829,216.724l13.85-2.061,1.113,9.888-13.906,1.565Z" fill="#383a45"/>
          <path id="Trazado_138347" data-name="Trazado 138347" d="M371.4,202.417,367.706,169.6l1.642-.281c.7,3.024,2.074,6.47,3.006,6.781.042.012.106.034.269-.1a3.2,3.2,0,0,0,.853-1.286,7.771,7.771,0,0,1-1.427-2.2c-.852-1.981-.548-3.62.794-4.277a1.493,1.493,0,0,1,1.985.672,7.7,7.7,0,0,1,.552,5.271,1.65,1.65,0,0,0,1.491.376,3.057,3.057,0,0,0,1.277-1.068c-.874-1.573-1.387-3.619-1.046-4.8a1.631,1.631,0,0,1,1.4-1.255,2.125,2.125,0,0,1,2.452,1.736,6.642,6.642,0,0,1-.824,4.307c.023.029.047.057.071.085.338.4.624.558.726.5,1.121-.615,1.638-4.012,1.647-6.228l1.662-.09,3.714,32.992-1.658.187-3.064-27.228a3.747,3.747,0,0,1-1.5,1.83,1.917,1.917,0,0,1-2.232-.326,3.588,3.588,0,0,1-.339-.31,4.414,4.414,0,0,1-1.7,1.228,3.076,3.076,0,0,1-2.634-.317,4.567,4.567,0,0,1-1.122,1.475,1.9,1.9,0,0,1-1.871.411,3.64,3.64,0,0,1-1.71-1.575l2.941,26.125Zm2.043-32.593c-.348.356-.189,1.264.139,2.025a6.163,6.163,0,0,0,.322.639c.006-.164.007-.329,0-.5A4.761,4.761,0,0,0,373.443,169.824Zm5.4-.748a1.505,1.505,0,0,0-.157.01,4.435,4.435,0,0,0,.417,2.534,4.054,4.054,0,0,0,.226-2.067C379.242,169.179,379.1,169.076,378.846,169.076Z" fill="#fffaf0"/>
          <path id="Trazado_138348" data-name="Trazado 138348" d="M375.007,136.373s17.361,3.872,22.274,16.79,1.4,20.567,2.2,19.581,4.436-5.469,1.268-17.848S386.714,131.961,375.007,136.373Z" fill="#f5efdb"/>
          <rect id="Rectngulo_18716" data-name="Rectngulo 18716" width="24.557" height="0.834" transform="translate(368.129 204.455) rotate(-7.292)" fill="#fffaf0"/>
          <rect id="Rectngulo_18717" data-name="Rectngulo 18717" width="24.555" height="0.834" transform="matrix(0.994, -0.111, 0.111, 0.994, 368.619, 208.757)" fill="#fffaf0"/>
          <rect id="Rectngulo_18718" data-name="Rectngulo 18718" width="24.627" height="0.834" transform="matrix(0.982, -0.187, 0.187, 0.982, 369.183, 214.054)" fill="#fffaf0"/>
          <rect id="Rectngulo_18719" data-name="Rectngulo 18719" width="24.555" height="0.834" transform="matrix(0.994, -0.111, 0.111, 0.994, 369.479, 216.397)" fill="#fffaf0"/>
        </g>
        <g id="Grupo_62163" data-name="Grupo 62163">
          <path id="Trazado_138349" data-name="Trazado 138349" d="M371.036,127.258a1.668,1.668,0,0,1-1.655-1.481l-.689-6.121a1.668,1.668,0,0,1,3.315-.373l.689,6.121a1.668,1.668,0,0,1-1.471,1.844A1.723,1.723,0,0,1,371.036,127.258Z" fill="#70cacd"/>
          <g id="Grupo_62161" data-name="Grupo 62161">
            <path id="Trazado_138350" data-name="Trazado 138350" d="M386.186,127.738a1.67,1.67,0,0,1-1.617-2.078l1.516-5.97a1.668,1.668,0,1,1,3.233.821L387.8,126.48A1.671,1.671,0,0,1,386.186,127.738Z" fill="#70cacd"/>
            <path id="Trazado_138351" data-name="Trazado 138351" d="M398.76,133.6a1.67,1.67,0,0,1-1.414-2.55l3.255-5.229a1.668,1.668,0,0,1,2.832,1.763l-3.255,5.229A1.67,1.67,0,0,1,398.76,133.6Z" fill="#70cacd"/>
            <path id="Trazado_138352" data-name="Trazado 138352" d="M407.444,142.35a1.668,1.668,0,0,1-.772-3.147l5.462-2.846a1.668,1.668,0,0,1,1.541,2.958l-5.462,2.846A1.664,1.664,0,0,1,407.444,142.35Z" fill="#70cacd"/>
            <path id="Trazado_138353" data-name="Trazado 138353" d="M411.21,151.871a1.668,1.668,0,0,1-.341-3.3l6.028-1.264a1.668,1.668,0,0,1,.684,3.265l-6.028,1.263A1.674,1.674,0,0,1,411.21,151.871Z" fill="#70cacd"/>
            <path id="Trazado_138354" data-name="Trazado 138354" d="M417.712,177.213a1.661,1.661,0,0,1-.719-.163l-5.555-2.659a1.668,1.668,0,0,1,1.44-3.009l5.555,2.659a1.668,1.668,0,0,1-.721,3.172Z" fill="#70cacd"/>
            <path id="Trazado_138355" data-name="Trazado 138355" d="M411.049,189.159a1.663,1.663,0,0,1-1.04-.364l-4.815-3.84a1.668,1.668,0,1,1,2.08-2.607l4.815,3.84a1.667,1.667,0,0,1-1.04,2.971Z" fill="#70cacd"/>
            <path id="Trazado_138356" data-name="Trazado 138356" d="M419.635,164.007a1.5,1.5,0,0,1-.2-.012l-6.116-.73a1.668,1.668,0,1,1,.4-3.312l6.115.73a1.668,1.668,0,0,1-.195,3.324Z" fill="#70cacd"/>
          </g>
          <g id="Grupo_62162" data-name="Grupo 62162">
            <path id="Trazado_138357" data-name="Trazado 138357" d="M358.62,130.841a1.666,1.666,0,0,1-1.486-.909l-2.8-5.483a1.668,1.668,0,1,1,2.969-1.519l2.8,5.483a1.668,1.668,0,0,1-1.483,2.428Z" fill="#70cacd"/>
            <path id="Trazado_138358" data-name="Trazado 138358" d="M347.66,139.353a1.661,1.661,0,0,1-1.184-.493l-4.336-4.375a1.668,1.668,0,1,1,2.37-2.347l4.335,4.374a1.667,1.667,0,0,1-1.185,2.841Z" fill="#70cacd"/>
            <path id="Trazado_138359" data-name="Trazado 138359" d="M341.142,149.812a1.633,1.633,0,0,1-.423-.055l-5.958-1.56a1.668,1.668,0,0,1,.845-3.227l5.958,1.561a1.668,1.668,0,0,1-.422,3.281Z" fill="#70cacd"/>
            <path id="Trazado_138360" data-name="Trazado 138360" d="M333.424,160.041a1.668,1.668,0,0,1-.028-3.336l6.158-.108h.03a1.668,1.668,0,0,1,.028,3.335l-6.158.108Z" fill="#70cacd"/>
            <path id="Trazado_138361" data-name="Trazado 138361" d="M338.878,186.086a1.668,1.668,0,0,1-1.038-2.974l4.826-3.827a1.668,1.668,0,1,1,2.073,2.613l-4.825,3.827A1.664,1.664,0,0,1,338.878,186.086Z" fill="#70cacd"/>
            <path id="Trazado_138362" data-name="Trazado 138362" d="M348.029,196.252a1.667,1.667,0,0,1-1.3-2.708l3.841-4.815a1.668,1.668,0,0,1,2.607,2.081l-3.841,4.814A1.665,1.665,0,0,1,348.029,196.252Z" fill="#70cacd"/>
            <path id="Trazado_138363" data-name="Trazado 138363" d="M334.071,173.637a1.668,1.668,0,0,1-.561-3.239l5.8-2.071a1.668,1.668,0,0,1,1.122,3.142l-5.8,2.071A1.673,1.673,0,0,1,334.071,173.637Z" fill="#70cacd"/>
          </g>
        </g>
        <g id="Grupo_62164" data-name="Grupo 62164">
          <path id="Trazado_138364" data-name="Trazado 138364" d="M190.638,161.292a5.648,5.648,0,0,1-1.262-5.815l1.463-4.211a19.219,19.219,0,0,1,3.971-7.2c2.78-3.211,7.964-7.124,16.881-7.538,7.6-.352,9.221-6.27,9.487-7.585a5.94,5.94,0,0,1,.366-1.3,12.173,12.173,0,0,0-3.536-13.288,12.75,12.75,0,0,0-20.648,5.617A5.474,5.474,0,0,1,193,123.71a6.249,6.249,0,0,1-7.192-8.131,25.035,25.035,0,0,1,47.453,15.966,21.909,21.909,0,0,1-20.995,17.325c-8.1.375-9.476,5.505-9.488,5.557a6,6,0,0,1-.191.669l-1.426,4.105A6.237,6.237,0,0,1,190.638,161.292Z" fill="#f5efdb"/>
          <circle id="Elipse_1852" data-name="Elipse 1852" cx="6.795" cy="6.795" r="6.795" transform="translate(183.991 164.322)" fill="#f5efdb"/>
        </g>
        <g id="Grupo_62165" data-name="Grupo 62165">
          <path id="Trazado_138365" data-name="Trazado 138365" d="M139.428,188.893a7.576,7.576,0,0,1-7.406-2.976l-3.575-4.792a25.776,25.776,0,0,1-5-9.827c-1.473-5.5-1.917-14.2,4.334-24.417,5.326-8.7-.023-14.957-1.284-16.243a8,8,0,0,1-1.171-1.387,16.327,16.327,0,0,0-17.416-6.073,17.1,17.1,0,0,0-9.3,27.155,7.34,7.34,0,0,1,.868,7.657c-3.071,6.481-10.861,6.67-14.442,1.868a33.582,33.582,0,0,1,53.44-40.678c5.759,5.887,13.268,20.292,3.438,36.351-5.675,9.271-1.017,14.666-.969,14.718a8.009,8.009,0,0,1,.6.715l3.485,4.673A8.367,8.367,0,0,1,139.428,188.893Z" fill="#f5efdb"/>
          <circle id="Elipse_1853" data-name="Elipse 1853" cx="9.114" cy="9.114" r="9.114" transform="translate(141.335 187.008)" fill="#f5efdb"/>
        </g>
        <g id="Grupo_62168" data-name="Grupo 62168">
          <circle id="Elipse_1854" data-name="Elipse 1854" cx="17.589" cy="17.589" r="17.589" transform="translate(187.298 206.808)" fill="#383a45"/>
          <circle id="Elipse_1855" data-name="Elipse 1855" cx="17.589" cy="17.589" r="17.589" transform="translate(267.033 206.808)" fill="#383a45"/>
          <path id="Trazado_138366" data-name="Trazado 138366" d="M334.605,500s12.937-73.951,13.237-89.62-191.371,11.065-191.371,11.065L170.916,500Z" fill="#fffaef"/>
          <path id="Trazado_138367" data-name="Trazado 138367" d="M165.47,438.105s-17.589-80.124,31.268-94.781,42.282-42.956,17.588-75.063c-44.076-57.307,40.525-116.213,59.6-80.3,38.861,73.139,1.57,77.881-6.9,102.636-10.2,29.815-3.409,37.062,28.478,47.454C342.06,353.221,332,438.105,332,438.105Z" fill="#f6bc9f"/>
          <path id="Trazado_138368" data-name="Trazado 138368" d="M225.557,328.019s-.435,31.2,24.393,27.722c20.695-2.9,21.234-28.823,21.234-28.823s25.628,8.189,35.216,13.346,57.362,29.6,36,97.841H165.47s-15.06-36.308,0-68.9C182.433,332.493,215.99,335.939,225.557,328.019Z" fill="#fffaef"/>
          <path id="Trazado_138369" data-name="Trazado 138369" d="M209.467,369.347s26.774,93.32,105.689,31.32V500H211.541Z" fill="#d6ece1"/>
          <path id="Trazado_138370" data-name="Trazado 138370" d="M207.75,244.994c1.629,7.255,1.619,17.264-4.138,17.264S186.9,250.751,186.9,244.994a10.423,10.423,0,0,1,10.423-10.423C203.084,234.571,206.489,239.377,207.75,244.994Z" fill="#f6bc9f"/>
          <path id="Trazado_138371" data-name="Trazado 138371" d="M285.554,244.994c-1.629,7.255-1.619,17.264,4.138,17.264S306.4,250.751,306.4,244.994a10.424,10.424,0,0,0-10.423-10.423C290.22,234.571,286.814,239.377,285.554,244.994Z" fill="#f6bc9f"/>
          <path id="Trazado_138372" data-name="Trazado 138372" d="M233.114,312.326s19.81,6.136,30.189-8.632c0,0,3.078-14.4,3.947-16.138s-.869,1.737-.869,1.737H225.557S234.157,299.311,233.114,312.326Z" fill="#e9946f"/>
          <path id="Trazado_138373" data-name="Trazado 138373" d="M211.659,211.119s-9.88,47.882,6.189,62.214,14.687-16.94,31.27-17.578c11.291-.435,16.229,28.89,33.1,10.485,11.039-12.042-.253-59.432-.253-59.432l9.489,6.265s11.317,83.424-41.673,87.257c-54.044,3.908-52.772-79.3-48.123-88.886C201.658,211.444,207.75,206.776,211.659,211.119Z" fill="#383a45"/>
          <circle id="Elipse_1856" data-name="Elipse 1856" cx="3.692" cy="3.692" r="3.692" transform="translate(225.122 232.513)" fill="#383a45"/>
          <circle id="Elipse_1857" data-name="Elipse 1857" cx="3.692" cy="3.692" r="3.692" transform="translate(267.493 230.879)" fill="#383a45"/>
          <path id="Trazado_138374" data-name="Trazado 138374" d="M249.679,255.619a1.436,1.436,0,0,1-.3-.033c-3.089-.662-4.754-7.507-5.057-8.872l1.952-.433c.667,3,2.018,6.328,3.147,7.164.643-2.229-.105-11.768-1.252-20l1.98-.277c1.039,7.452,2.487,20.225.516,22.057A1.444,1.444,0,0,1,249.679,255.619Z" fill="#383a45"/>
          <circle id="Elipse_1858" data-name="Elipse 1858" cx="5.212" cy="5.212" r="5.212" transform="translate(216.436 248.414)" fill="#e9946f"/>
          <circle id="Elipse_1859" data-name="Elipse 1859" cx="5.212" cy="5.212" r="5.212" transform="translate(268.965 248.414)" fill="#e9946f"/>
          <path id="Trazado_138375" data-name="Trazado 138375" d="M198.775,256.065c-.559-8.7-2.422-10.449-3.2-10.8a1.547,1.547,0,0,0-1.477.23l-1.264-1.55a3.511,3.511,0,0,1,3.519-.523c2.5,1.081,3.943,5.174,4.415,12.511Z" fill="#383a45"/>
          <path id="Trazado_138376" data-name="Trazado 138376" d="M293.359,256.065l-2-.128c.472-7.337,1.916-11.43,4.415-12.511a3.515,3.515,0,0,1,3.519.523l-1.265,1.55a1.545,1.545,0,0,0-1.475-.23C295.781,245.616,293.919,247.361,293.359,256.065Z" fill="#383a45"/>
          <path id="Trazado_138377" data-name="Trazado 138377" d="M211.659,211.119s12.659-13.332,25.105-11.167,16.484,23.287,47.2,16.649c0,0-17.956-6.855-28.088-14.913S234.986,172.774,211.659,211.119Z" fill="#e9946f"/>
          <path id="Trazado_138378" data-name="Trazado 138378" d="M211.659,211.119s14.658-24.755,27.687-20.847,33.332,33.893,50.379,24.6c0,0-1.187-47.178-45.16-45.224S199.219,226.429,211.659,211.119Z" fill="#383a45"/>
          <path id="Trazado_138379" data-name="Trazado 138379" d="M247.579,365.5c-27.928,0-31-29.219-31.028-29.517l1-.093c.028.292,3.085,29.179,30.785,28.6,27.718-.526,30.532-32.514,30.558-32.837l1,.078c-.026.332-2.9,33.216-31.536,33.759C248.092,365.5,247.833,365.5,247.579,365.5Z" fill="#d6ece1"/>
          <path id="Trazado_138380" data-name="Trazado 138380" d="M191.867,231.379l-.034-1c.066,0,6.613-.287,10.716-5.267,3.014-3.657,4-8.9,2.942-15.59l.987-.157c1.11,6.989.045,12.5-3.165,16.392C198.916,231.086,192.152,231.37,191.867,231.379Z" fill="#547984"/>
          <path id="Trazado_138381" data-name="Trazado 138381" d="M187.3,224.9l-.008-1a21.729,21.729,0,0,0,8.577-2.211c5.623-2.852,8.488-7.858,8.517-14.88l1,0C205.315,224.553,187.482,224.9,187.3,224.9Z" fill="#547984"/>
          <path id="Trazado_138382" data-name="Trazado 138382" d="M295.042,228.49a3.938,3.938,0,0,1-1.347-.235c-5.662-2.044-6.406-16.964-6.434-17.6l1-.046c.007.149.738,14.886,5.776,16.7,1.763.635,3.942-.46,6.482-3.253l.74.673C298.982,227.232,296.9,228.49,295.042,228.49Z" fill="#547984"/>
          <path id="Trazado_138383" data-name="Trazado 138383" d="M237.957,227.242a19.035,19.035,0,0,1-7.593,2.95c-4.288.592-16.761.149-17.986.318S222.448,218.928,237.957,227.242Z" fill="#383a45"/>
          <path id="Trazado_138384" data-name="Trazado 138384" d="M258.237,222.967s11.777-9.133,16.647-6.395c5.249,2.952,4.8,6.395,4.8,6.395s-7.455-1.926-8.4-1.51C267.042,223.328,261.85,225.829,258.237,222.967Z" fill="#383a45"/>
          <path id="Trazado_138385" data-name="Trazado 138385" d="M261.263,281.482s-6.235-21.826-13.293-20.383-12.679,16.956-10.5,23.81S261.593,291.943,261.263,281.482Z" fill="#f6bc9f"/>
          <path id="Trazado_138386" data-name="Trazado 138386" d="M242.2,274.974l-1.49-1.333c.244-.274,6.042-6.648,11.157-6.564a5.459,5.459,0,0,1,4.254,2.156l-1.555,1.258a3.5,3.5,0,0,0-2.747-1.415h-.1C248.244,269.075,243.679,273.32,242.2,274.974Z" fill="#383a45"/>
          <path id="Trazado_138387" data-name="Trazado 138387" d="M252.995,275.256a9.957,9.957,0,0,0-6.362-.025l-.761-1.849a11.92,11.92,0,0,1,7.75-.025Z" fill="#383a45"/>
          <path id="Trazado_138388" data-name="Trazado 138388" d="M222.477,176.986s10.679-6.976,21.5.96,31.912,39.187,43.193,22.57c0,0-5.134-20.6-21.007-26.365S238.493,168.089,222.477,176.986Z" fill="#4b6d79" opacity="0.3"/>
          <path id="Trazado_138389" data-name="Trazado 138389" d="M280.83,214.807c-3.811,0-8.15-4.613-13.56-10.363-5.315-5.65-11.93-12.682-19.86-17.041-19.509-10.724-37.09,20.59-37.265,20.908l-.875-.484c.18-.327,18.241-32.508,38.622-21.3,8.068,4.435,14.743,11.531,20.106,17.232,5.546,5.894,9.908,10.55,13.385,10.005,1.657-.261,3.11-1.751,4.441-4.556l.9.428c-1.485,3.127-3.182,4.8-5.191,5.116A4.526,4.526,0,0,1,280.83,214.807Z" fill="#547984"/>
          <path id="Trazado_138390" data-name="Trazado 138390" d="M281.231,209.957c-4.3,0-7.125-3.87-11.226-9.491a97.91,97.91,0,0,0-15.981-17.992c-6.215-5.356-12.529-7.309-18.773-5.809-16.293,3.918-27.137,30.068-27.245,30.332l-.926-.378a87.423,87.423,0,0,1,7.567-13.894c4.434-6.6,11.567-14.915,20.369-17.032,6.575-1.581,13.188.445,19.661,6.023a98.816,98.816,0,0,1,16.136,18.16c5.917,8.112,8.622,11.813,16.682,6.792l.529.849C285.314,209.2,283.129,209.957,281.231,209.957Z" fill="#547984"/>
          <path id="Trazado_138391" data-name="Trazado 138391" d="M285.589,204.71c-.073,0-.149,0-.225-.006-2.664-.137-7.36-2.81-14.607-14.774-12.343-20.378-29.795-17.361-33.169-16.548l-.234-.973c3.491-.839,21.554-3.97,34.258,17,7.356,12.144,11.779,14.167,13.761,14.292a2.357,2.357,0,0,0,1.99-.689l.795.607A3.249,3.249,0,0,1,285.589,204.71Z" fill="#547984"/>
          <path id="Trazado_138392" data-name="Trazado 138392" d="M220.358,204.21s-8.641,7.188-8.7,21.757.818,51.806,17.155,49.421c0,0-5.46,6.6-12.824-4.929s-11.849-33.022-4.331-59.34C211.659,211.119,218.562,202.245,220.358,204.21Z" fill="#e9946f"/>
          <path id="Trazado_138393" data-name="Trazado 138393" d="M285.31,331.7S282.7,486.134,283.967,500h52.094s16.774-98.8,11.151-122.32C339.333,344.71,285.31,331.7,285.31,331.7Z" fill="#383a45"/>
          <path id="Trazado_138394" data-name="Trazado 138394" d="M214.389,332.822S223.745,486.134,222.477,500H170.916s-24.052-98.8-18.429-122.32C160.367,344.71,214.389,332.822,214.389,332.822Z" fill="#383a45"/>
          <path id="Trazado_138395" data-name="Trazado 138395" d="M163.967,462.953l.119-1.718c.016-.217,1.823-21.984,27.526-35.894l.476.879c-20.976,11.352-25.729,27.938-26.744,33.326,8.288-9.4,33.751-25.519,34.887-26.235l.533.845c-.291.184-29.19,18.473-35.776,27.411Z" fill="#547984"/>
          <path id="Trazado_138396" data-name="Trazado 138396" d="M211.834,436.959c-12.814-27.249-20.4-60.98-20.472-61.318l.976-.217c.075.336,7.635,33.963,20.4,61.109Z" fill="#547984"/>
          <path id="Trazado_138397" data-name="Trazado 138397" d="M300.8,446.572s-76.754,42.088-104.705,44.149-31.507-29.45-31.507-29.45,34.766-17.4,53-25.329c0,0,41.073-11.715,86.816-10.162C304.4,425.78,310.121,438.81,300.8,446.572Z" fill="#f6bc9f"/>
          <path id="Trazado_138398" data-name="Trazado 138398" d="M197.471,445.207s-25.584,11.492-24.214,22.909,8.682,23.436,30.6,17.322,83.913-41.325,99.721-41.913l.823,3.066s-34.1,16.244-49.574,23.217-77.462,52.589-90.238-8.537C164.586,461.271,170.087,458.894,197.471,445.207Z" fill="#e9946f"/>
          <g id="Grupo_62167" data-name="Grupo 62167">
            <g id="Grupo_62166" data-name="Grupo 62166">
              <path id="Trazado_138399" data-name="Trazado 138399" d="M321.663,318.189s-19.637-34.152-28.7-37.912-29.984,4.039-29.984,4.039l2.757,6.991s26.736-13.151,31.547,7.033c0,0-15.213-3.639-21.791,3.668-6.857,7.616-6.406,19.421-6.406,19.421l8.083,1.645s-2.971-18.43,15.151-19.125c0,0-15.341,1.782-11.463,22.191l7.164,2.019s-2.343-20.68,10.17-20.033c0,0-13.276,3.52-6.131,20.364l6.632-.594s-5.509-12.357,1.827-14.484c0,0-.976,14.484,8.994,23.008,0,0-4.266,38.5-6.228,63-2.421,30.215-15.914,109.012,44.231,75.008h0S338.74,346.035,321.663,318.189Z" fill="#f6bc9f"/>
              <path id="Trazado_138400" data-name="Trazado 138400" d="M266.68,289.943l-.457-.888c2.255-1.162,4.767-2.735,5.143-3.35-.553-.311-3.683-.517-6.363-.474l-.016-1c4.6-.079,7.088.326,7.376,1.191C272.476,285.759,272.817,286.782,266.68,289.943Z" fill="#383a45"/>
              <rect id="Rectngulo_18720" data-name="Rectngulo 18720" width="0.999" height="5.224" transform="translate(280.089 280.327) rotate(-5.826)" fill="#383a45"/>
              <rect id="Rectngulo_18721" data-name="Rectngulo 18721" width="1.001" height="5.743" transform="translate(282.314 280.313) rotate(-4.232)" fill="#383a45"/>
              <rect id="Rectngulo_18722" data-name="Rectngulo 18722" width="5.224" height="0.999" transform="translate(284.649 285.423) rotate(-84.167)" fill="#383a45"/>
              <path id="Trazado_138401" data-name="Trazado 138401" d="M275.677,321.125l-1-.029c.079-2.652-.175-7.161-1.192-7.974-.6.083-1.723,3.24-2.378,6.6l-.982-.192c.31-1.585,1.437-6.8,2.982-7.369a1,1,0,0,1,1,.181C275.81,313.7,275.713,319.9,275.677,321.125Z" fill="#383a45"/>
              <path id="Trazado_138402" data-name="Trazado 138402" d="M286.177,325.68l-1-.018c.04-2.285-.359-5.8-1.338-6.088a.236.236,0,0,0-.229.04c-.687.494-1.084,3.107-1.145,4.8l-1-.037c.028-.764.233-4.621,1.56-5.577a1.221,1.221,0,0,1,1.1-.188C286.186,319.222,286.2,324.606,286.177,325.68Z" fill="#383a45"/>
              <path id="Trazado_138403" data-name="Trazado 138403" d="M292.709,327.157c-.148-2.584-.062-5.723,1.189-6.007.7-.155,1.587.3,3.355,4.626l-.926.379c-1.53-3.75-2.182-4.009-2.252-4.027-.3.266-.5,2.6-.368,4.973Z" fill="#383a45"/>
              <path id="Trazado_138404" data-name="Trazado 138404" d="M281.512,304.97a24.648,24.648,0,0,0-2.181-3.252l.787-.617a25.2,25.2,0,0,1,2.3,3.445Z" fill="#383a45"/>
              <path id="Trazado_138405" data-name="Trazado 138405" d="M279.814,305.678a11.471,11.471,0,0,0-2.582-2.879l.661-.75c.624.549,2.676,2.417,2.9,3.412Z" fill="#383a45"/>
              <path id="Trazado_138406" data-name="Trazado 138406" d="M289.075,310.424a24.751,24.751,0,0,0-3.733-1.186l.232-.972a25.244,25.244,0,0,1,3.945,1.261Z" fill="#383a45"/>
              <path id="Trazado_138407" data-name="Trazado 138407" d="M288.188,312.035a11.524,11.524,0,0,0-3.813-.643l.049-1c.83.04,3.6.223,4.393.864Z" fill="#383a45"/>
              <path id="Trazado_138408" data-name="Trazado 138408" d="M296.594,314.183a21.692,21.692,0,0,0-3.467-.849l.162-.986a21.92,21.92,0,0,1,3.7.915Z" fill="#383a45"/>
              <path id="Trazado_138409" data-name="Trazado 138409" d="M295.623,315.716a10.879,10.879,0,0,0-3.553-.329l-.019-1c.791-.02,3.437-.027,4.176.532Z" fill="#383a45"/>
            </g>
            <path id="Trazado_138410" data-name="Trazado 138410" d="M308.357,347.105s-11.518,107.973,4.182,121.536,34.551,0,34.551,0l.427,5.783s-34.34,27.027-44.62-9.418C295,437.005,308.357,347.105,308.357,347.105Z" fill="#e9946f"/>
          </g>
        </g>
        <circle id="Elipse_1860" data-name="Elipse 1860" cx="7.48" cy="7.48" r="7.48" transform="translate(304.356 266.514)" fill="#f5efdb"/>
      </g>
      <circle id="Elipse_1214" data-name="Elipse 1214" cx="8.13" cy="8.13" r="8.13" transform="translate(876.76 1650.523) rotate(180)" fill="#a0a603"/>
      <circle id="Elipse_1861" data-name="Elipse 1861" cx="8.13" cy="8.13" r="8.13" transform="translate(812.76 1716.523) rotate(180)" fill="#a0a603"/>
      <circle id="Elipse_1862" data-name="Elipse 1862" cx="8.13" cy="8.13" r="8.13" transform="translate(834.76 1780.523) rotate(180)" fill="#a0a603"/>
      <line id="Lnea_584" data-name="Lnea 584" x2="458.24" transform="translate(882.26 1642.287)" fill="none" stroke="#a0a603" stroke-width="1" stroke-dasharray="2"/>
      <line id="Lnea_877" data-name="Lnea 877" x2="536" transform="translate(804.5 1708.287)" fill="none" stroke="#a0a603" stroke-width="1" stroke-dasharray="2"/>
      <line id="Lnea_878" data-name="Lnea 878" x2="514" transform="translate(826.5 1772.287)" fill="none" stroke="#a0a603" stroke-width="1" stroke-dasharray="2"/>
    </g>
  </g>
</svg>
