<svg xmlns="http://www.w3.org/2000/svg" width="133.888" height="153" viewBox="0 0 133.888 153">
  <g id="Grupo_63842" data-name="Grupo 63842" transform="translate(-511.112 -4969.5)">
    <line id="Línea_613" data-name="Línea 613" y2="153" transform="translate(643.5 4969.5)" fill="none" stroke="#707070" stroke-width="3" stroke-dasharray="5" opacity="0.5"/>
    <g id="Grupo_63253" data-name="Grupo 63253" transform="translate(-1198.359 4048.006)">
      <g id="Grupo_63229" data-name="Grupo 63229" transform="translate(1754.828 983.45)">
        <rect id="Rectángulo_19103" data-name="Rectángulo 19103" width="74.684" height="19.57" transform="translate(0 49.417) rotate(-41.429)" fill="#4cbf9c"/>
      </g>
      <g id="Grupo_63230" data-name="Grupo 63230" transform="translate(1754.828 994.492)">
        <path id="Trazado_140785" data-name="Trazado 140785" d="M1978.207,1195.372c0-.143,0-.286-.005-.429l-43.485,38.376,4.671,5.293A43.5,43.5,0,0,0,1978.207,1195.372Z" transform="translate(-1934.717 -1194.943)" fill="#3eaf89"/>
      </g>
      <g id="Grupo_63249" data-name="Grupo 63249" transform="translate(1709.471 943.951)">
        <g id="Grupo_63245" data-name="Grupo 63245" transform="translate(0 0)">
          <g id="Grupo_63231" data-name="Grupo 63231" transform="translate(2.158 1.964)">
            <circle id="Elipse_1909" data-name="Elipse 1909" cx="43.49" cy="43.49" r="43.49" fill="#ffce33"/>
          </g>
          <g id="Grupo_63232" data-name="Grupo 63232" transform="translate(12.122 11.929)">
            <circle id="Elipse_1910" data-name="Elipse 1910" cx="33.526" cy="33.526" r="33.526" fill="#ffc001"/>
          </g>
          <g id="Grupo_63233" data-name="Grupo 63233" transform="translate(0)">
            <circle id="Elipse_1911" data-name="Elipse 1911" cx="33.526" cy="33.526" r="33.526" transform="translate(0 47.412) rotate(-45)" fill="#fd3"/>
          </g>
          <g id="Grupo_63234" data-name="Grupo 63234" transform="translate(12.122 11.929)">
            <circle id="Elipse_1912" data-name="Elipse 1912" cx="33.526" cy="33.526" r="33.526" fill="#ffb103"/>
          </g>
          <g id="Grupo_63235" data-name="Grupo 63235" transform="translate(17.545 17.351)">
            <circle id="Elipse_1913" data-name="Elipse 1913" cx="28.103" cy="28.103" r="28.103" fill="#ffb103"/>
          </g>
          <g id="Grupo_63236" data-name="Grupo 63236" transform="translate(12.122 11.929)">
            <path id="Trazado_140786" data-name="Trazado 140786" d="M1773.2,1039.489a33.528,33.528,0,0,1,52.413-27.7,33.526,33.526,0,1,0-41.3,52.628A33.441,33.441,0,0,1,1773.2,1039.489Z" transform="translate(-1769.671 -1003.19)" fill="#eba303"/>
          </g>
          <g id="Grupo_63239" data-name="Grupo 63239" transform="translate(15.896 18.438)" opacity="0.2">
            <g id="Grupo_63237" data-name="Grupo 63237">
              <path id="Trazado_140787" data-name="Trazado 140787" d="M1792.615,1077.976l49.137-33.665a29.943,29.943,0,0,0-11.048-8.8l-42.292,28.976A29.655,29.655,0,0,0,1792.615,1077.976Z" transform="translate(-1788.412 -1035.516)" fill="#ffec7d"/>
            </g>
            <g id="Grupo_63238" data-name="Grupo 63238" transform="translate(6.923 12.7)">
              <path id="Trazado_140788" data-name="Trazado 140788" d="M1871.782,1098.585l-48.989,33.563a29.991,29.991,0,0,0,6.237,5.6l45.721-31.325A29.637,29.637,0,0,0,1871.782,1098.585Z" transform="translate(-1822.794 -1098.585)" fill="#ffec7d"/>
            </g>
          </g>
          <g id="Grupo_63241" data-name="Grupo 63241" transform="translate(35.468 23.084)">
            <g id="Grupo_63240" data-name="Grupo 63240">
              <path id="Trazado_140789" data-name="Trazado 140789" d="M1904.217,1081.736a9.394,9.394,0,0,1,3.4,2.318,7.036,7.036,0,0,1,1.8,4.05,7.97,7.97,0,0,1-2.188,6.769,14.155,14.155,0,0,1-7.689,3.935l.044,5.519a1.816,1.816,0,0,1-.634,1.407,2.774,2.774,0,0,1-1.518.677,1.979,1.979,0,0,1-1.42-.294,1.4,1.4,0,0,1-.586-1.249l0-5.637a11.84,11.84,0,0,1-6.75-1.825,6.539,6.539,0,0,1-3.007-4.681,4.221,4.221,0,0,1,.607-3.123,3.2,3.2,0,0,1,2.246-1.365,2.578,2.578,0,0,1,2.152.508,5.066,5.066,0,0,1,1.261,2.316,3.771,3.771,0,0,0,1.249,2.008,4.283,4.283,0,0,0,2.29.913l.023-8.459a29.354,29.354,0,0,1-4.623-1.511,9.349,9.349,0,0,1-3.37-2.491,7.974,7.974,0,0,1-1.774-4.306,8.268,8.268,0,0,1,2.236-7.057,13.659,13.659,0,0,1,7.495-3.91l-.059-5.63a1.589,1.589,0,0,1,.554-1.369,2.662,2.662,0,0,1,1.439-.639,2.2,2.2,0,0,1,1.475.287,1.282,1.282,0,0,1,.634,1.186l-.031,5.811a10.539,10.539,0,0,1,5.917,1.708,6.188,6.188,0,0,1,2.666,4.444,3.71,3.71,0,0,1-.6,2.926,3.409,3.409,0,0,1-2.292,1.23,2.666,2.666,0,0,1-2.007-.471,2.771,2.771,0,0,1-1.057-1.835,3.212,3.212,0,0,0-2.615-2.759l-.047,9.139A37.747,37.747,0,0,1,1904.217,1081.736Zm-11.132-3.874a8.241,8.241,0,0,0,2.43,1.346l-.056-7.772a4.969,4.969,0,0,0-2.736,1.71,3.687,3.687,0,0,0-.678,2.794A2.941,2.941,0,0,0,1893.085,1077.862Zm9.237,14.185a3,3,0,0,0,.746-2.493,2.729,2.729,0,0,0-1.057-1.835,7.957,7.957,0,0,0-2.559-1.244l.032,7.156A5.756,5.756,0,0,0,1902.322,1092.047Z" transform="translate(-1885.609 -1058.588)" fill="#eba303"/>
            </g>
          </g>
          <g id="Grupo_63244" data-name="Grupo 63244" transform="translate(33.703 22.461)">
            <g id="Grupo_63243" data-name="Grupo 63243">
              <g id="Grupo_63242" data-name="Grupo 63242">
                <path id="Trazado_140790" data-name="Trazado 140790" d="M1895.454,1078.642a9.4,9.4,0,0,1,3.4,2.318,7.038,7.038,0,0,1,1.8,4.05,7.969,7.969,0,0,1-2.189,6.769,14.154,14.154,0,0,1-7.689,3.935l.044,5.519a1.816,1.816,0,0,1-.634,1.407,2.775,2.775,0,0,1-1.518.677,1.98,1.98,0,0,1-1.419-.294,1.4,1.4,0,0,1-.586-1.249l0-5.637a11.839,11.839,0,0,1-6.75-1.825,6.538,6.538,0,0,1-3.008-4.681,4.22,4.22,0,0,1,.607-3.123,3.2,3.2,0,0,1,2.246-1.365,2.579,2.579,0,0,1,2.152.509,5.064,5.064,0,0,1,1.261,2.316,3.771,3.771,0,0,0,1.249,2.007,4.282,4.282,0,0,0,2.29.913l.023-8.459a29.366,29.366,0,0,1-4.623-1.511,9.349,9.349,0,0,1-3.369-2.491,7.974,7.974,0,0,1-1.774-4.306,8.268,8.268,0,0,1,2.236-7.057,13.659,13.659,0,0,1,7.5-3.91l-.059-5.63a1.589,1.589,0,0,1,.554-1.369,2.662,2.662,0,0,1,1.439-.639,2.2,2.2,0,0,1,1.475.286,1.283,1.283,0,0,1,.634,1.186l-.031,5.811a10.54,10.54,0,0,1,5.917,1.708,6.187,6.187,0,0,1,2.666,4.444,3.71,3.71,0,0,1-.6,2.926,3.409,3.409,0,0,1-2.292,1.229,2.666,2.666,0,0,1-2.007-.471,2.77,2.77,0,0,1-1.057-1.835,3.213,3.213,0,0,0-2.615-2.759l-.047,9.139A37.76,37.76,0,0,1,1895.454,1078.642Zm-11.133-3.874a8.25,8.25,0,0,0,2.43,1.346l-.056-7.772a4.969,4.969,0,0,0-2.736,1.71,3.688,3.688,0,0,0-.678,2.794A2.941,2.941,0,0,0,1884.322,1074.768Zm9.237,14.185a3,3,0,0,0,.746-2.493,2.729,2.729,0,0,0-1.057-1.835,7.96,7.96,0,0,0-2.559-1.245l.032,7.156A5.756,5.756,0,0,0,1893.559,1088.953Z" transform="translate(-1876.846 -1055.494)" fill="#fd3"/>
              </g>
            </g>
          </g>
        </g>
        <g id="Grupo_63246" data-name="Grupo 63246" transform="translate(54.397 7.053)">
          <path id="Trazado_140791" data-name="Trazado 140791" d="M1992.966,985.39c-3.739-1.117-4.984-2.362-6.1-6.1a.438.438,0,0,0-.839,0c-1.117,3.74-2.362,4.984-6.1,6.1a.438.438,0,0,0,0,.839c3.739,1.117,4.984,2.362,6.1,6.1a.438.438,0,0,0,.839,0c1.117-3.739,2.362-4.984,6.1-6.1A.438.438,0,0,0,1992.966,985.39Z" transform="translate(-1979.612 -978.975)" fill="#fff"/>
        </g>
        <g id="Grupo_63247" data-name="Grupo 63247" transform="translate(15.985 61.946)">
          <path id="Trazado_140792" data-name="Trazado 140792" d="M1802.21,1258c-3.739-1.117-4.984-2.362-6.1-6.1a.438.438,0,0,0-.839,0c-1.117,3.74-2.362,4.984-6.1,6.1a.438.438,0,0,0,0,.839c3.74,1.117,4.984,2.362,6.1,6.1a.438.438,0,0,0,.839,0c1.117-3.739,2.362-4.984,6.1-6.1A.438.438,0,0,0,1802.21,1258Z" transform="translate(-1788.855 -1251.581)" fill="#fff"/>
        </g>
        <g id="Grupo_63248" data-name="Grupo 63248" transform="translate(65.14 21.153)">
          <path id="Trazado_140793" data-name="Trazado 140793" d="M2039.787,1052.279a3.775,3.775,0,0,1-3.118-3.118.224.224,0,0,0-.429,0,3.775,3.775,0,0,1-3.118,3.118.224.224,0,0,0,0,.429,3.775,3.775,0,0,1,3.118,3.118.224.224,0,0,0,.429,0,3.775,3.775,0,0,1,3.118-3.118A.224.224,0,0,0,2039.787,1052.279Z" transform="translate(-2032.962 -1049.001)" fill="#fff"/>
        </g>
      </g>
      <g id="Grupo_63250" data-name="Grupo 63250" transform="translate(1754.828 1025.57)">
        <path id="Trazado_140794" data-name="Trazado 140794" d="M1951.413,1349.279l-3.746,21.971-12.949-14.673Z" transform="translate(-1934.717 -1349.279)" fill="#33a683"/>
      </g>
      <g id="Grupo_63251" data-name="Grupo 63251" transform="translate(1722.505 1010.896)">
        <rect id="Rectángulo_19104" data-name="Rectángulo 19104" width="48.107" height="19.57" transform="translate(0 31.832) rotate(-41.429)" fill="#4cbf9c"/>
      </g>
      <g id="Grupo_63252" data-name="Grupo 63252" transform="translate(1797.685 979.124)">
        <path id="Trazado_140795" data-name="Trazado 140795" d="M2147.551,1118.969l28.031,32,4.643-32.345Z" transform="translate(-2147.551 -1118.625)" fill="#4cbf9c"/>
      </g>
    </g>
  </g>
</svg>
