<svg xmlns="http://www.w3.org/2000/svg" width="1076" height="103" viewBox="0 0 1076 103">
  <g id="Grupo_63838" data-name="Grupo 63838" transform="translate(-422 -3516)">
    <g id="Grupo_63149" data-name="Grupo 63149">
      <rect id="Rectángulo_18737" data-name="Rectángulo 18737" width="161" height="82" rx="12" transform="translate(435 3526)" fill="#a0a603" opacity="0.07"/>
      <rect id="Rectángulo_18742" data-name="Rectángulo 18742" width="162" height="82" rx="7" transform="translate(659 3526)" fill="#a0a603" opacity="0.07"/>
      <rect id="Rectángulo_18744" data-name="Rectángulo 18744" width="162" height="82" rx="10" transform="translate(883 3526)" fill="#a0a603" opacity="0.07"/>
      <rect id="Rectángulo_18746" data-name="Rectángulo 18746" width="156" height="82" rx="10" transform="translate(1111 3526)" fill="#a0a603" opacity="0.07"/>
      <rect id="Rectángulo_19089" data-name="Rectángulo 19089" width="153" height="82" rx="10" transform="translate(1330 3526)" fill="#a0a603" opacity="0.07"/>
      <g id="Rectángulo_18741" data-name="Rectángulo 18741" transform="translate(422 3516)" fill="none" stroke="#6f7302" stroke-width="2" stroke-dasharray="2">
        <rect width="189" height="103" rx="11" stroke="none"/>
        <rect x="1" y="1" width="187" height="101" rx="10" fill="none"/>
      </g>
      <g id="Rectángulo_18743" data-name="Rectángulo 18743" transform="translate(648 3516)" fill="none" stroke="#6f7302" stroke-width="2" stroke-dasharray="2">
        <rect width="190" height="103" rx="10" stroke="none"/>
        <rect x="1" y="1" width="188" height="101" rx="9" fill="none"/>
      </g>
      <g id="Rectángulo_18745" data-name="Rectángulo 18745" transform="translate(870 3516)" fill="none" stroke="#6f7302" stroke-width="2" stroke-dasharray="2">
        <rect width="190" height="103" rx="8" stroke="none"/>
        <rect x="1" y="1" width="188" height="101" rx="7" fill="none"/>
      </g>
      <g id="Rectángulo_18747" data-name="Rectángulo 18747" transform="translate(1096 3516)" fill="none" stroke="#6f7302" stroke-width="2" stroke-dasharray="2">
        <rect width="184" height="103" rx="8" stroke="none"/>
        <rect x="1" y="1" width="182" height="101" rx="7" fill="none"/>
      </g>
      <g id="Rectángulo_19088" data-name="Rectángulo 19088" transform="translate(1317 3516)" fill="none" stroke="#6f7302" stroke-width="2" stroke-dasharray="2">
        <rect width="181" height="103" rx="9" stroke="none"/>
        <rect x="1" y="1" width="179" height="101" rx="8" fill="none"/>
      </g>
      <path id="Trazado_142144" data-name="Trazado 142144" d="M41.06,3.295v3.48h3.067A3.419,3.419,0,0,0,45.5,6.564a1.443,1.443,0,0,0,.809-1.459,1.61,1.61,0,0,0-.782-1.582,2.956,2.956,0,0,0-1.318-.229Zm3.709-2.25a5.92,5.92,0,0,1,2.1.334,3.275,3.275,0,0,1,1.244.905,4.011,4.011,0,0,1,.668,1.09,3.552,3.552,0,0,1,.246,1.362,3.881,3.881,0,0,1-.466,1.815,2.6,2.6,0,0,1-1.538,1.261,2.419,2.419,0,0,1,1.27,1.024,4.262,4.262,0,0,1,.374,2.026v.87a6.656,6.656,0,0,0,.07,1.2,1.082,1.082,0,0,0,.492.738V14H46.245q-.123-.431-.176-.694a6.379,6.379,0,0,1-.114-1.116l-.018-1.2a2.353,2.353,0,0,0-.453-1.652,2.4,2.4,0,0,0-1.63-.413H41.06V14H38.414V1.045ZM54.929,6.23a1.7,1.7,0,0,0-1.349.545,2.72,2.72,0,0,0-.6,1.477h3.894a2.181,2.181,0,0,0-.6-1.507A1.87,1.87,0,0,0,54.929,6.23Zm0-2.065a5.021,5.021,0,0,1,2.153.448,3.772,3.772,0,0,1,1.582,1.415,4.828,4.828,0,0,1,.729,1.978,12.771,12.771,0,0,1,.079,1.9H52.916a2.381,2.381,0,0,0,.905,2.021,2.132,2.132,0,0,0,1.248.36,1.8,1.8,0,0,0,1.257-.439,2.087,2.087,0,0,0,.466-.659H59.35a3.178,3.178,0,0,1-.888,1.731,4.349,4.349,0,0,1-3.445,1.4,4.858,4.858,0,0,1-3.226-1.178,4.75,4.75,0,0,1-1.4-3.832,5.326,5.326,0,0,1,1.261-3.814A4.312,4.312,0,0,1,54.929,4.165ZM66.882,7.856a2.223,2.223,0,0,0-.36-.967,1.511,1.511,0,0,0-1.31-.58A1.725,1.725,0,0,0,63.48,7.566a5.255,5.255,0,0,0-.246,1.775,4.832,4.832,0,0,0,.246,1.7,1.671,1.671,0,0,0,1.688,1.2,1.488,1.488,0,0,0,1.248-.475,2.362,2.362,0,0,0,.448-1.23h2.558A4.191,4.191,0,0,1,68.6,12.69a4.016,4.016,0,0,1-3.489,1.644,4.082,4.082,0,0,1-3.4-1.371,5.548,5.548,0,0,1-1.09-3.56,5.63,5.63,0,0,1,1.2-3.841,4.191,4.191,0,0,1,3.322-1.371A5,5,0,0,1,68.09,5a3.761,3.761,0,0,1,1.358,2.856ZM73.667,4.42v5.774a3.023,3.023,0,0,0,.193,1.23,1.338,1.338,0,0,0,1.345.729,1.758,1.758,0,0,0,1.758-1.037,3.754,3.754,0,0,0,.246-1.485V4.42h2.54V14H77.314V12.646q-.035.044-.176.264a1.764,1.764,0,0,1-.334.387,3.488,3.488,0,0,1-1.138.721,3.879,3.879,0,0,1-1.288.193,2.87,2.87,0,0,1-2.865-1.529,5.852,5.852,0,0,1-.413-2.487V4.42Zm13.7-.229q.07,0,.119,0l.215.013V6.775q-.237-.026-.422-.035t-.3-.009a2.078,2.078,0,0,0-2.03.984,3.829,3.829,0,0,0-.29,1.705V14H82.14V4.42H84.53V6.09a5.3,5.3,0,0,1,1.011-1.31A2.752,2.752,0,0,1,87.369,4.191Zm3.753,6.75a1.673,1.673,0,0,0,.343.949,2.317,2.317,0,0,0,1.723.5,2.626,2.626,0,0,0,1.173-.22.737.737,0,0,0,.083-1.3,14.3,14.3,0,0,0-2.61-.756A5.437,5.437,0,0,1,89.54,9.1a2.191,2.191,0,0,1-.668-1.723A2.988,2.988,0,0,1,89.914,5.1a4.183,4.183,0,0,1,2.931-.954,5.378,5.378,0,0,1,2.922.716,3.068,3.068,0,0,1,1.3,2.474h-2.5a1.482,1.482,0,0,0-.272-.765,1.714,1.714,0,0,0-1.406-.51,2.021,2.021,0,0,0-1.165.255.734.734,0,0,0-.347.6.654.654,0,0,0,.369.624,15.98,15.98,0,0,0,2.61.694A4.8,4.8,0,0,1,96.589,9.3a2.415,2.415,0,0,1,.738,1.8,2.911,2.911,0,0,1-1.059,2.325,6.354,6.354,0,0,1-6.609-.053,3.1,3.1,0,0,1-1.077-2.43Zm12.357,1.292a1.985,1.985,0,0,0,1.688-.782,3.639,3.639,0,0,0,.589-2.224,3.619,3.619,0,0,0-.589-2.219,2.224,2.224,0,0,0-3.379,0,3.6,3.6,0,0,0-.593,2.219,3.619,3.619,0,0,0,.593,2.224A2,2,0,0,0,103.479,12.233Zm4.9-3.006a5.553,5.553,0,0,1-1.213,3.608,5.274,5.274,0,0,1-7.365,0,5.553,5.553,0,0,1-1.213-3.608,5.59,5.59,0,0,1,1.213-3.595,5.22,5.22,0,0,1,7.365,0A5.59,5.59,0,0,1,108.384,9.228Zm3.744,1.714a1.673,1.673,0,0,0,.343.949,2.317,2.317,0,0,0,1.723.5,2.626,2.626,0,0,0,1.173-.22.737.737,0,0,0,.083-1.3,14.3,14.3,0,0,0-2.61-.756A5.437,5.437,0,0,1,110.546,9.1a2.191,2.191,0,0,1-.668-1.723A2.988,2.988,0,0,1,110.919,5.1a4.183,4.183,0,0,1,2.931-.954,5.378,5.378,0,0,1,2.922.716,3.068,3.068,0,0,1,1.3,2.474h-2.5a1.482,1.482,0,0,0-.272-.765,1.714,1.714,0,0,0-1.406-.51,2.021,2.021,0,0,0-1.165.255.734.734,0,0,0-.347.6.654.654,0,0,0,.369.624,15.98,15.98,0,0,0,2.61.694A4.8,4.8,0,0,1,117.595,9.3a2.415,2.415,0,0,1,.738,1.8,2.911,2.911,0,0,1-1.059,2.325,6.354,6.354,0,0,1-6.609-.053,3.1,3.1,0,0,1-1.077-2.43Z" transform="translate(438 3556)" fill="#00223d"/>
      <path id="Trazado_142145" data-name="Trazado 142145" d="M37.162,5.167a1.753,1.753,0,0,0-.532-1.441,2.308,2.308,0,0,0-1.49-.431H32.618V7.109H35.14a2.187,2.187,0,0,0,1.49-.466A1.865,1.865,0,0,0,37.162,5.167Zm2.681-.018a3.976,3.976,0,0,1-1.16,3.243,5.109,5.109,0,0,1-3.313.949H32.618V14H29.928V1.045h5.643a4.6,4.6,0,0,1,3.111,1A3.882,3.882,0,0,1,39.842,5.149Zm7.031-.958q.07,0,.119,0l.215.013V6.775q-.237-.026-.422-.035t-.3-.009a2.078,2.078,0,0,0-2.03.984,3.829,3.829,0,0,0-.29,1.705V14H41.644V4.42h2.391V6.09a5.3,5.3,0,0,1,1.011-1.31A2.752,2.752,0,0,1,46.874,4.191Zm6.1,8.042a1.985,1.985,0,0,0,1.688-.782,3.639,3.639,0,0,0,.589-2.224,3.619,3.619,0,0,0-.589-2.219,2.224,2.224,0,0,0-3.379,0,3.6,3.6,0,0,0-.593,2.219,3.619,3.619,0,0,0,.593,2.224A2,2,0,0,0,52.973,12.233Zm4.9-3.006a5.553,5.553,0,0,1-1.213,3.608,4.456,4.456,0,0,1-3.683,1.5,4.456,4.456,0,0,1-3.683-1.5,5.553,5.553,0,0,1-1.213-3.608A5.59,5.59,0,0,1,49.3,5.633a4.426,4.426,0,0,1,3.683-1.521,4.426,4.426,0,0,1,3.683,1.521A5.59,5.59,0,0,1,57.877,9.228ZM63.2,4.191a3.09,3.09,0,0,1,1.547.382,3.043,3.043,0,0,1,1.1,1.059V1.063h2.54V14H65.955V12.673a3.533,3.533,0,0,1-1.222,1.239,3.43,3.43,0,0,1-1.705.387A3.56,3.56,0,0,1,60.2,12.941a5.215,5.215,0,0,1-1.147-3.485A6,6,0,0,1,60.185,5.6,3.674,3.674,0,0,1,63.2,4.191Zm.545,8a1.849,1.849,0,0,0,1.617-.791,3.5,3.5,0,0,0,.554-2.048,3.141,3.141,0,0,0-.888-2.514,1.91,1.91,0,0,0-1.266-.457,1.759,1.759,0,0,0-1.613.831,3.848,3.848,0,0,0-.514,2.061,3.813,3.813,0,0,0,.523,2.123A1.769,1.769,0,0,0,63.749,12.189Zm9.413-7.77v5.774a3.023,3.023,0,0,0,.193,1.23,1.338,1.338,0,0,0,1.345.729,1.758,1.758,0,0,0,1.758-1.037A3.754,3.754,0,0,0,76.7,9.632V4.42h2.54V14H76.809V12.646q-.035.044-.176.264a1.764,1.764,0,0,1-.334.387,3.488,3.488,0,0,1-1.138.721,3.879,3.879,0,0,1-1.288.193,2.87,2.87,0,0,1-2.865-1.529,5.852,5.852,0,0,1-.413-2.487V4.42ZM87.382,7.856a2.223,2.223,0,0,0-.36-.967,1.511,1.511,0,0,0-1.31-.58,1.725,1.725,0,0,0-1.731,1.257,5.255,5.255,0,0,0-.246,1.775,4.832,4.832,0,0,0,.246,1.7,1.671,1.671,0,0,0,1.688,1.2,1.488,1.488,0,0,0,1.248-.475,2.362,2.362,0,0,0,.448-1.23h2.558A4.191,4.191,0,0,1,89.1,12.69a4.016,4.016,0,0,1-3.489,1.644,4.082,4.082,0,0,1-3.4-1.371,5.548,5.548,0,0,1-1.09-3.56,5.63,5.63,0,0,1,1.2-3.841,4.191,4.191,0,0,1,3.322-1.371A5,5,0,0,1,88.591,5a3.761,3.761,0,0,1,1.358,2.856Zm10.011,0a2.223,2.223,0,0,0-.36-.967,1.511,1.511,0,0,0-1.31-.58,1.725,1.725,0,0,0-1.731,1.257,5.255,5.255,0,0,0-.246,1.775,4.832,4.832,0,0,0,.246,1.7,1.671,1.671,0,0,0,1.688,1.2,1.488,1.488,0,0,0,1.248-.475,2.362,2.362,0,0,0,.448-1.23h2.558a4.191,4.191,0,0,1-.826,2.162,4.016,4.016,0,0,1-3.489,1.644,4.082,4.082,0,0,1-3.4-1.371,5.548,5.548,0,0,1-1.09-3.56,5.63,5.63,0,0,1,1.2-3.841,4.191,4.191,0,0,1,3.322-1.371A5,5,0,0,1,98.6,5a3.761,3.761,0,0,1,1.358,2.856Zm6.864-4.579h-2.54V.966h2.54Zm-2.54,1.143h2.54V14h-2.54Zm9.264,7.813a1.985,1.985,0,0,0,1.688-.782,3.639,3.639,0,0,0,.589-2.224,3.619,3.619,0,0,0-.589-2.219,2.224,2.224,0,0,0-3.379,0,3.6,3.6,0,0,0-.593,2.219,3.619,3.619,0,0,0,.593,2.224A2,2,0,0,0,110.981,12.233Zm4.9-3.006a5.553,5.553,0,0,1-1.213,3.608,5.274,5.274,0,0,1-7.365,0,5.553,5.553,0,0,1-1.213-3.608,5.59,5.59,0,0,1,1.213-3.595,5.22,5.22,0,0,1,7.365,0A5.59,5.59,0,0,1,115.885,9.228ZM113.987.5l-2.672,2.628H109.5L111.192.5Zm9,3.691a3.7,3.7,0,0,1,2.43.778,3.163,3.163,0,0,1,.945,2.58V14H123.8V8.173a2.659,2.659,0,0,0-.2-1.16,1.422,1.422,0,0,0-1.406-.738,1.744,1.744,0,0,0-1.749,1.081,3.713,3.713,0,0,0-.246,1.459V14h-2.5V4.438h2.417v1.4a4.252,4.252,0,0,1,.914-1.063A3.177,3.177,0,0,1,122.987,4.191Z" transform="translate(663 3557)" fill="#00223d"/>
      <path id="Trazado_142146" data-name="Trazado 142146" d="M16,3.295V11.75h2.5a2.7,2.7,0,0,0,2.672-1.89,6.665,6.665,0,0,0,.413-2.47,6.08,6.08,0,0,0-.62-3.037,2.616,2.616,0,0,0-2.465-1.059Zm2.953-2.25a6.809,6.809,0,0,1,2,.281A4.277,4.277,0,0,1,23.161,2.97a5.765,5.765,0,0,1,.923,2.092,10.042,10.042,0,0,1,.246,2.145,8.611,8.611,0,0,1-1.037,4.377A4.68,4.68,0,0,1,18.951,14H13.37V1.045Zm9.791,2.232H26.2V.966h2.54ZM26.2,4.42h2.54V14H26.2Zm6.917,6.521a1.673,1.673,0,0,0,.343.949,2.317,2.317,0,0,0,1.723.5,2.626,2.626,0,0,0,1.173-.22.737.737,0,0,0,.083-1.3,14.3,14.3,0,0,0-2.61-.756A5.437,5.437,0,0,1,31.537,9.1a2.191,2.191,0,0,1-.668-1.723A2.988,2.988,0,0,1,31.91,5.1a4.183,4.183,0,0,1,2.931-.954,5.378,5.378,0,0,1,2.922.716,3.068,3.068,0,0,1,1.3,2.474h-2.5a1.482,1.482,0,0,0-.272-.765,1.714,1.714,0,0,0-1.406-.51,2.021,2.021,0,0,0-1.165.255.734.734,0,0,0-.347.6.654.654,0,0,0,.369.624,15.98,15.98,0,0,0,2.61.694A4.8,4.8,0,0,1,38.585,9.3a2.415,2.415,0,0,1,.738,1.8,2.911,2.911,0,0,1-1.059,2.325,4.976,4.976,0,0,1-3.274.9,4.929,4.929,0,0,1-3.335-.954,3.1,3.1,0,0,1-1.077-2.43Zm7.075-4.649V4.508H41.53V1.836h2.479V4.508h1.556V6.292H44.008v5.063a1.14,1.14,0,0,0,.149.734,1.645,1.645,0,0,0,.914.145q.114,0,.242,0t.25-.013v1.872l-1.187.044a3.184,3.184,0,0,1-2.426-.615,1.832,1.832,0,0,1-.422-1.327v-5.9Zm12.182-2.1q.07,0,.119,0l.215.013V6.775q-.237-.026-.422-.035t-.3-.009a2.078,2.078,0,0,0-2.03.984,3.829,3.829,0,0,0-.29,1.705V14H47.146V4.42h2.391V6.09a5.3,5.3,0,0,1,1.011-1.31A2.752,2.752,0,0,1,52.375,4.191Zm4.377-.914h-2.54V.966h2.54ZM54.212,4.42h2.54V14h-2.54Zm10.143-.211a3.548,3.548,0,0,1,2.958,1.362A5.53,5.53,0,0,1,68.38,9.087a6.181,6.181,0,0,1-1.055,3.7,3.815,3.815,0,0,1-4.852.993,3.809,3.809,0,0,1-.932-.984V14H59.09V1.063h2.5V5.668a3.655,3.655,0,0,1,1.046-1.02A3.107,3.107,0,0,1,64.355,4.209Zm-.642,7.98a1.719,1.719,0,0,0,1.5-.782,3.572,3.572,0,0,0,.536-2.057,4.636,4.636,0,0,0-.264-1.687A1.837,1.837,0,0,0,63.643,6.4a1.864,1.864,0,0,0-1.872,1.239,4.651,4.651,0,0,0-.264,1.705,3.572,3.572,0,0,0,.545,2.039A1.866,1.866,0,0,0,63.713,12.189Zm8.956-7.77v5.774a3.023,3.023,0,0,0,.193,1.23,1.338,1.338,0,0,0,1.345.729,1.758,1.758,0,0,0,1.758-1.037,3.754,3.754,0,0,0,.246-1.485V4.42h2.54V14H76.317V12.646q-.035.044-.176.264a1.764,1.764,0,0,1-.334.387,3.488,3.488,0,0,1-1.138.721,3.879,3.879,0,0,1-1.288.193,2.87,2.87,0,0,1-2.865-1.529,5.852,5.852,0,0,1-.413-2.487V4.42ZM86.89,7.856a2.223,2.223,0,0,0-.36-.967,1.511,1.511,0,0,0-1.31-.58,1.725,1.725,0,0,0-1.731,1.257,5.255,5.255,0,0,0-.246,1.775,4.832,4.832,0,0,0,.246,1.7,1.671,1.671,0,0,0,1.688,1.2,1.488,1.488,0,0,0,1.248-.475,2.362,2.362,0,0,0,.448-1.23H89.43A4.191,4.191,0,0,1,88.6,12.69a4.016,4.016,0,0,1-3.489,1.644,4.082,4.082,0,0,1-3.4-1.371,5.548,5.548,0,0,1-1.09-3.56,5.63,5.63,0,0,1,1.2-3.841A4.191,4.191,0,0,1,85.15,4.191,5,5,0,0,1,88.1,5a3.761,3.761,0,0,1,1.358,2.856Zm6.864-4.579h-2.54V.966h2.54ZM91.214,4.42h2.54V14h-2.54Zm9.264,7.813a1.985,1.985,0,0,0,1.688-.782,3.639,3.639,0,0,0,.589-2.224,3.619,3.619,0,0,0-.589-2.219,2.224,2.224,0,0,0-3.379,0,3.6,3.6,0,0,0-.593,2.219,3.619,3.619,0,0,0,.593,2.224A2,2,0,0,0,100.478,12.233Zm4.9-3.006a5.553,5.553,0,0,1-1.213,3.608,5.274,5.274,0,0,1-7.365,0,5.553,5.553,0,0,1-1.213-3.608A5.59,5.59,0,0,1,96.8,5.633a5.22,5.22,0,0,1,7.365,0A5.59,5.59,0,0,1,105.382,9.228ZM103.484.5l-2.672,2.628H99L100.689.5Zm9,3.691a3.7,3.7,0,0,1,2.43.778,3.163,3.163,0,0,1,.945,2.58V14h-2.566V8.173a2.659,2.659,0,0,0-.2-1.16,1.422,1.422,0,0,0-1.406-.738,1.744,1.744,0,0,0-1.749,1.081,3.713,3.713,0,0,0-.246,1.459V14h-2.5V4.438h2.417v1.4a4.252,4.252,0,0,1,.914-1.063A3.177,3.177,0,0,1,112.484,4.191Z" transform="translate(899 3557)" fill="#00223d"/>
      <path id="Trazado_142147" data-name="Trazado 142147" d="M17.311,7.628A7.115,7.115,0,0,1,19.13,2.4,5.421,5.421,0,0,1,23.156.8a5.443,5.443,0,0,1,4.781,2.145,4.643,4.643,0,0,1,.9,2.417H26.126a3.656,3.656,0,0,0-.677-1.406,2.753,2.753,0,0,0-2.188-.844A2.713,2.713,0,0,0,20.932,4.3a5.725,5.725,0,0,0-.853,3.371,5.025,5.025,0,0,0,.9,3.265,2.847,2.847,0,0,0,2.29,1.085,2.619,2.619,0,0,0,2.171-.932,4.047,4.047,0,0,0,.686-1.5h2.681a5.815,5.815,0,0,1-1.8,3.445,5.265,5.265,0,0,1-3.7,1.327,5.588,5.588,0,0,1-4.395-1.793A7.177,7.177,0,0,1,17.311,7.628Zm17.657,4.605a1.985,1.985,0,0,0,1.688-.782,3.639,3.639,0,0,0,.589-2.224,3.619,3.619,0,0,0-.589-2.219,2.224,2.224,0,0,0-3.379,0,3.6,3.6,0,0,0-.593,2.219,3.619,3.619,0,0,0,.593,2.224A2,2,0,0,0,34.968,12.233Zm4.9-3.006a5.553,5.553,0,0,1-1.213,3.608,4.456,4.456,0,0,1-3.683,1.5,4.456,4.456,0,0,1-3.683-1.5,5.553,5.553,0,0,1-1.213-3.608,5.59,5.59,0,0,1,1.213-3.595,4.426,4.426,0,0,1,3.683-1.521A4.426,4.426,0,0,1,38.66,5.633,5.59,5.59,0,0,1,39.873,9.228Zm7.1-5.036a3.7,3.7,0,0,1,2.43.778,3.163,3.163,0,0,1,.945,2.58V14H47.783V8.173a2.659,2.659,0,0,0-.2-1.16,1.422,1.422,0,0,0-1.406-.738,1.744,1.744,0,0,0-1.749,1.081,3.713,3.713,0,0,0-.246,1.459V14h-2.5V4.438H44.1v1.4a4.252,4.252,0,0,1,.914-1.063A3.177,3.177,0,0,1,46.974,4.191Zm7.638,6.75a1.673,1.673,0,0,0,.343.949,2.317,2.317,0,0,0,1.723.5,2.626,2.626,0,0,0,1.173-.22.737.737,0,0,0,.083-1.3,14.3,14.3,0,0,0-2.61-.756A5.437,5.437,0,0,1,53.03,9.1a2.191,2.191,0,0,1-.668-1.723A2.988,2.988,0,0,1,53.4,5.1a4.183,4.183,0,0,1,2.931-.954,5.378,5.378,0,0,1,2.922.716,3.068,3.068,0,0,1,1.3,2.474h-2.5a1.482,1.482,0,0,0-.272-.765,1.714,1.714,0,0,0-1.406-.51,2.021,2.021,0,0,0-1.165.255.734.734,0,0,0-.347.6.654.654,0,0,0,.369.624,15.98,15.98,0,0,0,2.61.694A4.8,4.8,0,0,1,60.079,9.3a2.415,2.415,0,0,1,.738,1.8,2.911,2.911,0,0,1-1.059,2.325,4.976,4.976,0,0,1-3.274.9,4.929,4.929,0,0,1-3.335-.954,3.1,3.1,0,0,1-1.077-2.43ZM65.167,4.42v5.774a3.023,3.023,0,0,0,.193,1.23,1.338,1.338,0,0,0,1.345.729,1.758,1.758,0,0,0,1.758-1.037,3.754,3.754,0,0,0,.246-1.485V4.42h2.54V14H68.815V12.646q-.035.044-.176.264a1.764,1.764,0,0,1-.334.387,3.488,3.488,0,0,1-1.138.721,3.879,3.879,0,0,1-1.288.193,2.87,2.87,0,0,1-2.865-1.529,5.852,5.852,0,0,1-.413-2.487V4.42Zm19.2-.211a3.335,3.335,0,0,1,1.248.246,2.784,2.784,0,0,1,1.116.861,2.752,2.752,0,0,1,.545,1.23,8.5,8.5,0,0,1,.088,1.415L87.351,14H84.785V7.9a2,2,0,0,0-.176-.9,1.249,1.249,0,0,0-1.23-.668,1.44,1.44,0,0,0-1.433.861,2.7,2.7,0,0,0-.2,1.1V14H79.221V8.3a3.2,3.2,0,0,0-.176-1.239,1.227,1.227,0,0,0-1.239-.694,1.479,1.479,0,0,0-1.441.694,2.675,2.675,0,0,0-.2,1.178V14h-2.54V4.438h2.435v1.4a4.031,4.031,0,0,1,.879-1.063A3.478,3.478,0,0,1,80.6,4.692a2.812,2.812,0,0,1,.826,1.151A3.185,3.185,0,0,1,82.649,4.6,3.728,3.728,0,0,1,84.372,4.209Zm9.6,8.024a1.985,1.985,0,0,0,1.688-.782,3.639,3.639,0,0,0,.589-2.224,3.619,3.619,0,0,0-.589-2.219,2.224,2.224,0,0,0-3.379,0,3.6,3.6,0,0,0-.593,2.219,3.619,3.619,0,0,0,.593,2.224A2,2,0,0,0,93.969,12.233Zm4.9-3.006a5.553,5.553,0,0,1-1.213,3.608,5.274,5.274,0,0,1-7.365,0,5.553,5.553,0,0,1-1.213-3.608A5.59,5.59,0,0,1,90.3,5.633a5.22,5.22,0,0,1,7.365,0A5.59,5.59,0,0,1,98.874,9.228Z" transform="translate(1134 3557)" fill="#00223d"/>
      <path id="Trazado_142148" data-name="Trazado 142148" d="M25.075,3.295v3.48h3.067a3.419,3.419,0,0,0,1.371-.211,1.443,1.443,0,0,0,.809-1.459,1.61,1.61,0,0,0-.782-1.582,2.956,2.956,0,0,0-1.318-.229Zm3.709-2.25a5.92,5.92,0,0,1,2.1.334,3.275,3.275,0,0,1,1.244.905,4.011,4.011,0,0,1,.668,1.09,3.552,3.552,0,0,1,.246,1.362,3.881,3.881,0,0,1-.466,1.815,2.6,2.6,0,0,1-1.538,1.261A2.419,2.419,0,0,1,32.3,8.836a4.262,4.262,0,0,1,.374,2.026v.87a6.656,6.656,0,0,0,.07,1.2,1.082,1.082,0,0,0,.492.738V14H30.26q-.123-.431-.176-.694a6.379,6.379,0,0,1-.114-1.116l-.018-1.2A2.353,2.353,0,0,0,29.5,9.333a2.4,2.4,0,0,0-1.63-.413H25.075V14H22.429V1.045ZM38.944,6.23a1.7,1.7,0,0,0-1.349.545,2.72,2.72,0,0,0-.6,1.477h3.894a2.181,2.181,0,0,0-.6-1.507A1.87,1.87,0,0,0,38.944,6.23Zm0-2.065a5.021,5.021,0,0,1,2.153.448,3.772,3.772,0,0,1,1.582,1.415,4.828,4.828,0,0,1,.729,1.978,12.771,12.771,0,0,1,.079,1.9H36.931a2.381,2.381,0,0,0,.905,2.021,2.132,2.132,0,0,0,1.248.36,1.8,1.8,0,0,0,1.257-.439,2.087,2.087,0,0,0,.466-.659h2.558a3.178,3.178,0,0,1-.888,1.731,4.349,4.349,0,0,1-3.445,1.4,4.858,4.858,0,0,1-3.226-1.178,4.75,4.75,0,0,1-1.4-3.832A5.326,5.326,0,0,1,35.67,5.492,4.312,4.312,0,0,1,38.944,4.165Zm8.183,6.776a1.673,1.673,0,0,0,.343.949,2.317,2.317,0,0,0,1.723.5,2.626,2.626,0,0,0,1.173-.22.737.737,0,0,0,.083-1.3,14.3,14.3,0,0,0-2.61-.756A5.437,5.437,0,0,1,45.544,9.1a2.191,2.191,0,0,1-.668-1.723A2.988,2.988,0,0,1,45.918,5.1a4.183,4.183,0,0,1,2.931-.954,5.378,5.378,0,0,1,2.922.716,3.068,3.068,0,0,1,1.3,2.474h-2.5a1.482,1.482,0,0,0-.272-.765,1.714,1.714,0,0,0-1.406-.51,2.021,2.021,0,0,0-1.165.255.734.734,0,0,0-.347.6.654.654,0,0,0,.369.624,15.98,15.98,0,0,0,2.61.694A4.8,4.8,0,0,1,52.593,9.3a2.415,2.415,0,0,1,.738,1.8,2.911,2.911,0,0,1-1.059,2.325,4.976,4.976,0,0,1-3.274.9,4.929,4.929,0,0,1-3.335-.954,3.1,3.1,0,0,1-1.077-2.43ZM57.761,3.277h-2.54V.966h2.54ZM55.221,4.42h2.54V14h-2.54Zm8.5-.229a3.09,3.09,0,0,1,1.547.382,3.043,3.043,0,0,1,1.1,1.059V1.063h2.54V14H66.471V12.673a3.533,3.533,0,0,1-1.222,1.239,3.43,3.43,0,0,1-1.705.387,3.56,3.56,0,0,1-2.826-1.358,5.215,5.215,0,0,1-1.147-3.485A6,6,0,0,1,60.7,5.6,3.674,3.674,0,0,1,63.72,4.191Zm.545,8a1.849,1.849,0,0,0,1.617-.791,3.5,3.5,0,0,0,.554-2.048,3.141,3.141,0,0,0-.888-2.514,1.91,1.91,0,0,0-1.266-.457,1.759,1.759,0,0,0-1.613.831,3.848,3.848,0,0,0-.514,2.061,3.813,3.813,0,0,0,.523,2.123A1.769,1.769,0,0,0,64.265,12.189Zm9.413-7.77v5.774a3.023,3.023,0,0,0,.193,1.23,1.338,1.338,0,0,0,1.345.729,1.758,1.758,0,0,0,1.758-1.037,3.754,3.754,0,0,0,.246-1.485V4.42h2.54V14H77.326V12.646q-.035.044-.176.264a1.764,1.764,0,0,1-.334.387,3.488,3.488,0,0,1-1.138.721,3.879,3.879,0,0,1-1.288.193,2.87,2.87,0,0,1-2.865-1.529,5.852,5.852,0,0,1-.413-2.487V4.42Zm12.8,7.813a1.985,1.985,0,0,0,1.688-.782,3.639,3.639,0,0,0,.589-2.224,3.619,3.619,0,0,0-.589-2.219,2.224,2.224,0,0,0-3.379,0,3.6,3.6,0,0,0-.593,2.219,3.619,3.619,0,0,0,.593,2.224A2,2,0,0,0,86.475,12.233Zm4.9-3.006a5.553,5.553,0,0,1-1.213,3.608,5.274,5.274,0,0,1-7.365,0,5.553,5.553,0,0,1-1.213-3.608A5.59,5.59,0,0,1,82.8,5.633a5.22,5.22,0,0,1,7.365,0A5.59,5.59,0,0,1,91.379,9.228Z" transform="translate(1351 3557)" fill="#00223d"/>
      <g id="Grupo_62844" data-name="Grupo 62844" transform="translate(568.024 3527.013)">
        <rect id="Rectángulo_18748" data-name="Rectángulo 18748" width="99" height="20" transform="translate(-0.025 4.987)" fill="#a0a603"/>
        <path id="Polígono_5" data-name="Polígono 5" d="M15.243,0,30.487,15.243H0Z" transform="translate(111.5) rotate(90)" fill="#a0a603"/>
      </g>
      <g id="Grupo_62845" data-name="Grupo 62845" transform="translate(787.751 3527.013)">
        <rect id="Rectángulo_18748-2" data-name="Rectángulo 18748" width="99" height="20" transform="translate(0.249 4.987)" fill="#0487d9"/>
        <path id="Polígono_5-2" data-name="Polígono 5" d="M15.243,0,30.487,15.243H0Z" transform="translate(111.5) rotate(90)" fill="#0487d9"/>
      </g>
      <g id="Grupo_62846" data-name="Grupo 62846" transform="translate(1022.698 3527.013)">
        <rect id="Rectángulo_18748-3" data-name="Rectángulo 18748" width="99" height="20" transform="translate(0.302 4.987)" fill="#529ad9"/>
        <path id="Polígono_5-3" data-name="Polígono 5" d="M15.243,0,30.487,15.243H0Z" transform="translate(111.5) rotate(90)" fill="#529ad9"/>
      </g>
      <g id="Grupo_63148" data-name="Grupo 63148" transform="translate(1249.698 3527.013)">
        <rect id="Rectángulo_18748-4" data-name="Rectángulo 18748" width="99" height="20" transform="translate(0.302 4.987)" fill="#d9ae79"/>
        <path id="Polígono_5-4" data-name="Polígono 5" d="M15.243,0,30.487,15.243H0Z" transform="translate(111.5) rotate(90)" fill="#d9ae79"/>
      </g>
    </g>
  </g>
</svg>
