<svg xmlns="http://www.w3.org/2000/svg" xmlns:xlink="http://www.w3.org/1999/xlink" width="848.501" height="836.4" viewBox="0 0 848.501 836.4">
  <defs>
    <clipPath id="clip-path">
      <path id="Trazado_141756" data-name="Trazado 141756" d="M1215.415,3440.68V3230.053c-114.952,2.177-207.613,95.439-208.819,210.626Z" transform="translate(-1006.596 -3230.053)" fill="none"/>
    </clipPath>
    <clipPath id="clip-path-2">
      <path id="Trazado_141807" data-name="Trazado 141807" d="M1721.226,3440.738h207.458c-1.2-114.733-93.136-207.717-207.458-210.6Z" transform="translate(-1721.226 -3230.137)" fill="none"/>
    </clipPath>
    <clipPath id="clip-path-3">
      <path id="Trazado_141820" data-name="Trazado 141820" d="M1215.632,3948.855H1006.909c3.536,113.107,95.272,203.977,208.723,206.126Z" transform="translate(-1006.909 -3948.855)" fill="none"/>
    </clipPath>
    <clipPath id="clip-path-4">
      <path id="Trazado_141821" data-name="Trazado 141821" d="M1721.226,3948.855v206.1c112.824-2.845,203.841-93.445,207.363-206.1Z" transform="translate(-1721.226 -3948.855)" fill="none"/>
    </clipPath>
  </defs>
  <g id="Grupo_63860" data-name="Grupo 63860" transform="translate(-503.999 -2849.6)">
    <g id="Grupo_63699" data-name="Grupo 63699" transform="translate(45.5 46)">
      <circle id="Elipse_1949" data-name="Elipse 1949" cx="222" cy="222" r="222" transform="translate(669 2994)" fill="#f2e3d0"/>
      <g id="Grupo_63698" data-name="Grupo 63698" transform="translate(677.241 3003.158)">
        <g id="Grupo_63697" data-name="Grupo 63697" transform="translate(0 0)">
          <g id="Grupo_63696" data-name="Grupo 63696">
            <g id="Grupo_63681" data-name="Grupo 63681">
              <g id="Grupo_63680" data-name="Grupo 63680" clip-path="url(#clip-path)">
                <g id="Grupo_63679" data-name="Grupo 63679" transform="translate(-5.861 -0.647)">
                  <rect id="Rectángulo_19166" data-name="Rectángulo 19166" width="53.678" height="322.068" transform="translate(322.068 161.034) rotate(90)" fill="#ca0c1a"/>
                  <rect id="Rectángulo_19167" data-name="Rectángulo 19167" width="53.678" height="322.068" transform="translate(322.068 107.356) rotate(90)" fill="#002a84"/>
                  <rect id="Rectángulo_19168" data-name="Rectángulo 19168" width="107.356" height="322.068" transform="translate(322.068 0) rotate(90)" fill="#feca0c"/>
                </g>
              </g>
            </g>
            <g id="Grupo_63688" data-name="Grupo 63688" transform="translate(218.401 0.026)">
              <g id="Grupo_63687" data-name="Grupo 63687" clip-path="url(#clip-path-2)">
                <g id="Grupo_63686" data-name="Grupo 63686" transform="translate(-13.802 -4.85)">
                  <g id="Grupo_63684" data-name="Grupo 63684" transform="translate(0)">
                    <g id="Grupo_63682" data-name="Grupo 63682">
                      <rect id="Rectángulo_19169" data-name="Rectángulo 19169" width="412.925" height="16.718" fill="#b01820"/>
                      <rect id="Rectángulo_19170" data-name="Rectángulo 19170" width="412.925" height="16.718" transform="translate(0 200.611)" fill="#b01820"/>
                      <rect id="Rectángulo_19171" data-name="Rectángulo 19171" width="412.925" height="16.718" transform="translate(0 167.176)" fill="#b01820"/>
                      <rect id="Rectángulo_19172" data-name="Rectángulo 19172" width="412.925" height="16.718" transform="translate(0 133.741)" fill="#b01820"/>
                      <rect id="Rectángulo_19173" data-name="Rectángulo 19173" width="412.925" height="16.718" transform="translate(0 100.306)" fill="#b01820"/>
                      <rect id="Rectángulo_19174" data-name="Rectángulo 19174" width="412.925" height="16.718" transform="translate(0 66.87)" fill="#b01820"/>
                      <rect id="Rectángulo_19175" data-name="Rectángulo 19175" width="412.925" height="16.718" transform="translate(0 33.435)" fill="#b01820"/>
                    </g>
                    <g id="Grupo_63683" data-name="Grupo 63683" transform="translate(0 16.718)">
                      <rect id="Rectángulo_19176" data-name="Rectángulo 19176" width="412.925" height="16.718" transform="translate(0 167.176)" fill="#fff"/>
                      <rect id="Rectángulo_19177" data-name="Rectángulo 19177" width="412.925" height="16.718" transform="translate(0 133.741)" fill="#fff"/>
                      <rect id="Rectángulo_19178" data-name="Rectángulo 19178" width="412.925" height="16.718" transform="translate(0 100.306)" fill="#fff"/>
                      <rect id="Rectángulo_19179" data-name="Rectángulo 19179" width="412.925" height="16.718" transform="translate(0 66.87)" fill="#fff"/>
                      <rect id="Rectángulo_19180" data-name="Rectángulo 19180" width="412.925" height="16.718" transform="translate(0 33.435)" fill="#fff"/>
                      <rect id="Rectángulo_19181" data-name="Rectángulo 19181" width="412.925" height="16.718" fill="#fff"/>
                    </g>
                  </g>
                  <rect id="Rectángulo_19182" data-name="Rectángulo 19182" width="165.17" height="117.023" fill="#002a70"/>
                  <g id="Grupo_63685" data-name="Grupo 63685" transform="translate(7.397 5.009)">
                    <path id="Trazado_141757" data-name="Trazado 141757" d="M1706.636,3230.655l-1.5,4.626h-4.864l3.935,2.859-1.5,4.625,3.935-2.858,3.935,2.859-1.5-4.626,3.935-2.859h-4.864Z" transform="translate(-1700.269 -3230.655)" fill="#fff"/>
                    <path id="Trazado_141758" data-name="Trazado 141758" d="M1796.711,3230.655l-1.5,4.626h-4.864l3.935,2.859-1.5,4.625,3.935-2.858,3.935,2.859-1.5-4.626,3.935-2.859h-4.864Z" transform="translate(-1762.816 -3230.655)" fill="#fff"/>
                    <path id="Trazado_141759" data-name="Trazado 141759" d="M1886.787,3230.655l-1.5,4.626h-4.864l3.935,2.859-1.5,4.625,3.935-2.858,3.935,2.859-1.5-4.626,3.935-2.859h-4.864Z" transform="translate(-1825.363 -3230.655)" fill="#fff"/>
                    <path id="Trazado_141760" data-name="Trazado 141760" d="M1976.862,3230.655l-1.5,4.626H1970.5l3.935,2.859-1.5,4.625,3.935-2.858,3.935,2.859-1.5-4.626,3.935-2.859h-4.864Z" transform="translate(-1887.91 -3230.655)" fill="#fff"/>
                    <path id="Trazado_141761" data-name="Trazado 141761" d="M2066.937,3230.655l-1.5,4.626h-4.864l3.935,2.859-1.5,4.625,3.934-2.858,3.935,2.859-1.5-4.626,3.935-2.859h-4.864Z" transform="translate(-1950.457 -3230.655)" fill="#fff"/>
                    <path id="Trazado_141762" data-name="Trazado 141762" d="M2153.078,3242.765l3.935-2.858,3.935,2.859-1.5-4.626,3.935-2.859h-4.864l-1.5-4.626-1.5,4.626h-4.864l3.935,2.859Z" transform="translate(-2013.004 -3230.655)" fill="#fff"/>
                    <path id="Trazado_141763" data-name="Trazado 141763" d="M1706.636,3307.237l-1.5,4.626h-4.864l3.935,2.859-1.5,4.625,3.935-2.859,3.935,2.859-1.5-4.626,3.935-2.859h-4.864Z" transform="translate(-1700.269 -3283.833)" fill="#fff"/>
                    <path id="Trazado_141764" data-name="Trazado 141764" d="M1796.711,3307.237l-1.5,4.626h-4.864l3.935,2.859-1.5,4.625,3.935-2.859,3.935,2.859-1.5-4.626,3.935-2.859h-4.864Z" transform="translate(-1762.816 -3283.833)" fill="#fff"/>
                    <path id="Trazado_141765" data-name="Trazado 141765" d="M1886.787,3307.237l-1.5,4.626h-4.864l3.935,2.859-1.5,4.625,3.935-2.859,3.935,2.859-1.5-4.626,3.935-2.859h-4.864Z" transform="translate(-1825.363 -3283.833)" fill="#fff"/>
                    <path id="Trazado_141766" data-name="Trazado 141766" d="M1976.862,3307.237l-1.5,4.626H1970.5l3.935,2.859-1.5,4.625,3.935-2.859,3.935,2.859-1.5-4.626,3.935-2.859h-4.864Z" transform="translate(-1887.91 -3283.833)" fill="#fff"/>
                    <path id="Trazado_141767" data-name="Trazado 141767" d="M2066.937,3307.237l-1.5,4.626h-4.864l3.935,2.859-1.5,4.625,3.934-2.859,3.935,2.859-1.5-4.626,3.935-2.859h-4.864Z" transform="translate(-1950.457 -3283.833)" fill="#fff"/>
                    <path id="Trazado_141768" data-name="Trazado 141768" d="M2157.012,3307.237l-1.5,4.626h-4.864l3.935,2.859-1.5,4.625,3.935-2.859,3.935,2.859-1.5-4.626,3.935-2.859h-4.864Z" transform="translate(-2013.004 -3283.833)" fill="#fff"/>
                    <path id="Trazado_141769" data-name="Trazado 141769" d="M1706.636,3383.82l-1.5,4.626h-4.864l3.935,2.859-1.5,4.625,3.935-2.858,3.935,2.859-1.5-4.626,3.935-2.859h-4.864Z" transform="translate(-1700.269 -3337.011)" fill="#fff"/>
                    <path id="Trazado_141770" data-name="Trazado 141770" d="M1796.711,3383.82l-1.5,4.626h-4.864l3.935,2.859-1.5,4.625,3.935-2.858,3.935,2.859-1.5-4.626,3.935-2.859h-4.864Z" transform="translate(-1762.816 -3337.011)" fill="#fff"/>
                    <path id="Trazado_141771" data-name="Trazado 141771" d="M1886.787,3383.82l-1.5,4.626h-4.864l3.935,2.859-1.5,4.625,3.935-2.858,3.935,2.859-1.5-4.626,3.935-2.859h-4.864Z" transform="translate(-1825.363 -3337.011)" fill="#fff"/>
                    <path id="Trazado_141772" data-name="Trazado 141772" d="M1976.862,3383.82l-1.5,4.626H1970.5l3.935,2.859-1.5,4.625,3.935-2.858,3.935,2.859-1.5-4.626,3.935-2.859h-4.864Z" transform="translate(-1887.91 -3337.011)" fill="#fff"/>
                    <path id="Trazado_141773" data-name="Trazado 141773" d="M2066.937,3383.82l-1.5,4.626h-4.864l3.935,2.859-1.5,4.625,3.934-2.858,3.935,2.859-1.5-4.626,3.935-2.859h-4.864Z" transform="translate(-1950.457 -3337.011)" fill="#fff"/>
                    <path id="Trazado_141774" data-name="Trazado 141774" d="M2157.012,3383.82l-1.5,4.626h-4.864l3.935,2.859-1.5,4.625,3.935-2.858,3.935,2.859-1.5-4.626,3.935-2.859h-4.864Z" transform="translate(-2013.004 -3337.011)" fill="#fff"/>
                    <path id="Trazado_141775" data-name="Trazado 141775" d="M1706.636,3460.4l-1.5,4.626h-4.864l3.935,2.859-1.5,4.625,3.935-2.859,3.935,2.859-1.5-4.626,3.935-2.859h-4.864Z" transform="translate(-1700.269 -3390.188)" fill="#fff"/>
                    <path id="Trazado_141776" data-name="Trazado 141776" d="M1796.711,3460.4l-1.5,4.626h-4.864l3.935,2.859-1.5,4.625,3.935-2.859,3.935,2.859-1.5-4.626,3.935-2.859h-4.864Z" transform="translate(-1762.816 -3390.188)" fill="#fff"/>
                    <path id="Trazado_141777" data-name="Trazado 141777" d="M1886.787,3460.4l-1.5,4.626h-4.864l3.935,2.859-1.5,4.625,3.935-2.859,3.935,2.859-1.5-4.626,3.935-2.859h-4.864Z" transform="translate(-1825.363 -3390.188)" fill="#fff"/>
                    <path id="Trazado_141778" data-name="Trazado 141778" d="M1976.862,3460.4l-1.5,4.626H1970.5l3.935,2.859-1.5,4.625,3.935-2.859,3.935,2.859-1.5-4.626,3.935-2.859h-4.864Z" transform="translate(-1887.91 -3390.188)" fill="#fff"/>
                    <path id="Trazado_141779" data-name="Trazado 141779" d="M2066.937,3460.4l-1.5,4.626h-4.864l3.935,2.859-1.5,4.625,3.934-2.859,3.935,2.859-1.5-4.626,3.935-2.859h-4.864Z" transform="translate(-1950.457 -3390.188)" fill="#fff"/>
                    <path id="Trazado_141780" data-name="Trazado 141780" d="M2157.012,3460.4l-1.5,4.626h-4.864l3.935,2.859-1.5,4.625,3.935-2.859,3.935,2.859-1.5-4.626,3.935-2.859h-4.864Z" transform="translate(-2013.004 -3390.188)" fill="#fff"/>
                    <path id="Trazado_141781" data-name="Trazado 141781" d="M1708.139,3541.611l-1.5-4.626-1.5,4.626h-4.864l3.935,2.859-1.5,4.625,3.935-2.859,3.935,2.859-1.5-4.626,3.935-2.859Z" transform="translate(-1700.269 -3443.366)" fill="#fff"/>
                    <path id="Trazado_141782" data-name="Trazado 141782" d="M1798.214,3541.611l-1.5-4.626-1.5,4.626h-4.864l3.935,2.859-1.5,4.625,3.935-2.859,3.935,2.859-1.5-4.626,3.935-2.859Z" transform="translate(-1762.816 -3443.366)" fill="#fff"/>
                    <path id="Trazado_141783" data-name="Trazado 141783" d="M1888.29,3541.611l-1.5-4.626-1.5,4.626h-4.864l3.935,2.859-1.5,4.625,3.935-2.859,3.935,2.859-1.5-4.626,3.935-2.859Z" transform="translate(-1825.363 -3443.366)" fill="#fff"/>
                    <path id="Trazado_141784" data-name="Trazado 141784" d="M1978.365,3541.611l-1.5-4.626-1.5,4.626H1970.5l3.935,2.859-1.5,4.625,3.935-2.859,3.935,2.859-1.5-4.626,3.935-2.859Z" transform="translate(-1887.91 -3443.366)" fill="#fff"/>
                    <path id="Trazado_141785" data-name="Trazado 141785" d="M2068.44,3541.611l-1.5-4.626-1.5,4.626h-4.864l3.935,2.859-1.5,4.625,3.934-2.859,3.935,2.859-1.5-4.626,3.935-2.859Z" transform="translate(-1950.457 -3443.366)" fill="#fff"/>
                    <path id="Trazado_141786" data-name="Trazado 141786" d="M2158.515,3541.611l-1.5-4.626-1.5,4.626h-4.864l3.935,2.859-1.5,4.625,3.935-2.859,3.935,2.859-1.5-4.626,3.935-2.859Z" transform="translate(-2013.004 -3443.366)" fill="#fff"/>
                    <path id="Trazado_141787" data-name="Trazado 141787" d="M1751.674,3268.947l-1.5,4.626h-4.864l3.935,2.859-1.5,4.625,3.935-2.859,3.935,2.859-1.5-4.626,3.935-2.859h-4.864Z" transform="translate(-1731.543 -3257.245)" fill="#fff"/>
                    <path id="Trazado_141788" data-name="Trazado 141788" d="M1841.749,3268.947l-1.5,4.626h-4.864l3.935,2.859-1.5,4.625,3.935-2.859,3.935,2.859-1.5-4.626,3.935-2.859h-4.864Z" transform="translate(-1794.09 -3257.245)" fill="#fff"/>
                    <path id="Trazado_141789" data-name="Trazado 141789" d="M1931.824,3268.947l-1.5,4.626h-4.864l3.935,2.859-1.5,4.625,3.934-2.859,3.935,2.859-1.5-4.626,3.935-2.859h-4.864Z" transform="translate(-1856.637 -3257.245)" fill="#fff"/>
                    <path id="Trazado_141790" data-name="Trazado 141790" d="M2021.9,3268.947l-1.5,4.626h-4.864l3.935,2.859-1.5,4.625,3.935-2.859,3.935,2.859-1.5-4.626,3.935-2.859H2023.4Z" transform="translate(-1919.184 -3257.245)" fill="#fff"/>
                    <path id="Trazado_141791" data-name="Trazado 141791" d="M2111.975,3268.947l-1.5,4.626h-4.864l3.935,2.859-1.5,4.625,3.934-2.859,3.935,2.859-1.5-4.626,3.935-2.859h-4.864Z" transform="translate(-1981.731 -3257.245)" fill="#fff"/>
                    <path id="Trazado_141792" data-name="Trazado 141792" d="M1751.674,3345.528l-1.5,4.626h-4.864l3.935,2.859-1.5,4.625,3.935-2.859,3.935,2.859-1.5-4.626,3.935-2.859h-4.864Z" transform="translate(-1731.543 -3310.421)" fill="#fff"/>
                    <path id="Trazado_141793" data-name="Trazado 141793" d="M1841.749,3345.528l-1.5,4.626h-4.864l3.935,2.859-1.5,4.625,3.935-2.859,3.935,2.859-1.5-4.626,3.935-2.859h-4.864Z" transform="translate(-1794.09 -3310.421)" fill="#fff"/>
                    <path id="Trazado_141794" data-name="Trazado 141794" d="M1931.824,3345.528l-1.5,4.626h-4.864l3.935,2.859-1.5,4.625,3.934-2.859,3.935,2.859-1.5-4.626,3.935-2.859h-4.864Z" transform="translate(-1856.637 -3310.421)" fill="#fff"/>
                    <path id="Trazado_141795" data-name="Trazado 141795" d="M2021.9,3345.528l-1.5,4.626h-4.864l3.935,2.859-1.5,4.625,3.935-2.859,3.935,2.859-1.5-4.626,3.935-2.859H2023.4Z" transform="translate(-1919.184 -3310.421)" fill="#fff"/>
                    <path id="Trazado_141796" data-name="Trazado 141796" d="M2111.975,3345.528l-1.5,4.626h-4.864l3.935,2.859-1.5,4.625,3.934-2.859,3.935,2.859-1.5-4.626,3.935-2.859h-4.864Z" transform="translate(-1981.731 -3310.421)" fill="#fff"/>
                    <path id="Trazado_141797" data-name="Trazado 141797" d="M1751.674,3422.111l-1.5,4.626h-4.864l3.935,2.859-1.5,4.625,3.935-2.859,3.935,2.859-1.5-4.626,3.935-2.859h-4.864Z" transform="translate(-1731.543 -3363.599)" fill="#fff"/>
                    <path id="Trazado_141798" data-name="Trazado 141798" d="M1841.749,3422.111l-1.5,4.626h-4.864l3.935,2.859-1.5,4.625,3.935-2.859,3.935,2.859-1.5-4.626,3.935-2.859h-4.864Z" transform="translate(-1794.09 -3363.599)" fill="#fff"/>
                    <path id="Trazado_141799" data-name="Trazado 141799" d="M1931.824,3422.111l-1.5,4.626h-4.864l3.935,2.859-1.5,4.625,3.934-2.859,3.935,2.859-1.5-4.626,3.935-2.859h-4.864Z" transform="translate(-1856.637 -3363.599)" fill="#fff"/>
                    <path id="Trazado_141800" data-name="Trazado 141800" d="M2021.9,3422.111l-1.5,4.626h-4.864l3.935,2.859-1.5,4.625,3.935-2.859,3.935,2.859-1.5-4.626,3.935-2.859H2023.4Z" transform="translate(-1919.184 -3363.599)" fill="#fff"/>
                    <path id="Trazado_141801" data-name="Trazado 141801" d="M2111.975,3422.111l-1.5,4.626h-4.864l3.935,2.859-1.5,4.625,3.934-2.859,3.935,2.859-1.5-4.626,3.935-2.859h-4.864Z" transform="translate(-1981.731 -3363.599)" fill="#fff"/>
                    <path id="Trazado_141802" data-name="Trazado 141802" d="M1753.177,3503.319l-1.5-4.626-1.5,4.626h-4.864l3.935,2.859-1.5,4.625,3.935-2.858,3.935,2.859-1.5-4.625,3.935-2.859Z" transform="translate(-1731.543 -3416.777)" fill="#fff"/>
                    <path id="Trazado_141803" data-name="Trazado 141803" d="M1843.252,3503.319l-1.5-4.626-1.5,4.626h-4.864l3.935,2.859-1.5,4.625,3.935-2.858,3.935,2.859-1.5-4.625,3.935-2.859Z" transform="translate(-1794.09 -3416.777)" fill="#fff"/>
                    <path id="Trazado_141804" data-name="Trazado 141804" d="M1933.327,3503.319l-1.5-4.626-1.5,4.626h-4.864l3.935,2.859-1.5,4.625,3.934-2.858,3.935,2.859-1.5-4.625,3.935-2.859Z" transform="translate(-1856.637 -3416.777)" fill="#fff"/>
                    <path id="Trazado_141805" data-name="Trazado 141805" d="M2023.4,3503.319l-1.5-4.626-1.5,4.626h-4.864l3.935,2.859-1.5,4.625,3.935-2.858,3.935,2.859-1.5-4.625,3.935-2.859Z" transform="translate(-1919.184 -3416.777)" fill="#fff"/>
                    <path id="Trazado_141806" data-name="Trazado 141806" d="M2113.478,3503.319l-1.5-4.626-1.5,4.626h-4.864l3.935,2.859-1.5,4.625,3.934-2.858,3.935,2.859-1.5-4.625,3.935-2.859Z" transform="translate(-1981.731 -3416.777)" fill="#fff"/>
                  </g>
                </g>
              </g>
            </g>
            <g id="Grupo_63692" data-name="Grupo 63692" transform="translate(0.096 219.676)">
              <g id="Grupo_63691" data-name="Grupo 63691" clip-path="url(#clip-path-3)">
                <g id="Grupo_63690" data-name="Grupo 63690" transform="translate(-55.476 -1.651)">
                  <rect id="Rectángulo_19183" data-name="Rectángulo 19183" width="286.256" height="253.404" fill="#039"/>
                  <g id="Grupo_63689" data-name="Grupo 63689" transform="translate(123.874 33.87)">
                    <path id="Trazado_141808" data-name="Trazado 141808" d="M1394.143,4054.278l-1.71,5.264H1386.9l4.478,3.253-1.71,5.263,4.477-3.253,4.478,3.253-1.71-5.263,4.478-3.253h-5.535Z" transform="translate(-1339.167 -4054.278)" fill="#fc0"/>
                    <path id="Trazado_141809" data-name="Trazado 141809" d="M1316.052,4075.2l-1.71,5.264h-5.535l4.478,3.253-1.71,5.263,4.477-3.253,4.478,3.253-1.71-5.263,4.478-3.253h-5.534Z" transform="translate(-1284.941 -4068.808)" fill="#fc0"/>
                    <path id="Trazado_141810" data-name="Trazado 141810" d="M1258.885,4132.369l-1.71,5.264h-5.535l4.478,3.253-1.71,5.263,4.477-3.252,4.478,3.253-1.71-5.264,4.478-3.253H1260.6Z" transform="translate(-1245.246 -4108.503)" fill="#fc0"/>
                    <path id="Trazado_141811" data-name="Trazado 141811" d="M1237.961,4220.987l4.478,3.253-1.71-5.264,4.478-3.253h-5.535l-1.71-5.264-1.71,5.264h-5.535l4.478,3.253-1.71,5.264Z" transform="translate(-1230.716 -4162.728)" fill="#fc0"/>
                    <path id="Trazado_141812" data-name="Trazado 141812" d="M1260.6,4293.814l-1.71-5.264-1.71,5.264h-5.535l4.478,3.253-1.71,5.263,4.477-3.252,4.478,3.252-1.71-5.263,4.478-3.253Z" transform="translate(-1245.246 -4216.954)" fill="#fc0"/>
                    <path id="Trazado_141813" data-name="Trazado 141813" d="M1317.762,4350.98l-1.71-5.264-1.71,5.264h-5.535l4.478,3.254-1.71,5.263,4.477-3.252,4.478,3.253-1.71-5.263,4.478-3.254Z" transform="translate(-1284.941 -4256.649)" fill="#fc0"/>
                    <path id="Trazado_141814" data-name="Trazado 141814" d="M1398.62,4380.981l-4.477-3.253-4.477,3.253,1.71-5.263-4.478-3.253h5.535l1.71-5.265,1.71,5.265h5.535l-4.477,3.253Z" transform="translate(-1339.167 -4271.567)" fill="#fc0"/>
                    <path id="Trazado_141815" data-name="Trazado 141815" d="M1473.944,4350.98l-1.71-5.264-1.71,5.264h-5.535l4.478,3.254-1.71,5.263,4.477-3.252,4.478,3.253-1.71-5.263,4.478-3.254Z" transform="translate(-1393.392 -4256.649)" fill="#fc0"/>
                    <path id="Trazado_141816" data-name="Trazado 141816" d="M1531.11,4293.814l-1.71-5.264-1.71,5.264h-5.535l4.477,3.253-1.71,5.263,4.477-3.252,4.477,3.252-1.71-5.263,4.478-3.253Z" transform="translate(-1433.087 -4216.954)" fill="#fc0"/>
                    <path id="Trazado_141817" data-name="Trazado 141817" d="M1557.569,4215.724h-5.535l-1.71-5.264-1.71,5.264h-5.535l4.478,3.253-1.71,5.264,4.477-3.253,4.478,3.253-1.71-5.264Z" transform="translate(-1447.617 -4162.728)" fill="#fc0"/>
                    <path id="Trazado_141818" data-name="Trazado 141818" d="M1524.923,4146.149l4.477-3.252,4.477,3.253-1.71-5.264,4.478-3.253h-5.535l-1.71-5.264-1.71,5.264h-5.535l4.477,3.253Z" transform="translate(-1433.087 -4108.503)" fill="#fc0"/>
                    <path id="Trazado_141819" data-name="Trazado 141819" d="M1472.234,4075.2l-1.71,5.264h-5.535l4.478,3.253-1.71,5.263,4.477-3.253,4.478,3.253-1.71-5.263,4.478-3.253h-5.535Z" transform="translate(-1393.392 -4068.808)" fill="#fc0"/>
                  </g>
                </g>
              </g>
            </g>
            <g id="Grupo_63695" data-name="Grupo 63695" transform="translate(218.401 219.676)">
              <g id="Grupo_63694" data-name="Grupo 63694" clip-path="url(#clip-path-4)">
                <g id="Grupo_63693" data-name="Grupo 63693" transform="translate(-36.812 -1.651)">
                  <rect id="Rectángulo_19184" data-name="Rectángulo 19184" width="298.585" height="221.462" fill="#fff"/>
                  <circle id="Elipse_1948" data-name="Elipse 1948" cx="47.579" cy="47.579" r="47.579" transform="translate(74.563 44.723)" fill="#c00026"/>
                </g>
              </g>
            </g>
          </g>
        </g>
      </g>
    </g>
    <path id="Trazado_141822" data-name="Trazado 141822" d="M14229.5,1627v210.4h421.1" transform="translate(-13724.5 1222.6)" fill="none" stroke="#6f7302" stroke-width="2" stroke-dasharray="2"/>
    <path id="Trazado_141823" data-name="Trazado 141823" d="M14615,1627v210.4h-385.5" transform="translate(-13263.5 1222.6)" fill="none" stroke="#6f7302" stroke-width="2" stroke-dasharray="2"/>
    <path id="Trazado_141824" data-name="Trazado 141824" d="M14615,1849.4V1627h-385.5" transform="translate(-13263.5 1836.6)" fill="none" stroke="#6f7302" stroke-width="2" stroke-dasharray="2"/>
    <path id="Trazado_141825" data-name="Trazado 141825" d="M14229.5,1849.4V1627h406" transform="translate(-13724.5 1836.6)" fill="none" stroke="#6f7302" stroke-width="2" stroke-dasharray="2"/>
    <circle id="Elipse_1950" data-name="Elipse 1950" cx="8.13" cy="8.13" r="8.13" transform="translate(927.262 3068.523) rotate(180)" fill="#a0a603"/>
    <circle id="Elipse_1951" data-name="Elipse 1951" cx="8.13" cy="8.13" r="8.13" transform="translate(974.262 3068.523) rotate(180)" fill="#a0a603"/>
    <circle id="Elipse_1952" data-name="Elipse 1952" cx="8.13" cy="8.13" r="8.13" transform="translate(974.262 3471.523) rotate(180)" fill="#a0a603"/>
    <circle id="Elipse_1953" data-name="Elipse 1953" cx="8.13" cy="8.13" r="8.13" transform="translate(919.262 3471.523) rotate(180)" fill="#a0a603"/>
  </g>
</svg>
