<svg xmlns="http://www.w3.org/2000/svg" width="214" height="198" viewBox="0 0 214 198">
  <g id="Grupo_63820" data-name="Grupo 63820" transform="translate(-451 -4101.5)">
    <g id="Grupo_62174" data-name="Grupo 62174" transform="translate(-11 2217)">
      <g id="CBD-logo_0" transform="translate(462 1896)" fill="rgba(255,255,255,0.97)" stroke="#c2f3f0" stroke-width="3">
        <rect width="184" height="184" rx="21" stroke="none"/>
        <rect x="1.5" y="1.5" width="181" height="181" rx="19.5" fill="none"/>
      </g>
    </g>
    <line id="Línea_879" data-name="Línea 879" y2="198" transform="translate(663.5 4101.5)" fill="none" stroke="#707070" stroke-width="3" stroke-dasharray="5" opacity="0.5"/>
    <g id="Grupo_62179" data-name="Grupo 62179" transform="translate(763.639 3655.006)">
      <path id="Trazado_138421" data-name="Trazado 138421" d="M-235.542,582.248a25.309,25.309,0,0,0-.969-6.543,4.277,4.277,0,0,0-2.126-2.326,6.739,6.739,0,0,1-2.794-2.772c-.915-1.658-2.739-2.455-4.073-3.749-3.29-3.19-6.711-6.322-8.6-10.522-1.364-3.027-3.194-6.03-3.118-9.544a3.81,3.81,0,0,0-.677-2.081c-.178-.319-.5-.7-.437-.989.49-2.309-.279-4.546-.321-6.819a35.143,35.143,0,0,1,2-10.971,35.071,35.071,0,0,1,2.079-5.727,18.9,18.9,0,0,1,3.665-5.393c1.418-1.351,2.3-3.151,3.871-4.347,1.99-1.512,3.785-3.331,6.344-3.922a1.523,1.523,0,0,0,.7-.259c2.3-2.237,5.388-1.956,8.182-2.6a29.1,29.1,0,0,1,8.5-.351c4.321.3,8.775.667,12.459,3.67,1.435,1.169,2.864,2.316,4.265,3.518,1.985,1.7,2.822,4.291,4.747,5.73,2.006,1.5,2.6,3.723,3.49,5.585.816,1.7,2.035,3.422,2.254,5.475.245,2.29.545,4.561.658,6.879.228,4.644-1.208,8.991-1.9,13.467-.633,4.092-2.539,7.738-4.076,11.526-1.063,2.616-2.153,5.184-4.2,7.116-1.378,1.3-1.587,2.3-.771,4.051.321.689,1.058,2.067.189,3.154,1.553.8.406,2.571,1.205,3.5.653.756.237,1.419.326,2.1a63.307,63.307,0,0,1,.794,8.117c0,1.493-1.339,2.65-2.48,3.624a25.75,25.75,0,0,0-3.1,3.072,3.809,3.809,0,0,1-1.438,1.164,21.994,21.994,0,0,1-8.135,2.234c-4.606.063-9.3-.622-12.966-3.744a7.727,7.727,0,0,1-2.63-6.272c.091-1.279-1.022-2.441-.127-3.757C-234.452,583.064-236.351,583.194-235.542,582.248Zm26.148-8.293a3.991,3.991,0,0,0-.046-2.815c-.375-1.195-1.148-1.728-2.676-1.217a65.65,65.65,0,0,1-8.826,2.292c-3.684.689-7.285,1.79-11.08,1.841-.535.007-1.142.171-1.08,1.006.115,1.526.086,3.075,1.094,4.519,1.359-1.736,3.464-.936,5.208-1.472,4.251-1.311,8.483-2.844,12.963-3.5a30.072,30.072,0,0,1,4.318-.526,2.894,2.894,0,0,1-2.41,1.8,7.2,7.2,0,0,0-2.047.8c-2.866,1.375-6.025,1.735-8.987,2.75a60.376,60.376,0,0,1-7.64,1.64c-1.107.225-1.377.744-1.3,1.716.309,4.117,1.034,4.685,4.99,3.295,3.152-1.106,6.454-1.579,9.639-2.585a28.087,28.087,0,0,1,8.463-1.584c.487,0,1.221-.017,1.063-.761C-208.264,578.744-208.174,576.2-209.394,573.955Zm-19.644-3.473c2.163.564,2.028-.838,1.73-1.916-.939-3.4-1.868-6.814-3.127-10.1-1.078-2.818-2.455-5.533-3.776-8.261-1.1-2.275-1.916-4.644-3.859-6.378-2.8-2.5-2.432-5.444,1.061-6.236,2.5-.567,4.849-1.8,7.489-1.779a7.979,7.979,0,0,0,3.989-1.19c1.927-1.2,3.835-1.229,5.862-1.231a1.05,1.05,0,0,1,1.078.595,9.1,9.1,0,0,1,.626,5.645,46.916,46.916,0,0,0-.758,6.562c-.063,2.9-.531,5.773-.269,8.694.065.732-.23,1.915-.134,2.3.689,2.743.046,5.607.888,8.271.3.95.3,3.086,1.8,2.318,1.709-.874,3.346-.47,4.927-.876,1.68-.43,3.521-1.191,3.5-3.583a1.3,1.3,0,0,1,.922-1.3,1.832,1.832,0,0,0,1.121-1.224c.876-2.564,2.258-4.913,2.906-7.606a31.014,31.014,0,0,1,1.426-4.153c.514-1.281,1.46-2.554.938-4-.442-1.229.065-2.513.231-3.485a28.72,28.72,0,0,1,.754-4.217c.144-.435.941-.2.593-.418-1.094-.687-.639-2.141-.55-2.479.535-2,.531-3.756-.807-5.41a.5.5,0,0,1-.115-.348c.5-3.012-1.7-5.072-2.8-7.465s-3.26-4.267-4.6-6.505c-2.127-3.552-5.446-5.264-8.869-6.706-3.613-1.522-7.647-1.236-11.526-1.241a13.529,13.529,0,0,0-3.377.224,51.436,51.436,0,0,0-7.284,2.386,19.82,19.82,0,0,0-6.368,4.08,55.184,55.184,0,0,0-5.388,6.337,26.351,26.351,0,0,0-4.186,11.505,35.7,35.7,0,0,0,1.4,17.217c.972,2.83,1.952,5.8,3.728,8.077a94.441,94.441,0,0,0,6.917,7.827c2.724,2.794,6.1,4.884,8.531,7.979.24.305.454.6.819.048C-232.463,570.727-230.526,570.989-229.038,570.482Zm6.349-22.7a6.344,6.344,0,0,1-.207-1.57,17.637,17.637,0,0,0,.3-5.919c-.115-.581-.372-1.58.914-1.562.171,0,.3-.759,0-.732-.823.075-1.377-.86-2.427-.226-2.5,1.512-5.432,1.949-8.257,2.355a5.391,5.391,0,0,0-3.113,1.375c-.573.612,1.111.845,1.438,1.58.1.23.353.42.382.648.3,2.41,2.165,4.064,3.039,6.257,1.392,3.5,2.748,7.023,4.174,10.516a54.357,54.357,0,0,1,2.386,7.715c.216.893.492,1.185,1.284,1.073.967-.135.855-.884.845-1.584-.029-1.7-.538-3.38-.639-5.007C-222.886,557.706-222.689,552.68-222.689,547.779Zm5.036,46.072a15.892,15.892,0,0,0,7.028-3.706c1.452-1.272,2.273-3.182,4.193-3.989.447-.187,1.234-1.265.629-1.37-.951-.168-1.546-1.731-2.527-.886-2.407,2.072-5.506,2.376-8.312,3.264a70.542,70.542,0,0,1-10.686,2.069c-.732.111-1.412.821-2.23.333-.278-.166-.53-.686-.888-.124-.271.422.151.658.3.981.965,2.112,3.132,2.273,4.915,3.019C-223.131,594.319-220.889,594.017-217.653,593.851Z" transform="translate(3.553 10.14)" fill="#222f3f"/>
      <path id="Trazado_138422" data-name="Trazado 138422" d="M-244.334,499.793c-.187-2.282-.341-4.856-.646-7.41-.075-.645.225-1.219.067-1.832-.2-.778.521-1.063.849-1.557.233.953,1.57.5,1.851,1.736,1.044,4.609.972,9.375,2.1,13.953.29,1.171-.895,1.658-.994,2.655-.031.314-.864.19-1.1-.207A14.433,14.433,0,0,1-244.334,499.793Z" transform="translate(13.317)" fill="#222f3f"/>
      <path id="Trazado_138423" data-name="Trazado 138423" d="M-252.529,539.761c1.85,3.075.05,5.439-1.448,8.007a12.724,12.724,0,0,0-1.689,4.141c-.225,1.4-1.409,2.15-1.62,3.476-.067.418-.71,1.3-1.383,1.02a1.777,1.777,0,0,1-.921-2.042c.408-1.82.922-3.619,1.459-5.407a35.2,35.2,0,0,1,2.2-5.168C-255.223,542.337-254.464,540.483-252.529,539.761Z" transform="translate(2.858 36.257)" fill="#222f3f"/>
      <path id="Trazado_138424" data-name="Trazado 138424" d="M-219.634,538.356c.636-.288.365-.782.67-1.166a6.073,6.073,0,0,1,1.143,2.27c.441,1.315,1.677,1.738,2.2,2.679a23,23,0,0,1,1.354,2.547c.341.835.35,1.985,1.459,2.386-.441.948.694,1.839.147,2.707-.166.262-.759,1.03-1.361.223-2.746-3.684-6.329-6.762-8.084-11.158-.278-.692-1.123-1.349-.327-2.2a1.922,1.922,0,0,1,1.706-.559C-219.7,536.321-219.713,537.35-219.634,538.356Z" transform="translate(29.192 33.609)" fill="#222f3f"/>
      <path id="Trazado_138425" data-name="Trazado 138425" d="M-245.985,506.836c-1.106-.178-1.928-1.352-2.621-2.455a23.839,23.839,0,0,1-3.483-7.047c-.2-.855-.833-1.625.117-2.335,1.08-.806,1.169.516,1.666.883a15.391,15.391,0,0,1,2.746,4.52c.231.684,1.092.694,1.5,1.548.513,1.075.866,2.237,1.412,3.3C-244,506.519-244.166,506.8-245.985,506.836Z" transform="translate(7.968 4.106)" fill="#222f3f"/>
      <path id="Trazado_138426" data-name="Trazado 138426" d="M-238.365,502.6a39.317,39.317,0,0,1,1.55-8.717c.262-.737.61-1.531,1.64-1.616.8-.069,1.174,0,1.3,1.006.329,2.559-.549,4.911-1.161,7.265-.355,1.364-.23,2.977-1.373,4.105-.291.286-.291.861-.886.845-.828-.024-.5-.737-.645-1.13A13.434,13.434,0,0,1-238.365,502.6Z" transform="translate(18.05 2.322)" fill="#222f3f"/>
      <path id="Trazado_138427" data-name="Trazado 138427" d="M-217.914,532.42c1.733.821,3.49,1.6,5.19,2.48,1.027.531,1.826,1.426,3,1.764.881.252,1.824.912,1.635,1.867-.17.859-.734,1.467-2.146,1.092-2.225-.591-3.924-2.054-5.972-2.876a12.97,12.97,0,0,1-2.21-1.046,1.817,1.817,0,0,1-.957-2.06A1.5,1.5,0,0,1-217.914,532.42Z" transform="translate(31.57 31.014)" fill="#222f3f"/>
      <path id="Trazado_138428" data-name="Trazado 138428" d="M-211.877,530.576a22.248,22.248,0,0,1-5.936.567c-1.659.022-1.428-1.654-2.011-2.515-.286-.423.883-.754,1.57-.835,2.82-.329,5.636-.845,8.437.146.458.161,1.015.067,1.154.744a.988.988,0,0,1-.843,1.205C-210.318,530.065-210.713,531.412-211.877,530.576Z" transform="translate(31.26 27.402)" fill="#222f3f"/>
      <path id="Trazado_138429" data-name="Trazado 138429" d="M-256.469,537.254a1.889,1.889,0,0,1,.437.005c.507.144,1.31-.691,1.46.1.13.674-.329,2.088-.626,2.115-1.822.168-2.386,1.968-3.166,2.9-1.1,1.308-2.815,1.539-3.687,2.914-.226.357-.96.31-.9.068.178-.7-1.059-.607-.576-1.51,1.378-2.568,3.708-4.251,5.588-6.348A1.062,1.062,0,0,1-256.469,537.254Z" transform="translate(0 34.293)" fill="#222f3f"/>
    </g>
  </g>
</svg>
